<?xml version="1.0" encoding="utf-8" standalone="no"?>
<!DOCTYPE svg PUBLIC "-//W3C//DTD SVG 1.1//EN"
  "http://www.w3.org/Graphics/SVG/1.1/DTD/svg11.dtd">
<svg xmlns:xlink="http://www.w3.org/1999/xlink" width="460.8pt" height="345.6pt" viewBox="0 0 460.8 345.6" xmlns="http://www.w3.org/2000/svg" version="1.1">
 <metadata>
  <rdf:RDF xmlns:dc="http://purl.org/dc/elements/1.1/" xmlns:cc="http://creativecommons.org/ns#" xmlns:rdf="http://www.w3.org/1999/02/22-rdf-syntax-ns#">
   <cc:Work>
    <dc:type rdf:resource="http://purl.org/dc/dcmitype/StillImage"/>
    <dc:date>2024-09-14T16:27:59.948887</dc:date>
    <dc:format>image/svg+xml</dc:format>
    <dc:creator>
     <cc:Agent>
      <dc:title>Matplotlib v3.9.2, https://matplotlib.org/</dc:title>
     </cc:Agent>
    </dc:creator>
   </cc:Work>
  </rdf:RDF>
 </metadata>
 <defs>
  <style type="text/css">*{stroke-linejoin: round; stroke-linecap: butt}</style>
 </defs>
 <g id="figure_1">
  <g id="patch_1">
   <path d="M 0 345.6 
L 460.8 345.6 
L 460.8 0 
L 0 0 
z
" style="fill: #ffffff"/>
  </g>
  <g id="axes_1">
   <g id="patch_2">
    <path d="M 57.6 307.584 
L 414.72 307.584 
L 414.72 41.472 
L 57.6 41.472 
z
" style="fill: #ffffff"/>
   </g>
   <g id="matplotlib.axis_1">
    <g id="xtick_1">
     <g id="line2d_1">
      <defs>
       <path id="ma171728aba" d="M 0 0 
L 0 3.5 
" style="stroke: #000000; stroke-width: 0.8"/>
      </defs>
      <g>
       <use xlink:href="#ma171728aba" x="73.832727" y="307.584" style="stroke: #000000; stroke-width: 0.8"/>
      </g>
     </g>
     <g id="text_1">
      <!-- 0 -->
      <g transform="translate(70.651477 322.182437) scale(0.1 -0.1)">
       <defs>
        <path id="DejaVuSans-30" d="M 2034 4250 
Q 1547 4250 1301 3770 
Q 1056 3291 1056 2328 
Q 1056 1369 1301 889 
Q 1547 409 2034 409 
Q 2525 409 2770 889 
Q 3016 1369 3016 2328 
Q 3016 3291 2770 3770 
Q 2525 4250 2034 4250 
z
M 2034 4750 
Q 2819 4750 3233 4129 
Q 3647 3509 3647 2328 
Q 3647 1150 3233 529 
Q 2819 -91 2034 -91 
Q 1250 -91 836 529 
Q 422 1150 422 2328 
Q 422 3509 836 4129 
Q 1250 4750 2034 4750 
z
" transform="scale(0.015625)"/>
       </defs>
       <use xlink:href="#DejaVuSans-30"/>
      </g>
     </g>
    </g>
    <g id="xtick_2">
     <g id="line2d_2">
      <g>
       <use xlink:href="#ma171728aba" x="140.278602" y="307.584" style="stroke: #000000; stroke-width: 0.8"/>
      </g>
     </g>
     <g id="text_2">
      <!-- 5000 -->
      <g transform="translate(127.553602 322.182437) scale(0.1 -0.1)">
       <defs>
        <path id="DejaVuSans-35" d="M 691 4666 
L 3169 4666 
L 3169 4134 
L 1269 4134 
L 1269 2991 
Q 1406 3038 1543 3061 
Q 1681 3084 1819 3084 
Q 2600 3084 3056 2656 
Q 3513 2228 3513 1497 
Q 3513 744 3044 326 
Q 2575 -91 1722 -91 
Q 1428 -91 1123 -41 
Q 819 9 494 109 
L 494 744 
Q 775 591 1075 516 
Q 1375 441 1709 441 
Q 2250 441 2565 725 
Q 2881 1009 2881 1497 
Q 2881 1984 2565 2268 
Q 2250 2553 1709 2553 
Q 1456 2553 1204 2497 
Q 953 2441 691 2322 
L 691 4666 
z
" transform="scale(0.015625)"/>
       </defs>
       <use xlink:href="#DejaVuSans-35"/>
       <use xlink:href="#DejaVuSans-30" x="63.623047"/>
       <use xlink:href="#DejaVuSans-30" x="127.246094"/>
       <use xlink:href="#DejaVuSans-30" x="190.869141"/>
      </g>
     </g>
    </g>
    <g id="xtick_3">
     <g id="line2d_3">
      <g>
       <use xlink:href="#ma171728aba" x="206.724477" y="307.584" style="stroke: #000000; stroke-width: 0.8"/>
      </g>
     </g>
     <g id="text_3">
      <!-- 10000 -->
      <g transform="translate(190.818227 322.182437) scale(0.1 -0.1)">
       <defs>
        <path id="DejaVuSans-31" d="M 794 531 
L 1825 531 
L 1825 4091 
L 703 3866 
L 703 4441 
L 1819 4666 
L 2450 4666 
L 2450 531 
L 3481 531 
L 3481 0 
L 794 0 
L 794 531 
z
" transform="scale(0.015625)"/>
       </defs>
       <use xlink:href="#DejaVuSans-31"/>
       <use xlink:href="#DejaVuSans-30" x="63.623047"/>
       <use xlink:href="#DejaVuSans-30" x="127.246094"/>
       <use xlink:href="#DejaVuSans-30" x="190.869141"/>
       <use xlink:href="#DejaVuSans-30" x="254.492188"/>
      </g>
     </g>
    </g>
    <g id="xtick_4">
     <g id="line2d_4">
      <g>
       <use xlink:href="#ma171728aba" x="273.170352" y="307.584" style="stroke: #000000; stroke-width: 0.8"/>
      </g>
     </g>
     <g id="text_4">
      <!-- 15000 -->
      <g transform="translate(257.264102 322.182437) scale(0.1 -0.1)">
       <use xlink:href="#DejaVuSans-31"/>
       <use xlink:href="#DejaVuSans-35" x="63.623047"/>
       <use xlink:href="#DejaVuSans-30" x="127.246094"/>
       <use xlink:href="#DejaVuSans-30" x="190.869141"/>
       <use xlink:href="#DejaVuSans-30" x="254.492188"/>
      </g>
     </g>
    </g>
    <g id="xtick_5">
     <g id="line2d_5">
      <g>
       <use xlink:href="#ma171728aba" x="339.616227" y="307.584" style="stroke: #000000; stroke-width: 0.8"/>
      </g>
     </g>
     <g id="text_5">
      <!-- 20000 -->
      <g transform="translate(323.709977 322.182437) scale(0.1 -0.1)">
       <defs>
        <path id="DejaVuSans-32" d="M 1228 531 
L 3431 531 
L 3431 0 
L 469 0 
L 469 531 
Q 828 903 1448 1529 
Q 2069 2156 2228 2338 
Q 2531 2678 2651 2914 
Q 2772 3150 2772 3378 
Q 2772 3750 2511 3984 
Q 2250 4219 1831 4219 
Q 1534 4219 1204 4116 
Q 875 4013 500 3803 
L 500 4441 
Q 881 4594 1212 4672 
Q 1544 4750 1819 4750 
Q 2544 4750 2975 4387 
Q 3406 4025 3406 3419 
Q 3406 3131 3298 2873 
Q 3191 2616 2906 2266 
Q 2828 2175 2409 1742 
Q 1991 1309 1228 531 
z
" transform="scale(0.015625)"/>
       </defs>
       <use xlink:href="#DejaVuSans-32"/>
       <use xlink:href="#DejaVuSans-30" x="63.623047"/>
       <use xlink:href="#DejaVuSans-30" x="127.246094"/>
       <use xlink:href="#DejaVuSans-30" x="190.869141"/>
       <use xlink:href="#DejaVuSans-30" x="254.492188"/>
      </g>
     </g>
    </g>
    <g id="xtick_6">
     <g id="line2d_6">
      <g>
       <use xlink:href="#ma171728aba" x="406.062102" y="307.584" style="stroke: #000000; stroke-width: 0.8"/>
      </g>
     </g>
     <g id="text_6">
      <!-- 25000 -->
      <g transform="translate(390.155852 322.182437) scale(0.1 -0.1)">
       <use xlink:href="#DejaVuSans-32"/>
       <use xlink:href="#DejaVuSans-35" x="63.623047"/>
       <use xlink:href="#DejaVuSans-30" x="127.246094"/>
       <use xlink:href="#DejaVuSans-30" x="190.869141"/>
       <use xlink:href="#DejaVuSans-30" x="254.492188"/>
      </g>
     </g>
    </g>
   </g>
   <g id="matplotlib.axis_2">
    <g id="ytick_1">
     <g id="line2d_7">
      <defs>
       <path id="m99904e03fa" d="M 0 0 
L -3.5 0 
" style="stroke: #000000; stroke-width: 0.8"/>
      </defs>
      <g>
       <use xlink:href="#m99904e03fa" x="57.6" y="295.488" style="stroke: #000000; stroke-width: 0.8"/>
      </g>
     </g>
     <g id="text_7">
      <!-- 0.0 -->
      <g transform="translate(34.696875 299.287219) scale(0.1 -0.1)">
       <defs>
        <path id="DejaVuSans-2e" d="M 684 794 
L 1344 794 
L 1344 0 
L 684 0 
L 684 794 
z
" transform="scale(0.015625)"/>
       </defs>
       <use xlink:href="#DejaVuSans-30"/>
       <use xlink:href="#DejaVuSans-2e" x="63.623047"/>
       <use xlink:href="#DejaVuSans-30" x="95.410156"/>
      </g>
     </g>
    </g>
    <g id="ytick_2">
     <g id="line2d_8">
      <g>
       <use xlink:href="#m99904e03fa" x="57.6" y="247.104" style="stroke: #000000; stroke-width: 0.8"/>
      </g>
     </g>
     <g id="text_8">
      <!-- 0.2 -->
      <g transform="translate(34.696875 250.903219) scale(0.1 -0.1)">
       <use xlink:href="#DejaVuSans-30"/>
       <use xlink:href="#DejaVuSans-2e" x="63.623047"/>
       <use xlink:href="#DejaVuSans-32" x="95.410156"/>
      </g>
     </g>
    </g>
    <g id="ytick_3">
     <g id="line2d_9">
      <g>
       <use xlink:href="#m99904e03fa" x="57.6" y="198.72" style="stroke: #000000; stroke-width: 0.8"/>
      </g>
     </g>
     <g id="text_9">
      <!-- 0.4 -->
      <g transform="translate(34.696875 202.519219) scale(0.1 -0.1)">
       <defs>
        <path id="DejaVuSans-34" d="M 2419 4116 
L 825 1625 
L 2419 1625 
L 2419 4116 
z
M 2253 4666 
L 3047 4666 
L 3047 1625 
L 3713 1625 
L 3713 1100 
L 3047 1100 
L 3047 0 
L 2419 0 
L 2419 1100 
L 313 1100 
L 313 1709 
L 2253 4666 
z
" transform="scale(0.015625)"/>
       </defs>
       <use xlink:href="#DejaVuSans-30"/>
       <use xlink:href="#DejaVuSans-2e" x="63.623047"/>
       <use xlink:href="#DejaVuSans-34" x="95.410156"/>
      </g>
     </g>
    </g>
    <g id="ytick_4">
     <g id="line2d_10">
      <g>
       <use xlink:href="#m99904e03fa" x="57.6" y="150.336" style="stroke: #000000; stroke-width: 0.8"/>
      </g>
     </g>
     <g id="text_10">
      <!-- 0.6 -->
      <g transform="translate(34.696875 154.135219) scale(0.1 -0.1)">
       <defs>
        <path id="DejaVuSans-36" d="M 2113 2584 
Q 1688 2584 1439 2293 
Q 1191 2003 1191 1497 
Q 1191 994 1439 701 
Q 1688 409 2113 409 
Q 2538 409 2786 701 
Q 3034 994 3034 1497 
Q 3034 2003 2786 2293 
Q 2538 2584 2113 2584 
z
M 3366 4563 
L 3366 3988 
Q 3128 4100 2886 4159 
Q 2644 4219 2406 4219 
Q 1781 4219 1451 3797 
Q 1122 3375 1075 2522 
Q 1259 2794 1537 2939 
Q 1816 3084 2150 3084 
Q 2853 3084 3261 2657 
Q 3669 2231 3669 1497 
Q 3669 778 3244 343 
Q 2819 -91 2113 -91 
Q 1303 -91 875 529 
Q 447 1150 447 2328 
Q 447 3434 972 4092 
Q 1497 4750 2381 4750 
Q 2619 4750 2861 4703 
Q 3103 4656 3366 4563 
z
" transform="scale(0.015625)"/>
       </defs>
       <use xlink:href="#DejaVuSans-30"/>
       <use xlink:href="#DejaVuSans-2e" x="63.623047"/>
       <use xlink:href="#DejaVuSans-36" x="95.410156"/>
      </g>
     </g>
    </g>
    <g id="ytick_5">
     <g id="line2d_11">
      <g>
       <use xlink:href="#m99904e03fa" x="57.6" y="101.952" style="stroke: #000000; stroke-width: 0.8"/>
      </g>
     </g>
     <g id="text_11">
      <!-- 0.8 -->
      <g transform="translate(34.696875 105.751219) scale(0.1 -0.1)">
       <defs>
        <path id="DejaVuSans-38" d="M 2034 2216 
Q 1584 2216 1326 1975 
Q 1069 1734 1069 1313 
Q 1069 891 1326 650 
Q 1584 409 2034 409 
Q 2484 409 2743 651 
Q 3003 894 3003 1313 
Q 3003 1734 2745 1975 
Q 2488 2216 2034 2216 
z
M 1403 2484 
Q 997 2584 770 2862 
Q 544 3141 544 3541 
Q 544 4100 942 4425 
Q 1341 4750 2034 4750 
Q 2731 4750 3128 4425 
Q 3525 4100 3525 3541 
Q 3525 3141 3298 2862 
Q 3072 2584 2669 2484 
Q 3125 2378 3379 2068 
Q 3634 1759 3634 1313 
Q 3634 634 3220 271 
Q 2806 -91 2034 -91 
Q 1263 -91 848 271 
Q 434 634 434 1313 
Q 434 1759 690 2068 
Q 947 2378 1403 2484 
z
M 1172 3481 
Q 1172 3119 1398 2916 
Q 1625 2713 2034 2713 
Q 2441 2713 2670 2916 
Q 2900 3119 2900 3481 
Q 2900 3844 2670 4047 
Q 2441 4250 2034 4250 
Q 1625 4250 1398 4047 
Q 1172 3844 1172 3481 
z
" transform="scale(0.015625)"/>
       </defs>
       <use xlink:href="#DejaVuSans-30"/>
       <use xlink:href="#DejaVuSans-2e" x="63.623047"/>
       <use xlink:href="#DejaVuSans-38" x="95.410156"/>
      </g>
     </g>
    </g>
    <g id="ytick_6">
     <g id="line2d_12">
      <g>
       <use xlink:href="#m99904e03fa" x="57.6" y="53.568" style="stroke: #000000; stroke-width: 0.8"/>
      </g>
     </g>
     <g id="text_12">
      <!-- 1.0 -->
      <g transform="translate(34.696875 57.367219) scale(0.1 -0.1)">
       <use xlink:href="#DejaVuSans-31"/>
       <use xlink:href="#DejaVuSans-2e" x="63.623047"/>
       <use xlink:href="#DejaVuSans-30" x="95.410156"/>
      </g>
     </g>
    </g>
   </g>
   <g id="line2d_13">
    <path d="M 73.832727 295.488 
L 73.859306 295.488 
L 73.978908 53.568 
L 74.005487 53.568 
L 74.125089 295.488 
L 74.164957 295.488 
L 74.284559 53.568 
L 74.616789 53.568 
L 74.736391 295.488 
L 74.895861 295.488 
L 75.015464 53.568 
L 75.135066 295.488 
L 75.254669 53.568 
L 75.374272 295.488 
L 75.480585 53.568 
L 75.600188 295.488 
L 75.626766 295.488 
L 75.706501 53.568 
L 75.733079 295.488 
L 75.799525 295.488 
L 75.919128 53.568 
L 76.03873 295.488 
L 76.078598 53.568 
L 76.145044 295.488 
L 76.184911 295.488 
L 76.304514 53.568 
L 76.37096 53.568 
L 76.477273 295.488 
L 76.517141 53.568 
L 76.583586 295.488 
L 76.596876 295.488 
L 76.610165 53.568 
L 76.703189 295.488 
L 76.716478 295.488 
L 76.836081 53.568 
L 76.84937 53.568 
L 76.968973 295.488 
L 76.982262 295.488 
L 77.061997 53.568 
L 77.088575 295.488 
L 77.155021 295.488 
L 77.274624 53.568 
L 77.394226 295.488 
L 77.434094 53.568 
L 77.50054 295.488 
L 77.540407 295.488 
L 77.66001 53.568 
L 77.726456 53.568 
L 77.832769 295.488 
L 77.872636 53.568 
L 77.939082 295.488 
L 77.952372 295.488 
L 77.965661 53.568 
L 78.058685 295.488 
L 78.071974 295.488 
L 78.191577 53.568 
L 78.204866 53.568 
L 78.324468 295.488 
L 78.337758 295.488 
L 78.417493 53.568 
L 78.444071 295.488 
L 78.576963 295.488 
L 78.696565 53.568 
L 78.802879 295.488 
L 78.922481 53.568 
L 78.93577 53.568 
L 78.94906 295.488 
L 79.042084 53.568 
L 79.068662 53.568 
L 79.188265 295.488 
L 79.307867 53.568 
L 79.321157 53.568 
L 79.440759 295.488 
L 79.533783 295.488 
L 79.653386 53.568 
L 79.719832 53.568 
L 79.826145 295.488 
L 79.866013 53.568 
L 79.932459 295.488 
L 79.945748 295.488 
L 79.959037 53.568 
L 80.052061 295.488 
L 80.06535 295.488 
L 80.184953 53.568 
L 80.198242 53.568 
L 80.317845 295.488 
L 80.331134 295.488 
L 80.410869 53.568 
L 80.437447 295.488 
L 80.503893 295.488 
L 80.623496 53.568 
L 80.743098 295.488 
L 80.782966 53.568 
L 80.849412 295.488 
L 80.889279 295.488 
L 81.008882 53.568 
L 81.075328 53.568 
L 81.181641 295.488 
L 81.221509 53.568 
L 81.287954 295.488 
L 81.301244 295.488 
L 81.314533 53.568 
L 81.407557 295.488 
L 81.420846 295.488 
L 81.540449 53.568 
L 81.553738 53.568 
L 81.673341 295.488 
L 81.68663 295.488 
L 81.766365 53.568 
L 81.792943 295.488 
L 81.859389 295.488 
L 81.978992 53.568 
L 82.098594 295.488 
L 82.138462 53.568 
L 82.204908 295.488 
L 82.244775 295.488 
L 82.351088 53.568 
L 82.470691 295.488 
L 82.537137 53.568 
L 82.577004 295.488 
L 82.616872 295.488 
L 82.736475 53.568 
L 82.856077 53.568 
L 82.97568 295.488 
L 83.055415 53.568 
L 83.081993 295.488 
L 83.108571 295.488 
L 83.214885 53.568 
L 83.334487 295.488 
L 83.414222 295.488 
L 83.533825 53.568 
L 83.547114 53.568 
L 83.666717 295.488 
L 83.680006 295.488 
L 83.759741 53.568 
L 83.786319 295.488 
L 83.852765 295.488 
L 83.972368 53.568 
L 84.09197 295.488 
L 84.131838 53.568 
L 84.198284 295.488 
L 84.238151 295.488 
L 84.357754 53.568 
L 84.4242 53.568 
L 84.530513 295.488 
L 84.570381 53.568 
L 84.636827 295.488 
L 84.650116 295.488 
L 84.663405 53.568 
L 84.756429 295.488 
L 84.769718 295.488 
L 84.889321 53.568 
L 84.90261 53.568 
L 85.022213 295.488 
L 85.035502 295.488 
L 85.115237 53.568 
L 85.141815 295.488 
L 85.208261 295.488 
L 85.327864 53.568 
L 85.447466 295.488 
L 85.487334 53.568 
L 85.55378 295.488 
L 85.593647 295.488 
L 85.71325 53.568 
L 85.779696 53.568 
L 85.886009 295.488 
L 85.925877 53.568 
L 85.992322 295.488 
L 86.005612 295.488 
L 86.018901 53.568 
L 86.111925 295.488 
L 86.138503 295.488 
L 86.151793 53.568 
L 86.244817 295.488 
L 86.284684 295.488 
L 86.324552 53.568 
L 86.390998 295.488 
L 86.404287 295.488 
L 86.497311 53.568 
L 86.5106 295.488 
L 86.523889 295.488 
L 86.643492 53.568 
L 86.656781 53.568 
L 86.776384 295.488 
L 86.895986 53.568 
L 87.015589 295.488 
L 87.028878 295.488 
L 87.108613 53.568 
L 87.135191 295.488 
L 87.201637 295.488 
L 87.32124 53.568 
L 87.440842 295.488 
L 87.48071 53.568 
L 87.547156 295.488 
L 87.587023 295.488 
L 87.706626 53.568 
L 87.773072 53.568 
L 87.879385 295.488 
L 87.919253 53.568 
L 87.985699 295.488 
L 87.998988 295.488 
L 88.012277 53.568 
L 88.105301 295.488 
L 88.11859 295.488 
L 88.238193 53.568 
L 88.251482 53.568 
L 88.371085 295.488 
L 88.384374 295.488 
L 88.464109 53.568 
L 88.490687 295.488 
L 88.557133 295.488 
L 88.676736 53.568 
L 88.796338 295.488 
L 88.836206 53.568 
L 88.902652 295.488 
L 88.942519 295.488 
L 89.062122 53.568 
L 89.128568 53.568 
L 89.234881 295.488 
L 89.274749 53.568 
L 89.341195 295.488 
L 89.354484 295.488 
L 89.367773 53.568 
L 89.460797 295.488 
L 89.474086 295.488 
L 89.593689 53.568 
L 89.606978 53.568 
L 89.726581 295.488 
L 89.73987 295.488 
L 89.819605 53.568 
L 89.846183 295.488 
L 89.979075 295.488 
L 90.098677 53.568 
L 90.204991 295.488 
L 90.324593 53.568 
L 90.337883 53.568 
L 90.351172 295.488 
L 90.444196 53.568 
L 90.470774 53.568 
L 90.590377 295.488 
L 90.69669 53.568 
L 90.816293 295.488 
L 90.829582 53.568 
L 90.922606 295.488 
L 90.935896 295.488 
L 91.055498 53.568 
L 91.121944 53.568 
L 91.228257 295.488 
L 91.268125 53.568 
L 91.334571 295.488 
L 91.34786 295.488 
L 91.361149 53.568 
L 91.454173 295.488 
L 91.467463 295.488 
L 91.587065 53.568 
L 91.600354 53.568 
L 91.719957 295.488 
L 91.733246 295.488 
L 91.812981 53.568 
L 91.839559 295.488 
L 91.906005 295.488 
L 92.025608 53.568 
L 92.14521 295.488 
L 92.185078 53.568 
L 92.251524 295.488 
L 92.291391 295.488 
L 92.410994 53.568 
L 92.47744 53.568 
L 92.583753 295.488 
L 92.623621 53.568 
L 92.690067 295.488 
L 92.703356 295.488 
L 92.716645 53.568 
L 92.809669 295.488 
L 92.822958 295.488 
L 92.942561 53.568 
L 92.95585 53.568 
L 93.075453 295.488 
L 93.088742 295.488 
L 93.168477 53.568 
L 93.195055 295.488 
L 93.261501 295.488 
L 93.381104 53.568 
L 93.500706 295.488 
L 93.540574 53.568 
L 93.60702 295.488 
L 93.646887 295.488 
L 93.753201 53.568 
L 93.872803 295.488 
L 93.939249 53.568 
L 93.979117 295.488 
L 94.364503 295.488 
L 94.484105 53.568 
L 94.56384 53.568 
L 94.577129 295.488 
L 94.670154 53.568 
L 94.710021 53.568 
L 94.816335 295.488 
L 94.935937 53.568 
L 94.949226 53.568 
L 95.068829 295.488 
L 95.161853 295.488 
L 95.281456 53.568 
L 95.347902 53.568 
L 95.454215 295.488 
L 95.494083 53.568 
L 95.560528 295.488 
L 95.573818 295.488 
L 95.587107 53.568 
L 95.680131 295.488 
L 95.69342 295.488 
L 95.813023 53.568 
L 95.826312 53.568 
L 95.945914 295.488 
L 95.959204 295.488 
L 96.038939 53.568 
L 96.065517 295.488 
L 96.131963 295.488 
L 96.251566 53.568 
L 96.371168 295.488 
L 96.411036 53.568 
L 96.477481 295.488 
L 96.517349 295.488 
L 96.636952 53.568 
L 96.703397 53.568 
L 96.809711 295.488 
L 96.849578 53.568 
L 96.916024 295.488 
L 96.929313 295.488 
L 96.942603 53.568 
L 97.035627 295.488 
L 97.062205 295.488 
L 97.075494 53.568 
L 97.168519 295.488 
L 97.208386 295.488 
L 97.248254 53.568 
L 97.3147 295.488 
L 97.327989 295.488 
L 97.421013 53.568 
L 97.434302 295.488 
L 97.46088 295.488 
L 97.580483 53.568 
L 97.700086 295.488 
L 97.819688 53.568 
L 97.939291 295.488 
L 97.95258 295.488 
L 98.032315 53.568 
L 98.058893 295.488 
L 98.125339 295.488 
L 98.244942 53.568 
L 98.364544 295.488 
L 98.404412 53.568 
L 98.470858 295.488 
L 98.510725 295.488 
L 98.630328 53.568 
L 98.696774 53.568 
L 98.803087 295.488 
L 98.842955 53.568 
L 98.909401 295.488 
L 98.92269 295.488 
L 98.935979 53.568 
L 99.029003 295.488 
L 99.042292 295.488 
L 99.161895 53.568 
L 99.175184 53.568 
L 99.294787 295.488 
L 99.308076 295.488 
L 99.387811 53.568 
L 99.414389 295.488 
L 99.480835 295.488 
L 99.600438 53.568 
L 99.72004 295.488 
L 99.759908 53.568 
L 99.826354 295.488 
L 99.866221 295.488 
L 99.972535 53.568 
L 100.092137 295.488 
L 100.158583 53.568 
L 100.19845 295.488 
L 100.238318 295.488 
L 100.357921 53.568 
L 100.477523 53.568 
L 100.597126 295.488 
L 100.676861 53.568 
L 100.703439 295.488 
L 100.730017 295.488 
L 100.836331 53.568 
L 100.955933 295.488 
L 101.048958 295.488 
L 101.16856 53.568 
L 101.288163 295.488 
L 101.301452 295.488 
L 101.381187 53.568 
L 101.407765 295.488 
L 101.474211 295.488 
L 101.593814 53.568 
L 101.713416 295.488 
L 101.753284 53.568 
L 101.81973 295.488 
L 101.859597 295.488 
L 101.9792 53.568 
L 102.045646 53.568 
L 102.151959 295.488 
L 102.191827 53.568 
L 102.258273 295.488 
L 102.271562 295.488 
L 102.284851 53.568 
L 102.377875 295.488 
L 102.391164 295.488 
L 102.510767 53.568 
L 102.524056 53.568 
L 102.643659 295.488 
L 102.656948 295.488 
L 102.736683 53.568 
L 102.763261 295.488 
L 102.896153 295.488 
L 103.015756 53.568 
L 103.122069 295.488 
L 103.241672 53.568 
L 103.254961 53.568 
L 103.26825 295.488 
L 103.361274 53.568 
L 103.387852 53.568 
L 103.507455 295.488 
L 103.58719 53.568 
L 103.613768 295.488 
L 103.627058 295.488 
L 103.74666 53.568 
L 103.852974 295.488 
L 103.972576 53.568 
L 104.07889 295.488 
L 104.185203 53.568 
L 104.304806 295.488 
L 104.384541 295.488 
L 104.504143 53.568 
L 104.517432 53.568 
L 104.637035 295.488 
L 104.650324 295.488 
L 104.730059 53.568 
L 104.756638 295.488 
L 104.823083 295.488 
L 104.942686 53.568 
L 105.062289 295.488 
L 105.102156 53.568 
L 105.168602 295.488 
L 105.208469 295.488 
L 105.328072 53.568 
L 105.394518 53.568 
L 105.500831 295.488 
L 105.540699 53.568 
L 105.607145 295.488 
L 105.620434 295.488 
L 105.633723 53.568 
L 105.726747 295.488 
L 105.753326 295.488 
L 105.766615 53.568 
L 105.859639 295.488 
L 105.899507 295.488 
L 105.939374 53.568 
L 106.00582 295.488 
L 106.338049 295.488 
L 106.351339 53.568 
L 106.444363 295.488 
L 106.457652 295.488 
L 106.577254 53.568 
L 106.696857 53.568 
L 106.81646 295.488 
L 106.909484 53.568 
L 106.922773 295.488 
L 106.949351 295.488 
L 107.055665 53.568 
L 107.175267 295.488 
L 107.255002 295.488 
L 107.374605 53.568 
L 107.387894 53.568 
L 107.507497 295.488 
L 107.520786 295.488 
L 107.600521 53.568 
L 107.627099 295.488 
L 107.693545 295.488 
L 107.813148 53.568 
L 107.93275 295.488 
L 107.972618 53.568 
L 108.039064 295.488 
L 108.078931 295.488 
L 108.198534 53.568 
L 108.304847 295.488 
L 108.411161 53.568 
L 108.530763 295.488 
L 108.623787 295.488 
L 108.637077 53.568 
L 108.730101 295.488 
L 108.783258 295.488 
L 108.90286 53.568 
L 109.009174 295.488 
L 109.128776 53.568 
L 109.2218 53.568 
L 109.341403 295.488 
L 109.461005 53.568 
L 109.527451 53.568 
L 109.633765 295.488 
L 109.726789 53.568 
L 109.740078 295.488 
L 110.045729 295.488 
L 110.165332 53.568 
L 110.284934 295.488 
L 110.404537 53.568 
L 110.417826 53.568 
L 110.537429 295.488 
L 110.577296 53.568 
L 110.643742 295.488 
L 110.710188 295.488 
L 110.736766 53.568 
L 110.816501 295.488 
L 110.856369 295.488 
L 110.975971 53.568 
L 111.042417 295.488 
L 111.082285 53.568 
L 111.135442 53.568 
L 111.255044 295.488 
L 111.414514 295.488 
L 111.534117 53.568 
L 111.600563 53.568 
L 111.720165 295.488 
L 111.839768 53.568 
L 111.853057 53.568 
L 111.97266 295.488 
L 112.052395 295.488 
L 112.158708 53.568 
L 112.278311 295.488 
L 112.2916 295.488 
L 112.411202 53.568 
L 112.437781 53.568 
L 112.557383 295.488 
L 112.663697 53.568 
L 112.77001 295.488 
L 112.889613 53.568 
L 113.009215 295.488 
L 113.24842 295.488 
L 113.368023 53.568 
L 113.474336 295.488 
L 113.593939 53.568 
L 113.713541 295.488 
L 113.726831 295.488 
L 113.74012 53.568 
L 113.833144 295.488 
L 113.873012 295.488 
L 113.992614 53.568 
L 114.032482 295.488 
L 114.098928 53.568 
L 114.112217 53.568 
L 114.231819 295.488 
L 114.284976 295.488 
L 114.404579 53.568 
L 114.564049 53.568 
L 114.683651 295.488 
L 114.69694 53.568 
L 114.789965 295.488 
L 114.856411 295.488 
L 114.976013 53.568 
L 115.069037 295.488 
L 115.082326 53.568 
L 115.108905 53.568 
L 115.228507 295.488 
L 115.268375 295.488 
L 115.387978 53.568 
L 115.441134 53.568 
L 115.560737 295.488 
L 115.653761 53.568 
L 115.66705 295.488 
L 115.733496 295.488 
L 115.760074 53.568 
L 115.839809 295.488 
L 115.879677 295.488 
L 115.99928 53.568 
L 116.118882 295.488 
L 116.14546 295.488 
L 116.265063 53.568 
L 116.304931 53.568 
L 116.424533 295.488 
L 116.451112 295.488 
L 116.557425 53.568 
L 116.663738 295.488 
L 116.783341 53.568 
L 116.902943 295.488 
L 116.929522 295.488 
L 117.022546 53.568 
L 117.035835 295.488 
L 117.261751 295.488 
L 117.354775 53.568 
L 117.368065 295.488 
L 117.394643 295.488 
L 117.500956 53.568 
L 117.620559 295.488 
L 117.633848 295.488 
L 117.740162 53.568 
L 117.859764 295.488 
L 117.979367 53.568 
L 117.992656 53.568 
L 118.112258 295.488 
L 118.231861 53.568 
L 118.351464 295.488 
L 118.471066 53.568 
L 118.590669 295.488 
L 118.710271 53.568 
L 118.790006 53.568 
L 118.909609 295.488 
L 119.069079 295.488 
L 119.188682 53.568 
L 119.308284 295.488 
L 119.348152 53.568 
L 119.414598 295.488 
L 119.653803 295.488 
L 119.746827 53.568 
L 119.760116 295.488 
L 119.773405 295.488 
L 119.893008 53.568 
L 120.01261 295.488 
L 120.039189 295.488 
L 120.145502 53.568 
L 120.265105 295.488 
L 120.278394 295.488 
L 120.304972 53.568 
L 120.384707 295.488 
L 120.451153 295.488 
L 120.557467 53.568 
L 120.677069 295.488 
L 120.703648 53.568 
L 120.783383 295.488 
L 120.996009 295.488 
L 121.075744 53.568 
L 121.102323 295.488 
L 121.128901 295.488 
L 121.248504 53.568 
L 121.261793 53.568 
L 121.381395 295.488 
L 121.540866 295.488 
L 121.660468 53.568 
L 121.780071 295.488 
L 121.846517 295.488 
L 121.966119 53.568 
L 122.085722 53.568 
L 122.205324 295.488 
L 122.285059 53.568 
L 122.311638 295.488 
L 122.338216 295.488 
L 122.444529 53.568 
L 122.564132 295.488 
L 122.643867 295.488 
L 122.76347 53.568 
L 122.776759 53.568 
L 122.896361 295.488 
L 122.909651 295.488 
L 122.989386 53.568 
L 123.015964 295.488 
L 123.08241 295.488 
L 123.202012 53.568 
L 123.321615 295.488 
L 123.361483 53.568 
L 123.427928 295.488 
L 123.467796 295.488 
L 123.587399 53.568 
L 123.653844 53.568 
L 123.760158 295.488 
L 123.800025 53.568 
L 123.866471 295.488 
L 123.87976 295.488 
L 123.89305 53.568 
L 123.986074 295.488 
L 124.012652 295.488 
L 124.025941 53.568 
L 124.118966 295.488 
L 124.172122 295.488 
L 124.291725 53.568 
L 124.398038 295.488 
L 124.517641 53.568 
L 124.610665 53.568 
L 124.730268 295.488 
L 124.84987 53.568 
L 124.876448 53.568 
L 124.956184 295.488 
L 124.982762 53.568 
L 125.00934 53.568 
L 125.128943 295.488 
L 125.434594 295.488 
L 125.554196 53.568 
L 125.673799 295.488 
L 125.793402 53.568 
L 125.806691 53.568 
L 125.926293 295.488 
L 125.966161 53.568 
L 126.032607 295.488 
L 126.099053 295.488 
L 126.125631 53.568 
L 126.205366 295.488 
L 126.245234 295.488 
L 126.364836 53.568 
L 126.431282 295.488 
L 126.471149 53.568 
L 126.524306 53.568 
L 126.643909 295.488 
L 126.803379 295.488 
L 126.922981 53.568 
L 126.989427 53.568 
L 127.10903 295.488 
L 127.228632 53.568 
L 127.241922 53.568 
L 127.361524 295.488 
L 127.441259 295.488 
L 127.547573 53.568 
L 127.667175 295.488 
L 127.680464 295.488 
L 127.800067 53.568 
L 127.826645 53.568 
L 127.946248 295.488 
L 128.052561 53.568 
L 128.158875 295.488 
L 128.278477 53.568 
L 128.39808 295.488 
L 128.637285 295.488 
L 128.756888 53.568 
L 128.863201 295.488 
L 128.982804 53.568 
L 129.102406 295.488 
L 129.115695 295.488 
L 129.128984 53.568 
L 129.222009 295.488 
L 129.261876 295.488 
L 129.381479 53.568 
L 129.421346 295.488 
L 129.487792 53.568 
L 129.501081 53.568 
L 129.620684 295.488 
L 129.673841 295.488 
L 129.793443 53.568 
L 129.952913 53.568 
L 130.072516 295.488 
L 130.085805 53.568 
L 130.178829 295.488 
L 130.245275 295.488 
L 130.364878 53.568 
L 130.457902 295.488 
L 130.471191 53.568 
L 130.49777 53.568 
L 130.617372 295.488 
L 130.65724 295.488 
L 130.776842 53.568 
L 130.829999 53.568 
L 130.949601 295.488 
L 131.042626 53.568 
L 131.055915 295.488 
L 131.122361 295.488 
L 131.148939 53.568 
L 131.228674 295.488 
L 131.268542 295.488 
L 131.388144 53.568 
L 131.507747 295.488 
L 131.534325 295.488 
L 131.653928 53.568 
L 131.693795 53.568 
L 131.813398 295.488 
L 131.839976 295.488 
L 131.94629 53.568 
L 132.052603 295.488 
L 132.172206 53.568 
L 132.291808 295.488 
L 132.318386 295.488 
L 132.411411 53.568 
L 132.4247 295.488 
L 132.650616 295.488 
L 132.74364 53.568 
L 132.756929 295.488 
L 132.783508 295.488 
L 132.889821 53.568 
L 133.009424 295.488 
L 133.022713 295.488 
L 133.129026 53.568 
L 133.248629 295.488 
L 133.368231 53.568 
L 133.38152 53.568 
L 133.501123 295.488 
L 133.620726 53.568 
L 133.740328 295.488 
L 133.859931 53.568 
L 133.979533 295.488 
L 134.099136 53.568 
L 134.178871 53.568 
L 134.298474 295.488 
L 134.457944 295.488 
L 134.577546 53.568 
L 134.697149 295.488 
L 134.737016 53.568 
L 134.803462 295.488 
L 134.949643 295.488 
L 135.055957 53.568 
L 135.16227 295.488 
L 135.281873 53.568 
L 135.401475 295.488 
L 135.428053 295.488 
L 135.534367 53.568 
L 135.653969 295.488 
L 135.667259 295.488 
L 135.693837 53.568 
L 135.773572 295.488 
L 135.840018 295.488 
L 135.946331 53.568 
L 136.065934 295.488 
L 136.092512 53.568 
L 136.172247 295.488 
L 136.384874 295.488 
L 136.464609 53.568 
L 136.491187 295.488 
L 136.517766 295.488 
L 136.637368 53.568 
L 136.650658 53.568 
L 136.77026 295.488 
L 136.92973 295.488 
L 137.049333 53.568 
L 137.168935 295.488 
L 137.182225 295.488 
L 137.195514 53.568 
L 137.288538 295.488 
L 137.408141 295.488 
L 137.527743 53.568 
L 137.687213 53.568 
L 137.806816 295.488 
L 137.89984 295.488 
L 138.006153 53.568 
L 138.125756 295.488 
L 138.152334 295.488 
L 138.271937 53.568 
L 138.351672 53.568 
L 138.471275 295.488 
L 138.524431 295.488 
L 138.53772 53.568 
L 138.630745 295.488 
L 138.69719 295.488 
L 138.803504 53.568 
L 138.923106 295.488 
L 139.016131 295.488 
L 139.122444 53.568 
L 139.242047 295.488 
L 139.335071 295.488 
L 139.441384 53.568 
L 139.560987 295.488 
L 139.654011 295.488 
L 139.760324 53.568 
L 139.879927 295.488 
L 139.972951 295.488 
L 140.079265 53.568 
L 140.198867 295.488 
L 140.291891 295.488 
L 140.398205 53.568 
L 140.517807 295.488 
L 140.610832 295.488 
L 140.717145 53.568 
L 140.836748 295.488 
L 140.929772 295.488 
L 141.036085 53.568 
L 141.155688 295.488 
L 141.248712 295.488 
L 141.355025 53.568 
L 141.474628 295.488 
L 141.567652 295.488 
L 141.673966 53.568 
L 141.793568 295.488 
L 141.886592 295.488 
L 141.992906 53.568 
L 142.112508 295.488 
L 142.205533 295.488 
L 142.311846 53.568 
L 142.431449 295.488 
L 142.524473 295.488 
L 142.630786 53.568 
L 142.750389 295.488 
L 142.843413 295.488 
L 142.949726 53.568 
L 143.069329 295.488 
L 143.162353 295.488 
L 143.268667 53.568 
L 143.388269 295.488 
L 143.53445 295.488 
L 143.654053 53.568 
L 143.69392 53.568 
L 143.813523 295.488 
L 143.879969 295.488 
L 143.986282 53.568 
L 144.105885 295.488 
L 144.424825 295.488 
L 144.544427 53.568 
L 144.624163 53.568 
L 144.730476 295.488 
L 144.810211 53.568 
L 144.836789 295.488 
L 144.929814 295.488 
L 145.009549 53.568 
L 145.036127 295.488 
L 145.062705 295.488 
L 145.182308 53.568 
L 145.248754 295.488 
L 145.288621 53.568 
L 145.368356 53.568 
L 145.47467 295.488 
L 145.594272 53.568 
L 145.607561 53.568 
L 145.687297 295.488 
L 145.713875 53.568 
L 145.740453 53.568 
L 145.860056 295.488 
L 145.979658 53.568 
L 146.099261 295.488 
L 146.205574 53.568 
L 146.325177 295.488 
L 146.338466 295.488 
L 146.44478 53.568 
L 146.564382 295.488 
L 146.59096 295.488 
L 146.683985 53.568 
L 146.697274 295.488 
L 146.830166 295.488 
L 146.92319 53.568 
L 146.936479 295.488 
L 147.069371 295.488 
L 147.162395 53.568 
L 147.175684 295.488 
L 147.308576 295.488 
L 147.4016 53.568 
L 147.414889 295.488 
L 147.614227 295.488 
L 147.733829 53.568 
L 147.853432 295.488 
L 147.866721 295.488 
L 147.973035 53.568 
L 148.092637 295.488 
L 148.105926 295.488 
L 148.21224 53.568 
L 148.331842 295.488 
L 148.345132 295.488 
L 148.451445 53.568 
L 148.571048 295.488 
L 148.584337 295.488 
L 148.69065 53.568 
L 148.810253 295.488 
L 148.823542 295.488 
L 148.929855 53.568 
L 149.049458 295.488 
L 149.062747 295.488 
L 149.16906 53.568 
L 149.288663 295.488 
L 149.301952 295.488 
L 149.408266 53.568 
L 149.527868 295.488 
L 149.541157 295.488 
L 149.554446 53.568 
L 149.647471 295.488 
L 149.753784 295.488 
L 149.873387 53.568 
L 149.9797 295.488 
L 150.099303 53.568 
L 150.218905 295.488 
L 150.338508 53.568 
L 150.45811 295.488 
L 150.577713 53.568 
L 150.697316 295.488 
L 150.816918 53.568 
L 150.936521 295.488 
L 151.056123 53.568 
L 151.175726 295.488 
L 151.295328 53.568 
L 151.414931 295.488 
L 151.534534 53.568 
L 151.654136 295.488 
L 151.667425 53.568 
L 151.76045 295.488 
L 151.866763 295.488 
L 151.959787 53.568 
L 151.973076 295.488 
L 152.012944 295.488 
L 152.105968 53.568 
L 152.119257 295.488 
L 152.252149 295.488 
L 152.345173 53.568 
L 152.358462 295.488 
L 152.491354 295.488 
L 152.584378 53.568 
L 152.597668 295.488 
L 152.730559 295.488 
L 152.823584 53.568 
L 152.836873 295.488 
L 152.969764 295.488 
L 153.062789 53.568 
L 153.076078 295.488 
L 153.20897 295.488 
L 153.301994 53.568 
L 153.315283 295.488 
L 153.448175 295.488 
L 153.541199 53.568 
L 153.554488 295.488 
L 153.68738 295.488 
L 153.780404 53.568 
L 153.793693 295.488 
L 153.993031 295.488 
L 154.112633 53.568 
L 154.232236 295.488 
L 154.245525 295.488 
L 154.351839 53.568 
L 154.471441 295.488 
L 154.48473 295.488 
L 154.591044 53.568 
L 154.710646 295.488 
L 154.723936 295.488 
L 154.830249 53.568 
L 154.949852 295.488 
L 154.963141 295.488 
L 155.069454 53.568 
L 155.189057 295.488 
L 155.202346 295.488 
L 155.308659 53.568 
L 155.428262 295.488 
L 155.441551 295.488 
L 155.547864 53.568 
L 155.667467 295.488 
L 155.680756 295.488 
L 155.78707 53.568 
L 155.906672 295.488 
L 155.919961 295.488 
L 155.93325 53.568 
L 156.026275 295.488 
L 156.132588 295.488 
L 156.252191 53.568 
L 156.358504 295.488 
L 156.478107 53.568 
L 156.597709 295.488 
L 156.717312 53.568 
L 156.836914 295.488 
L 156.956517 53.568 
L 157.07612 295.488 
L 157.195722 53.568 
L 157.315325 295.488 
L 157.434927 53.568 
L 157.55453 295.488 
L 157.674132 53.568 
L 157.793735 295.488 
L 157.913338 53.568 
L 158.03294 295.488 
L 158.046229 53.568 
L 158.139254 295.488 
L 158.245567 295.488 
L 158.338591 53.568 
L 158.35188 295.488 
L 158.391748 295.488 
L 158.484772 53.568 
L 158.498061 295.488 
L 158.630953 295.488 
L 158.723977 53.568 
L 158.737266 295.488 
L 158.870158 295.488 
L 158.963182 53.568 
L 158.976472 295.488 
L 159.109363 295.488 
L 159.202388 53.568 
L 159.215677 295.488 
L 159.348568 295.488 
L 159.441593 53.568 
L 159.454882 295.488 
L 159.587774 295.488 
L 159.680798 53.568 
L 159.694087 295.488 
L 159.826979 295.488 
L 159.920003 53.568 
L 159.933292 295.488 
L 160.066184 295.488 
L 160.159208 53.568 
L 160.172497 295.488 
L 160.371835 295.488 
L 160.491438 53.568 
L 160.61104 295.488 
L 160.624329 295.488 
L 160.730643 53.568 
L 160.850245 295.488 
L 160.863534 295.488 
L 160.969848 53.568 
L 161.08945 295.488 
L 161.10274 295.488 
L 161.209053 53.568 
L 161.328656 295.488 
L 161.341945 295.488 
L 161.448258 53.568 
L 161.567861 295.488 
L 161.58115 295.488 
L 161.687463 53.568 
L 161.807066 295.488 
L 161.820355 295.488 
L 161.926668 53.568 
L 162.046271 295.488 
L 162.05956 295.488 
L 162.165874 53.568 
L 162.285476 295.488 
L 162.298765 295.488 
L 162.312054 53.568 
L 162.405079 295.488 
L 162.511392 295.488 
L 162.630995 53.568 
L 162.737308 295.488 
L 162.856911 53.568 
L 162.976513 295.488 
L 163.096116 53.568 
L 163.215718 295.488 
L 163.335321 53.568 
L 163.454924 295.488 
L 163.574526 53.568 
L 163.694129 295.488 
L 163.813731 53.568 
L 163.933334 295.488 
L 164.052936 53.568 
L 164.172539 295.488 
L 164.292142 53.568 
L 164.411744 295.488 
L 164.425033 53.568 
L 164.518058 295.488 
L 164.624371 295.488 
L 164.717395 53.568 
L 164.730684 295.488 
L 164.770552 295.488 
L 164.863576 53.568 
L 164.876865 295.488 
L 165.009757 295.488 
L 165.102781 53.568 
L 165.11607 295.488 
L 165.248962 295.488 
L 165.341986 53.568 
L 165.355276 295.488 
L 165.488167 295.488 
L 165.581192 53.568 
L 165.594481 295.488 
L 165.727372 295.488 
L 165.820397 53.568 
L 165.833686 295.488 
L 165.966578 295.488 
L 166.059602 53.568 
L 166.072891 295.488 
L 166.205783 295.488 
L 166.298807 53.568 
L 166.312096 295.488 
L 166.444988 295.488 
L 166.538012 53.568 
L 166.551301 295.488 
L 166.750639 295.488 
L 166.870242 53.568 
L 166.989844 295.488 
L 167.003133 295.488 
L 167.109447 53.568 
L 167.229049 295.488 
L 167.242338 295.488 
L 167.348652 53.568 
L 167.468254 295.488 
L 167.481544 295.488 
L 167.587857 53.568 
L 167.70746 295.488 
L 167.720749 295.488 
L 167.827062 53.568 
L 167.946665 295.488 
L 167.959954 295.488 
L 168.066267 53.568 
L 168.18587 295.488 
L 168.199159 295.488 
L 168.305472 53.568 
L 168.425075 295.488 
L 168.438364 295.488 
L 168.544678 53.568 
L 168.66428 295.488 
L 168.677569 295.488 
L 168.690858 53.568 
L 168.783883 295.488 
L 168.890196 295.488 
L 169.009799 53.568 
L 169.116112 295.488 
L 169.235715 53.568 
L 169.355317 295.488 
L 169.47492 53.568 
L 169.594522 295.488 
L 169.714125 53.568 
L 169.833728 295.488 
L 169.95333 53.568 
L 170.072933 295.488 
L 170.192535 53.568 
L 170.312138 295.488 
L 170.43174 53.568 
L 170.551343 295.488 
L 170.670946 53.568 
L 170.790548 295.488 
L 170.803837 53.568 
L 170.896862 295.488 
L 171.003175 295.488 
L 171.096199 53.568 
L 171.109488 295.488 
L 171.149356 295.488 
L 171.24238 53.568 
L 171.255669 295.488 
L 171.388561 295.488 
L 171.481585 53.568 
L 171.494874 295.488 
L 171.627766 295.488 
L 171.72079 53.568 
L 171.73408 295.488 
L 171.866971 295.488 
L 171.959996 53.568 
L 171.973285 295.488 
L 172.106176 295.488 
L 172.199201 53.568 
L 172.21249 295.488 
L 172.345382 295.488 
L 172.438406 53.568 
L 172.451695 295.488 
L 172.584587 295.488 
L 172.677611 53.568 
L 172.6909 295.488 
L 172.823792 295.488 
L 172.916816 53.568 
L 172.930105 295.488 
L 173.129443 295.488 
L 173.249046 53.568 
L 173.368648 295.488 
L 173.381937 295.488 
L 173.488251 53.568 
L 173.607853 295.488 
L 173.621142 295.488 
L 173.727456 53.568 
L 173.847058 295.488 
L 173.860348 295.488 
L 173.966661 53.568 
L 174.086264 295.488 
L 174.099553 295.488 
L 174.205866 53.568 
L 174.325469 295.488 
L 174.338758 295.488 
L 174.445071 53.568 
L 174.564674 295.488 
L 174.577963 295.488 
L 174.684276 53.568 
L 174.803879 295.488 
L 174.817168 295.488 
L 174.923482 53.568 
L 175.043084 295.488 
L 175.056373 295.488 
L 175.069662 53.568 
L 175.162687 295.488 
L 175.269 295.488 
L 175.388603 53.568 
L 175.494916 295.488 
L 175.614519 53.568 
L 175.734121 295.488 
L 175.853724 53.568 
L 175.973326 295.488 
L 176.092929 53.568 
L 176.212532 295.488 
L 176.332134 53.568 
L 176.451737 295.488 
L 176.571339 53.568 
L 176.690942 295.488 
L 176.810544 53.568 
L 176.930147 295.488 
L 177.04975 53.568 
L 177.169352 295.488 
L 177.182641 53.568 
L 177.275666 295.488 
L 177.381979 295.488 
L 177.475003 53.568 
L 177.488292 295.488 
L 177.52816 295.488 
L 177.621184 53.568 
L 177.634473 295.488 
L 177.767365 295.488 
L 177.860389 53.568 
L 177.873678 295.488 
L 178.00657 295.488 
L 178.099594 53.568 
L 178.112884 295.488 
L 178.245775 295.488 
L 178.3388 53.568 
L 178.352089 295.488 
L 178.48498 295.488 
L 178.578005 53.568 
L 178.591294 295.488 
L 178.724186 295.488 
L 178.81721 53.568 
L 178.830499 295.488 
L 178.963391 295.488 
L 179.056415 53.568 
L 179.069704 295.488 
L 179.202596 295.488 
L 179.29562 53.568 
L 179.308909 295.488 
L 179.508247 295.488 
L 179.62785 53.568 
L 179.747452 295.488 
L 179.760741 295.488 
L 179.867055 53.568 
L 179.986657 295.488 
L 179.999946 295.488 
L 180.10626 53.568 
L 180.225862 295.488 
L 180.239152 295.488 
L 180.345465 53.568 
L 180.465068 295.488 
L 180.478357 295.488 
L 180.58467 53.568 
L 180.704273 295.488 
L 180.717562 295.488 
L 180.823875 53.568 
L 180.943478 295.488 
L 180.956767 295.488 
L 181.06308 53.568 
L 181.182683 295.488 
L 181.195972 295.488 
L 181.302286 53.568 
L 181.421888 295.488 
L 181.435177 295.488 
L 181.448466 53.568 
L 181.541491 295.488 
L 181.647804 295.488 
L 181.767407 53.568 
L 181.87372 295.488 
L 181.993323 53.568 
L 182.112925 295.488 
L 182.232528 53.568 
L 182.35213 295.488 
L 182.471733 53.568 
L 182.591336 295.488 
L 182.710938 53.568 
L 182.830541 295.488 
L 182.950143 53.568 
L 183.069746 295.488 
L 183.189348 53.568 
L 183.308951 295.488 
L 183.428554 53.568 
L 183.548156 295.488 
L 183.561445 53.568 
L 183.65447 295.488 
L 183.734205 295.488 
L 183.840518 53.568 
L 183.960121 295.488 
L 183.97341 295.488 
L 183.999988 53.568 
L 184.079723 295.488 
L 184.159458 295.488 
L 184.279061 53.568 
L 184.332217 53.568 
L 184.438531 295.488 
L 184.558133 53.568 
L 184.677736 295.488 
L 184.691025 295.488 
L 184.810628 53.568 
L 184.93023 295.488 
L 184.956809 295.488 
L 185.023255 53.568 
L 185.063122 295.488 
L 185.076411 295.488 
L 185.196014 53.568 
L 185.315616 295.488 
L 185.328906 295.488 
L 185.448508 53.568 
L 185.554822 53.568 
L 185.674424 295.488 
L 185.74087 295.488 
L 185.860473 53.568 
L 185.926918 53.568 
L 186.046521 295.488 
L 186.073099 295.488 
L 186.179413 53.568 
L 186.192702 295.488 
L 186.285726 53.568 
L 186.312305 53.568 
L 186.431907 295.488 
L 186.524931 295.488 
L 186.644534 53.568 
L 186.671112 53.568 
L 186.790715 295.488 
L 186.87045 295.488 
L 186.990052 53.568 
L 187.043209 53.568 
L 187.162812 295.488 
L 187.242547 295.488 
L 187.362149 53.568 
L 187.428595 53.568 
L 187.548198 295.488 
L 187.627933 295.488 
L 187.747535 53.568 
L 187.867138 295.488 
L 187.880427 295.488 
L 188.00003 53.568 
L 188.119632 295.488 
L 188.199367 295.488 
L 188.31897 53.568 
L 188.438573 295.488 
L 188.518308 295.488 
L 188.63791 53.568 
L 188.757513 295.488 
L 188.837248 295.488 
L 188.95685 53.568 
L 189.076453 295.488 
L 189.156188 295.488 
L 189.275791 53.568 
L 189.395393 295.488 
L 189.421971 295.488 
L 189.488417 53.568 
L 189.528285 295.488 
L 189.541574 295.488 
L 189.661177 53.568 
L 189.780779 295.488 
L 189.794068 295.488 
L 189.913671 53.568 
L 190.033274 295.488 
L 190.059852 295.488 
L 190.126298 53.568 
L 190.166165 295.488 
L 190.179454 295.488 
L 190.299057 53.568 
L 190.338925 53.568 
L 190.458527 295.488 
L 190.524973 295.488 
L 190.631286 53.568 
L 190.750889 295.488 
L 190.843913 295.488 
L 190.963516 53.568 
L 191.029962 53.568 
L 191.149564 295.488 
L 191.162853 295.488 
L 191.282456 53.568 
L 191.402059 295.488 
L 191.415348 295.488 
L 191.495083 53.568 
L 191.521661 295.488 
L 191.574818 295.488 
L 191.69442 53.568 
L 191.734288 53.568 
L 191.853891 295.488 
L 191.946915 295.488 
L 192.066517 53.568 
L 192.159542 53.568 
L 192.265855 295.488 
L 192.305722 53.568 
L 192.372168 295.488 
L 192.50506 295.488 
L 192.518349 53.568 
L 192.611373 295.488 
L 192.677819 295.488 
L 192.691109 53.568 
L 192.784133 295.488 
L 192.824 295.488 
L 192.930314 53.568 
L 193.049916 295.488 
L 193.063205 295.488 
L 193.182808 53.568 
L 193.289121 295.488 
L 193.408724 53.568 
L 193.422013 53.568 
L 193.541616 295.488 
L 193.621351 295.488 
L 193.740953 53.568 
L 193.767532 53.568 
L 193.780821 295.488 
L 193.873845 53.568 
L 194.139629 53.568 
L 194.259231 295.488 
L 194.418701 295.488 
L 194.538304 53.568 
L 194.657906 295.488 
L 194.671196 295.488 
L 194.777509 53.568 
L 194.897112 295.488 
L 194.976847 295.488 
L 194.990136 53.568 
L 195.08316 295.488 
L 195.096449 295.488 
L 195.202763 53.568 
L 195.322365 295.488 
L 195.4021 295.488 
L 195.495124 53.568 
L 195.508414 295.488 
L 195.534992 295.488 
L 195.654595 53.568 
L 195.840643 53.568 
L 195.960246 295.488 
L 196.279186 295.488 
L 196.358921 53.568 
L 196.385499 295.488 
L 196.438656 295.488 
L 196.451945 53.568 
L 196.544969 295.488 
L 196.571548 295.488 
L 196.69115 53.568 
L 196.784174 53.568 
L 196.903777 295.488 
L 196.917066 53.568 
L 197.01009 295.488 
L 197.129693 295.488 
L 197.236006 53.568 
L 197.355609 295.488 
L 197.448633 295.488 
L 197.568236 53.568 
L 197.66126 53.568 
L 197.780863 295.488 
L 197.794152 53.568 
L 197.887176 295.488 
L 198.006779 295.488 
L 198.113092 53.568 
L 198.232695 295.488 
L 198.325719 295.488 
L 198.445321 53.568 
L 198.604791 53.568 
L 198.724394 295.488 
L 198.883864 295.488 
L 198.990178 53.568 
L 199.10978 295.488 
L 199.202804 295.488 
L 199.322407 53.568 
L 199.468588 53.568 
L 199.58819 295.488 
L 199.76095 295.488 
L 199.867263 53.568 
L 199.986866 295.488 
L 200.07989 295.488 
L 200.199492 53.568 
L 200.358963 53.568 
L 200.478565 295.488 
L 200.638035 295.488 
L 200.744349 53.568 
L 200.863951 295.488 
L 200.956975 295.488 
L 201.076578 53.568 
L 201.222759 53.568 
L 201.342361 295.488 
L 201.515121 295.488 
L 201.621434 53.568 
L 201.741037 295.488 
L 201.834061 295.488 
L 201.953664 53.568 
L 202.113134 53.568 
L 202.232736 295.488 
L 202.392206 295.488 
L 202.49852 53.568 
L 202.618122 295.488 
L 202.711147 295.488 
L 202.830749 53.568 
L 202.990219 53.568 
L 203.109822 295.488 
L 203.269292 295.488 
L 203.375605 53.568 
L 203.495208 295.488 
L 203.588232 295.488 
L 203.707835 53.568 
L 203.867305 53.568 
L 203.986907 295.488 
L 204.146377 295.488 
L 204.252691 53.568 
L 204.372293 295.488 
L 204.465318 295.488 
L 204.58492 53.568 
L 204.74439 53.568 
L 204.863993 295.488 
L 204.890571 295.488 
L 205.010174 53.568 
L 205.06333 53.568 
L 205.169644 295.488 
L 205.209511 53.568 
L 205.275957 295.488 
L 205.289246 295.488 
L 205.408849 53.568 
L 205.488584 53.568 
L 205.608187 295.488 
L 205.648054 295.488 
L 205.687922 53.568 
L 205.754368 295.488 
L 205.980284 295.488 
L 206.099886 53.568 
L 206.113175 53.568 
L 206.232778 295.488 
L 206.325802 295.488 
L 206.445405 53.568 
L 206.52514 53.568 
L 206.644742 295.488 
L 206.724477 53.568 
L 206.751056 295.488 
L 206.950393 295.488 
L 207.056707 53.568 
L 207.176309 295.488 
L 207.242755 295.488 
L 207.362358 53.568 
L 207.48196 295.488 
L 207.508539 295.488 
L 207.614852 53.568 
L 207.721165 295.488 
L 207.840768 53.568 
L 207.960371 295.488 
L 208.066684 295.488 
L 208.172997 53.568 
L 208.186287 295.488 
L 208.279311 53.568 
L 208.518516 53.568 
L 208.598251 295.488 
L 208.624829 53.568 
L 208.638119 53.568 
L 208.757721 295.488 
L 208.837456 295.488 
L 208.957059 53.568 
L 208.970348 53.568 
L 209.089951 295.488 
L 209.196264 53.568 
L 209.315866 295.488 
L 209.42218 295.488 
L 209.541782 53.568 
L 209.608228 53.568 
L 209.727831 295.488 
L 209.807566 295.488 
L 209.927169 53.568 
L 209.953747 295.488 
L 210.033482 53.568 
L 210.246109 53.568 
L 210.365711 295.488 
L 210.379 295.488 
L 210.39229 53.568 
L 210.485314 295.488 
L 210.684652 295.488 
L 210.790965 53.568 
L 210.910567 295.488 
L 210.990303 295.488 
L 211.109905 53.568 
L 211.149773 53.568 
L 211.256086 295.488 
L 211.282664 53.568 
L 211.362399 295.488 
L 211.561737 295.488 
L 211.66805 53.568 
L 211.787653 295.488 
L 211.867388 295.488 
L 211.986991 53.568 
L 212.106593 53.568 
L 212.226196 295.488 
L 212.438823 295.488 
L 212.545136 53.568 
L 212.664739 295.488 
L 212.744474 295.488 
L 212.864076 53.568 
L 212.903944 53.568 
L 213.010257 295.488 
L 213.036835 53.568 
L 213.116571 295.488 
L 213.315908 295.488 
L 213.422222 53.568 
L 213.541824 295.488 
L 213.621559 295.488 
L 213.741162 53.568 
L 213.860764 53.568 
L 213.980367 295.488 
L 214.192994 295.488 
L 214.299307 53.568 
L 214.41891 295.488 
L 214.498645 295.488 
L 214.618247 53.568 
L 214.73785 53.568 
L 214.857452 295.488 
L 215.070079 295.488 
L 215.176393 53.568 
L 215.295995 295.488 
L 215.37573 295.488 
L 215.495333 53.568 
L 215.614935 53.568 
L 215.734538 295.488 
L 215.947165 295.488 
L 216.053478 53.568 
L 216.173081 295.488 
L 216.252816 295.488 
L 216.372418 53.568 
L 216.412286 53.568 
L 216.518599 295.488 
L 216.545178 53.568 
L 216.624913 295.488 
L 216.82425 295.488 
L 216.930564 53.568 
L 217.050166 295.488 
L 217.129901 295.488 
L 217.249504 53.568 
L 217.369107 53.568 
L 217.488709 295.488 
L 217.701336 295.488 
L 217.807649 53.568 
L 217.927252 295.488 
L 218.006987 295.488 
L 218.12659 53.568 
L 218.246192 53.568 
L 218.365795 295.488 
L 218.578421 295.488 
L 218.684735 53.568 
L 218.804337 295.488 
L 218.884072 295.488 
L 219.003675 53.568 
L 219.123278 53.568 
L 219.24288 295.488 
L 219.296037 295.488 
L 219.415639 53.568 
L 219.442218 53.568 
L 219.56182 295.488 
L 219.641555 53.568 
L 219.668134 295.488 
L 219.694712 295.488 
L 219.814315 53.568 
L 219.89405 53.568 
L 220.013652 295.488 
L 220.040231 295.488 
L 220.119966 53.568 
L 220.146544 295.488 
L 220.412328 295.488 
L 220.53193 53.568 
L 220.651533 295.488 
L 220.731268 295.488 
L 220.85087 53.568 
L 220.930605 53.568 
L 221.036919 295.488 
L 221.156521 53.568 
L 221.276124 295.488 
L 221.315992 295.488 
L 221.329281 53.568 
L 221.422305 295.488 
L 221.448883 295.488 
L 221.462172 53.568 
L 221.555197 295.488 
L 221.634932 295.488 
L 221.754534 53.568 
L 221.874137 295.488 
L 221.993739 53.568 
L 222.086764 295.488 
L 222.100053 53.568 
L 222.206366 53.568 
L 222.325969 295.488 
L 222.432282 295.488 
L 222.551885 53.568 
L 222.618331 53.568 
L 222.63162 295.488 
L 222.724644 53.568 
L 222.923982 53.568 
L 223.043584 295.488 
L 223.056873 295.488 
L 223.070163 53.568 
L 223.163187 295.488 
L 223.229633 295.488 
L 223.349235 53.568 
L 223.468838 295.488 
L 223.521995 295.488 
L 223.628308 53.568 
L 223.747911 295.488 
L 223.787778 295.488 
L 223.801067 53.568 
L 223.894091 295.488 
L 223.907381 295.488 
L 224.026983 53.568 
L 224.040272 53.568 
L 224.159875 295.488 
L 224.23961 295.488 
L 224.359213 53.568 
L 224.372502 53.568 
L 224.385791 295.488 
L 224.478815 53.568 
L 224.664864 53.568 
L 224.784466 295.488 
L 225.103406 295.488 
L 225.183141 53.568 
L 225.20972 295.488 
L 225.289455 295.488 
L 225.409057 53.568 
L 225.422347 295.488 
L 225.515371 53.568 
L 225.555238 53.568 
L 225.674841 295.488 
L 225.68813 53.568 
L 225.781154 295.488 
L 225.940624 295.488 
L 226.060227 53.568 
L 226.16654 295.488 
L 226.286143 53.568 
L 226.299432 295.488 
L 226.392456 53.568 
L 226.432324 53.568 
L 226.551926 295.488 
L 226.565216 53.568 
L 226.65824 295.488 
L 226.81771 295.488 
L 226.937313 53.568 
L 227.043626 295.488 
L 227.163229 53.568 
L 227.176518 295.488 
L 227.269542 53.568 
L 227.309409 53.568 
L 227.429012 295.488 
L 227.442301 53.568 
L 227.535325 295.488 
L 227.694796 295.488 
L 227.814398 53.568 
L 227.920711 295.488 
L 228.040314 53.568 
L 228.053603 295.488 
L 228.146627 53.568 
L 228.26623 53.568 
L 228.385833 295.488 
L 228.571881 295.488 
L 228.691484 53.568 
L 228.797797 295.488 
L 228.9174 53.568 
L 228.930689 295.488 
L 229.023713 53.568 
L 229.143316 53.568 
L 229.262918 295.488 
L 229.448967 295.488 
L 229.568569 53.568 
L 229.674883 295.488 
L 229.794485 53.568 
L 229.807774 295.488 
L 229.900799 53.568 
L 230.020401 53.568 
L 230.140004 295.488 
L 230.326052 295.488 
L 230.445655 53.568 
L 230.551968 295.488 
L 230.671571 53.568 
L 230.68486 295.488 
L 230.777884 53.568 
L 230.817752 53.568 
L 230.937354 295.488 
L 230.950643 53.568 
L 231.043668 295.488 
L 231.203138 295.488 
L 231.32274 53.568 
L 231.429054 295.488 
L 231.548656 53.568 
L 231.561945 295.488 
L 231.65497 53.568 
L 231.774572 53.568 
L 231.894175 295.488 
L 232.080223 295.488 
L 232.199826 53.568 
L 232.306139 295.488 
L 232.425742 53.568 
L 232.439031 295.488 
L 232.532055 53.568 
L 232.651658 53.568 
L 232.77126 295.488 
L 232.957309 295.488 
L 233.076911 53.568 
L 233.183225 295.488 
L 233.302827 53.568 
L 233.316117 295.488 
L 233.409141 53.568 
L 233.528743 53.568 
L 233.648346 295.488 
L 233.714792 295.488 
L 233.834394 53.568 
L 233.847684 53.568 
L 233.953997 295.488 
L 234.033732 53.568 
L 234.06031 295.488 
L 234.126756 295.488 
L 234.246359 53.568 
L 234.326094 53.568 
L 234.445696 295.488 
L 234.512142 53.568 
L 234.55201 295.488 
L 234.791215 295.488 
L 234.910818 53.568 
L 234.950685 53.568 
L 235.070288 295.488 
L 235.163312 295.488 
L 235.282914 53.568 
L 235.375939 53.568 
L 235.482252 295.488 
L 235.52212 53.568 
L 235.588565 295.488 
L 235.721457 295.488 
L 235.734746 53.568 
L 235.827771 295.488 
L 235.894216 295.488 
L 235.907506 53.568 
L 236.00053 295.488 
L 236.040397 295.488 
L 236.146711 53.568 
L 236.266313 295.488 
L 236.279603 295.488 
L 236.399205 53.568 
L 236.505519 295.488 
L 236.625121 53.568 
L 236.63841 53.568 
L 236.758013 295.488 
L 236.837748 295.488 
L 236.957351 53.568 
L 236.983929 53.568 
L 236.997218 295.488 
L 237.090242 53.568 
L 237.356026 53.568 
L 237.475628 295.488 
L 237.635098 295.488 
L 237.754701 53.568 
L 237.874304 295.488 
L 237.887593 295.488 
L 237.993906 53.568 
L 238.113509 295.488 
L 238.193244 295.488 
L 238.206533 53.568 
L 238.299557 295.488 
L 238.312846 295.488 
L 238.432449 53.568 
L 238.459027 53.568 
L 238.57863 295.488 
L 238.618497 295.488 
L 238.7381 53.568 
L 238.751389 295.488 
L 238.844413 53.568 
L 239.05704 53.568 
L 239.176643 295.488 
L 239.495583 295.488 
L 239.575318 53.568 
L 239.601896 295.488 
L 239.655053 295.488 
L 239.668342 53.568 
L 239.761366 295.488 
L 239.787945 295.488 
L 239.907547 53.568 
L 240.000572 53.568 
L 240.120174 295.488 
L 240.133463 53.568 
L 240.226488 295.488 
L 240.34609 295.488 
L 240.452404 53.568 
L 240.572006 295.488 
L 240.66503 295.488 
L 240.784633 53.568 
L 240.877657 53.568 
L 240.99726 295.488 
L 241.010549 53.568 
L 241.103573 295.488 
L 241.223176 295.488 
L 241.329489 53.568 
L 241.449092 295.488 
L 241.542116 295.488 
L 241.661718 53.568 
L 241.807899 53.568 
L 241.927502 295.488 
L 242.100261 295.488 
L 242.206575 53.568 
L 242.326177 295.488 
L 242.419201 295.488 
L 242.538804 53.568 
L 242.684985 53.568 
L 242.804588 295.488 
L 242.977347 295.488 
L 243.08366 53.568 
L 243.203263 295.488 
L 243.296287 295.488 
L 243.41589 53.568 
L 243.57536 53.568 
L 243.694962 295.488 
L 243.854432 295.488 
L 243.960746 53.568 
L 244.080348 295.488 
L 244.173373 295.488 
L 244.292975 53.568 
L 244.439156 53.568 
L 244.558759 295.488 
L 244.731518 295.488 
L 244.837831 53.568 
L 244.957434 295.488 
L 245.050458 295.488 
L 245.170061 53.568 
L 245.316242 53.568 
L 245.435844 295.488 
L 245.608603 295.488 
L 245.714917 53.568 
L 245.834519 295.488 
L 245.927544 295.488 
L 246.047146 53.568 
L 246.206616 53.568 
L 246.326219 295.488 
L 246.485689 295.488 
L 246.592002 53.568 
L 246.711605 295.488 
L 246.804629 295.488 
L 246.924232 53.568 
L 247.083702 53.568 
L 247.203304 295.488 
L 247.362775 295.488 
L 247.469088 53.568 
L 247.588691 295.488 
L 247.681715 295.488 
L 247.801317 53.568 
L 247.960787 53.568 
L 248.08039 295.488 
L 248.106968 295.488 
L 248.226571 53.568 
L 248.279728 53.568 
L 248.386041 295.488 
L 248.425909 53.568 
L 248.492354 295.488 
L 248.505644 295.488 
L 248.625246 53.568 
L 248.704981 53.568 
L 248.824584 295.488 
L 248.864451 295.488 
L 248.904319 53.568 
L 248.970765 295.488 
L 249.196681 295.488 
L 249.316283 53.568 
L 249.329572 53.568 
L 249.449175 295.488 
L 249.542199 295.488 
L 249.661802 53.568 
L 249.741537 53.568 
L 249.861139 295.488 
L 249.940874 53.568 
L 249.967453 295.488 
L 250.16679 295.488 
L 250.273104 53.568 
L 250.392706 295.488 
L 250.472441 295.488 
L 250.578755 53.568 
L 250.698357 295.488 
L 250.724936 295.488 
L 250.831249 53.568 
L 250.937563 295.488 
L 251.057165 53.568 
L 251.176768 295.488 
L 251.283081 295.488 
L 251.389395 53.568 
L 251.402684 295.488 
L 251.495708 53.568 
L 251.734913 53.568 
L 251.814648 295.488 
L 251.841227 53.568 
L 251.854516 53.568 
L 251.974118 295.488 
L 252.053853 295.488 
L 252.173456 53.568 
L 252.186745 53.568 
L 252.306348 295.488 
L 252.412661 53.568 
L 252.532264 295.488 
L 252.638577 295.488 
L 252.75818 53.568 
L 252.851204 53.568 
L 252.970806 295.488 
L 253.023963 295.488 
L 253.143566 53.568 
L 253.170144 295.488 
L 253.249879 53.568 
L 253.462506 53.568 
L 253.582108 295.488 
L 253.595398 295.488 
L 253.608687 53.568 
L 253.701711 295.488 
L 253.901049 295.488 
L 254.007362 53.568 
L 254.126965 295.488 
L 254.2067 295.488 
L 254.326302 53.568 
L 254.36617 53.568 
L 254.472483 295.488 
L 254.499062 53.568 
L 254.578797 295.488 
L 254.778134 295.488 
L 254.884448 53.568 
L 255.00405 295.488 
L 255.083785 295.488 
L 255.203388 53.568 
L 255.243255 53.568 
L 255.349569 295.488 
L 255.376147 53.568 
L 255.455882 295.488 
L 255.65522 295.488 
L 255.761533 53.568 
L 255.881136 295.488 
L 255.960871 295.488 
L 256.080473 53.568 
L 256.120341 53.568 
L 256.226654 295.488 
L 256.253233 53.568 
L 256.332968 295.488 
L 256.532305 295.488 
L 256.638619 53.568 
L 256.758221 295.488 
L 256.837956 295.488 
L 256.957559 53.568 
L 257.077161 53.568 
L 257.196764 295.488 
L 257.409391 295.488 
L 257.515704 53.568 
L 257.635307 295.488 
L 257.715042 295.488 
L 257.834644 53.568 
L 257.954247 53.568 
L 258.07385 295.488 
L 258.286476 295.488 
L 258.39279 53.568 
L 258.512392 295.488 
L 258.592127 295.488 
L 258.71173 53.568 
L 258.831333 53.568 
L 258.950935 295.488 
L 259.163562 295.488 
L 259.269875 53.568 
L 259.389478 295.488 
L 259.469213 295.488 
L 259.588816 53.568 
L 259.708418 53.568 
L 259.828021 295.488 
L 260.040647 295.488 
L 260.146961 53.568 
L 260.266563 295.488 
L 260.346299 295.488 
L 260.465901 53.568 
L 260.585504 53.568 
L 260.705106 295.488 
L 260.917733 295.488 
L 261.024046 53.568 
L 261.143649 295.488 
L 261.223384 295.488 
L 261.342987 53.568 
L 261.462589 53.568 
L 261.582192 295.488 
L 261.794819 295.488 
L 261.901132 53.568 
L 262.020735 295.488 
L 262.10047 295.488 
L 262.220072 53.568 
L 262.339675 53.568 
L 262.459277 295.488 
L 262.512434 295.488 
L 262.632037 53.568 
L 262.658615 53.568 
L 262.778218 295.488 
L 262.857953 53.568 
L 262.884531 295.488 
L 262.911109 295.488 
L 263.030712 53.568 
L 263.110447 53.568 
L 263.230049 295.488 
L 263.256628 295.488 
L 263.336363 53.568 
L 263.362941 295.488 
L 263.628725 295.488 
L 263.748327 53.568 
L 263.86793 295.488 
L 263.947665 295.488 
L 264.067268 53.568 
L 264.147003 53.568 
L 264.253316 295.488 
L 264.372919 53.568 
L 264.492521 295.488 
L 264.532389 295.488 
L 264.545678 53.568 
L 264.638702 295.488 
L 264.66528 295.488 
L 264.67857 53.568 
L 264.771594 295.488 
L 264.851329 295.488 
L 264.970931 53.568 
L 265.090534 295.488 
L 265.210137 53.568 
L 265.303161 295.488 
L 265.31645 53.568 
L 265.422763 53.568 
L 265.542366 295.488 
L 265.648679 295.488 
L 265.768282 53.568 
L 265.834728 53.568 
L 265.848017 295.488 
L 265.941041 53.568 
L 266.140379 53.568 
L 266.259981 295.488 
L 266.273271 295.488 
L 266.28656 53.568 
L 266.379584 295.488 
L 266.44603 295.488 
L 266.565632 53.568 
L 266.685235 295.488 
L 266.738392 295.488 
L 266.844705 53.568 
L 266.964308 295.488 
L 267.004175 295.488 
L 267.017464 53.568 
L 267.110489 295.488 
L 267.123778 295.488 
L 267.24338 53.568 
L 267.25667 53.568 
L 267.376272 295.488 
L 267.456007 295.488 
L 267.57561 53.568 
L 267.588899 53.568 
L 267.602188 295.488 
L 267.695212 53.568 
L 267.881261 53.568 
L 268.000863 295.488 
L 268.319804 295.488 
L 268.399539 53.568 
L 268.426117 295.488 
L 268.505852 295.488 
L 268.625455 53.568 
L 268.638744 295.488 
L 268.731768 53.568 
L 268.771635 53.568 
L 268.891238 295.488 
L 268.904527 53.568 
L 268.997551 295.488 
L 269.157022 295.488 
L 269.276624 53.568 
L 269.382938 295.488 
L 269.50254 53.568 
L 269.515829 295.488 
L 269.608853 53.568 
L 269.648721 53.568 
L 269.768324 295.488 
L 269.781613 53.568 
L 269.874637 295.488 
L 270.034107 295.488 
L 270.15371 53.568 
L 270.260023 295.488 
L 270.379626 53.568 
L 270.392915 295.488 
L 270.485939 53.568 
L 270.525807 53.568 
L 270.645409 295.488 
L 270.658698 53.568 
L 270.751723 295.488 
L 270.911193 295.488 
L 271.030795 53.568 
L 271.137109 295.488 
L 271.256711 53.568 
L 271.27 295.488 
L 271.363025 53.568 
L 271.402892 53.568 
L 271.522495 295.488 
L 271.535784 53.568 
L 271.628808 295.488 
L 271.788278 295.488 
L 271.907881 53.568 
L 272.014194 295.488 
L 272.133797 53.568 
L 272.147086 295.488 
L 272.24011 53.568 
L 272.359713 53.568 
L 272.479315 295.488 
L 272.665364 295.488 
L 272.784966 53.568 
L 272.89128 295.488 
L 273.010882 53.568 
L 273.024171 295.488 
L 273.117196 53.568 
L 273.236798 53.568 
L 273.356401 295.488 
L 273.542449 295.488 
L 273.662052 53.568 
L 273.768365 295.488 
L 273.887968 53.568 
L 273.901257 295.488 
L 273.994281 53.568 
L 274.113884 53.568 
L 274.233486 295.488 
L 274.419535 295.488 
L 274.539137 53.568 
L 274.645451 295.488 
L 274.765053 53.568 
L 274.778343 295.488 
L 274.871367 53.568 
L 274.990969 53.568 
L 275.110572 295.488 
L 275.29662 295.488 
L 275.416223 53.568 
L 275.522536 295.488 
L 275.642139 53.568 
L 275.655428 295.488 
L 275.748452 53.568 
L 275.868055 53.568 
L 275.987658 295.488 
L 276.173706 295.488 
L 276.293309 53.568 
L 276.399622 295.488 
L 276.519225 53.568 
L 276.532514 295.488 
L 276.625538 53.568 
L 276.74514 53.568 
L 276.864743 295.488 
L 276.931189 295.488 
L 277.050792 53.568 
L 277.064081 53.568 
L 277.170394 295.488 
L 277.250129 53.568 
L 277.276707 295.488 
L 277.343153 295.488 
L 277.462756 53.568 
L 277.542491 53.568 
L 277.662094 295.488 
L 277.768407 53.568 
L 277.88801 295.488 
L 278.007612 295.488 
L 278.127215 53.568 
L 278.167082 53.568 
L 278.286685 295.488 
L 278.379709 295.488 
L 278.499312 53.568 
L 278.592336 53.568 
L 278.698649 295.488 
L 278.738517 53.568 
L 278.804963 295.488 
L 278.937854 295.488 
L 278.951144 53.568 
L 279.044168 295.488 
L 279.110614 295.488 
L 279.123903 53.568 
L 279.216927 295.488 
L 279.256795 295.488 
L 279.363108 53.568 
L 279.482711 295.488 
L 279.496 295.488 
L 279.615602 53.568 
L 279.721916 295.488 
L 279.841518 53.568 
L 279.854807 53.568 
L 279.97441 295.488 
L 280.054145 295.488 
L 280.173748 53.568 
L 280.200326 53.568 
L 280.213615 295.488 
L 280.306639 53.568 
L 280.572423 53.568 
L 280.692025 295.488 
L 280.851496 295.488 
L 280.971098 53.568 
L 281.090701 295.488 
L 281.10399 295.488 
L 281.210303 53.568 
L 281.329906 295.488 
L 281.409641 295.488 
L 281.42293 53.568 
L 281.515954 295.488 
L 281.529243 295.488 
L 281.648846 53.568 
L 281.675424 53.568 
L 281.795027 295.488 
L 281.834895 295.488 
L 281.954497 53.568 
L 281.967786 295.488 
L 282.06081 53.568 
L 282.273437 53.568 
L 282.39304 295.488 
L 282.71198 295.488 
L 282.791715 53.568 
L 282.818293 295.488 
L 282.87145 295.488 
L 282.884739 53.568 
L 282.977764 295.488 
L 283.004342 295.488 
L 283.123944 53.568 
L 283.216969 53.568 
L 283.336571 295.488 
L 283.34986 53.568 
L 283.442885 295.488 
L 283.562487 295.488 
L 283.668801 53.568 
L 283.788403 295.488 
L 283.881427 295.488 
L 284.00103 53.568 
L 284.094054 53.568 
L 284.213657 295.488 
L 284.226946 53.568 
L 284.31997 295.488 
L 284.439573 295.488 
L 284.545886 53.568 
L 284.665489 295.488 
L 284.758513 295.488 
L 284.878116 53.568 
L 284.97114 53.568 
L 285.090742 295.488 
L 285.104032 53.568 
L 285.197056 295.488 
L 285.316658 295.488 
L 285.422972 53.568 
L 285.542574 295.488 
L 285.635599 295.488 
L 285.755201 53.568 
L 285.901382 53.568 
L 286.020985 295.488 
L 286.193744 295.488 
L 286.300057 53.568 
L 286.41966 295.488 
L 286.512684 295.488 
L 286.632287 53.568 
L 286.791757 53.568 
L 286.911359 295.488 
L 287.070829 295.488 
L 287.177143 53.568 
L 287.296745 295.488 
L 287.38977 295.488 
L 287.509372 53.568 
L 287.655553 53.568 
L 287.775156 295.488 
L 287.947915 295.488 
L 288.054228 53.568 
L 288.173831 295.488 
L 288.266855 295.488 
L 288.386458 53.568 
L 288.545928 53.568 
L 288.66553 295.488 
L 288.825001 295.488 
L 288.931314 53.568 
L 289.050917 295.488 
L 289.143941 295.488 
L 289.263543 53.568 
L 289.423013 53.568 
L 289.542616 295.488 
L 289.702086 295.488 
L 289.8084 53.568 
L 289.928002 295.488 
L 290.021026 295.488 
L 290.140629 53.568 
L 290.300099 53.568 
L 290.419702 295.488 
L 290.579172 295.488 
L 290.685485 53.568 
L 290.805088 295.488 
L 290.898112 295.488 
L 291.017714 53.568 
L 291.177185 53.568 
L 291.296787 295.488 
L 291.323365 295.488 
L 291.442968 53.568 
L 291.496125 53.568 
L 291.602438 295.488 
L 291.642306 53.568 
L 291.708752 295.488 
L 291.722041 295.488 
L 291.841643 53.568 
L 291.921378 53.568 
L 292.040981 295.488 
L 292.080848 295.488 
L 292.134005 53.568 
L 292.187162 295.488 
L 292.413078 295.488 
L 292.53268 53.568 
L 292.54597 53.568 
L 292.665572 295.488 
L 292.758596 295.488 
L 292.878199 53.568 
L 292.957934 53.568 
L 293.077537 295.488 
L 293.157272 53.568 
L 293.18385 295.488 
L 293.383188 295.488 
L 293.489501 53.568 
L 293.609104 295.488 
L 293.688839 295.488 
L 293.795152 53.568 
L 293.914755 295.488 
L 293.941333 295.488 
L 294.047646 53.568 
L 294.15396 295.488 
L 294.273562 53.568 
L 294.393165 295.488 
L 294.499478 295.488 
L 294.605792 53.568 
L 294.619081 295.488 
L 294.712105 53.568 
L 294.95131 53.568 
L 295.031045 295.488 
L 295.057624 53.568 
L 295.070913 53.568 
L 295.190515 295.488 
L 295.27025 295.488 
L 295.389853 53.568 
L 295.403142 53.568 
L 295.522745 295.488 
L 295.629058 53.568 
L 295.748661 295.488 
L 295.854974 295.488 
L 295.974577 53.568 
L 296.041023 53.568 
L 296.160625 295.488 
L 296.24036 295.488 
L 296.359963 53.568 
L 296.386541 295.488 
L 296.466276 53.568 
L 296.678903 53.568 
L 296.798506 295.488 
L 296.811795 295.488 
L 296.825084 53.568 
L 296.918108 295.488 
L 297.117446 295.488 
L 297.223759 53.568 
L 297.343362 295.488 
L 297.423097 295.488 
L 297.542699 53.568 
L 297.582567 53.568 
L 297.68888 295.488 
L 297.715459 53.568 
L 297.795194 295.488 
L 297.994531 295.488 
L 298.100845 53.568 
L 298.220447 295.488 
L 298.300182 295.488 
L 298.419785 53.568 
L 298.459652 53.568 
L 298.565966 295.488 
L 298.592544 53.568 
L 298.672279 295.488 
L 298.871617 295.488 
L 298.97793 53.568 
L 299.097533 295.488 
L 299.177268 295.488 
L 299.29687 53.568 
L 299.336738 53.568 
L 299.443051 295.488 
L 299.46963 53.568 
L 299.549365 295.488 
L 299.748702 295.488 
L 299.855016 53.568 
L 299.974618 295.488 
L 300.054353 295.488 
L 300.173956 53.568 
L 300.293559 53.568 
L 300.413161 295.488 
L 300.625788 295.488 
L 300.732101 53.568 
L 300.851704 295.488 
L 300.931439 295.488 
L 301.051042 53.568 
L 301.170644 53.568 
L 301.290247 295.488 
L 301.502874 295.488 
L 301.609187 53.568 
L 301.728789 295.488 
L 301.808525 295.488 
L 301.928127 53.568 
L 302.04773 53.568 
L 302.167332 295.488 
L 302.379959 295.488 
L 302.486272 53.568 
L 302.605875 295.488 
L 302.68561 295.488 
L 302.805213 53.568 
L 302.924815 53.568 
L 303.044418 295.488 
L 303.257045 295.488 
L 303.363358 53.568 
L 303.482961 295.488 
L 303.562696 295.488 
L 303.682298 53.568 
L 303.801901 53.568 
L 303.921503 295.488 
L 304.13413 295.488 
L 304.240444 53.568 
L 304.360046 295.488 
L 304.439781 295.488 
L 304.559384 53.568 
L 304.678986 53.568 
L 304.798589 295.488 
L 305.011216 295.488 
L 305.117529 53.568 
L 305.237132 295.488 
L 305.316867 295.488 
L 305.436469 53.568 
L 305.556072 53.568 
L 305.675674 295.488 
L 305.728831 295.488 
L 305.848434 53.568 
L 305.875012 53.568 
L 305.994615 295.488 
L 306.07435 53.568 
L 306.100928 295.488 
L 306.127506 295.488 
L 306.247109 53.568 
L 306.326844 53.568 
L 306.446447 295.488 
L 306.473025 295.488 
L 306.55276 53.568 
L 306.579338 295.488 
L 306.845122 295.488 
L 306.964724 53.568 
L 307.084327 295.488 
L 307.164062 295.488 
L 307.283665 53.568 
L 307.3634 53.568 
L 307.469713 295.488 
L 307.589316 53.568 
L 307.708918 295.488 
L 307.748786 295.488 
L 307.762075 53.568 
L 307.855099 295.488 
L 307.881678 295.488 
L 307.894967 53.568 
L 307.987991 295.488 
L 308.067726 295.488 
L 308.187329 53.568 
L 308.306931 295.488 
L 308.426534 53.568 
L 308.519558 295.488 
L 308.532847 53.568 
L 308.63916 53.568 
L 308.758763 295.488 
L 308.772052 295.488 
L 308.878366 53.568 
L 308.944812 295.488 
L 308.984679 53.568 
L 309.051125 53.568 
L 309.064414 295.488 
L 309.157438 53.568 
L 309.356776 53.568 
L 309.476379 295.488 
L 309.489668 295.488 
L 309.502957 53.568 
L 309.595981 295.488 
L 309.662427 295.488 
L 309.78203 53.568 
L 309.901632 295.488 
L 309.954789 295.488 
L 310.061102 53.568 
L 310.180705 295.488 
L 310.220572 295.488 
L 310.233861 53.568 
L 310.326886 295.488 
L 310.340175 295.488 
L 310.459777 53.568 
L 310.473067 53.568 
L 310.592669 295.488 
L 310.672404 295.488 
L 310.792007 53.568 
L 310.805296 53.568 
L 310.818585 295.488 
L 310.911609 53.568 
L 311.097658 53.568 
L 311.21726 295.488 
L 311.536201 295.488 
L 311.615936 53.568 
L 311.642514 295.488 
L 311.722249 295.488 
L 311.841852 53.568 
L 311.855141 295.488 
L 311.948165 53.568 
L 311.988033 53.568 
L 312.107635 295.488 
L 312.120924 53.568 
L 312.213949 295.488 
L 312.373419 295.488 
L 312.493021 53.568 
L 312.599335 295.488 
L 312.718937 53.568 
L 312.732226 295.488 
L 312.825251 53.568 
L 312.865118 53.568 
L 312.984721 295.488 
L 312.99801 53.568 
L 313.091034 295.488 
L 313.250504 295.488 
L 313.370107 53.568 
L 313.47642 295.488 
L 313.596023 53.568 
L 313.609312 295.488 
L 313.702336 53.568 
L 313.742204 53.568 
L 313.861806 295.488 
L 313.875095 53.568 
L 313.96812 295.488 
L 314.12759 295.488 
L 314.247192 53.568 
L 314.353506 295.488 
L 314.473108 53.568 
L 314.486397 295.488 
L 314.579422 53.568 
L 314.699024 53.568 
L 314.818627 295.488 
L 315.004675 295.488 
L 315.124278 53.568 
L 315.230591 295.488 
L 315.350194 53.568 
L 315.363483 295.488 
L 315.456507 53.568 
L 315.57611 53.568 
L 315.695712 295.488 
L 315.881761 295.488 
L 316.001363 53.568 
L 316.107677 295.488 
L 316.227279 53.568 
L 316.240569 295.488 
L 316.333593 53.568 
L 316.453195 53.568 
L 316.572798 295.488 
L 316.758846 295.488 
L 316.878449 53.568 
L 316.984762 295.488 
L 317.104365 53.568 
L 317.117654 295.488 
L 317.210678 53.568 
L 317.330281 53.568 
L 317.449884 295.488 
L 317.635932 295.488 
L 317.755535 53.568 
L 317.861848 295.488 
L 317.981451 53.568 
L 317.99474 295.488 
L 318.087764 53.568 
L 318.207367 53.568 
L 318.326969 295.488 
L 318.513018 295.488 
L 318.63262 53.568 
L 318.738934 295.488 
L 318.858536 53.568 
L 318.871825 295.488 
L 318.964849 53.568 
L 319.084452 53.568 
L 319.204055 295.488 
L 319.390103 295.488 
L 319.509706 53.568 
L 319.616019 295.488 
L 319.735622 53.568 
L 319.748911 295.488 
L 319.841935 53.568 
L 319.961538 53.568 
L 320.08114 295.488 
L 320.147586 295.488 
L 320.267189 53.568 
L 320.280478 53.568 
L 320.386791 295.488 
L 320.466526 53.568 
L 320.493105 295.488 
L 320.55955 295.488 
L 320.679153 53.568 
L 320.758888 53.568 
L 320.878491 295.488 
L 320.984804 53.568 
L 321.104407 295.488 
L 321.224009 295.488 
L 321.343612 53.568 
L 321.383479 53.568 
L 321.503082 295.488 
L 321.596106 295.488 
L 321.715709 53.568 
L 321.808733 53.568 
L 321.915046 295.488 
L 321.954914 53.568 
L 322.02136 295.488 
L 322.154251 295.488 
L 322.167541 53.568 
L 322.260565 295.488 
L 322.327011 295.488 
L 322.3403 53.568 
L 322.433324 295.488 
L 322.473192 295.488 
L 322.579505 53.568 
L 322.699108 295.488 
L 322.712397 295.488 
L 322.831999 53.568 
L 322.938313 295.488 
L 323.057915 53.568 
L 323.071205 53.568 
L 323.190807 295.488 
L 323.270542 295.488 
L 323.390145 53.568 
L 323.416723 53.568 
L 323.430012 295.488 
L 323.523037 53.568 
L 323.78882 53.568 
L 323.908423 295.488 
L 324.067893 295.488 
L 324.187495 53.568 
L 324.307098 295.488 
L 324.320387 295.488 
L 324.4267 53.568 
L 324.546303 295.488 
L 324.626038 295.488 
L 324.639327 53.568 
L 324.732351 295.488 
L 324.745641 295.488 
L 324.865243 53.568 
L 324.891822 53.568 
L 325.011424 295.488 
L 325.051292 295.488 
L 325.144316 53.568 
L 325.157605 295.488 
L 325.184183 295.488 
L 325.303786 53.568 
L 325.489834 53.568 
L 325.609437 295.488 
L 325.928377 295.488 
L 326.008112 53.568 
L 326.034691 295.488 
L 326.087847 295.488 
L 326.101136 53.568 
L 326.194161 295.488 
L 326.220739 295.488 
L 326.340342 53.568 
L 326.433366 53.568 
L 326.552968 295.488 
L 326.566258 53.568 
L 326.659282 295.488 
L 326.778884 295.488 
L 326.885198 53.568 
L 327.0048 295.488 
L 327.097825 295.488 
L 327.217427 53.568 
L 327.310451 53.568 
L 327.430054 295.488 
L 327.443343 53.568 
L 327.536367 295.488 
L 327.65597 295.488 
L 327.762283 53.568 
L 327.881886 295.488 
L 327.97491 295.488 
L 328.094513 53.568 
L 328.187537 53.568 
L 328.30714 295.488 
L 328.320429 53.568 
L 328.413453 295.488 
L 328.533055 295.488 
L 328.639369 53.568 
L 328.758971 295.488 
L 328.851996 295.488 
L 328.971598 53.568 
L 329.117779 53.568 
L 329.237382 295.488 
L 329.410141 295.488 
L 329.516454 53.568 
L 329.636057 295.488 
L 329.729081 295.488 
L 329.848684 53.568 
L 329.994865 53.568 
L 330.114467 295.488 
L 330.287227 295.488 
L 330.39354 53.568 
L 330.513143 295.488 
L 330.606167 295.488 
L 330.725769 53.568 
L 330.87195 53.568 
L 330.991553 295.488 
L 331.164312 295.488 
L 331.270626 53.568 
L 331.390228 295.488 
L 331.483252 295.488 
L 331.602855 53.568 
L 331.762325 53.568 
L 331.881928 295.488 
L 332.041398 295.488 
L 332.147711 53.568 
L 332.267314 295.488 
L 332.360338 295.488 
L 332.47994 53.568 
L 332.639411 53.568 
L 332.759013 295.488 
L 332.918483 295.488 
L 333.024797 53.568 
L 333.144399 295.488 
L 333.237423 295.488 
L 333.357026 53.568 
L 333.516496 53.568 
L 333.636099 295.488 
L 333.795569 295.488 
L 333.901882 53.568 
L 334.021485 295.488 
L 334.114509 295.488 
L 334.234112 53.568 
L 334.393582 53.568 
L 334.513184 295.488 
L 334.539763 295.488 
L 334.659365 53.568 
L 334.712522 53.568 
L 334.818835 295.488 
L 334.858703 53.568 
L 334.925149 295.488 
L 334.938438 295.488 
L 335.05804 53.568 
L 335.137775 53.568 
L 335.257378 295.488 
L 335.297246 295.488 
L 335.337113 53.568 
L 335.403559 295.488 
L 335.629475 295.488 
L 335.749078 53.568 
L 335.762367 53.568 
L 335.881969 295.488 
L 335.974993 295.488 
L 336.094596 53.568 
L 336.174331 53.568 
L 336.293934 295.488 
L 336.373669 53.568 
L 336.400247 295.488 
L 336.599585 295.488 
L 336.705898 53.568 
L 336.825501 295.488 
L 336.891947 295.488 
L 337.011549 53.568 
L 337.131152 295.488 
L 337.15773 295.488 
L 337.264043 53.568 
L 337.370357 295.488 
L 337.489959 53.568 
L 337.609562 295.488 
L 337.715875 295.488 
L 337.822189 53.568 
L 337.835478 295.488 
L 337.928502 53.568 
L 338.167707 53.568 
L 338.247442 295.488 
L 338.274021 53.568 
L 338.28731 53.568 
L 338.406913 295.488 
L 338.486648 295.488 
L 338.60625 53.568 
L 338.725853 295.488 
L 338.739142 295.488 
L 338.845455 53.568 
L 338.965058 295.488 
L 339.071371 295.488 
L 339.190974 53.568 
L 339.283998 53.568 
L 339.403601 295.488 
L 339.456757 295.488 
L 339.57636 53.568 
L 339.602938 295.488 
L 339.682673 53.568 
L 339.8953 53.568 
L 340.014903 295.488 
L 340.028192 295.488 
L 340.041481 53.568 
L 340.134505 295.488 
L 340.333843 295.488 
L 340.440156 53.568 
L 340.559759 295.488 
L 340.639494 295.488 
L 340.759096 53.568 
L 340.798964 53.568 
L 340.905277 295.488 
L 340.931856 53.568 
L 341.011591 295.488 
L 341.210928 295.488 
L 341.317242 53.568 
L 341.436844 295.488 
L 341.516579 295.488 
L 341.636182 53.568 
L 341.67605 53.568 
L 341.782363 295.488 
L 341.808941 53.568 
L 341.888676 295.488 
L 342.088014 295.488 
L 342.194327 53.568 
L 342.31393 295.488 
L 342.393665 295.488 
L 342.513268 53.568 
L 342.63287 53.568 
L 342.752473 295.488 
L 342.9651 295.488 
L 343.071413 53.568 
L 343.191016 295.488 
L 343.270751 295.488 
L 343.390353 53.568 
L 343.509956 53.568 
L 343.629558 295.488 
L 343.842185 295.488 
L 343.948498 53.568 
L 344.068101 295.488 
L 344.147836 295.488 
L 344.267439 53.568 
L 344.387041 53.568 
L 344.506644 295.488 
L 344.719271 295.488 
L 344.825584 53.568 
L 344.945187 295.488 
L 345.024922 295.488 
L 345.144524 53.568 
L 345.264127 53.568 
L 345.383729 295.488 
L 345.596356 295.488 
L 345.70267 53.568 
L 345.822272 295.488 
L 345.902007 295.488 
L 346.02161 53.568 
L 346.141212 53.568 
L 346.260815 295.488 
L 346.473442 295.488 
L 346.579755 53.568 
L 346.699358 295.488 
L 346.779093 295.488 
L 346.898695 53.568 
L 347.018298 53.568 
L 347.1379 295.488 
L 347.350527 295.488 
L 347.456841 53.568 
L 347.576443 295.488 
L 347.656178 295.488 
L 347.775781 53.568 
L 347.895383 53.568 
L 348.014986 295.488 
L 348.227613 295.488 
L 348.333926 53.568 
L 348.453529 295.488 
L 348.533264 295.488 
L 348.652866 53.568 
L 348.772469 53.568 
L 348.892072 295.488 
L 348.945228 295.488 
L 349.064831 53.568 
L 349.091409 53.568 
L 349.211012 295.488 
L 349.290747 53.568 
L 349.317325 295.488 
L 349.343904 295.488 
L 349.463506 53.568 
L 349.543241 53.568 
L 349.662844 295.488 
L 349.689422 295.488 
L 349.769157 53.568 
L 349.795735 295.488 
L 350.061519 295.488 
L 350.181122 53.568 
L 350.300724 295.488 
L 350.380459 295.488 
L 350.500062 53.568 
L 350.579797 53.568 
L 350.68611 295.488 
L 350.805713 53.568 
L 350.925315 295.488 
L 350.965183 295.488 
L 350.978472 53.568 
L 351.071496 295.488 
L 351.098075 295.488 
L 351.111364 53.568 
L 351.204388 295.488 
L 351.284123 295.488 
L 351.403726 53.568 
L 351.523328 295.488 
L 351.642931 53.568 
L 351.735955 295.488 
L 351.749244 53.568 
L 351.855558 53.568 
L 351.97516 295.488 
L 351.988449 295.488 
L 352.094763 53.568 
L 352.161209 295.488 
L 352.201076 53.568 
L 352.267522 53.568 
L 352.280811 295.488 
L 352.373835 53.568 
L 352.573173 53.568 
L 352.692776 295.488 
L 352.706065 295.488 
L 352.719354 53.568 
L 352.812378 295.488 
L 352.878824 295.488 
L 352.998427 53.568 
L 353.118029 295.488 
L 353.171186 295.488 
L 353.277499 53.568 
L 353.397102 295.488 
L 353.436969 295.488 
L 353.450259 53.568 
L 353.543283 295.488 
L 353.556572 295.488 
L 353.676175 53.568 
L 353.689464 53.568 
L 353.809066 295.488 
L 353.888801 295.488 
L 354.008404 53.568 
L 354.021693 53.568 
L 354.034982 295.488 
L 354.128007 53.568 
L 354.314055 53.568 
L 354.433658 295.488 
L 354.752598 295.488 
L 354.832333 53.568 
L 354.858911 295.488 
L 354.938646 295.488 
L 355.058249 53.568 
L 355.071538 295.488 
L 355.164562 53.568 
L 355.20443 53.568 
L 355.324032 295.488 
L 355.337321 53.568 
L 355.430346 295.488 
L 355.589816 295.488 
L 355.709418 53.568 
L 355.815732 295.488 
L 355.935334 53.568 
L 355.948624 295.488 
L 356.041648 53.568 
L 356.081515 53.568 
L 356.201118 295.488 
L 356.214407 53.568 
L 356.307431 295.488 
L 356.466901 295.488 
L 356.586504 53.568 
L 356.692817 295.488 
L 356.81242 53.568 
L 356.825709 295.488 
L 356.918733 53.568 
L 357.038336 53.568 
L 357.157938 295.488 
L 357.343987 295.488 
L 357.463589 53.568 
L 357.569903 295.488 
L 357.689505 53.568 
L 357.702795 295.488 
L 357.795819 53.568 
L 357.915421 53.568 
L 358.035024 295.488 
L 358.221072 295.488 
L 358.340675 53.568 
L 358.446988 295.488 
L 358.566591 53.568 
L 358.57988 295.488 
L 358.672904 53.568 
L 358.792507 53.568 
L 358.91211 295.488 
L 359.098158 295.488 
L 359.217761 53.568 
L 359.324074 295.488 
L 359.443677 53.568 
L 359.456966 295.488 
L 359.54999 53.568 
L 359.669593 53.568 
L 359.789195 295.488 
L 359.975244 295.488 
L 360.094846 53.568 
L 360.20116 295.488 
L 360.320762 53.568 
L 360.334051 295.488 
L 360.427076 53.568 
L 360.546678 53.568 
L 360.666281 295.488 
L 360.852329 295.488 
L 360.971932 53.568 
L 361.078245 295.488 
L 361.197848 53.568 
L 361.211137 295.488 
L 361.304161 53.568 
L 361.423764 53.568 
L 361.543366 295.488 
L 361.729415 295.488 
L 361.849017 53.568 
L 361.955331 295.488 
L 362.074933 53.568 
L 362.088222 295.488 
L 362.181247 53.568 
L 362.300849 53.568 
L 362.420452 295.488 
L 362.6065 295.488 
L 362.726103 53.568 
L 362.832416 295.488 
L 362.952019 53.568 
L 362.965308 295.488 
L 363.058332 53.568 
L 363.177935 53.568 
L 363.297537 295.488 
L 363.363983 295.488 
L 363.483586 53.568 
L 363.496875 53.568 
L 363.603188 295.488 
L 363.682923 53.568 
L 363.709502 295.488 
L 363.775948 295.488 
L 363.89555 53.568 
L 363.975285 53.568 
L 364.094888 295.488 
L 364.161334 53.568 
L 364.201201 295.488 
L 364.440406 295.488 
L 364.560009 53.568 
L 364.599876 53.568 
L 364.719479 295.488 
L 364.812503 295.488 
L 364.932106 53.568 
L 365.02513 53.568 
L 365.131443 295.488 
L 365.171311 53.568 
L 365.237757 295.488 
L 365.370649 295.488 
L 365.383938 53.568 
L 365.476962 295.488 
L 365.543408 295.488 
L 365.556697 53.568 
L 365.649721 295.488 
L 365.689589 295.488 
L 365.795902 53.568 
L 365.915505 295.488 
L 365.928794 295.488 
L 366.048397 53.568 
L 366.15471 295.488 
L 366.274313 53.568 
L 366.287602 53.568 
L 366.407204 295.488 
L 366.486939 295.488 
L 366.606542 53.568 
L 366.63312 53.568 
L 366.646409 295.488 
L 366.739434 53.568 
L 367.005217 53.568 
L 367.12482 295.488 
L 367.28429 295.488 
L 367.403892 53.568 
L 367.523495 295.488 
L 367.536784 295.488 
L 367.643098 53.568 
L 367.7627 295.488 
L 367.842435 295.488 
L 367.855724 53.568 
L 367.948749 295.488 
L 367.962038 295.488 
L 368.068351 53.568 
L 368.187954 295.488 
L 368.267689 295.488 
L 368.360713 53.568 
L 368.374002 295.488 
L 368.400581 295.488 
L 368.520183 53.568 
L 368.706232 53.568 
L 368.825834 295.488 
L 369.144774 295.488 
L 369.224509 53.568 
L 369.251088 295.488 
L 369.304244 295.488 
L 369.317534 53.568 
L 369.410558 295.488 
L 369.437136 295.488 
L 369.556739 53.568 
L 369.649763 53.568 
L 369.769366 295.488 
L 369.782655 53.568 
L 369.875679 295.488 
L 369.995282 295.488 
L 370.101595 53.568 
L 370.221197 295.488 
L 370.314222 295.488 
L 370.433824 53.568 
L 370.526849 53.568 
L 370.646451 295.488 
L 370.65974 53.568 
L 370.752764 295.488 
L 370.872367 295.488 
L 370.97868 53.568 
L 371.098283 295.488 
L 371.191307 295.488 
L 371.31091 53.568 
L 371.403934 53.568 
L 371.523537 295.488 
L 371.536826 53.568 
L 371.62985 295.488 
L 371.749453 295.488 
L 371.855766 53.568 
L 371.975369 295.488 
L 372.068393 295.488 
L 372.187995 53.568 
L 372.334176 53.568 
L 372.453779 295.488 
L 372.626538 295.488 
L 372.732852 53.568 
L 372.852454 295.488 
L 372.945478 295.488 
L 373.065081 53.568 
L 373.224551 53.568 
L 373.344154 295.488 
L 373.503624 295.488 
L 373.609937 53.568 
L 373.72954 295.488 
L 373.822564 295.488 
L 373.942166 53.568 
L 374.088347 53.568 
L 374.20795 295.488 
L 374.380709 295.488 
L 374.487023 53.568 
L 374.606625 295.488 
L 374.699649 295.488 
L 374.819252 53.568 
L 374.965433 53.568 
L 375.085036 295.488 
L 375.257795 295.488 
L 375.364108 53.568 
L 375.483711 295.488 
L 375.576735 295.488 
L 375.696338 53.568 
L 375.855808 53.568 
L 375.97541 295.488 
L 376.13488 295.488 
L 376.241194 53.568 
L 376.360796 295.488 
L 376.453821 295.488 
L 376.573423 53.568 
L 376.732893 53.568 
L 376.852496 295.488 
L 377.011966 295.488 
L 377.118279 53.568 
L 377.237882 295.488 
L 377.330906 295.488 
L 377.450509 53.568 
L 377.609979 53.568 
L 377.729581 295.488 
L 377.75616 295.488 
L 377.875762 53.568 
L 377.928919 53.568 
L 378.035232 295.488 
L 378.0751 53.568 
L 378.141546 295.488 
L 378.154835 295.488 
L 378.274438 53.568 
L 378.354173 53.568 
L 378.473775 295.488 
L 378.513643 295.488 
L 378.566799 53.568 
L 378.619956 295.488 
L 378.845872 295.488 
L 378.965475 53.568 
L 378.978764 53.568 
L 379.098366 295.488 
L 379.191391 295.488 
L 379.310993 53.568 
L 379.390728 53.568 
L 379.510331 295.488 
L 379.590066 53.568 
L 379.616644 295.488 
L 379.815982 295.488 
L 379.922295 53.568 
L 380.041898 295.488 
L 380.121633 295.488 
L 380.227946 53.568 
L 380.347549 295.488 
L 380.374127 295.488 
L 380.480441 53.568 
L 380.586754 295.488 
L 380.706357 53.568 
L 380.825959 295.488 
L 380.932273 295.488 
L 381.038586 53.568 
L 381.051875 295.488 
L 381.144899 53.568 
L 381.384104 53.568 
L 381.46384 295.488 
L 381.490418 53.568 
L 381.503707 53.568 
L 381.62331 295.488 
L 381.703045 295.488 
L 381.822647 53.568 
L 381.835936 53.568 
L 381.955539 295.488 
L 382.061852 53.568 
L 382.181455 295.488 
L 382.287768 295.488 
L 382.407371 53.568 
L 382.473817 53.568 
L 382.593419 295.488 
L 382.673154 295.488 
L 382.792757 53.568 
L 382.819335 295.488 
L 382.89907 53.568 
L 383.111697 53.568 
L 383.2313 295.488 
L 383.244589 295.488 
L 383.257878 53.568 
L 383.350902 295.488 
L 383.55024 295.488 
L 383.656553 53.568 
L 383.776156 295.488 
L 383.855891 295.488 
L 383.975494 53.568 
L 384.015361 53.568 
L 384.121675 295.488 
L 384.148253 53.568 
L 384.227988 295.488 
L 384.427326 295.488 
L 384.533639 53.568 
L 384.653242 295.488 
L 384.732977 295.488 
L 384.852579 53.568 
L 384.892447 53.568 
L 384.99876 295.488 
L 385.025338 53.568 
L 385.105073 295.488 
L 385.304411 295.488 
L 385.410725 53.568 
L 385.530327 295.488 
L 385.610062 295.488 
L 385.729665 53.568 
L 385.849267 53.568 
L 385.96887 295.488 
L 386.181497 295.488 
L 386.28781 53.568 
L 386.407413 295.488 
L 386.487148 295.488 
L 386.60675 53.568 
L 386.726353 53.568 
L 386.845955 295.488 
L 387.058582 295.488 
L 387.164896 53.568 
L 387.284498 295.488 
L 387.364233 295.488 
L 387.483836 53.568 
L 387.603438 53.568 
L 387.723041 295.488 
L 387.935668 295.488 
L 388.041981 53.568 
L 388.161584 295.488 
L 388.241319 295.488 
L 388.360921 53.568 
L 388.480524 53.568 
L 388.600127 295.488 
L 388.812753 295.488 
L 388.919067 53.568 
L 389.038669 295.488 
L 389.118404 295.488 
L 389.238007 53.568 
L 389.277874 53.568 
L 389.384188 295.488 
L 389.410766 53.568 
L 389.490501 295.488 
L 389.689839 295.488 
L 389.796152 53.568 
L 389.915755 295.488 
L 389.99549 295.488 
L 390.115092 53.568 
L 390.234695 53.568 
L 390.354298 295.488 
L 390.566924 295.488 
L 390.673238 53.568 
L 390.79284 295.488 
L 390.872575 295.488 
L 390.992178 53.568 
L 391.111781 53.568 
L 391.231383 295.488 
L 391.44401 295.488 
L 391.550323 53.568 
L 391.669926 295.488 
L 391.749661 295.488 
L 391.869264 53.568 
L 391.988866 53.568 
L 392.108469 295.488 
L 392.161625 295.488 
L 392.281228 53.568 
L 392.307806 53.568 
L 392.427409 295.488 
L 392.507144 53.568 
L 392.533722 295.488 
L 392.560301 295.488 
L 392.679903 53.568 
L 392.759638 53.568 
L 392.879241 295.488 
L 392.905819 295.488 
L 392.985554 53.568 
L 393.012133 295.488 
L 393.277916 295.488 
L 393.397519 53.568 
L 393.517121 295.488 
L 393.596856 295.488 
L 393.716459 53.568 
L 393.796194 53.568 
L 393.902507 295.488 
L 394.02211 53.568 
L 394.141712 295.488 
L 394.18158 295.488 
L 394.194869 53.568 
L 394.287893 295.488 
L 394.314472 295.488 
L 394.327761 53.568 
L 394.420785 295.488 
L 394.50052 295.488 
L 394.620123 53.568 
L 394.739725 295.488 
L 394.859328 53.568 
L 394.952352 295.488 
L 394.965641 53.568 
L 395.071955 53.568 
L 395.191557 295.488 
L 395.297871 295.488 
L 395.417473 53.568 
L 395.483919 53.568 
L 395.497208 295.488 
L 395.590233 53.568 
L 395.78957 53.568 
L 395.909173 295.488 
L 395.922462 295.488 
L 395.935751 53.568 
L 396.028775 295.488 
L 396.095221 295.488 
L 396.214824 53.568 
L 396.334426 295.488 
L 396.387583 295.488 
L 396.493896 53.568 
L 396.613499 295.488 
L 396.653367 295.488 
L 396.666656 53.568 
L 396.75968 295.488 
L 396.772969 295.488 
L 396.892572 53.568 
L 396.905861 53.568 
L 397.025463 295.488 
L 397.105199 295.488 
L 397.224801 53.568 
L 397.23809 53.568 
L 397.251379 295.488 
L 397.344404 53.568 
L 397.530452 53.568 
L 397.650055 295.488 
L 397.968995 295.488 
L 398.04873 53.568 
L 398.075308 295.488 
L 398.155043 295.488 
L 398.274646 53.568 
L 398.287935 295.488 
L 398.380959 53.568 
L 398.420827 53.568 
L 398.434116 295.488 
L 398.487273 53.568 
" clip-path="url(#p6a939e613d)" style="fill: none; stroke: #1f77b4; stroke-width: 0.5; stroke-linecap: square"/>
   </g>
   <g id="patch_3">
    <path d="M 57.6 307.584 
L 57.6 41.472 
" style="fill: none; stroke: #000000; stroke-width: 0.8; stroke-linejoin: miter; stroke-linecap: square"/>
   </g>
   <g id="patch_4">
    <path d="M 414.72 307.584 
L 414.72 41.472 
" style="fill: none; stroke: #000000; stroke-width: 0.8; stroke-linejoin: miter; stroke-linecap: square"/>
   </g>
   <g id="patch_5">
    <path d="M 57.6 307.584 
L 414.72 307.584 
" style="fill: none; stroke: #000000; stroke-width: 0.8; stroke-linejoin: miter; stroke-linecap: square"/>
   </g>
   <g id="patch_6">
    <path d="M 57.6 41.472 
L 414.72 41.472 
" style="fill: none; stroke: #000000; stroke-width: 0.8; stroke-linejoin: miter; stroke-linecap: square"/>
   </g>
  </g>
 </g>
 <defs>
  <clipPath id="p6a939e613d">
   <rect x="57.6" y="41.472" width="357.12" height="266.112"/>
  </clipPath>
 </defs>
</svg>
