<?xml version="1.0" encoding="utf-8" standalone="no"?>
<!DOCTYPE svg PUBLIC "-//W3C//DTD SVG 1.1//EN"
  "http://www.w3.org/Graphics/SVG/1.1/DTD/svg11.dtd">
<svg xmlns:xlink="http://www.w3.org/1999/xlink" width="460.8pt" height="345.6pt" viewBox="0 0 460.8 345.6" xmlns="http://www.w3.org/2000/svg" version="1.1">
 <metadata>
  <rdf:RDF xmlns:dc="http://purl.org/dc/elements/1.1/" xmlns:cc="http://creativecommons.org/ns#" xmlns:rdf="http://www.w3.org/1999/02/22-rdf-syntax-ns#">
   <cc:Work>
    <dc:type rdf:resource="http://purl.org/dc/dcmitype/StillImage"/>
    <dc:date>2024-09-14T17:04:40.511233</dc:date>
    <dc:format>image/svg+xml</dc:format>
    <dc:creator>
     <cc:Agent>
      <dc:title>Matplotlib v3.9.2, https://matplotlib.org/</dc:title>
     </cc:Agent>
    </dc:creator>
   </cc:Work>
  </rdf:RDF>
 </metadata>
 <defs>
  <style type="text/css">*{stroke-linejoin: round; stroke-linecap: butt}</style>
 </defs>
 <g id="figure_1">
  <g id="patch_1">
   <path d="M 0 345.6 
L 460.8 345.6 
L 460.8 0 
L 0 0 
z
" style="fill: #ffffff"/>
  </g>
  <g id="axes_1">
   <g id="patch_2">
    <path d="M 57.6 307.584 
L 414.72 307.584 
L 414.72 41.472 
L 57.6 41.472 
z
" style="fill: #ffffff"/>
   </g>
   <g id="matplotlib.axis_1">
    <g id="xtick_1">
     <g id="line2d_1">
      <defs>
       <path id="me3373ca8ab" d="M 0 0 
L 0 3.5 
" style="stroke: #000000; stroke-width: 0.8"/>
      </defs>
      <g>
       <use xlink:href="#me3373ca8ab" x="73.832727" y="307.584" style="stroke: #000000; stroke-width: 0.8"/>
      </g>
     </g>
     <g id="text_1">
      <!-- 0 -->
      <g transform="translate(70.651477 322.182437) scale(0.1 -0.1)">
       <defs>
        <path id="DejaVuSans-30" d="M 2034 4250 
Q 1547 4250 1301 3770 
Q 1056 3291 1056 2328 
Q 1056 1369 1301 889 
Q 1547 409 2034 409 
Q 2525 409 2770 889 
Q 3016 1369 3016 2328 
Q 3016 3291 2770 3770 
Q 2525 4250 2034 4250 
z
M 2034 4750 
Q 2819 4750 3233 4129 
Q 3647 3509 3647 2328 
Q 3647 1150 3233 529 
Q 2819 -91 2034 -91 
Q 1250 -91 836 529 
Q 422 1150 422 2328 
Q 422 3509 836 4129 
Q 1250 4750 2034 4750 
z
" transform="scale(0.015625)"/>
       </defs>
       <use xlink:href="#DejaVuSans-30"/>
      </g>
     </g>
    </g>
    <g id="xtick_2">
     <g id="line2d_2">
      <g>
       <use xlink:href="#me3373ca8ab" x="140.278602" y="307.584" style="stroke: #000000; stroke-width: 0.8"/>
      </g>
     </g>
     <g id="text_2">
      <!-- 5000 -->
      <g transform="translate(127.553602 322.182437) scale(0.1 -0.1)">
       <defs>
        <path id="DejaVuSans-35" d="M 691 4666 
L 3169 4666 
L 3169 4134 
L 1269 4134 
L 1269 2991 
Q 1406 3038 1543 3061 
Q 1681 3084 1819 3084 
Q 2600 3084 3056 2656 
Q 3513 2228 3513 1497 
Q 3513 744 3044 326 
Q 2575 -91 1722 -91 
Q 1428 -91 1123 -41 
Q 819 9 494 109 
L 494 744 
Q 775 591 1075 516 
Q 1375 441 1709 441 
Q 2250 441 2565 725 
Q 2881 1009 2881 1497 
Q 2881 1984 2565 2268 
Q 2250 2553 1709 2553 
Q 1456 2553 1204 2497 
Q 953 2441 691 2322 
L 691 4666 
z
" transform="scale(0.015625)"/>
       </defs>
       <use xlink:href="#DejaVuSans-35"/>
       <use xlink:href="#DejaVuSans-30" x="63.623047"/>
       <use xlink:href="#DejaVuSans-30" x="127.246094"/>
       <use xlink:href="#DejaVuSans-30" x="190.869141"/>
      </g>
     </g>
    </g>
    <g id="xtick_3">
     <g id="line2d_3">
      <g>
       <use xlink:href="#me3373ca8ab" x="206.724477" y="307.584" style="stroke: #000000; stroke-width: 0.8"/>
      </g>
     </g>
     <g id="text_3">
      <!-- 10000 -->
      <g transform="translate(190.818227 322.182437) scale(0.1 -0.1)">
       <defs>
        <path id="DejaVuSans-31" d="M 794 531 
L 1825 531 
L 1825 4091 
L 703 3866 
L 703 4441 
L 1819 4666 
L 2450 4666 
L 2450 531 
L 3481 531 
L 3481 0 
L 794 0 
L 794 531 
z
" transform="scale(0.015625)"/>
       </defs>
       <use xlink:href="#DejaVuSans-31"/>
       <use xlink:href="#DejaVuSans-30" x="63.623047"/>
       <use xlink:href="#DejaVuSans-30" x="127.246094"/>
       <use xlink:href="#DejaVuSans-30" x="190.869141"/>
       <use xlink:href="#DejaVuSans-30" x="254.492188"/>
      </g>
     </g>
    </g>
    <g id="xtick_4">
     <g id="line2d_4">
      <g>
       <use xlink:href="#me3373ca8ab" x="273.170352" y="307.584" style="stroke: #000000; stroke-width: 0.8"/>
      </g>
     </g>
     <g id="text_4">
      <!-- 15000 -->
      <g transform="translate(257.264102 322.182437) scale(0.1 -0.1)">
       <use xlink:href="#DejaVuSans-31"/>
       <use xlink:href="#DejaVuSans-35" x="63.623047"/>
       <use xlink:href="#DejaVuSans-30" x="127.246094"/>
       <use xlink:href="#DejaVuSans-30" x="190.869141"/>
       <use xlink:href="#DejaVuSans-30" x="254.492188"/>
      </g>
     </g>
    </g>
    <g id="xtick_5">
     <g id="line2d_5">
      <g>
       <use xlink:href="#me3373ca8ab" x="339.616227" y="307.584" style="stroke: #000000; stroke-width: 0.8"/>
      </g>
     </g>
     <g id="text_5">
      <!-- 20000 -->
      <g transform="translate(323.709977 322.182437) scale(0.1 -0.1)">
       <defs>
        <path id="DejaVuSans-32" d="M 1228 531 
L 3431 531 
L 3431 0 
L 469 0 
L 469 531 
Q 828 903 1448 1529 
Q 2069 2156 2228 2338 
Q 2531 2678 2651 2914 
Q 2772 3150 2772 3378 
Q 2772 3750 2511 3984 
Q 2250 4219 1831 4219 
Q 1534 4219 1204 4116 
Q 875 4013 500 3803 
L 500 4441 
Q 881 4594 1212 4672 
Q 1544 4750 1819 4750 
Q 2544 4750 2975 4387 
Q 3406 4025 3406 3419 
Q 3406 3131 3298 2873 
Q 3191 2616 2906 2266 
Q 2828 2175 2409 1742 
Q 1991 1309 1228 531 
z
" transform="scale(0.015625)"/>
       </defs>
       <use xlink:href="#DejaVuSans-32"/>
       <use xlink:href="#DejaVuSans-30" x="63.623047"/>
       <use xlink:href="#DejaVuSans-30" x="127.246094"/>
       <use xlink:href="#DejaVuSans-30" x="190.869141"/>
       <use xlink:href="#DejaVuSans-30" x="254.492188"/>
      </g>
     </g>
    </g>
    <g id="xtick_6">
     <g id="line2d_6">
      <g>
       <use xlink:href="#me3373ca8ab" x="406.062102" y="307.584" style="stroke: #000000; stroke-width: 0.8"/>
      </g>
     </g>
     <g id="text_6">
      <!-- 25000 -->
      <g transform="translate(390.155852 322.182437) scale(0.1 -0.1)">
       <use xlink:href="#DejaVuSans-32"/>
       <use xlink:href="#DejaVuSans-35" x="63.623047"/>
       <use xlink:href="#DejaVuSans-30" x="127.246094"/>
       <use xlink:href="#DejaVuSans-30" x="190.869141"/>
       <use xlink:href="#DejaVuSans-30" x="254.492188"/>
      </g>
     </g>
    </g>
   </g>
   <g id="matplotlib.axis_2">
    <g id="ytick_1">
     <g id="line2d_7">
      <defs>
       <path id="m3c2f143d71" d="M 0 0 
L -3.5 0 
" style="stroke: #000000; stroke-width: 0.8"/>
      </defs>
      <g>
       <use xlink:href="#m3c2f143d71" x="57.6" y="295.488" style="stroke: #000000; stroke-width: 0.8"/>
      </g>
     </g>
     <g id="text_7">
      <!-- 0.0 -->
      <g transform="translate(34.696875 299.287219) scale(0.1 -0.1)">
       <defs>
        <path id="DejaVuSans-2e" d="M 684 794 
L 1344 794 
L 1344 0 
L 684 0 
L 684 794 
z
" transform="scale(0.015625)"/>
       </defs>
       <use xlink:href="#DejaVuSans-30"/>
       <use xlink:href="#DejaVuSans-2e" x="63.623047"/>
       <use xlink:href="#DejaVuSans-30" x="95.410156"/>
      </g>
     </g>
    </g>
    <g id="ytick_2">
     <g id="line2d_8">
      <g>
       <use xlink:href="#m3c2f143d71" x="57.6" y="247.104" style="stroke: #000000; stroke-width: 0.8"/>
      </g>
     </g>
     <g id="text_8">
      <!-- 0.2 -->
      <g transform="translate(34.696875 250.903219) scale(0.1 -0.1)">
       <use xlink:href="#DejaVuSans-30"/>
       <use xlink:href="#DejaVuSans-2e" x="63.623047"/>
       <use xlink:href="#DejaVuSans-32" x="95.410156"/>
      </g>
     </g>
    </g>
    <g id="ytick_3">
     <g id="line2d_9">
      <g>
       <use xlink:href="#m3c2f143d71" x="57.6" y="198.72" style="stroke: #000000; stroke-width: 0.8"/>
      </g>
     </g>
     <g id="text_9">
      <!-- 0.4 -->
      <g transform="translate(34.696875 202.519219) scale(0.1 -0.1)">
       <defs>
        <path id="DejaVuSans-34" d="M 2419 4116 
L 825 1625 
L 2419 1625 
L 2419 4116 
z
M 2253 4666 
L 3047 4666 
L 3047 1625 
L 3713 1625 
L 3713 1100 
L 3047 1100 
L 3047 0 
L 2419 0 
L 2419 1100 
L 313 1100 
L 313 1709 
L 2253 4666 
z
" transform="scale(0.015625)"/>
       </defs>
       <use xlink:href="#DejaVuSans-30"/>
       <use xlink:href="#DejaVuSans-2e" x="63.623047"/>
       <use xlink:href="#DejaVuSans-34" x="95.410156"/>
      </g>
     </g>
    </g>
    <g id="ytick_4">
     <g id="line2d_10">
      <g>
       <use xlink:href="#m3c2f143d71" x="57.6" y="150.336" style="stroke: #000000; stroke-width: 0.8"/>
      </g>
     </g>
     <g id="text_10">
      <!-- 0.6 -->
      <g transform="translate(34.696875 154.135219) scale(0.1 -0.1)">
       <defs>
        <path id="DejaVuSans-36" d="M 2113 2584 
Q 1688 2584 1439 2293 
Q 1191 2003 1191 1497 
Q 1191 994 1439 701 
Q 1688 409 2113 409 
Q 2538 409 2786 701 
Q 3034 994 3034 1497 
Q 3034 2003 2786 2293 
Q 2538 2584 2113 2584 
z
M 3366 4563 
L 3366 3988 
Q 3128 4100 2886 4159 
Q 2644 4219 2406 4219 
Q 1781 4219 1451 3797 
Q 1122 3375 1075 2522 
Q 1259 2794 1537 2939 
Q 1816 3084 2150 3084 
Q 2853 3084 3261 2657 
Q 3669 2231 3669 1497 
Q 3669 778 3244 343 
Q 2819 -91 2113 -91 
Q 1303 -91 875 529 
Q 447 1150 447 2328 
Q 447 3434 972 4092 
Q 1497 4750 2381 4750 
Q 2619 4750 2861 4703 
Q 3103 4656 3366 4563 
z
" transform="scale(0.015625)"/>
       </defs>
       <use xlink:href="#DejaVuSans-30"/>
       <use xlink:href="#DejaVuSans-2e" x="63.623047"/>
       <use xlink:href="#DejaVuSans-36" x="95.410156"/>
      </g>
     </g>
    </g>
    <g id="ytick_5">
     <g id="line2d_11">
      <g>
       <use xlink:href="#m3c2f143d71" x="57.6" y="101.952" style="stroke: #000000; stroke-width: 0.8"/>
      </g>
     </g>
     <g id="text_11">
      <!-- 0.8 -->
      <g transform="translate(34.696875 105.751219) scale(0.1 -0.1)">
       <defs>
        <path id="DejaVuSans-38" d="M 2034 2216 
Q 1584 2216 1326 1975 
Q 1069 1734 1069 1313 
Q 1069 891 1326 650 
Q 1584 409 2034 409 
Q 2484 409 2743 651 
Q 3003 894 3003 1313 
Q 3003 1734 2745 1975 
Q 2488 2216 2034 2216 
z
M 1403 2484 
Q 997 2584 770 2862 
Q 544 3141 544 3541 
Q 544 4100 942 4425 
Q 1341 4750 2034 4750 
Q 2731 4750 3128 4425 
Q 3525 4100 3525 3541 
Q 3525 3141 3298 2862 
Q 3072 2584 2669 2484 
Q 3125 2378 3379 2068 
Q 3634 1759 3634 1313 
Q 3634 634 3220 271 
Q 2806 -91 2034 -91 
Q 1263 -91 848 271 
Q 434 634 434 1313 
Q 434 1759 690 2068 
Q 947 2378 1403 2484 
z
M 1172 3481 
Q 1172 3119 1398 2916 
Q 1625 2713 2034 2713 
Q 2441 2713 2670 2916 
Q 2900 3119 2900 3481 
Q 2900 3844 2670 4047 
Q 2441 4250 2034 4250 
Q 1625 4250 1398 4047 
Q 1172 3844 1172 3481 
z
" transform="scale(0.015625)"/>
       </defs>
       <use xlink:href="#DejaVuSans-30"/>
       <use xlink:href="#DejaVuSans-2e" x="63.623047"/>
       <use xlink:href="#DejaVuSans-38" x="95.410156"/>
      </g>
     </g>
    </g>
    <g id="ytick_6">
     <g id="line2d_12">
      <g>
       <use xlink:href="#m3c2f143d71" x="57.6" y="53.568" style="stroke: #000000; stroke-width: 0.8"/>
      </g>
     </g>
     <g id="text_12">
      <!-- 1.0 -->
      <g transform="translate(34.696875 57.367219) scale(0.1 -0.1)">
       <use xlink:href="#DejaVuSans-31"/>
       <use xlink:href="#DejaVuSans-2e" x="63.623047"/>
       <use xlink:href="#DejaVuSans-30" x="95.410156"/>
      </g>
     </g>
    </g>
   </g>
   <g id="line2d_13">
    <path d="M 73.832727 295.488 
L 73.859306 295.488 
L 73.978908 53.568 
L 74.005487 53.568 
L 74.125089 295.488 
L 74.151667 295.488 
L 74.27127 53.568 
L 74.616789 53.568 
L 74.723102 295.488 
L 74.816126 53.568 
L 74.829415 295.488 
L 74.855994 295.488 
L 74.975596 53.568 
L 75.028753 295.488 
L 75.08191 53.568 
L 75.095199 53.568 
L 75.135066 295.488 
L 75.201512 53.568 
L 75.254669 53.568 
L 75.374272 295.488 
L 75.480585 53.568 
L 75.600188 295.488 
L 75.706501 53.568 
L 75.826104 295.488 
L 75.839393 295.488 
L 75.958995 53.568 
L 75.985574 53.568 
L 76.105176 295.488 
L 76.145044 295.488 
L 76.264646 53.568 
L 76.384249 295.488 
L 76.410827 295.488 
L 76.517141 53.568 
L 76.636743 295.488 
L 76.756346 53.568 
L 76.796213 53.568 
L 76.902527 295.488 
L 77.022129 53.568 
L 77.035418 53.568 
L 77.155021 295.488 
L 77.274624 53.568 
L 77.394226 295.488 
L 77.513829 53.568 
L 77.527118 53.568 
L 77.633431 295.488 
L 77.726456 53.568 
L 77.739745 295.488 
L 77.766323 295.488 
L 77.872636 53.568 
L 77.992239 295.488 
L 78.111842 53.568 
L 78.151709 53.568 
L 78.258023 295.488 
L 78.377625 53.568 
L 78.390914 53.568 
L 78.510517 295.488 
L 78.537095 295.488 
L 78.643409 53.568 
L 78.763011 295.488 
L 78.869325 53.568 
L 78.94906 295.488 
L 78.975638 53.568 
L 79.068662 53.568 
L 79.188265 295.488 
L 79.307867 53.568 
L 79.334446 53.568 
L 79.454048 295.488 
L 79.493916 295.488 
L 79.613518 53.568 
L 79.733121 295.488 
L 79.759699 295.488 
L 79.866013 53.568 
L 79.985615 295.488 
L 80.105218 53.568 
L 80.145085 53.568 
L 80.251399 295.488 
L 80.371001 53.568 
L 80.384291 53.568 
L 80.503893 295.488 
L 80.623496 53.568 
L 80.743098 295.488 
L 80.862701 53.568 
L 80.87599 53.568 
L 80.982303 295.488 
L 81.075328 53.568 
L 81.088617 295.488 
L 81.115195 295.488 
L 81.221509 53.568 
L 81.341111 295.488 
L 81.460714 53.568 
L 81.500581 53.568 
L 81.606895 295.488 
L 81.726497 53.568 
L 81.739786 53.568 
L 81.859389 295.488 
L 81.978992 53.568 
L 82.098594 295.488 
L 82.218197 53.568 
L 82.231486 53.568 
L 82.337799 295.488 
L 82.457402 53.568 
L 82.577004 295.488 
L 82.603583 295.488 
L 82.723185 53.568 
L 82.856077 53.568 
L 82.97568 295.488 
L 83.055415 53.568 
L 83.081993 295.488 
L 83.108571 295.488 
L 83.214885 53.568 
L 83.334487 295.488 
L 83.45409 53.568 
L 83.493958 53.568 
L 83.600271 295.488 
L 83.719873 53.568 
L 83.733163 53.568 
L 83.852765 295.488 
L 83.972368 53.568 
L 84.09197 295.488 
L 84.211573 53.568 
L 84.224862 53.568 
L 84.331176 295.488 
L 84.4242 53.568 
L 84.437489 295.488 
L 84.464067 295.488 
L 84.570381 53.568 
L 84.689983 295.488 
L 84.809586 53.568 
L 84.849453 53.568 
L 84.955767 295.488 
L 85.075369 53.568 
L 85.088659 53.568 
L 85.208261 295.488 
L 85.327864 53.568 
L 85.447466 295.488 
L 85.567069 53.568 
L 85.580358 53.568 
L 85.686671 295.488 
L 85.779696 53.568 
L 85.792985 295.488 
L 85.819563 295.488 
L 85.925877 53.568 
L 86.045479 295.488 
L 86.151793 53.568 
L 86.271395 295.488 
L 86.377708 53.568 
L 86.444154 295.488 
L 86.484022 53.568 
L 86.497311 53.568 
L 86.523889 295.488 
L 86.603624 53.568 
L 86.656781 53.568 
L 86.776384 295.488 
L 86.895986 53.568 
L 87.0023 295.488 
L 87.108613 53.568 
L 87.228216 295.488 
L 87.241505 295.488 
L 87.361107 53.568 
L 87.387686 53.568 
L 87.507288 295.488 
L 87.547156 295.488 
L 87.666758 53.568 
L 87.786361 295.488 
L 87.812939 295.488 
L 87.919253 53.568 
L 88.038855 295.488 
L 88.158458 53.568 
L 88.198325 53.568 
L 88.304639 295.488 
L 88.424241 53.568 
L 88.437531 53.568 
L 88.557133 295.488 
L 88.676736 53.568 
L 88.796338 295.488 
L 88.915941 53.568 
L 88.92923 53.568 
L 89.035543 295.488 
L 89.128568 53.568 
L 89.141857 295.488 
L 89.168435 295.488 
L 89.274749 53.568 
L 89.394351 295.488 
L 89.513954 53.568 
L 89.553821 53.568 
L 89.660135 295.488 
L 89.779737 53.568 
L 89.793026 53.568 
L 89.912629 295.488 
L 89.939207 295.488 
L 90.045521 53.568 
L 90.165123 295.488 
L 90.271437 53.568 
L 90.351172 295.488 
L 90.37775 53.568 
L 90.470774 53.568 
L 90.590377 295.488 
L 90.69669 53.568 
L 90.789715 295.488 
L 90.803004 53.568 
L 90.842871 53.568 
L 90.962474 295.488 
L 91.082076 53.568 
L 91.121944 53.568 
L 91.214968 295.488 
L 91.228257 53.568 
L 91.268125 53.568 
L 91.387727 295.488 
L 91.50733 53.568 
L 91.547198 53.568 
L 91.653511 295.488 
L 91.773114 53.568 
L 91.786403 53.568 
L 91.906005 295.488 
L 92.025608 53.568 
L 92.14521 295.488 
L 92.264813 53.568 
L 92.278102 53.568 
L 92.384416 295.488 
L 92.47744 53.568 
L 92.490729 295.488 
L 92.517307 295.488 
L 92.623621 53.568 
L 92.743223 295.488 
L 92.862826 53.568 
L 92.902693 53.568 
L 93.009007 295.488 
L 93.128609 53.568 
L 93.141899 53.568 
L 93.261501 295.488 
L 93.381104 53.568 
L 93.500706 295.488 
L 93.620309 53.568 
L 93.633598 53.568 
L 93.739911 295.488 
L 93.859514 53.568 
L 93.979117 295.488 
L 93.992406 295.488 
L 94.112008 53.568 
L 94.231611 295.488 
L 94.351213 53.568 
L 94.457527 295.488 
L 94.56384 53.568 
L 94.577129 295.488 
L 94.670154 53.568 
L 94.710021 53.568 
L 94.816335 295.488 
L 94.935937 53.568 
L 94.949226 53.568 
L 95.015672 295.488 
L 95.05554 53.568 
L 95.068829 53.568 
L 95.188432 295.488 
L 95.308034 53.568 
L 95.347902 53.568 
L 95.440926 295.488 
L 95.454215 53.568 
L 95.494083 53.568 
L 95.613685 295.488 
L 95.733288 53.568 
L 95.773155 53.568 
L 95.879469 295.488 
L 95.999071 53.568 
L 96.01236 53.568 
L 96.131963 295.488 
L 96.251566 53.568 
L 96.371168 295.488 
L 96.490771 53.568 
L 96.50406 53.568 
L 96.610373 295.488 
L 96.703397 53.568 
L 96.716687 295.488 
L 96.743265 295.488 
L 96.849578 53.568 
L 96.969181 295.488 
L 97.075494 53.568 
L 97.195097 295.488 
L 97.30141 53.568 
L 97.367856 295.488 
L 97.407724 53.568 
L 97.421013 53.568 
L 97.46088 295.488 
L 97.527326 53.568 
L 97.580483 53.568 
L 97.700086 295.488 
L 97.819688 53.568 
L 97.926002 295.488 
L 98.032315 53.568 
L 98.151918 295.488 
L 98.165207 295.488 
L 98.27152 53.568 
L 98.364544 295.488 
L 98.377834 53.568 
L 98.417701 53.568 
L 98.537304 295.488 
L 98.656906 53.568 
L 98.696774 53.568 
L 98.789798 295.488 
L 98.803087 53.568 
L 98.842955 53.568 
L 98.962557 295.488 
L 99.08216 53.568 
L 99.122027 53.568 
L 99.228341 295.488 
L 99.347943 53.568 
L 99.361232 53.568 
L 99.480835 295.488 
L 99.600438 53.568 
L 99.72004 295.488 
L 99.839643 53.568 
L 99.852932 53.568 
L 99.959245 295.488 
L 100.078848 53.568 
L 100.19845 295.488 
L 100.225029 295.488 
L 100.344631 53.568 
L 100.477523 53.568 
L 100.597126 295.488 
L 100.703439 53.568 
L 100.783174 295.488 
L 100.809753 53.568 
L 100.836331 53.568 
L 100.955933 295.488 
L 101.075536 53.568 
L 101.115404 53.568 
L 101.221717 295.488 
L 101.34132 53.568 
L 101.354609 53.568 
L 101.474211 295.488 
L 101.593814 53.568 
L 101.713416 295.488 
L 101.833019 53.568 
L 101.846308 53.568 
L 101.952622 295.488 
L 102.045646 53.568 
L 102.058935 295.488 
L 102.085513 295.488 
L 102.191827 53.568 
L 102.311429 295.488 
L 102.431032 53.568 
L 102.470899 53.568 
L 102.577213 295.488 
L 102.696815 53.568 
L 102.710105 53.568 
L 102.829707 295.488 
L 102.856285 295.488 
L 102.962599 53.568 
L 103.082201 295.488 
L 103.188515 53.568 
L 103.26825 295.488 
L 103.294828 53.568 
L 103.387852 53.568 
L 103.507455 295.488 
L 103.600479 53.568 
L 103.613768 295.488 
L 103.627058 295.488 
L 103.74666 53.568 
L 103.759949 53.568 
L 103.879552 295.488 
L 103.999155 53.568 
L 104.025733 53.568 
L 104.132046 295.488 
L 104.23836 53.568 
L 104.357962 295.488 
L 104.371251 295.488 
L 104.490854 53.568 
L 104.517432 53.568 
L 104.623746 295.488 
L 104.730059 53.568 
L 104.823083 295.488 
L 104.836373 53.568 
L 104.849662 53.568 
L 104.955975 295.488 
L 105.075578 53.568 
L 105.115445 53.568 
L 105.235048 295.488 
L 105.35465 53.568 
L 105.394518 53.568 
L 105.487542 295.488 
L 105.500831 53.568 
L 105.540699 53.568 
L 105.660301 295.488 
L 105.766615 53.568 
L 105.886217 295.488 
L 105.992531 53.568 
L 106.112133 295.488 
L 106.231736 53.568 
L 106.338049 295.488 
L 106.457652 53.568 
L 106.537387 53.568 
L 106.550676 295.488 
L 106.6437 53.568 
L 106.696857 53.568 
L 106.81646 295.488 
L 106.909484 53.568 
L 106.922773 295.488 
L 106.949351 295.488 
L 107.055665 53.568 
L 107.175267 295.488 
L 107.29487 53.568 
L 107.334737 53.568 
L 107.441051 295.488 
L 107.560653 53.568 
L 107.573943 53.568 
L 107.693545 295.488 
L 107.813148 53.568 
L 107.93275 295.488 
L 108.052353 53.568 
L 108.065642 53.568 
L 108.171955 295.488 
L 108.26498 53.568 
L 108.278269 295.488 
L 108.304847 295.488 
L 108.411161 53.568 
L 108.530763 295.488 
L 108.637077 53.568 
L 108.74339 295.488 
L 108.862993 53.568 
L 108.982595 295.488 
L 108.995884 295.488 
L 109.115487 53.568 
L 109.2218 53.568 
L 109.341403 295.488 
L 109.461005 53.568 
L 109.527451 53.568 
L 109.633765 295.488 
L 109.726789 53.568 
L 109.740078 295.488 
L 109.779946 295.488 
L 109.899548 53.568 
L 109.912837 53.568 
L 110.03244 295.488 
L 110.138753 53.568 
L 110.245067 295.488 
L 110.364669 53.568 
L 110.457694 295.488 
L 110.470983 53.568 
L 110.497561 53.568 
L 110.603875 295.488 
L 110.723477 53.568 
L 110.776634 53.568 
L 110.882947 295.488 
L 111.00255 53.568 
L 111.042417 295.488 
L 111.108863 53.568 
L 111.135442 53.568 
L 111.201887 295.488 
L 111.241755 53.568 
L 111.255044 53.568 
L 111.374647 295.488 
L 111.494249 53.568 
L 111.600563 53.568 
L 111.706876 295.488 
L 111.813189 53.568 
L 111.932792 295.488 
L 112.039105 53.568 
L 112.13213 295.488 
L 112.145419 53.568 
L 112.158708 53.568 
L 112.278311 295.488 
L 112.2916 295.488 
L 112.411202 53.568 
L 112.45107 53.568 
L 112.557383 295.488 
L 112.663697 53.568 
L 112.77001 295.488 
L 112.889613 53.568 
L 112.969348 295.488 
L 112.995926 53.568 
L 113.009215 53.568 
L 113.128818 295.488 
L 113.235131 53.568 
L 113.314866 295.488 
L 113.341445 53.568 
L 113.368023 53.568 
L 113.474336 295.488 
L 113.593939 53.568 
L 113.713541 295.488 
L 113.726831 295.488 
L 113.806566 53.568 
L 113.833144 295.488 
L 113.873012 295.488 
L 113.992614 53.568 
L 114.032482 295.488 
L 114.098928 53.568 
L 114.112217 53.568 
L 114.231819 295.488 
L 114.245108 295.488 
L 114.364711 53.568 
L 114.564049 53.568 
L 114.683651 295.488 
L 114.763386 53.568 
L 114.789965 295.488 
L 114.816543 295.488 
L 114.922856 53.568 
L 115.042459 295.488 
L 115.069037 295.488 
L 115.162062 53.568 
L 115.175351 295.488 
L 115.18864 295.488 
L 115.281664 53.568 
L 115.294953 295.488 
L 115.321532 295.488 
L 115.441134 53.568 
L 115.560737 295.488 
L 115.653761 53.568 
L 115.66705 295.488 
L 115.680339 295.488 
L 115.799942 53.568 
L 115.919545 295.488 
L 115.946123 295.488 
L 116.039147 53.568 
L 116.052436 295.488 
L 116.092304 295.488 
L 116.211906 53.568 
L 116.304931 53.568 
L 116.411244 295.488 
L 116.530847 53.568 
L 116.557425 53.568 
L 116.663738 295.488 
L 116.783341 53.568 
L 116.902943 295.488 
L 117.022546 53.568 
L 117.102281 295.488 
L 117.128859 53.568 
L 117.155438 53.568 
L 117.261751 295.488 
L 117.368065 53.568 
L 117.487667 295.488 
L 117.593981 53.568 
L 117.713583 295.488 
L 117.726872 295.488 
L 117.740162 53.568 
L 117.833186 295.488 
L 117.859764 295.488 
L 117.979367 53.568 
L 117.992656 53.568 
L 118.112258 295.488 
L 118.231861 53.568 
L 118.351464 295.488 
L 118.471066 53.568 
L 118.590669 295.488 
L 118.710271 53.568 
L 118.790006 53.568 
L 118.869741 295.488 
L 118.89632 53.568 
L 118.909609 53.568 
L 119.029211 295.488 
L 119.148814 53.568 
L 119.188682 53.568 
L 119.308284 295.488 
L 119.388019 53.568 
L 119.414598 295.488 
L 119.427887 295.488 
L 119.547489 53.568 
L 119.653803 295.488 
L 119.746827 53.568 
L 119.760116 295.488 
L 119.773405 295.488 
L 119.893008 53.568 
L 119.999321 295.488 
L 120.118924 53.568 
L 120.145502 53.568 
L 120.265105 295.488 
L 120.278394 295.488 
L 120.397997 53.568 
L 120.424575 53.568 
L 120.477732 295.488 
L 120.530888 53.568 
L 120.557467 53.568 
L 120.677069 295.488 
L 120.796672 53.568 
L 120.82325 53.568 
L 120.942853 295.488 
L 120.956142 295.488 
L 121.075744 53.568 
L 121.102323 295.488 
L 121.182058 53.568 
L 121.261793 53.568 
L 121.341528 295.488 
L 121.368106 53.568 
L 121.381395 53.568 
L 121.500998 295.488 
L 121.514287 295.488 
L 121.620601 53.568 
L 121.726914 295.488 
L 121.846517 53.568 
L 121.899673 53.568 
L 121.939541 295.488 
L 122.005987 53.568 
L 122.085722 53.568 
L 122.205324 295.488 
L 122.285059 53.568 
L 122.311638 295.488 
L 122.338216 295.488 
L 122.444529 53.568 
L 122.564132 295.488 
L 122.683735 53.568 
L 122.723602 53.568 
L 122.829916 295.488 
L 122.949518 53.568 
L 122.962807 53.568 
L 123.08241 295.488 
L 123.202012 53.568 
L 123.321615 295.488 
L 123.441218 53.568 
L 123.454507 53.568 
L 123.56082 295.488 
L 123.653844 53.568 
L 123.667134 295.488 
L 123.693712 295.488 
L 123.800025 53.568 
L 123.919628 295.488 
L 124.025941 53.568 
L 124.132255 295.488 
L 124.251857 53.568 
L 124.37146 295.488 
L 124.384749 295.488 
L 124.504352 53.568 
L 124.610665 53.568 
L 124.730268 295.488 
L 124.84987 53.568 
L 124.876448 53.568 
L 124.942894 295.488 
L 124.982762 53.568 
L 125.00934 53.568 
L 125.128943 295.488 
L 125.16881 295.488 
L 125.288413 53.568 
L 125.301702 53.568 
L 125.421305 295.488 
L 125.527618 53.568 
L 125.633931 295.488 
L 125.753534 53.568 
L 125.846558 295.488 
L 125.859847 53.568 
L 125.886426 53.568 
L 125.992739 295.488 
L 126.112342 53.568 
L 126.165498 53.568 
L 126.271812 295.488 
L 126.391414 53.568 
L 126.431282 295.488 
L 126.497728 53.568 
L 126.524306 53.568 
L 126.590752 295.488 
L 126.63062 53.568 
L 126.643909 53.568 
L 126.763511 295.488 
L 126.883114 53.568 
L 126.989427 53.568 
L 127.095741 295.488 
L 127.202054 53.568 
L 127.321657 295.488 
L 127.42797 53.568 
L 127.520994 295.488 
L 127.534283 53.568 
L 127.547573 53.568 
L 127.667175 295.488 
L 127.680464 295.488 
L 127.800067 53.568 
L 127.839935 53.568 
L 127.946248 295.488 
L 128.052561 53.568 
L 128.158875 295.488 
L 128.278477 53.568 
L 128.358212 295.488 
L 128.384791 53.568 
L 128.39808 53.568 
L 128.517682 295.488 
L 128.623996 53.568 
L 128.703731 295.488 
L 128.730309 53.568 
L 128.756888 53.568 
L 128.863201 295.488 
L 128.982804 53.568 
L 129.102406 295.488 
L 129.115695 295.488 
L 129.19543 53.568 
L 129.222009 295.488 
L 129.261876 295.488 
L 129.381479 53.568 
L 129.421346 295.488 
L 129.487792 53.568 
L 129.501081 53.568 
L 129.620684 295.488 
L 129.633973 295.488 
L 129.753576 53.568 
L 129.952913 53.568 
L 130.072516 295.488 
L 130.152251 53.568 
L 130.178829 295.488 
L 130.205408 295.488 
L 130.311721 53.568 
L 130.431324 295.488 
L 130.457902 295.488 
L 130.550926 53.568 
L 130.564215 295.488 
L 130.577505 295.488 
L 130.670529 53.568 
L 130.683818 295.488 
L 130.710396 295.488 
L 130.829999 53.568 
L 130.949601 295.488 
L 131.042626 53.568 
L 131.055915 295.488 
L 131.069204 295.488 
L 131.188807 53.568 
L 131.308409 295.488 
L 131.334988 295.488 
L 131.428012 53.568 
L 131.441301 295.488 
L 131.467879 295.488 
L 131.587482 53.568 
L 131.693795 53.568 
L 131.800109 295.488 
L 131.919711 53.568 
L 131.94629 53.568 
L 132.052603 295.488 
L 132.172206 53.568 
L 132.291808 295.488 
L 132.411411 53.568 
L 132.491146 295.488 
L 132.517724 53.568 
L 132.544302 53.568 
L 132.650616 295.488 
L 132.756929 53.568 
L 132.876532 295.488 
L 132.982845 53.568 
L 133.102448 295.488 
L 133.115737 295.488 
L 133.129026 53.568 
L 133.22205 295.488 
L 133.248629 295.488 
L 133.368231 53.568 
L 133.38152 53.568 
L 133.501123 295.488 
L 133.620726 53.568 
L 133.740328 295.488 
L 133.859931 53.568 
L 133.979533 295.488 
L 134.099136 53.568 
L 134.178871 53.568 
L 134.258606 295.488 
L 134.285184 53.568 
L 134.298474 53.568 
L 134.418076 295.488 
L 134.537679 53.568 
L 134.577546 53.568 
L 134.697149 295.488 
L 134.776884 53.568 
L 134.803462 295.488 
L 134.816751 295.488 
L 134.936354 53.568 
L 135.042667 295.488 
L 135.135692 53.568 
L 135.148981 295.488 
L 135.16227 295.488 
L 135.281873 53.568 
L 135.388186 295.488 
L 135.507788 53.568 
L 135.534367 53.568 
L 135.653969 295.488 
L 135.667259 295.488 
L 135.786861 53.568 
L 135.81344 53.568 
L 135.866596 295.488 
L 135.919753 53.568 
L 135.946331 53.568 
L 136.065934 295.488 
L 136.185536 53.568 
L 136.212115 53.568 
L 136.331717 295.488 
L 136.345007 295.488 
L 136.464609 53.568 
L 136.491187 295.488 
L 136.570922 53.568 
L 136.650658 53.568 
L 136.730393 295.488 
L 136.756971 53.568 
L 136.77026 53.568 
L 136.889863 295.488 
L 136.903152 295.488 
L 137.009465 53.568 
L 137.115779 295.488 
L 137.235381 53.568 
L 137.24867 53.568 
L 137.368273 295.488 
L 137.487876 53.568 
L 137.687213 53.568 
L 137.766948 295.488 
L 137.793527 53.568 
L 137.806816 53.568 
L 137.926418 295.488 
L 138.046021 53.568 
L 138.152334 295.488 
L 138.271937 53.568 
L 138.364961 53.568 
L 138.484564 295.488 
L 138.604166 53.568 
L 138.69719 295.488 
L 138.71048 53.568 
L 138.737058 53.568 
L 138.843371 295.488 
L 138.923106 53.568 
L 138.949685 295.488 
L 138.976263 295.488 
L 139.095866 53.568 
L 139.122444 53.568 
L 139.202179 295.488 
L 139.228757 53.568 
L 139.242047 53.568 
L 139.335071 295.488 
L 139.34836 53.568 
L 139.374938 53.568 
L 139.481252 295.488 
L 139.560987 53.568 
L 139.587565 295.488 
L 139.627433 295.488 
L 139.747035 53.568 
L 139.760324 53.568 
L 139.84006 295.488 
L 139.866638 53.568 
L 139.879927 53.568 
L 139.972951 295.488 
L 139.98624 53.568 
L 140.012819 53.568 
L 140.119132 295.488 
L 140.198867 53.568 
L 140.225446 295.488 
L 140.265313 295.488 
L 140.384916 53.568 
L 140.398205 53.568 
L 140.47794 295.488 
L 140.504518 53.568 
L 140.517807 53.568 
L 140.610832 295.488 
L 140.624121 53.568 
L 140.650699 53.568 
L 140.770302 295.488 
L 140.836748 53.568 
L 140.876615 295.488 
L 140.929772 295.488 
L 141.036085 53.568 
L 141.11582 295.488 
L 141.142399 53.568 
L 141.155688 53.568 
L 141.248712 295.488 
L 141.262001 53.568 
L 141.28858 53.568 
L 141.408182 295.488 
L 141.474628 53.568 
L 141.514496 295.488 
L 141.567652 295.488 
L 141.673966 53.568 
L 141.753701 295.488 
L 141.780279 53.568 
L 141.793568 53.568 
L 141.886592 295.488 
L 141.899882 53.568 
L 141.92646 53.568 
L 142.046063 295.488 
L 142.112508 53.568 
L 142.152376 295.488 
L 142.205533 295.488 
L 142.311846 53.568 
L 142.391581 295.488 
L 142.418159 53.568 
L 142.431449 53.568 
L 142.524473 295.488 
L 142.537762 53.568 
L 142.56434 53.568 
L 142.683943 295.488 
L 142.750389 53.568 
L 142.790256 295.488 
L 142.843413 295.488 
L 142.949726 53.568 
L 143.029462 295.488 
L 143.05604 53.568 
L 143.069329 53.568 
L 143.162353 295.488 
L 143.175642 53.568 
L 143.202221 53.568 
L 143.321823 295.488 
L 143.441426 53.568 
L 143.468004 53.568 
L 143.521161 295.488 
L 143.574318 53.568 
L 143.69392 53.568 
L 143.813523 295.488 
L 143.85339 295.488 
L 143.946415 53.568 
L 143.959704 295.488 
L 143.972993 295.488 
L 144.092596 53.568 
L 144.105885 53.568 
L 144.225487 295.488 
L 144.34509 53.568 
L 144.451403 295.488 
L 144.571006 53.568 
L 144.637452 53.568 
L 144.690608 295.488 
L 144.743765 53.568 
L 144.783633 53.568 
L 144.863368 295.488 
L 144.889946 53.568 
L 144.903235 53.568 
L 145.022838 295.488 
L 145.036127 295.488 
L 145.15573 53.568 
L 145.195597 53.568 
L 145.248754 295.488 
L 145.30191 53.568 
L 145.368356 53.568 
L 145.47467 295.488 
L 145.594272 53.568 
L 145.607561 53.568 
L 145.687297 295.488 
L 145.713875 53.568 
L 145.753742 53.568 
L 145.860056 295.488 
L 145.979658 53.568 
L 145.992948 53.568 
L 146.099261 295.488 
L 146.205574 53.568 
L 146.325177 295.488 
L 146.338466 295.488 
L 146.44478 53.568 
L 146.564382 295.488 
L 146.59096 295.488 
L 146.710563 53.568 
L 146.830166 295.488 
L 146.949768 53.568 
L 147.069371 295.488 
L 147.188973 53.568 
L 147.308576 295.488 
L 147.428178 53.568 
L 147.547781 295.488 
L 147.574359 295.488 
L 147.680673 53.568 
L 147.773697 295.488 
L 147.786986 53.568 
L 147.840143 53.568 
L 147.959745 295.488 
L 148.079348 53.568 
L 148.198951 295.488 
L 148.318553 53.568 
L 148.438156 295.488 
L 148.557758 53.568 
L 148.677361 295.488 
L 148.796963 53.568 
L 148.916566 295.488 
L 149.036169 53.568 
L 149.155771 295.488 
L 149.275374 53.568 
L 149.394976 295.488 
L 149.50129 53.568 
L 149.620892 295.488 
L 149.647471 295.488 
L 149.767073 53.568 
L 149.806941 53.568 
L 149.913254 295.488 
L 150.006278 53.568 
L 150.019568 295.488 
L 150.046146 295.488 
L 150.165749 53.568 
L 150.205616 53.568 
L 150.325219 295.488 
L 150.444821 53.568 
L 150.564424 295.488 
L 150.684026 53.568 
L 150.803629 295.488 
L 150.923231 53.568 
L 151.042834 295.488 
L 151.162437 53.568 
L 151.282039 295.488 
L 151.401642 53.568 
L 151.521244 295.488 
L 151.640847 53.568 
L 151.720582 295.488 
L 151.74716 53.568 
L 151.76045 53.568 
L 151.866763 295.488 
L 151.959787 53.568 
L 151.973076 295.488 
L 152.012944 295.488 
L 152.132546 53.568 
L 152.252149 295.488 
L 152.371752 53.568 
L 152.491354 295.488 
L 152.610957 53.568 
L 152.730559 295.488 
L 152.850162 53.568 
L 152.969764 295.488 
L 153.089367 53.568 
L 153.20897 295.488 
L 153.328572 53.568 
L 153.448175 295.488 
L 153.567777 53.568 
L 153.68738 295.488 
L 153.806982 53.568 
L 153.926585 295.488 
L 153.953163 295.488 
L 154.059477 53.568 
L 154.179079 295.488 
L 154.298682 53.568 
L 154.311971 53.568 
L 154.418285 295.488 
L 154.537887 53.568 
L 154.551176 53.568 
L 154.65749 295.488 
L 154.777092 53.568 
L 154.790381 53.568 
L 154.896695 295.488 
L 155.016297 53.568 
L 155.029587 53.568 
L 155.1359 295.488 
L 155.255503 53.568 
L 155.268792 53.568 
L 155.375105 295.488 
L 155.494708 53.568 
L 155.507997 53.568 
L 155.61431 295.488 
L 155.733913 53.568 
L 155.747202 53.568 
L 155.853515 295.488 
L 155.973118 53.568 
L 155.986407 53.568 
L 156.10601 295.488 
L 156.119299 295.488 
L 156.238901 53.568 
L 156.252191 53.568 
L 156.358504 295.488 
L 156.478107 53.568 
L 156.597709 295.488 
L 156.717312 53.568 
L 156.836914 295.488 
L 156.956517 53.568 
L 157.07612 295.488 
L 157.195722 53.568 
L 157.315325 295.488 
L 157.434927 53.568 
L 157.55453 295.488 
L 157.674132 53.568 
L 157.793735 295.488 
L 157.913338 53.568 
L 158.03294 295.488 
L 158.139254 53.568 
L 158.245567 295.488 
L 158.338591 53.568 
L 158.35188 295.488 
L 158.391748 295.488 
L 158.51135 53.568 
L 158.630953 295.488 
L 158.750556 53.568 
L 158.870158 295.488 
L 158.989761 53.568 
L 159.109363 295.488 
L 159.228966 53.568 
L 159.348568 295.488 
L 159.468171 53.568 
L 159.587774 295.488 
L 159.707376 53.568 
L 159.826979 295.488 
L 159.946581 53.568 
L 160.066184 295.488 
L 160.185786 53.568 
L 160.305389 295.488 
L 160.331967 295.488 
L 160.438281 53.568 
L 160.557883 295.488 
L 160.677486 53.568 
L 160.690775 53.568 
L 160.797089 295.488 
L 160.916691 53.568 
L 160.92998 53.568 
L 161.036294 295.488 
L 161.155896 53.568 
L 161.169185 53.568 
L 161.275499 295.488 
L 161.395101 53.568 
L 161.408391 53.568 
L 161.514704 295.488 
L 161.634307 53.568 
L 161.647596 53.568 
L 161.753909 295.488 
L 161.873512 53.568 
L 161.886801 53.568 
L 161.993114 295.488 
L 162.112717 53.568 
L 162.126006 53.568 
L 162.232319 295.488 
L 162.351922 53.568 
L 162.365211 53.568 
L 162.484814 295.488 
L 162.591127 53.568 
L 162.670862 295.488 
L 162.697441 53.568 
L 162.724019 53.568 
L 162.843621 295.488 
L 162.963224 53.568 
L 163.082827 295.488 
L 163.202429 53.568 
L 163.322032 295.488 
L 163.441634 53.568 
L 163.561237 295.488 
L 163.68084 53.568 
L 163.800442 295.488 
L 163.920045 53.568 
L 164.039647 295.488 
L 164.15925 53.568 
L 164.278852 295.488 
L 164.398455 53.568 
L 164.47819 295.488 
L 164.504768 53.568 
L 164.518058 53.568 
L 164.624371 295.488 
L 164.717395 53.568 
L 164.730684 295.488 
L 164.770552 295.488 
L 164.890154 53.568 
L 165.009757 295.488 
L 165.12936 53.568 
L 165.248962 295.488 
L 165.368565 53.568 
L 165.488167 295.488 
L 165.60777 53.568 
L 165.727372 295.488 
L 165.846975 53.568 
L 165.966578 295.488 
L 166.08618 53.568 
L 166.205783 295.488 
L 166.325385 53.568 
L 166.444988 295.488 
L 166.56459 53.568 
L 166.684193 295.488 
L 166.710771 295.488 
L 166.817085 53.568 
L 166.936687 295.488 
L 167.05629 53.568 
L 167.069579 53.568 
L 167.175893 295.488 
L 167.295495 53.568 
L 167.308784 53.568 
L 167.415098 295.488 
L 167.5347 53.568 
L 167.547989 53.568 
L 167.654303 295.488 
L 167.773905 53.568 
L 167.787195 53.568 
L 167.893508 295.488 
L 168.013111 53.568 
L 168.0264 53.568 
L 168.132713 295.488 
L 168.252316 53.568 
L 168.265605 53.568 
L 168.371918 295.488 
L 168.491521 53.568 
L 168.50481 53.568 
L 168.611123 295.488 
L 168.730726 53.568 
L 168.744015 53.568 
L 168.863618 295.488 
L 168.969931 53.568 
L 169.049666 295.488 
L 169.076245 53.568 
L 169.102823 53.568 
L 169.222425 295.488 
L 169.342028 53.568 
L 169.461631 295.488 
L 169.581233 53.568 
L 169.700836 295.488 
L 169.820438 53.568 
L 169.940041 295.488 
L 170.059644 53.568 
L 170.179246 295.488 
L 170.298849 53.568 
L 170.418451 295.488 
L 170.538054 53.568 
L 170.657656 295.488 
L 170.777259 53.568 
L 170.856994 295.488 
L 170.883572 53.568 
L 170.896862 53.568 
L 171.003175 295.488 
L 171.096199 53.568 
L 171.109488 295.488 
L 171.149356 295.488 
L 171.268958 53.568 
L 171.388561 295.488 
L 171.508164 53.568 
L 171.627766 295.488 
L 171.747369 53.568 
L 171.866971 295.488 
L 171.986574 53.568 
L 172.106176 295.488 
L 172.225779 53.568 
L 172.345382 295.488 
L 172.464984 53.568 
L 172.584587 295.488 
L 172.704189 53.568 
L 172.823792 295.488 
L 172.943394 53.568 
L 173.062997 295.488 
L 173.089575 295.488 
L 173.195889 53.568 
L 173.315491 295.488 
L 173.435094 53.568 
L 173.448383 53.568 
L 173.554697 295.488 
L 173.674299 53.568 
L 173.687588 53.568 
L 173.793902 295.488 
L 173.913504 53.568 
L 173.926793 53.568 
L 174.033107 295.488 
L 174.152709 53.568 
L 174.165999 53.568 
L 174.272312 295.488 
L 174.391915 53.568 
L 174.405204 53.568 
L 174.511517 295.488 
L 174.63112 53.568 
L 174.644409 53.568 
L 174.750722 295.488 
L 174.870325 53.568 
L 174.883614 53.568 
L 174.989927 295.488 
L 175.10953 53.568 
L 175.122819 53.568 
L 175.242422 295.488 
L 175.348735 53.568 
L 175.42847 295.488 
L 175.455049 53.568 
L 175.481627 53.568 
L 175.601229 295.488 
L 175.720832 53.568 
L 175.840435 295.488 
L 175.960037 53.568 
L 176.07964 295.488 
L 176.199242 53.568 
L 176.318845 295.488 
L 176.438448 53.568 
L 176.55805 295.488 
L 176.677653 53.568 
L 176.797255 295.488 
L 176.916858 53.568 
L 177.03646 295.488 
L 177.156063 53.568 
L 177.235798 295.488 
L 177.262376 53.568 
L 177.275666 53.568 
L 177.381979 295.488 
L 177.475003 53.568 
L 177.488292 295.488 
L 177.52816 295.488 
L 177.647762 53.568 
L 177.767365 295.488 
L 177.886968 53.568 
L 178.00657 295.488 
L 178.126173 53.568 
L 178.245775 295.488 
L 178.365378 53.568 
L 178.48498 295.488 
L 178.604583 53.568 
L 178.724186 295.488 
L 178.843788 53.568 
L 178.963391 295.488 
L 179.082993 53.568 
L 179.202596 295.488 
L 179.322198 53.568 
L 179.441801 295.488 
L 179.468379 295.488 
L 179.574693 53.568 
L 179.694295 295.488 
L 179.813898 53.568 
L 179.827187 53.568 
L 179.933501 295.488 
L 180.053103 53.568 
L 180.066392 53.568 
L 180.172706 295.488 
L 180.292308 53.568 
L 180.305597 53.568 
L 180.411911 295.488 
L 180.531513 53.568 
L 180.544803 53.568 
L 180.651116 295.488 
L 180.770719 53.568 
L 180.784008 53.568 
L 180.890321 295.488 
L 181.009924 53.568 
L 181.023213 53.568 
L 181.129526 295.488 
L 181.249129 53.568 
L 181.262418 53.568 
L 181.368731 295.488 
L 181.488334 53.568 
L 181.501623 53.568 
L 181.621226 295.488 
L 181.727539 53.568 
L 181.807274 295.488 
L 181.833853 53.568 
L 181.860431 53.568 
L 181.980033 295.488 
L 182.099636 53.568 
L 182.219239 295.488 
L 182.338841 53.568 
L 182.458444 295.488 
L 182.578046 53.568 
L 182.697649 295.488 
L 182.817252 53.568 
L 182.936854 295.488 
L 183.056457 53.568 
L 183.176059 295.488 
L 183.295662 53.568 
L 183.415264 295.488 
L 183.534867 53.568 
L 183.614602 295.488 
L 183.64118 53.568 
L 183.65447 53.568 
L 183.760783 295.488 
L 183.880386 53.568 
L 183.97341 295.488 
L 183.986699 53.568 
L 183.999988 53.568 
L 184.093012 295.488 
L 184.106301 53.568 
L 184.13288 53.568 
L 184.199326 295.488 
L 184.239193 53.568 
L 184.332217 53.568 
L 184.425242 295.488 
L 184.438531 53.568 
L 184.491688 53.568 
L 184.571423 295.488 
L 184.598001 53.568 
L 184.61129 53.568 
L 184.730893 295.488 
L 184.744182 295.488 
L 184.863784 53.568 
L 184.877074 53.568 
L 184.983387 295.488 
L 185.10299 53.568 
L 185.129568 53.568 
L 185.209303 295.488 
L 185.235881 53.568 
L 185.249171 53.568 
L 185.368773 295.488 
L 185.382062 295.488 
L 185.501665 53.568 
L 185.554822 53.568 
L 185.674424 295.488 
L 185.701002 295.488 
L 185.820605 53.568 
L 185.926918 53.568 
L 186.006654 295.488 
L 186.033232 53.568 
L 186.046521 53.568 
L 186.152834 295.488 
L 186.272437 53.568 
L 186.312305 53.568 
L 186.405329 295.488 
L 186.418618 53.568 
L 186.431907 53.568 
L 186.524931 295.488 
L 186.538221 53.568 
L 186.671112 53.568 
L 186.790715 295.488 
L 186.804004 295.488 
L 186.923607 53.568 
L 187.083077 53.568 
L 187.202679 295.488 
L 187.322282 53.568 
L 187.428595 53.568 
L 187.521619 295.488 
L 187.534909 53.568 
L 187.548198 53.568 
L 187.614644 295.488 
L 187.654511 53.568 
L 187.68109 53.568 
L 187.760825 295.488 
L 187.787403 53.568 
L 187.800692 53.568 
L 187.920295 295.488 
L 187.933584 295.488 
L 188.053186 53.568 
L 188.066476 53.568 
L 188.1595 295.488 
L 188.172789 53.568 
L 188.186078 53.568 
L 188.252524 295.488 
L 188.292392 53.568 
L 188.31897 53.568 
L 188.398705 295.488 
L 188.425283 53.568 
L 188.438573 53.568 
L 188.558175 295.488 
L 188.571464 295.488 
L 188.691067 53.568 
L 188.704356 53.568 
L 188.810669 295.488 
L 188.930272 53.568 
L 188.95685 53.568 
L 189.036585 295.488 
L 189.063164 53.568 
L 189.076453 53.568 
L 189.196056 295.488 
L 189.209345 295.488 
L 189.328947 53.568 
L 189.342236 53.568 
L 189.44855 295.488 
L 189.568152 53.568 
L 189.594731 53.568 
L 189.674466 295.488 
L 189.701044 53.568 
L 189.714333 53.568 
L 189.833936 295.488 
L 189.847225 295.488 
L 189.966828 53.568 
L 189.980117 53.568 
L 190.08643 295.488 
L 190.206033 53.568 
L 190.338925 53.568 
L 190.458527 295.488 
L 190.485105 295.488 
L 190.604708 53.568 
L 190.631286 53.568 
L 190.711021 295.488 
L 190.7376 53.568 
L 190.750889 53.568 
L 190.843913 295.488 
L 190.857202 53.568 
L 190.883781 53.568 
L 190.89707 295.488 
L 190.990094 53.568 
L 191.029962 53.568 
L 191.149564 295.488 
L 191.162853 295.488 
L 191.282456 53.568 
L 191.402059 295.488 
L 191.415348 295.488 
L 191.53495 53.568 
L 191.548239 53.568 
L 191.601396 295.488 
L 191.654553 53.568 
L 191.667842 53.568 
L 191.774155 295.488 
L 191.86718 53.568 
L 191.880469 295.488 
L 191.907047 295.488 
L 192.02665 53.568 
L 192.159542 53.568 
L 192.265855 295.488 
L 192.34559 53.568 
L 192.372168 295.488 
L 192.385458 295.488 
L 192.491771 53.568 
L 192.611373 295.488 
L 192.624663 295.488 
L 192.744265 53.568 
L 192.850579 295.488 
L 192.956892 53.568 
L 193.063205 295.488 
L 193.182808 53.568 
L 193.289121 295.488 
L 193.408724 53.568 
L 193.435302 53.568 
L 193.554905 295.488 
L 193.581483 295.488 
L 193.701086 53.568 
L 193.767532 53.568 
L 193.780821 295.488 
L 193.873845 53.568 
L 194.139629 53.568 
L 194.232653 295.488 
L 194.245942 53.568 
L 194.259231 53.568 
L 194.378834 295.488 
L 194.498436 53.568 
L 194.538304 53.568 
L 194.657906 295.488 
L 194.671196 295.488 
L 194.790798 53.568 
L 194.817377 53.568 
L 194.936979 295.488 
L 195.056582 53.568 
L 195.096449 295.488 
L 195.162895 53.568 
L 195.202763 53.568 
L 195.322365 295.488 
L 195.441968 53.568 
L 195.534992 295.488 
L 195.548281 53.568 
L 195.840643 53.568 
L 195.960246 295.488 
L 196.000113 295.488 
L 196.093137 53.568 
L 196.106427 295.488 
L 196.133005 295.488 
L 196.252607 53.568 
L 196.37221 295.488 
L 196.491813 53.568 
L 196.598126 295.488 
L 196.717729 53.568 
L 196.784174 53.568 
L 196.903777 295.488 
L 197.02338 53.568 
L 197.049958 53.568 
L 197.156271 295.488 
L 197.262585 53.568 
L 197.382187 295.488 
L 197.408766 295.488 
L 197.528368 53.568 
L 197.66126 53.568 
L 197.780863 295.488 
L 197.900465 53.568 
L 197.927044 53.568 
L 198.033357 295.488 
L 198.13967 53.568 
L 198.259273 295.488 
L 198.285851 295.488 
L 198.405454 53.568 
L 198.604791 53.568 
L 198.684526 295.488 
L 198.711105 53.568 
L 198.724394 53.568 
L 198.843997 295.488 
L 198.963599 53.568 
L 198.990178 53.568 
L 199.10978 295.488 
L 199.216093 53.568 
L 199.229383 295.488 
L 199.322407 53.568 
L 199.468588 53.568 
L 199.561612 295.488 
L 199.574901 53.568 
L 199.60148 53.568 
L 199.721082 295.488 
L 199.840685 53.568 
L 199.867263 53.568 
L 199.986866 295.488 
L 200.093179 53.568 
L 200.106468 295.488 
L 200.199492 53.568 
L 200.358963 53.568 
L 200.438698 295.488 
L 200.465276 53.568 
L 200.478565 53.568 
L 200.598168 295.488 
L 200.71777 53.568 
L 200.744349 53.568 
L 200.863951 295.488 
L 200.970265 53.568 
L 200.983554 295.488 
L 201.076578 53.568 
L 201.222759 53.568 
L 201.315783 295.488 
L 201.329072 53.568 
L 201.355651 53.568 
L 201.475253 295.488 
L 201.594856 53.568 
L 201.621434 53.568 
L 201.741037 295.488 
L 201.84735 53.568 
L 201.860639 295.488 
L 201.953664 53.568 
L 202.113134 53.568 
L 202.192869 295.488 
L 202.219447 53.568 
L 202.232736 53.568 
L 202.352339 295.488 
L 202.471941 53.568 
L 202.49852 53.568 
L 202.618122 295.488 
L 202.724436 53.568 
L 202.737725 295.488 
L 202.830749 53.568 
L 202.990219 53.568 
L 203.069954 295.488 
L 203.096533 53.568 
L 203.109822 53.568 
L 203.229424 295.488 
L 203.349027 53.568 
L 203.375605 53.568 
L 203.495208 295.488 
L 203.601521 53.568 
L 203.61481 295.488 
L 203.707835 53.568 
L 203.867305 53.568 
L 203.94704 295.488 
L 203.973618 53.568 
L 203.986907 53.568 
L 204.10651 295.488 
L 204.226112 53.568 
L 204.252691 53.568 
L 204.372293 295.488 
L 204.478607 53.568 
L 204.491896 295.488 
L 204.58492 53.568 
L 204.757679 53.568 
L 204.877282 295.488 
L 204.890571 295.488 
L 205.010174 53.568 
L 205.06333 53.568 
L 205.169644 295.488 
L 205.262668 53.568 
L 205.275957 295.488 
L 205.289246 295.488 
L 205.408849 53.568 
L 205.488584 53.568 
L 205.608187 295.488 
L 205.634765 295.488 
L 205.741078 53.568 
L 205.860681 295.488 
L 205.980284 53.568 
L 205.993573 53.568 
L 206.046729 295.488 
L 206.099886 53.568 
L 206.113175 53.568 
L 206.232778 295.488 
L 206.259356 295.488 
L 206.378959 53.568 
L 206.52514 53.568 
L 206.644742 295.488 
L 206.764345 53.568 
L 206.777634 53.568 
L 206.897237 295.488 
L 206.910526 295.488 
L 207.016839 53.568 
L 207.136442 295.488 
L 207.256044 53.568 
L 207.32249 53.568 
L 207.442093 295.488 
L 207.548406 53.568 
L 207.65472 295.488 
L 207.774322 53.568 
L 207.800901 53.568 
L 207.920503 295.488 
L 207.933792 295.488 
L 208.053395 53.568 
L 208.119841 295.488 
L 208.159708 53.568 
L 208.172997 53.568 
L 208.186287 295.488 
L 208.279311 53.568 
L 208.518516 53.568 
L 208.598251 295.488 
L 208.624829 53.568 
L 208.638119 53.568 
L 208.731143 295.488 
L 208.744432 53.568 
L 208.77101 53.568 
L 208.824167 295.488 
L 208.877324 53.568 
L 208.983637 53.568 
L 209.089951 295.488 
L 209.196264 53.568 
L 209.289288 295.488 
L 209.302577 53.568 
L 209.329156 53.568 
L 209.448758 295.488 
L 209.568361 53.568 
L 209.608228 53.568 
L 209.687963 295.488 
L 209.714542 53.568 
L 209.74112 53.568 
L 209.860723 295.488 
L 209.887301 295.488 
L 210.006904 53.568 
L 210.246109 53.568 
L 210.365711 295.488 
L 210.379 295.488 
L 210.498603 53.568 
L 210.525181 53.568 
L 210.644784 295.488 
L 210.764387 53.568 
L 210.883989 295.488 
L 211.003592 53.568 
L 211.149773 53.568 
L 211.256086 295.488 
L 211.375689 53.568 
L 211.402267 53.568 
L 211.52187 295.488 
L 211.535159 295.488 
L 211.628183 53.568 
L 211.641472 295.488 
L 211.654761 295.488 
L 211.774364 53.568 
L 211.800942 53.568 
L 211.854099 295.488 
L 211.907256 53.568 
L 212.106593 53.568 
L 212.226196 295.488 
L 212.239485 295.488 
L 212.359088 53.568 
L 212.438823 295.488 
L 212.465401 53.568 
L 212.505268 53.568 
L 212.624871 295.488 
L 212.63816 295.488 
L 212.757763 53.568 
L 212.903944 53.568 
L 213.010257 295.488 
L 213.12986 53.568 
L 213.156438 53.568 
L 213.276041 295.488 
L 213.28933 295.488 
L 213.382354 53.568 
L 213.395643 295.488 
L 213.408932 295.488 
L 213.528535 53.568 
L 213.555113 53.568 
L 213.60827 295.488 
L 213.661427 53.568 
L 213.860764 53.568 
L 213.980367 295.488 
L 213.993656 295.488 
L 214.113259 53.568 
L 214.192994 295.488 
L 214.219572 53.568 
L 214.25944 53.568 
L 214.379042 295.488 
L 214.392331 295.488 
L 214.511934 53.568 
L 214.73785 53.568 
L 214.857452 295.488 
L 214.870742 295.488 
L 214.990344 53.568 
L 215.070079 295.488 
L 215.096658 53.568 
L 215.136525 53.568 
L 215.256128 295.488 
L 215.269417 295.488 
L 215.389019 53.568 
L 215.614935 53.568 
L 215.734538 295.488 
L 215.747827 295.488 
L 215.86743 53.568 
L 215.947165 295.488 
L 215.973743 53.568 
L 216.013611 53.568 
L 216.133213 295.488 
L 216.146502 295.488 
L 216.266105 53.568 
L 216.412286 53.568 
L 216.518599 295.488 
L 216.638202 53.568 
L 216.66478 53.568 
L 216.784383 295.488 
L 216.797672 295.488 
L 216.903985 53.568 
L 217.023588 295.488 
L 217.143191 53.568 
L 217.369107 53.568 
L 217.488709 295.488 
L 217.501998 295.488 
L 217.621601 53.568 
L 217.701336 295.488 
L 217.727914 53.568 
L 217.767782 53.568 
L 217.887384 295.488 
L 217.900674 295.488 
L 218.020276 53.568 
L 218.246192 53.568 
L 218.365795 295.488 
L 218.379084 295.488 
L 218.498686 53.568 
L 218.578421 295.488 
L 218.605 53.568 
L 218.644867 53.568 
L 218.76447 295.488 
L 218.777759 295.488 
L 218.897362 53.568 
L 219.123278 53.568 
L 219.24288 295.488 
L 219.256169 295.488 
L 219.375772 53.568 
L 219.442218 53.568 
L 219.56182 295.488 
L 219.681423 53.568 
L 219.761158 295.488 
L 219.787736 53.568 
L 219.89405 53.568 
L 219.973785 295.488 
L 220.000363 53.568 
L 220.013652 53.568 
L 220.133255 295.488 
L 220.252858 53.568 
L 220.37246 295.488 
L 220.478773 53.568 
L 220.598376 295.488 
L 220.611665 295.488 
L 220.731268 53.568 
L 220.744557 53.568 
L 220.797714 295.488 
L 220.85087 53.568 
L 220.930605 53.568 
L 221.036919 295.488 
L 221.156521 53.568 
L 221.249546 295.488 
L 221.262835 53.568 
L 221.289413 53.568 
L 221.409016 295.488 
L 221.528618 53.568 
L 221.634932 295.488 
L 221.754534 53.568 
L 221.767823 53.568 
L 221.874137 295.488 
L 221.993739 53.568 
L 222.086764 295.488 
L 222.100053 53.568 
L 222.206366 53.568 
L 222.286101 295.488 
L 222.31268 53.568 
L 222.325969 53.568 
L 222.432282 295.488 
L 222.551885 53.568 
L 222.618331 53.568 
L 222.63162 295.488 
L 222.724644 53.568 
L 222.923982 53.568 
L 223.043584 295.488 
L 223.056873 295.488 
L 223.176476 53.568 
L 223.203054 53.568 
L 223.2695 295.488 
L 223.309368 53.568 
L 223.349235 53.568 
L 223.468838 295.488 
L 223.521995 295.488 
L 223.628308 53.568 
L 223.721332 295.488 
L 223.734621 53.568 
L 223.7612 53.568 
L 223.880802 295.488 
L 224.000405 53.568 
L 224.040272 53.568 
L 224.120007 295.488 
L 224.146586 53.568 
L 224.159875 53.568 
L 224.23961 295.488 
L 224.266188 53.568 
L 224.306056 53.568 
L 224.385791 295.488 
L 224.412369 53.568 
L 224.664864 53.568 
L 224.784466 295.488 
L 224.837623 295.488 
L 224.957225 53.568 
L 225.076828 295.488 
L 225.090117 295.488 
L 225.196431 53.568 
L 225.316033 295.488 
L 225.435636 53.568 
L 225.555238 53.568 
L 225.674841 295.488 
L 225.754576 53.568 
L 225.781154 295.488 
L 225.794443 295.488 
L 225.914046 53.568 
L 225.980492 295.488 
L 226.020359 53.568 
L 226.033649 53.568 
L 226.126673 295.488 
L 226.139962 53.568 
L 226.153251 53.568 
L 226.259565 295.488 
L 226.379167 53.568 
L 226.432324 53.568 
L 226.551926 295.488 
L 226.631662 53.568 
L 226.65824 295.488 
L 226.671529 295.488 
L 226.791132 53.568 
L 226.857577 295.488 
L 226.897445 53.568 
L 226.910734 53.568 
L 227.003758 295.488 
L 227.017048 53.568 
L 227.030337 53.568 
L 227.13665 295.488 
L 227.256253 53.568 
L 227.309409 53.568 
L 227.429012 295.488 
L 227.508747 53.568 
L 227.535325 295.488 
L 227.548615 295.488 
L 227.668217 53.568 
L 227.734663 295.488 
L 227.774531 53.568 
L 227.78782 53.568 
L 227.880844 295.488 
L 227.894133 53.568 
L 227.907422 53.568 
L 228.013736 295.488 
L 228.133338 53.568 
L 228.26623 53.568 
L 228.345965 295.488 
L 228.372543 53.568 
L 228.385833 53.568 
L 228.505435 295.488 
L 228.625038 53.568 
L 228.664905 53.568 
L 228.75793 295.488 
L 228.771219 53.568 
L 228.784508 53.568 
L 228.890821 295.488 
L 229.010424 53.568 
L 229.143316 53.568 
L 229.223051 295.488 
L 229.249629 53.568 
L 229.262918 53.568 
L 229.382521 295.488 
L 229.502123 53.568 
L 229.541991 53.568 
L 229.635015 295.488 
L 229.648304 53.568 
L 229.661593 53.568 
L 229.767907 295.488 
L 229.887509 53.568 
L 230.020401 53.568 
L 230.100136 295.488 
L 230.126715 53.568 
L 230.140004 53.568 
L 230.259606 295.488 
L 230.379209 53.568 
L 230.419076 53.568 
L 230.512101 295.488 
L 230.52539 53.568 
L 230.538679 53.568 
L 230.644992 295.488 
L 230.764595 53.568 
L 230.817752 53.568 
L 230.937354 295.488 
L 231.017089 53.568 
L 231.043668 295.488 
L 231.056957 295.488 
L 231.176559 53.568 
L 231.243005 295.488 
L 231.282873 53.568 
L 231.296162 53.568 
L 231.389186 295.488 
L 231.402475 53.568 
L 231.415765 53.568 
L 231.522078 295.488 
L 231.64168 53.568 
L 231.774572 53.568 
L 231.854307 295.488 
L 231.880886 53.568 
L 231.894175 53.568 
L 232.013777 295.488 
L 232.13338 53.568 
L 232.173247 53.568 
L 232.266272 295.488 
L 232.279561 53.568 
L 232.29285 53.568 
L 232.399163 295.488 
L 232.518766 53.568 
L 232.651658 53.568 
L 232.731393 295.488 
L 232.757971 53.568 
L 232.77126 53.568 
L 232.890863 295.488 
L 233.010466 53.568 
L 233.050333 53.568 
L 233.143357 295.488 
L 233.156646 53.568 
L 233.169936 53.568 
L 233.276249 295.488 
L 233.395852 53.568 
L 233.528743 53.568 
L 233.608478 295.488 
L 233.635057 53.568 
L 233.648346 53.568 
L 233.701503 295.488 
L 233.754659 53.568 
L 233.847684 53.568 
L 233.940708 295.488 
L 233.953997 53.568 
L 234.047021 53.568 
L 234.126756 295.488 
L 234.153335 53.568 
L 234.179913 53.568 
L 234.193202 295.488 
L 234.286226 53.568 
L 234.326094 53.568 
L 234.445696 295.488 
L 234.512142 53.568 
L 234.55201 295.488 
L 234.565299 295.488 
L 234.684902 53.568 
L 234.791215 295.488 
L 234.910818 53.568 
L 234.950685 53.568 
L 235.043709 295.488 
L 235.056998 53.568 
L 235.083577 53.568 
L 235.163312 295.488 
L 235.18989 53.568 
L 235.375939 53.568 
L 235.482252 295.488 
L 235.561987 53.568 
L 235.588565 295.488 
L 235.601855 295.488 
L 235.708168 53.568 
L 235.827771 295.488 
L 235.84106 295.488 
L 235.960662 53.568 
L 236.066976 295.488 
L 236.173289 53.568 
L 236.279603 295.488 
L 236.399205 53.568 
L 236.505519 295.488 
L 236.625121 53.568 
L 236.651699 53.568 
L 236.771302 295.488 
L 236.79788 295.488 
L 236.917483 53.568 
L 236.983929 53.568 
L 236.997218 295.488 
L 237.090242 53.568 
L 237.356026 53.568 
L 237.44905 295.488 
L 237.462339 53.568 
L 237.475628 53.568 
L 237.595231 295.488 
L 237.714833 53.568 
L 237.754701 53.568 
L 237.874304 295.488 
L 237.887593 295.488 
L 238.007195 53.568 
L 238.033774 53.568 
L 238.153376 295.488 
L 238.272979 53.568 
L 238.312846 295.488 
L 238.379292 53.568 
L 238.459027 53.568 
L 238.538762 295.488 
L 238.565341 53.568 
L 238.591919 53.568 
L 238.645076 295.488 
L 238.698232 53.568 
L 238.711522 53.568 
L 238.751389 295.488 
L 238.817835 53.568 
L 239.05704 53.568 
L 239.176643 295.488 
L 239.21651 295.488 
L 239.309534 53.568 
L 239.322824 295.488 
L 239.349402 295.488 
L 239.469005 53.568 
L 239.588607 295.488 
L 239.70821 53.568 
L 239.814523 295.488 
L 239.934126 53.568 
L 240.000572 53.568 
L 240.120174 295.488 
L 240.239777 53.568 
L 240.266355 53.568 
L 240.372668 295.488 
L 240.478982 53.568 
L 240.598584 295.488 
L 240.625163 295.488 
L 240.744765 53.568 
L 240.877657 53.568 
L 240.99726 295.488 
L 241.116862 53.568 
L 241.143441 53.568 
L 241.249754 295.488 
L 241.356067 53.568 
L 241.47567 295.488 
L 241.502248 295.488 
L 241.621851 53.568 
L 241.807899 53.568 
L 241.900924 295.488 
L 241.914213 53.568 
L 241.940791 53.568 
L 242.060394 295.488 
L 242.179996 53.568 
L 242.206575 53.568 
L 242.326177 295.488 
L 242.432491 53.568 
L 242.44578 295.488 
L 242.538804 53.568 
L 242.684985 53.568 
L 242.778009 295.488 
L 242.791298 53.568 
L 242.817877 53.568 
L 242.937479 295.488 
L 243.057082 53.568 
L 243.08366 53.568 
L 243.203263 295.488 
L 243.309576 53.568 
L 243.322865 295.488 
L 243.41589 53.568 
L 243.57536 53.568 
L 243.655095 295.488 
L 243.681673 53.568 
L 243.694962 53.568 
L 243.814565 295.488 
L 243.934167 53.568 
L 243.960746 53.568 
L 244.080348 295.488 
L 244.186662 53.568 
L 244.199951 295.488 
L 244.292975 53.568 
L 244.439156 53.568 
L 244.53218 295.488 
L 244.545469 53.568 
L 244.572048 53.568 
L 244.69165 295.488 
L 244.811253 53.568 
L 244.837831 53.568 
L 244.957434 295.488 
L 245.063747 53.568 
L 245.077036 295.488 
L 245.170061 53.568 
L 245.316242 53.568 
L 245.409266 295.488 
L 245.422555 53.568 
L 245.449133 53.568 
L 245.568736 295.488 
L 245.688338 53.568 
L 245.714917 53.568 
L 245.834519 295.488 
L 245.940833 53.568 
L 245.954122 295.488 
L 246.047146 53.568 
L 246.206616 53.568 
L 246.286351 295.488 
L 246.31293 53.568 
L 246.326219 53.568 
L 246.445821 295.488 
L 246.565424 53.568 
L 246.592002 53.568 
L 246.711605 295.488 
L 246.817918 53.568 
L 246.831208 295.488 
L 246.924232 53.568 
L 247.083702 53.568 
L 247.163437 295.488 
L 247.190015 53.568 
L 247.203304 53.568 
L 247.322907 295.488 
L 247.44251 53.568 
L 247.469088 53.568 
L 247.588691 295.488 
L 247.695004 53.568 
L 247.708293 295.488 
L 247.801317 53.568 
L 247.974077 53.568 
L 248.093679 295.488 
L 248.106968 295.488 
L 248.226571 53.568 
L 248.279728 53.568 
L 248.386041 295.488 
L 248.479065 53.568 
L 248.492354 295.488 
L 248.505644 295.488 
L 248.625246 53.568 
L 248.704981 53.568 
L 248.824584 295.488 
L 248.851162 295.488 
L 248.957476 53.568 
L 249.077078 295.488 
L 249.196681 53.568 
L 249.20997 53.568 
L 249.263127 295.488 
L 249.316283 53.568 
L 249.329572 53.568 
L 249.449175 295.488 
L 249.475753 295.488 
L 249.595356 53.568 
L 249.741537 53.568 
L 249.861139 295.488 
L 249.980742 53.568 
L 249.994031 53.568 
L 250.113634 295.488 
L 250.126923 295.488 
L 250.233236 53.568 
L 250.352839 295.488 
L 250.459152 53.568 
L 250.565466 295.488 
L 250.671779 53.568 
L 250.778093 295.488 
L 250.897695 53.568 
L 250.924273 53.568 
L 251.030587 295.488 
L 251.123611 53.568 
L 251.1369 295.488 
L 251.150189 295.488 
L 251.269792 53.568 
L 251.336238 295.488 
L 251.376105 53.568 
L 251.389395 53.568 
L 251.402684 295.488 
L 251.495708 53.568 
L 251.734913 53.568 
L 251.814648 295.488 
L 251.841227 53.568 
L 251.854516 53.568 
L 251.94754 295.488 
L 251.960829 53.568 
L 251.987407 53.568 
L 252.040564 295.488 
L 252.093721 53.568 
L 252.200034 53.568 
L 252.306348 295.488 
L 252.412661 53.568 
L 252.505685 295.488 
L 252.518974 53.568 
L 252.545553 53.568 
L 252.665155 295.488 
L 252.784758 53.568 
L 252.864493 53.568 
L 252.984096 295.488 
L 253.103698 53.568 
L 253.143566 53.568 
L 253.170144 295.488 
L 253.249879 53.568 
L 253.462506 53.568 
L 253.582108 295.488 
L 253.595398 295.488 
L 253.715 53.568 
L 253.741579 53.568 
L 253.861181 295.488 
L 253.980784 53.568 
L 254.100386 295.488 
L 254.219989 53.568 
L 254.36617 53.568 
L 254.472483 295.488 
L 254.592086 53.568 
L 254.618664 53.568 
L 254.738267 295.488 
L 254.857869 53.568 
L 254.977472 295.488 
L 255.097074 53.568 
L 255.243255 53.568 
L 255.349569 295.488 
L 255.469171 53.568 
L 255.49575 53.568 
L 255.615352 295.488 
L 255.628641 295.488 
L 255.721666 53.568 
L 255.734955 295.488 
L 255.748244 295.488 
L 255.867847 53.568 
L 255.894425 53.568 
L 255.947582 295.488 
L 256.000738 53.568 
L 256.120341 53.568 
L 256.226654 295.488 
L 256.346257 53.568 
L 256.372835 53.568 
L 256.492438 295.488 
L 256.505727 295.488 
L 256.598751 53.568 
L 256.61204 295.488 
L 256.62533 295.488 
L 256.744932 53.568 
L 256.77151 53.568 
L 256.824667 295.488 
L 256.877824 53.568 
L 257.077161 53.568 
L 257.196764 295.488 
L 257.210053 295.488 
L 257.329656 53.568 
L 257.409391 295.488 
L 257.435969 53.568 
L 257.475837 53.568 
L 257.595439 295.488 
L 257.608728 295.488 
L 257.728331 53.568 
L 257.954247 53.568 
L 258.07385 295.488 
L 258.087139 295.488 
L 258.206741 53.568 
L 258.286476 295.488 
L 258.313055 53.568 
L 258.352922 53.568 
L 258.472525 295.488 
L 258.485814 295.488 
L 258.605417 53.568 
L 258.831333 53.568 
L 258.950935 295.488 
L 258.964224 295.488 
L 259.083827 53.568 
L 259.163562 295.488 
L 259.19014 53.568 
L 259.230008 53.568 
L 259.34961 295.488 
L 259.3629 295.488 
L 259.482502 53.568 
L 259.708418 53.568 
L 259.828021 295.488 
L 259.84131 295.488 
L 259.960912 53.568 
L 260.040647 295.488 
L 260.067226 53.568 
L 260.107093 53.568 
L 260.226696 295.488 
L 260.239985 295.488 
L 260.359588 53.568 
L 260.585504 53.568 
L 260.705106 295.488 
L 260.718395 295.488 
L 260.837998 53.568 
L 260.917733 295.488 
L 260.944311 53.568 
L 260.984179 53.568 
L 261.103781 295.488 
L 261.117071 295.488 
L 261.236673 53.568 
L 261.462589 53.568 
L 261.582192 295.488 
L 261.595481 295.488 
L 261.715084 53.568 
L 261.794819 295.488 
L 261.821397 53.568 
L 261.861264 53.568 
L 261.980867 295.488 
L 261.994156 295.488 
L 262.113759 53.568 
L 262.339675 53.568 
L 262.459277 295.488 
L 262.472567 295.488 
L 262.592169 53.568 
L 262.658615 53.568 
L 262.778218 295.488 
L 262.89782 53.568 
L 262.977555 295.488 
L 263.004134 53.568 
L 263.110447 53.568 
L 263.190182 295.488 
L 263.21676 53.568 
L 263.230049 53.568 
L 263.349652 295.488 
L 263.469255 53.568 
L 263.588857 295.488 
L 263.695171 53.568 
L 263.814773 295.488 
L 263.828062 295.488 
L 263.947665 53.568 
L 263.960954 53.568 
L 264.014111 295.488 
L 264.067268 53.568 
L 264.147003 53.568 
L 264.240027 295.488 
L 264.253316 53.568 
L 264.306473 53.568 
L 264.386208 295.488 
L 264.412786 53.568 
L 264.426075 53.568 
L 264.532389 295.488 
L 264.651991 53.568 
L 264.67857 53.568 
L 264.784883 295.488 
L 264.904486 53.568 
L 264.944353 53.568 
L 265.063956 295.488 
L 265.183558 53.568 
L 265.210137 53.568 
L 265.303161 295.488 
L 265.31645 53.568 
L 265.422763 53.568 
L 265.502498 295.488 
L 265.529077 53.568 
L 265.542366 53.568 
L 265.648679 295.488 
L 265.768282 53.568 
L 265.834728 53.568 
L 265.848017 295.488 
L 265.941041 53.568 
L 266.140379 53.568 
L 266.259981 295.488 
L 266.273271 295.488 
L 266.392873 53.568 
L 266.419451 53.568 
L 266.485897 295.488 
L 266.525765 53.568 
L 266.565632 53.568 
L 266.685235 295.488 
L 266.738392 295.488 
L 266.844705 53.568 
L 266.937729 295.488 
L 266.951018 53.568 
L 266.977597 53.568 
L 267.097199 295.488 
L 267.216802 53.568 
L 267.296537 53.568 
L 267.41614 295.488 
L 267.522453 53.568 
L 267.602188 295.488 
L 267.628766 53.568 
L 267.881261 53.568 
L 268.000863 295.488 
L 268.05402 295.488 
L 268.173623 53.568 
L 268.293225 295.488 
L 268.306514 295.488 
L 268.412828 53.568 
L 268.53243 295.488 
L 268.652033 53.568 
L 268.771635 53.568 
L 268.891238 295.488 
L 268.970973 53.568 
L 268.997551 295.488 
L 269.010841 295.488 
L 269.130443 53.568 
L 269.1836 295.488 
L 269.236757 53.568 
L 269.289913 53.568 
L 269.409516 295.488 
L 269.529118 53.568 
L 269.648721 53.568 
L 269.768324 295.488 
L 269.848059 53.568 
L 269.874637 295.488 
L 269.887926 295.488 
L 270.007529 53.568 
L 270.073975 295.488 
L 270.113842 53.568 
L 270.127131 53.568 
L 270.220156 295.488 
L 270.233445 53.568 
L 270.246734 53.568 
L 270.353047 295.488 
L 270.47265 53.568 
L 270.525807 53.568 
L 270.645409 295.488 
L 270.725144 53.568 
L 270.751723 295.488 
L 270.765012 295.488 
L 270.884614 53.568 
L 270.95106 295.488 
L 270.990928 53.568 
L 271.004217 53.568 
L 271.097241 295.488 
L 271.11053 53.568 
L 271.123819 53.568 
L 271.230133 295.488 
L 271.349735 53.568 
L 271.402892 53.568 
L 271.522495 295.488 
L 271.60223 53.568 
L 271.628808 295.488 
L 271.642097 295.488 
L 271.7617 53.568 
L 271.828146 295.488 
L 271.868013 53.568 
L 271.881302 53.568 
L 271.974327 295.488 
L 271.987616 53.568 
L 272.000905 53.568 
L 272.107218 295.488 
L 272.226821 53.568 
L 272.359713 53.568 
L 272.439448 295.488 
L 272.466026 53.568 
L 272.479315 53.568 
L 272.598918 295.488 
L 272.71852 53.568 
L 272.758388 53.568 
L 272.851412 295.488 
L 272.864701 53.568 
L 272.877991 53.568 
L 272.984304 295.488 
L 273.103907 53.568 
L 273.236798 53.568 
L 273.316533 295.488 
L 273.343112 53.568 
L 273.356401 53.568 
L 273.476003 295.488 
L 273.595606 53.568 
L 273.635474 53.568 
L 273.728498 295.488 
L 273.741787 53.568 
L 273.755076 53.568 
L 273.861389 295.488 
L 273.980992 53.568 
L 274.113884 53.568 
L 274.193619 295.488 
L 274.220197 53.568 
L 274.233486 53.568 
L 274.353089 295.488 
L 274.472692 53.568 
L 274.512559 53.568 
L 274.605583 295.488 
L 274.618872 53.568 
L 274.632162 53.568 
L 274.738475 295.488 
L 274.858078 53.568 
L 274.990969 53.568 
L 275.070704 295.488 
L 275.097283 53.568 
L 275.110572 53.568 
L 275.230175 295.488 
L 275.349777 53.568 
L 275.389645 53.568 
L 275.482669 295.488 
L 275.495958 53.568 
L 275.509247 53.568 
L 275.615561 295.488 
L 275.735163 53.568 
L 275.868055 53.568 
L 275.94779 295.488 
L 275.974368 53.568 
L 275.987658 53.568 
L 276.10726 295.488 
L 276.226863 53.568 
L 276.26673 53.568 
L 276.359754 295.488 
L 276.373044 53.568 
L 276.386333 53.568 
L 276.492646 295.488 
L 276.612249 53.568 
L 276.74514 53.568 
L 276.824876 295.488 
L 276.851454 53.568 
L 276.864743 53.568 
L 276.9179 295.488 
L 276.971056 53.568 
L 277.064081 53.568 
L 277.157105 295.488 
L 277.170394 53.568 
L 277.263418 53.568 
L 277.343153 295.488 
L 277.369732 53.568 
L 277.39631 53.568 
L 277.409599 295.488 
L 277.502623 53.568 
L 277.542491 53.568 
L 277.662094 295.488 
L 277.768407 53.568 
L 277.861431 295.488 
L 277.87472 53.568 
L 277.901299 53.568 
L 278.007612 295.488 
L 278.127215 53.568 
L 278.167082 53.568 
L 278.260106 295.488 
L 278.273396 53.568 
L 278.299974 53.568 
L 278.379709 295.488 
L 278.406287 53.568 
L 278.592336 53.568 
L 278.698649 295.488 
L 278.778384 53.568 
L 278.804963 295.488 
L 278.818252 295.488 
L 278.924565 53.568 
L 279.044168 295.488 
L 279.057457 295.488 
L 279.17706 53.568 
L 279.283373 295.488 
L 279.389686 53.568 
L 279.496 295.488 
L 279.615602 53.568 
L 279.721916 295.488 
L 279.841518 53.568 
L 279.868097 53.568 
L 279.987699 295.488 
L 280.014278 295.488 
L 280.13388 53.568 
L 280.200326 53.568 
L 280.213615 295.488 
L 280.306639 53.568 
L 280.572423 53.568 
L 280.665447 295.488 
L 280.678736 53.568 
L 280.692025 53.568 
L 280.811628 295.488 
L 280.931231 53.568 
L 280.971098 53.568 
L 281.090701 295.488 
L 281.10399 295.488 
L 281.223592 53.568 
L 281.250171 53.568 
L 281.369773 295.488 
L 281.489376 53.568 
L 281.529243 295.488 
L 281.595689 53.568 
L 281.675424 53.568 
L 281.755159 295.488 
L 281.781738 53.568 
L 281.808316 53.568 
L 281.861473 295.488 
L 281.91463 53.568 
L 281.927919 53.568 
L 281.967786 295.488 
L 282.034232 53.568 
L 282.273437 53.568 
L 282.39304 295.488 
L 282.432907 295.488 
L 282.525932 53.568 
L 282.539221 295.488 
L 282.565799 295.488 
L 282.685402 53.568 
L 282.805004 295.488 
L 282.924607 53.568 
L 283.03092 295.488 
L 283.150523 53.568 
L 283.216969 53.568 
L 283.336571 295.488 
L 283.456174 53.568 
L 283.482752 53.568 
L 283.589066 295.488 
L 283.708668 53.568 
L 283.721957 53.568 
L 283.84156 295.488 
L 283.961163 53.568 
L 284.094054 53.568 
L 284.213657 295.488 
L 284.333259 53.568 
L 284.359838 53.568 
L 284.466151 295.488 
L 284.572465 53.568 
L 284.692067 295.488 
L 284.718645 295.488 
L 284.838248 53.568 
L 284.97114 53.568 
L 285.090742 295.488 
L 285.210345 53.568 
L 285.236923 53.568 
L 285.343237 295.488 
L 285.44955 53.568 
L 285.569153 295.488 
L 285.595731 295.488 
L 285.715334 53.568 
L 285.901382 53.568 
L 285.994406 295.488 
L 286.007695 53.568 
L 286.034274 53.568 
L 286.153876 295.488 
L 286.273479 53.568 
L 286.300057 53.568 
L 286.41966 295.488 
L 286.525973 53.568 
L 286.539262 295.488 
L 286.632287 53.568 
L 286.791757 53.568 
L 286.871492 295.488 
L 286.89807 53.568 
L 286.911359 53.568 
L 287.030962 295.488 
L 287.150565 53.568 
L 287.177143 53.568 
L 287.296745 295.488 
L 287.403059 53.568 
L 287.416348 295.488 
L 287.509372 53.568 
L 287.655553 53.568 
L 287.748577 295.488 
L 287.761867 53.568 
L 287.788445 53.568 
L 287.908047 295.488 
L 288.02765 53.568 
L 288.054228 53.568 
L 288.173831 295.488 
L 288.280144 53.568 
L 288.293434 295.488 
L 288.386458 53.568 
L 288.545928 53.568 
L 288.625663 295.488 
L 288.652241 53.568 
L 288.66553 53.568 
L 288.785133 295.488 
L 288.904736 53.568 
L 288.931314 53.568 
L 289.050917 295.488 
L 289.15723 53.568 
L 289.170519 295.488 
L 289.263543 53.568 
L 289.423013 53.568 
L 289.502748 295.488 
L 289.529327 53.568 
L 289.542616 53.568 
L 289.662219 295.488 
L 289.781821 53.568 
L 289.8084 53.568 
L 289.928002 295.488 
L 290.034315 53.568 
L 290.047605 295.488 
L 290.140629 53.568 
L 290.300099 53.568 
L 290.379834 295.488 
L 290.406412 53.568 
L 290.419702 53.568 
L 290.539304 295.488 
L 290.658907 53.568 
L 290.685485 53.568 
L 290.805088 295.488 
L 290.911401 53.568 
L 290.92469 295.488 
L 291.017714 53.568 
L 291.190474 53.568 
L 291.310076 295.488 
L 291.323365 295.488 
L 291.442968 53.568 
L 291.496125 53.568 
L 291.602438 295.488 
L 291.695462 53.568 
L 291.708752 295.488 
L 291.722041 295.488 
L 291.841643 53.568 
L 291.921378 53.568 
L 292.040981 295.488 
L 292.067559 295.488 
L 292.173873 53.568 
L 292.293475 295.488 
L 292.413078 53.568 
L 292.426367 53.568 
L 292.479524 295.488 
L 292.53268 53.568 
L 292.54597 53.568 
L 292.665572 295.488 
L 292.69215 295.488 
L 292.811753 53.568 
L 292.957934 53.568 
L 293.077537 295.488 
L 293.197139 53.568 
L 293.210428 53.568 
L 293.330031 295.488 
L 293.34332 295.488 
L 293.449633 53.568 
L 293.569236 295.488 
L 293.675549 53.568 
L 293.781863 295.488 
L 293.888176 53.568 
L 293.99449 295.488 
L 294.114092 53.568 
L 294.140671 53.568 
L 294.246984 295.488 
L 294.340008 53.568 
L 294.353297 295.488 
L 294.366587 295.488 
L 294.486189 53.568 
L 294.552635 295.488 
L 294.592503 53.568 
L 294.605792 53.568 
L 294.619081 295.488 
L 294.712105 53.568 
L 294.95131 53.568 
L 295.031045 295.488 
L 295.057624 53.568 
L 295.070913 53.568 
L 295.163937 295.488 
L 295.177226 53.568 
L 295.203805 53.568 
L 295.256961 295.488 
L 295.310118 53.568 
L 295.416431 53.568 
L 295.522745 295.488 
L 295.629058 53.568 
L 295.722082 295.488 
L 295.735372 53.568 
L 295.76195 53.568 
L 295.881552 295.488 
L 296.001155 53.568 
L 296.041023 53.568 
L 296.120758 295.488 
L 296.147336 53.568 
L 296.173914 53.568 
L 296.293517 295.488 
L 296.320095 295.488 
L 296.439698 53.568 
L 296.678903 53.568 
L 296.798506 295.488 
L 296.811795 295.488 
L 296.931397 53.568 
L 296.957976 53.568 
L 297.077578 295.488 
L 297.197181 53.568 
L 297.316783 295.488 
L 297.436386 53.568 
L 297.582567 53.568 
L 297.68888 295.488 
L 297.808483 53.568 
L 297.835061 53.568 
L 297.954664 295.488 
L 298.074266 53.568 
L 298.193869 295.488 
L 298.313472 53.568 
L 298.459652 53.568 
L 298.565966 295.488 
L 298.685568 53.568 
L 298.712147 53.568 
L 298.831749 295.488 
L 298.845039 295.488 
L 298.938063 53.568 
L 298.951352 295.488 
L 298.964641 295.488 
L 299.084244 53.568 
L 299.110822 53.568 
L 299.163979 295.488 
L 299.217135 53.568 
L 299.336738 53.568 
L 299.443051 295.488 
L 299.562654 53.568 
L 299.589232 53.568 
L 299.708835 295.488 
L 299.722124 295.488 
L 299.828437 53.568 
L 299.94804 295.488 
L 300.067643 53.568 
L 300.293559 53.568 
L 300.413161 295.488 
L 300.42645 295.488 
L 300.546053 53.568 
L 300.625788 295.488 
L 300.652366 53.568 
L 300.692234 53.568 
L 300.811836 295.488 
L 300.825126 295.488 
L 300.944728 53.568 
L 301.170644 53.568 
L 301.290247 295.488 
L 301.303536 295.488 
L 301.423138 53.568 
L 301.502874 295.488 
L 301.529452 53.568 
L 301.569319 53.568 
L 301.688922 295.488 
L 301.702211 295.488 
L 301.821814 53.568 
L 302.04773 53.568 
L 302.167332 295.488 
L 302.180621 295.488 
L 302.300224 53.568 
L 302.379959 295.488 
L 302.406537 53.568 
L 302.446405 53.568 
L 302.566008 295.488 
L 302.579297 295.488 
L 302.698899 53.568 
L 302.924815 53.568 
L 303.044418 295.488 
L 303.057707 295.488 
L 303.17731 53.568 
L 303.257045 295.488 
L 303.283623 53.568 
L 303.32349 53.568 
L 303.443093 295.488 
L 303.456382 295.488 
L 303.575985 53.568 
L 303.801901 53.568 
L 303.921503 295.488 
L 303.934793 295.488 
L 304.054395 53.568 
L 304.13413 295.488 
L 304.160709 53.568 
L 304.200576 53.568 
L 304.320179 295.488 
L 304.333468 295.488 
L 304.45307 53.568 
L 304.678986 53.568 
L 304.798589 295.488 
L 304.811878 295.488 
L 304.931481 53.568 
L 305.011216 295.488 
L 305.037794 53.568 
L 305.077662 53.568 
L 305.197264 295.488 
L 305.210553 295.488 
L 305.330156 53.568 
L 305.556072 53.568 
L 305.675674 295.488 
L 305.688964 295.488 
L 305.808566 53.568 
L 305.875012 53.568 
L 305.994615 295.488 
L 306.114217 53.568 
L 306.193952 295.488 
L 306.220531 53.568 
L 306.326844 53.568 
L 306.406579 295.488 
L 306.433157 53.568 
L 306.446447 53.568 
L 306.566049 295.488 
L 306.685652 53.568 
L 306.805254 295.488 
L 306.911568 53.568 
L 307.03117 295.488 
L 307.044459 295.488 
L 307.164062 53.568 
L 307.177351 53.568 
L 307.230508 295.488 
L 307.283665 53.568 
L 307.3634 53.568 
L 307.469713 295.488 
L 307.589316 53.568 
L 307.68234 295.488 
L 307.695629 53.568 
L 307.722207 53.568 
L 307.84181 295.488 
L 307.961413 53.568 
L 308.067726 295.488 
L 308.187329 53.568 
L 308.200618 53.568 
L 308.306931 295.488 
L 308.426534 53.568 
L 308.519558 295.488 
L 308.532847 53.568 
L 308.63916 53.568 
L 308.718896 295.488 
L 308.745474 53.568 
L 308.758763 53.568 
L 308.865076 295.488 
L 308.984679 53.568 
L 309.051125 53.568 
L 309.064414 295.488 
L 309.157438 53.568 
L 309.356776 53.568 
L 309.476379 295.488 
L 309.489668 295.488 
L 309.60927 53.568 
L 309.635849 53.568 
L 309.702294 295.488 
L 309.742162 53.568 
L 309.78203 53.568 
L 309.901632 295.488 
L 309.954789 295.488 
L 310.061102 53.568 
L 310.154126 295.488 
L 310.167416 53.568 
L 310.193994 53.568 
L 310.313597 295.488 
L 310.433199 53.568 
L 310.512934 53.568 
L 310.632537 295.488 
L 310.73885 53.568 
L 310.818585 295.488 
L 310.845164 53.568 
L 311.097658 53.568 
L 311.21726 295.488 
L 311.270417 295.488 
L 311.39002 53.568 
L 311.509622 295.488 
L 311.522911 295.488 
L 311.629225 53.568 
L 311.748827 295.488 
L 311.86843 53.568 
L 311.988033 53.568 
L 312.107635 295.488 
L 312.18737 53.568 
L 312.213949 295.488 
L 312.227238 295.488 
L 312.34684 53.568 
L 312.399997 295.488 
L 312.453154 53.568 
L 312.50631 53.568 
L 312.625913 295.488 
L 312.745516 53.568 
L 312.865118 53.568 
L 312.984721 295.488 
L 313.064456 53.568 
L 313.091034 295.488 
L 313.104323 295.488 
L 313.223926 53.568 
L 313.290372 295.488 
L 313.330239 53.568 
L 313.343528 53.568 
L 313.436553 295.488 
L 313.449842 53.568 
L 313.463131 53.568 
L 313.569444 295.488 
L 313.689047 53.568 
L 313.742204 53.568 
L 313.861806 295.488 
L 313.941541 53.568 
L 313.96812 295.488 
L 313.981409 295.488 
L 314.101011 53.568 
L 314.167457 295.488 
L 314.207325 53.568 
L 314.220614 53.568 
L 314.313638 295.488 
L 314.326927 53.568 
L 314.340217 53.568 
L 314.44653 295.488 
L 314.566133 53.568 
L 314.699024 53.568 
L 314.778759 295.488 
L 314.805338 53.568 
L 314.818627 53.568 
L 314.938229 295.488 
L 315.057832 53.568 
L 315.0977 53.568 
L 315.190724 295.488 
L 315.204013 53.568 
L 315.217302 53.568 
L 315.323616 295.488 
L 315.443218 53.568 
L 315.57611 53.568 
L 315.655845 295.488 
L 315.682423 53.568 
L 315.695712 53.568 
L 315.815315 295.488 
L 315.934918 53.568 
L 315.974785 53.568 
L 316.067809 295.488 
L 316.081099 53.568 
L 316.094388 53.568 
L 316.200701 295.488 
L 316.320304 53.568 
L 316.453195 53.568 
L 316.53293 295.488 
L 316.559509 53.568 
L 316.572798 53.568 
L 316.692401 295.488 
L 316.812003 53.568 
L 316.851871 53.568 
L 316.944895 295.488 
L 316.958184 53.568 
L 316.971473 53.568 
L 317.077787 295.488 
L 317.197389 53.568 
L 317.330281 53.568 
L 317.410016 295.488 
L 317.436594 53.568 
L 317.449884 53.568 
L 317.569486 295.488 
L 317.689089 53.568 
L 317.728956 53.568 
L 317.82198 295.488 
L 317.83527 53.568 
L 317.848559 53.568 
L 317.954872 295.488 
L 318.074475 53.568 
L 318.207367 53.568 
L 318.287102 295.488 
L 318.31368 53.568 
L 318.326969 53.568 
L 318.446572 295.488 
L 318.566174 53.568 
L 318.606042 53.568 
L 318.699066 295.488 
L 318.712355 53.568 
L 318.725644 53.568 
L 318.831958 295.488 
L 318.95156 53.568 
L 319.084452 53.568 
L 319.164187 295.488 
L 319.190765 53.568 
L 319.204055 53.568 
L 319.323657 295.488 
L 319.44326 53.568 
L 319.483127 53.568 
L 319.576152 295.488 
L 319.589441 53.568 
L 319.60273 53.568 
L 319.709043 295.488 
L 319.828646 53.568 
L 319.961538 53.568 
L 320.041273 295.488 
L 320.067851 53.568 
L 320.08114 53.568 
L 320.134297 295.488 
L 320.187454 53.568 
L 320.280478 53.568 
L 320.373502 295.488 
L 320.386791 53.568 
L 320.479815 53.568 
L 320.55955 295.488 
L 320.586129 53.568 
L 320.612707 53.568 
L 320.625996 295.488 
L 320.719021 53.568 
L 320.758888 53.568 
L 320.878491 295.488 
L 320.984804 53.568 
L 321.077828 295.488 
L 321.091117 53.568 
L 321.117696 53.568 
L 321.224009 295.488 
L 321.343612 53.568 
L 321.383479 53.568 
L 321.476504 295.488 
L 321.489793 53.568 
L 321.516371 53.568 
L 321.596106 295.488 
L 321.622684 53.568 
L 321.808733 53.568 
L 321.915046 295.488 
L 321.994781 53.568 
L 322.02136 295.488 
L 322.034649 295.488 
L 322.140962 53.568 
L 322.260565 295.488 
L 322.273854 295.488 
L 322.393457 53.568 
L 322.49977 295.488 
L 322.606083 53.568 
L 322.712397 295.488 
L 322.831999 53.568 
L 322.938313 295.488 
L 323.057915 53.568 
L 323.084494 53.568 
L 323.204096 295.488 
L 323.230675 295.488 
L 323.350277 53.568 
L 323.416723 53.568 
L 323.430012 295.488 
L 323.523037 53.568 
L 323.78882 53.568 
L 323.881844 295.488 
L 323.895133 53.568 
L 323.908423 53.568 
L 324.028025 295.488 
L 324.147628 53.568 
L 324.187495 53.568 
L 324.307098 295.488 
L 324.320387 295.488 
L 324.43999 53.568 
L 324.466568 53.568 
L 324.586171 295.488 
L 324.705773 53.568 
L 324.745641 295.488 
L 324.812086 53.568 
L 324.891822 53.568 
L 324.971557 295.488 
L 324.998135 53.568 
L 325.024713 53.568 
L 325.07787 295.488 
L 325.131027 53.568 
L 325.144316 53.568 
L 325.184183 295.488 
L 325.250629 53.568 
L 325.489834 53.568 
L 325.609437 295.488 
L 325.649305 295.488 
L 325.742329 53.568 
L 325.755618 295.488 
L 325.782196 295.488 
L 325.901799 53.568 
L 326.021401 295.488 
L 326.141004 53.568 
L 326.247317 295.488 
L 326.36692 53.568 
L 326.433366 53.568 
L 326.552968 295.488 
L 326.672571 53.568 
L 326.699149 53.568 
L 326.805463 295.488 
L 326.925065 53.568 
L 326.938354 53.568 
L 327.057957 295.488 
L 327.17756 53.568 
L 327.310451 53.568 
L 327.430054 295.488 
L 327.549657 53.568 
L 327.576235 53.568 
L 327.682548 295.488 
L 327.788862 53.568 
L 327.908464 295.488 
L 327.935043 295.488 
L 328.054645 53.568 
L 328.187537 53.568 
L 328.30714 295.488 
L 328.426742 53.568 
L 328.45332 53.568 
L 328.559634 295.488 
L 328.665947 53.568 
L 328.78555 295.488 
L 328.812128 295.488 
L 328.931731 53.568 
L 329.117779 53.568 
L 329.210803 295.488 
L 329.224093 53.568 
L 329.250671 53.568 
L 329.370274 295.488 
L 329.489876 53.568 
L 329.516454 53.568 
L 329.636057 295.488 
L 329.74237 53.568 
L 329.75566 295.488 
L 329.848684 53.568 
L 329.994865 53.568 
L 330.087889 295.488 
L 330.101178 53.568 
L 330.127756 53.568 
L 330.247359 295.488 
L 330.366962 53.568 
L 330.39354 53.568 
L 330.513143 295.488 
L 330.619456 53.568 
L 330.632745 295.488 
L 330.725769 53.568 
L 330.87195 53.568 
L 330.964975 295.488 
L 330.978264 53.568 
L 331.004842 53.568 
L 331.124445 295.488 
L 331.244047 53.568 
L 331.270626 53.568 
L 331.390228 295.488 
L 331.496542 53.568 
L 331.509831 295.488 
L 331.602855 53.568 
L 331.762325 53.568 
L 331.84206 295.488 
L 331.868638 53.568 
L 331.881928 53.568 
L 332.00153 295.488 
L 332.121133 53.568 
L 332.147711 53.568 
L 332.267314 295.488 
L 332.373627 53.568 
L 332.386916 295.488 
L 332.47994 53.568 
L 332.639411 53.568 
L 332.719146 295.488 
L 332.745724 53.568 
L 332.759013 53.568 
L 332.878616 295.488 
L 332.998218 53.568 
L 333.024797 53.568 
L 333.144399 295.488 
L 333.250713 53.568 
L 333.264002 295.488 
L 333.357026 53.568 
L 333.516496 53.568 
L 333.596231 295.488 
L 333.62281 53.568 
L 333.636099 53.568 
L 333.755701 295.488 
L 333.875304 53.568 
L 333.901882 53.568 
L 334.021485 295.488 
L 334.127798 53.568 
L 334.141087 295.488 
L 334.234112 53.568 
L 334.406871 53.568 
L 334.526473 295.488 
L 334.539763 295.488 
L 334.659365 53.568 
L 334.712522 53.568 
L 334.818835 295.488 
L 334.911859 53.568 
L 334.925149 295.488 
L 334.938438 295.488 
L 335.05804 53.568 
L 335.137775 53.568 
L 335.257378 295.488 
L 335.283956 295.488 
L 335.39027 53.568 
L 335.509872 295.488 
L 335.629475 53.568 
L 335.642764 53.568 
L 335.695921 295.488 
L 335.749078 53.568 
L 335.762367 53.568 
L 335.881969 295.488 
L 335.908548 295.488 
L 336.02815 53.568 
L 336.174331 53.568 
L 336.293934 295.488 
L 336.413536 53.568 
L 336.426825 53.568 
L 336.546428 295.488 
L 336.559717 295.488 
L 336.666031 53.568 
L 336.785633 295.488 
L 336.905236 53.568 
L 336.971682 53.568 
L 337.091284 295.488 
L 337.197598 53.568 
L 337.303911 295.488 
L 337.423514 53.568 
L 337.450092 53.568 
L 337.569694 295.488 
L 337.582984 295.488 
L 337.702586 53.568 
L 337.769032 295.488 
L 337.8089 53.568 
L 337.822189 53.568 
L 337.835478 295.488 
L 337.928502 53.568 
L 338.167707 53.568 
L 338.247442 295.488 
L 338.274021 53.568 
L 338.28731 53.568 
L 338.380334 295.488 
L 338.393623 53.568 
L 338.420202 53.568 
L 338.473358 295.488 
L 338.526515 53.568 
L 338.60625 53.568 
L 338.725853 295.488 
L 338.739142 295.488 
L 338.845455 53.568 
L 338.93848 295.488 
L 338.951769 53.568 
L 338.978347 53.568 
L 339.09795 295.488 
L 339.217552 53.568 
L 339.297287 53.568 
L 339.41689 295.488 
L 339.536492 53.568 
L 339.57636 53.568 
L 339.602938 295.488 
L 339.682673 53.568 
L 339.8953 53.568 
L 340.014903 295.488 
L 340.028192 295.488 
L 340.147794 53.568 
L 340.174373 53.568 
L 340.293975 295.488 
L 340.413578 53.568 
L 340.533181 295.488 
L 340.652783 53.568 
L 340.798964 53.568 
L 340.905277 295.488 
L 341.02488 53.568 
L 341.051458 53.568 
L 341.171061 295.488 
L 341.18435 295.488 
L 341.290663 53.568 
L 341.410266 295.488 
L 341.529869 53.568 
L 341.67605 53.568 
L 341.782363 295.488 
L 341.901966 53.568 
L 341.928544 53.568 
L 342.048146 295.488 
L 342.061436 295.488 
L 342.15446 53.568 
L 342.167749 295.488 
L 342.181038 295.488 
L 342.300641 53.568 
L 342.327219 53.568 
L 342.380376 295.488 
L 342.433533 53.568 
L 342.63287 53.568 
L 342.752473 295.488 
L 342.765762 295.488 
L 342.885364 53.568 
L 342.9651 295.488 
L 342.991678 53.568 
L 343.031545 53.568 
L 343.151148 295.488 
L 343.164437 295.488 
L 343.28404 53.568 
L 343.509956 53.568 
L 343.629558 295.488 
L 343.642847 295.488 
L 343.76245 53.568 
L 343.842185 295.488 
L 343.868763 53.568 
L 343.908631 53.568 
L 344.028234 295.488 
L 344.041523 295.488 
L 344.161125 53.568 
L 344.387041 53.568 
L 344.506644 295.488 
L 344.519933 295.488 
L 344.639536 53.568 
L 344.719271 295.488 
L 344.745849 53.568 
L 344.785717 53.568 
L 344.905319 295.488 
L 344.918608 295.488 
L 345.038211 53.568 
L 345.264127 53.568 
L 345.383729 295.488 
L 345.397019 295.488 
L 345.516621 53.568 
L 345.596356 295.488 
L 345.622935 53.568 
L 345.676091 53.568 
L 345.795694 295.488 
L 345.915296 53.568 
L 346.141212 53.568 
L 346.260815 295.488 
L 346.274104 295.488 
L 346.393707 53.568 
L 346.473442 295.488 
L 346.50002 53.568 
L 346.539888 53.568 
L 346.65949 295.488 
L 346.672779 295.488 
L 346.792382 53.568 
L 347.018298 53.568 
L 347.1379 295.488 
L 347.15119 295.488 
L 347.270792 53.568 
L 347.350527 295.488 
L 347.377106 53.568 
L 347.416973 53.568 
L 347.536576 295.488 
L 347.549865 295.488 
L 347.669467 53.568 
L 347.895383 53.568 
L 348.014986 295.488 
L 348.028275 295.488 
L 348.147878 53.568 
L 348.227613 295.488 
L 348.254191 53.568 
L 348.294059 53.568 
L 348.413661 295.488 
L 348.42695 295.488 
L 348.546553 53.568 
L 348.772469 53.568 
L 348.892072 295.488 
L 348.905361 295.488 
L 349.024963 53.568 
L 349.091409 53.568 
L 349.211012 295.488 
L 349.330614 53.568 
L 349.410349 295.488 
L 349.436928 53.568 
L 349.543241 53.568 
L 349.622976 295.488 
L 349.649555 53.568 
L 349.662844 53.568 
L 349.782446 295.488 
L 349.902049 53.568 
L 350.021651 295.488 
L 350.127965 53.568 
L 350.247567 295.488 
L 350.260857 295.488 
L 350.380459 53.568 
L 350.393748 53.568 
L 350.446905 295.488 
L 350.500062 53.568 
L 350.579797 53.568 
L 350.672821 295.488 
L 350.68611 53.568 
L 350.739267 53.568 
L 350.819002 295.488 
L 350.84558 53.568 
L 350.858869 53.568 
L 350.965183 295.488 
L 351.084785 53.568 
L 351.111364 53.568 
L 351.217677 295.488 
L 351.33728 53.568 
L 351.377147 53.568 
L 351.49675 295.488 
L 351.616352 53.568 
L 351.642931 53.568 
L 351.735955 295.488 
L 351.749244 53.568 
L 351.855558 53.568 
L 351.935293 295.488 
L 351.961871 53.568 
L 351.97516 53.568 
L 352.081474 295.488 
L 352.201076 53.568 
L 352.267522 53.568 
L 352.280811 295.488 
L 352.373835 53.568 
L 352.573173 53.568 
L 352.692776 295.488 
L 352.706065 295.488 
L 352.825667 53.568 
L 352.852246 53.568 
L 352.918692 295.488 
L 352.958559 53.568 
L 352.998427 53.568 
L 353.118029 295.488 
L 353.171186 295.488 
L 353.277499 53.568 
L 353.370524 295.488 
L 353.383813 53.568 
L 353.410391 53.568 
L 353.529994 295.488 
L 353.649596 53.568 
L 353.702753 53.568 
L 353.822356 295.488 
L 353.928669 53.568 
L 354.034982 295.488 
L 354.154585 53.568 
L 354.314055 53.568 
L 354.433658 295.488 
L 354.486814 295.488 
L 354.606417 53.568 
L 354.726019 295.488 
L 354.739309 295.488 
L 354.845622 53.568 
L 354.965225 295.488 
L 355.084827 53.568 
L 355.20443 53.568 
L 355.324032 295.488 
L 355.403767 53.568 
L 355.430346 295.488 
L 355.443635 295.488 
L 355.563237 53.568 
L 355.629683 295.488 
L 355.669551 53.568 
L 355.722708 53.568 
L 355.84231 295.488 
L 355.961913 53.568 
L 356.081515 53.568 
L 356.201118 295.488 
L 356.280853 53.568 
L 356.307431 295.488 
L 356.32072 295.488 
L 356.440323 53.568 
L 356.506769 295.488 
L 356.546636 53.568 
L 356.559926 53.568 
L 356.65295 295.488 
L 356.666239 53.568 
L 356.679528 53.568 
L 356.785842 295.488 
L 356.905444 53.568 
L 357.038336 53.568 
L 357.118071 295.488 
L 357.144649 53.568 
L 357.157938 53.568 
L 357.277541 295.488 
L 357.397144 53.568 
L 357.437011 53.568 
L 357.530035 295.488 
L 357.543325 53.568 
L 357.556614 53.568 
L 357.662927 295.488 
L 357.78253 53.568 
L 357.915421 53.568 
L 357.995156 295.488 
L 358.021735 53.568 
L 358.035024 53.568 
L 358.154627 295.488 
L 358.274229 53.568 
L 358.314097 53.568 
L 358.407121 295.488 
L 358.42041 53.568 
L 358.433699 53.568 
L 358.540013 295.488 
L 358.659615 53.568 
L 358.792507 53.568 
L 358.872242 295.488 
L 358.89882 53.568 
L 358.91211 53.568 
L 359.031712 295.488 
L 359.151315 53.568 
L 359.191182 53.568 
L 359.284206 295.488 
L 359.297496 53.568 
L 359.310785 53.568 
L 359.417098 295.488 
L 359.536701 53.568 
L 359.669593 53.568 
L 359.749328 295.488 
L 359.775906 53.568 
L 359.789195 53.568 
L 359.908798 295.488 
L 360.0284 53.568 
L 360.068268 53.568 
L 360.161292 295.488 
L 360.174581 53.568 
L 360.18787 53.568 
L 360.294184 295.488 
L 360.413786 53.568 
L 360.546678 53.568 
L 360.626413 295.488 
L 360.652991 53.568 
L 360.666281 53.568 
L 360.785883 295.488 
L 360.905486 53.568 
L 360.945353 53.568 
L 361.038378 295.488 
L 361.051667 53.568 
L 361.064956 53.568 
L 361.171269 295.488 
L 361.290872 53.568 
L 361.423764 53.568 
L 361.503499 295.488 
L 361.530077 53.568 
L 361.543366 53.568 
L 361.662969 295.488 
L 361.782571 53.568 
L 361.822439 53.568 
L 361.915463 295.488 
L 361.928752 53.568 
L 361.942041 53.568 
L 362.048355 295.488 
L 362.167957 53.568 
L 362.300849 53.568 
L 362.380584 295.488 
L 362.407163 53.568 
L 362.420452 53.568 
L 362.540054 295.488 
L 362.659657 53.568 
L 362.699524 53.568 
L 362.792549 295.488 
L 362.805838 53.568 
L 362.819127 53.568 
L 362.92544 295.488 
L 363.045043 53.568 
L 363.177935 53.568 
L 363.25767 295.488 
L 363.284248 53.568 
L 363.297537 53.568 
L 363.350694 295.488 
L 363.403851 53.568 
L 363.496875 53.568 
L 363.589899 295.488 
L 363.603188 53.568 
L 363.696213 53.568 
L 363.775948 295.488 
L 363.802526 53.568 
L 363.829104 53.568 
L 363.842393 295.488 
L 363.935418 53.568 
L 363.975285 53.568 
L 364.094888 295.488 
L 364.161334 53.568 
L 364.201201 295.488 
L 364.21449 295.488 
L 364.334093 53.568 
L 364.440406 295.488 
L 364.560009 53.568 
L 364.599876 53.568 
L 364.692901 295.488 
L 364.70619 53.568 
L 364.732768 53.568 
L 364.812503 295.488 
L 364.839082 53.568 
L 365.02513 53.568 
L 365.131443 295.488 
L 365.211179 53.568 
L 365.237757 295.488 
L 365.251046 295.488 
L 365.357359 53.568 
L 365.476962 295.488 
L 365.490251 295.488 
L 365.609854 53.568 
L 365.716167 295.488 
L 365.83577 53.568 
L 365.928794 295.488 
L 365.942083 53.568 
L 365.955372 53.568 
L 366.061686 295.488 
L 366.181288 53.568 
L 366.300891 53.568 
L 366.420493 295.488 
L 366.447072 295.488 
L 366.566674 53.568 
L 366.63312 53.568 
L 366.646409 295.488 
L 366.739434 53.568 
L 367.005217 53.568 
L 367.098241 295.488 
L 367.111531 53.568 
L 367.12482 53.568 
L 367.244422 295.488 
L 367.364025 53.568 
L 367.403892 53.568 
L 367.523495 295.488 
L 367.536784 295.488 
L 367.656387 53.568 
L 367.682965 53.568 
L 367.802568 295.488 
L 367.92217 53.568 
L 367.962038 295.488 
L 368.028484 53.568 
L 368.068351 53.568 
L 368.187954 295.488 
L 368.307556 53.568 
L 368.400581 295.488 
L 368.41387 53.568 
L 368.706232 53.568 
L 368.825834 295.488 
L 368.865702 295.488 
L 368.958726 53.568 
L 368.972015 295.488 
L 368.998593 295.488 
L 369.118196 53.568 
L 369.237799 295.488 
L 369.357401 53.568 
L 369.463715 295.488 
L 369.583317 53.568 
L 369.649763 53.568 
L 369.769366 295.488 
L 369.888968 53.568 
L 369.915546 53.568 
L 370.02186 295.488 
L 370.141462 53.568 
L 370.154752 53.568 
L 370.274354 295.488 
L 370.393957 53.568 
L 370.526849 53.568 
L 370.646451 295.488 
L 370.766054 53.568 
L 370.792632 53.568 
L 370.898945 295.488 
L 371.005259 53.568 
L 371.124861 295.488 
L 371.15144 295.488 
L 371.271042 53.568 
L 371.403934 53.568 
L 371.523537 295.488 
L 371.643139 53.568 
L 371.669718 53.568 
L 371.776031 295.488 
L 371.882344 53.568 
L 372.001947 295.488 
L 372.028525 295.488 
L 372.148128 53.568 
L 372.334176 53.568 
L 372.427201 295.488 
L 372.44049 53.568 
L 372.467068 53.568 
L 372.586671 295.488 
L 372.706273 53.568 
L 372.732852 53.568 
L 372.852454 295.488 
L 372.958768 53.568 
L 372.972057 295.488 
L 373.065081 53.568 
L 373.224551 53.568 
L 373.304286 295.488 
L 373.330864 53.568 
L 373.344154 53.568 
L 373.463756 295.488 
L 373.583359 53.568 
L 373.609937 53.568 
L 373.72954 295.488 
L 373.835853 53.568 
L 373.849142 295.488 
L 373.942166 53.568 
L 374.088347 53.568 
L 374.181372 295.488 
L 374.194661 53.568 
L 374.221239 53.568 
L 374.340842 295.488 
L 374.460444 53.568 
L 374.487023 53.568 
L 374.606625 295.488 
L 374.712939 53.568 
L 374.726228 295.488 
L 374.819252 53.568 
L 374.965433 53.568 
L 375.058457 295.488 
L 375.071746 53.568 
L 375.098325 53.568 
L 375.217927 295.488 
L 375.33753 53.568 
L 375.364108 53.568 
L 375.483711 295.488 
L 375.590024 53.568 
L 375.603313 295.488 
L 375.696338 53.568 
L 375.855808 53.568 
L 375.935543 295.488 
L 375.962121 53.568 
L 375.97541 53.568 
L 376.095013 295.488 
L 376.214615 53.568 
L 376.241194 53.568 
L 376.360796 295.488 
L 376.46711 53.568 
L 376.480399 295.488 
L 376.573423 53.568 
L 376.732893 53.568 
L 376.812628 295.488 
L 376.839207 53.568 
L 376.852496 53.568 
L 376.972098 295.488 
L 377.091701 53.568 
L 377.118279 53.568 
L 377.237882 295.488 
L 377.344195 53.568 
L 377.357484 295.488 
L 377.450509 53.568 
L 377.623268 53.568 
L 377.742871 295.488 
L 377.75616 295.488 
L 377.875762 53.568 
L 377.928919 53.568 
L 378.035232 295.488 
L 378.128257 53.568 
L 378.141546 295.488 
L 378.154835 295.488 
L 378.274438 53.568 
L 378.354173 53.568 
L 378.473775 295.488 
L 378.500354 295.488 
L 378.606667 53.568 
L 378.726269 295.488 
L 378.845872 53.568 
L 378.859161 53.568 
L 378.912318 295.488 
L 378.965475 53.568 
L 378.978764 53.568 
L 379.098366 295.488 
L 379.124945 295.488 
L 379.244547 53.568 
L 379.390728 53.568 
L 379.510331 295.488 
L 379.629933 53.568 
L 379.643223 53.568 
L 379.762825 295.488 
L 379.776114 295.488 
L 379.882428 53.568 
L 380.00203 295.488 
L 380.108344 53.568 
L 380.214657 295.488 
L 380.32097 53.568 
L 380.427284 295.488 
L 380.546886 53.568 
L 380.573465 53.568 
L 380.679778 295.488 
L 380.772802 53.568 
L 380.786092 295.488 
L 380.799381 295.488 
L 380.918983 53.568 
L 380.985429 295.488 
L 381.025297 53.568 
L 381.038586 53.568 
L 381.051875 295.488 
L 381.144899 53.568 
L 381.384104 53.568 
L 381.46384 295.488 
L 381.490418 53.568 
L 381.503707 53.568 
L 381.596731 295.488 
L 381.61002 53.568 
L 381.636599 53.568 
L 381.689756 295.488 
L 381.742912 53.568 
L 381.849226 53.568 
L 381.955539 295.488 
L 382.061852 53.568 
L 382.154877 295.488 
L 382.168166 53.568 
L 382.194744 53.568 
L 382.314347 295.488 
L 382.433949 53.568 
L 382.473817 53.568 
L 382.553552 295.488 
L 382.58013 53.568 
L 382.606709 53.568 
L 382.699733 295.488 
L 382.713022 53.568 
L 382.726311 53.568 
L 382.819335 295.488 
L 382.832625 53.568 
L 383.111697 53.568 
L 383.2313 295.488 
L 383.244589 295.488 
L 383.364192 53.568 
L 383.39077 53.568 
L 383.510372 295.488 
L 383.629975 53.568 
L 383.749578 295.488 
L 383.86918 53.568 
L 384.015361 53.568 
L 384.121675 295.488 
L 384.241277 53.568 
L 384.267855 53.568 
L 384.387458 295.488 
L 384.400747 295.488 
L 384.507061 53.568 
L 384.626663 295.488 
L 384.746266 53.568 
L 384.892447 53.568 
L 384.99876 295.488 
L 385.118363 53.568 
L 385.144941 53.568 
L 385.264544 295.488 
L 385.277833 295.488 
L 385.384146 53.568 
L 385.503749 295.488 
L 385.623351 53.568 
L 385.849267 53.568 
L 385.96887 295.488 
L 385.982159 295.488 
L 386.101762 53.568 
L 386.181497 295.488 
L 386.208075 53.568 
L 386.261232 53.568 
L 386.380834 295.488 
L 386.500437 53.568 
L 386.726353 53.568 
L 386.845955 295.488 
L 386.859245 295.488 
L 386.978847 53.568 
L 387.058582 295.488 
L 387.085161 53.568 
L 387.125028 53.568 
L 387.244631 295.488 
L 387.25792 295.488 
L 387.377522 53.568 
L 387.603438 53.568 
L 387.723041 295.488 
L 387.73633 295.488 
L 387.855933 53.568 
L 387.935668 295.488 
L 387.962246 53.568 
L 388.002114 53.568 
L 388.121716 295.488 
L 388.135005 295.488 
L 388.254608 53.568 
L 388.480524 53.568 
L 388.600127 295.488 
L 388.613416 295.488 
L 388.733018 53.568 
L 388.812753 295.488 
L 388.839332 53.568 
L 388.879199 53.568 
L 388.998802 295.488 
L 389.012091 295.488 
L 389.131694 53.568 
L 389.277874 53.568 
L 389.384188 295.488 
L 389.50379 53.568 
L 389.530369 53.568 
L 389.649971 295.488 
L 389.663261 295.488 
L 389.756285 53.568 
L 389.769574 295.488 
L 389.782863 295.488 
L 389.902466 53.568 
L 389.929044 53.568 
L 389.982201 295.488 
L 390.035357 53.568 
L 390.234695 53.568 
L 390.354298 295.488 
L 390.367587 295.488 
L 390.487189 53.568 
L 390.566924 295.488 
L 390.593503 53.568 
L 390.63337 53.568 
L 390.752973 295.488 
L 390.766262 295.488 
L 390.885865 53.568 
L 391.111781 53.568 
L 391.231383 295.488 
L 391.244672 295.488 
L 391.364275 53.568 
L 391.44401 295.488 
L 391.470588 53.568 
L 391.510456 53.568 
L 391.630058 295.488 
L 391.643348 295.488 
L 391.76295 53.568 
L 391.988866 53.568 
L 392.108469 295.488 
L 392.121758 295.488 
L 392.24136 53.568 
L 392.307806 53.568 
L 392.427409 295.488 
L 392.547011 53.568 
L 392.626747 295.488 
L 392.653325 53.568 
L 392.759638 53.568 
L 392.839373 295.488 
L 392.865952 53.568 
L 392.879241 53.568 
L 392.998843 295.488 
L 393.118446 53.568 
L 393.238049 295.488 
L 393.344362 53.568 
L 393.463965 295.488 
L 393.477254 295.488 
L 393.596856 53.568 
L 393.610145 53.568 
L 393.663302 295.488 
L 393.716459 53.568 
L 393.796194 53.568 
L 393.902507 295.488 
L 394.02211 53.568 
L 394.115134 295.488 
L 394.128423 53.568 
L 394.155002 53.568 
L 394.274604 295.488 
L 394.394207 53.568 
L 394.50052 295.488 
L 394.620123 53.568 
L 394.633412 53.568 
L 394.739725 295.488 
L 394.859328 53.568 
L 394.952352 295.488 
L 394.965641 53.568 
L 395.071955 53.568 
L 395.15169 295.488 
L 395.178268 53.568 
L 395.191557 53.568 
L 395.297871 295.488 
L 395.417473 53.568 
L 395.483919 53.568 
L 395.497208 295.488 
L 395.590233 53.568 
L 395.78957 53.568 
L 395.909173 295.488 
L 395.922462 295.488 
L 396.042065 53.568 
L 396.068643 53.568 
L 396.135089 295.488 
L 396.174956 53.568 
L 396.214824 53.568 
L 396.334426 295.488 
L 396.387583 295.488 
L 396.493896 53.568 
L 396.586921 295.488 
L 396.60021 53.568 
L 396.626788 53.568 
L 396.746391 295.488 
L 396.865993 53.568 
L 396.945728 53.568 
L 397.065331 295.488 
L 397.171644 53.568 
L 397.251379 295.488 
L 397.277958 53.568 
L 397.530452 53.568 
L 397.650055 295.488 
L 397.703211 295.488 
L 397.822814 53.568 
L 397.942417 295.488 
L 397.955706 295.488 
L 398.062019 53.568 
L 398.181622 295.488 
L 398.301224 53.568 
L 398.420827 53.568 
L 398.434116 295.488 
L 398.487273 53.568 
" clip-path="url(#pf8989b0706)" style="fill: none; stroke: #1f77b4; stroke-width: 0.5; stroke-linecap: square"/>
   </g>
   <g id="patch_3">
    <path d="M 57.6 307.584 
L 57.6 41.472 
" style="fill: none; stroke: #000000; stroke-width: 0.8; stroke-linejoin: miter; stroke-linecap: square"/>
   </g>
   <g id="patch_4">
    <path d="M 414.72 307.584 
L 414.72 41.472 
" style="fill: none; stroke: #000000; stroke-width: 0.8; stroke-linejoin: miter; stroke-linecap: square"/>
   </g>
   <g id="patch_5">
    <path d="M 57.6 307.584 
L 414.72 307.584 
" style="fill: none; stroke: #000000; stroke-width: 0.8; stroke-linejoin: miter; stroke-linecap: square"/>
   </g>
   <g id="patch_6">
    <path d="M 57.6 41.472 
L 414.72 41.472 
" style="fill: none; stroke: #000000; stroke-width: 0.8; stroke-linejoin: miter; stroke-linecap: square"/>
   </g>
  </g>
 </g>
 <defs>
  <clipPath id="pf8989b0706">
   <rect x="57.6" y="41.472" width="357.12" height="266.112"/>
  </clipPath>
 </defs>
</svg>
