<?xml version="1.0" encoding="utf-8" standalone="no"?>
<!DOCTYPE svg PUBLIC "-//W3C//DTD SVG 1.1//EN"
  "http://www.w3.org/Graphics/SVG/1.1/DTD/svg11.dtd">
<svg xmlns:xlink="http://www.w3.org/1999/xlink" width="460.8pt" height="345.6pt" viewBox="0 0 460.8 345.6" xmlns="http://www.w3.org/2000/svg" version="1.1">
 <metadata>
  <rdf:RDF xmlns:dc="http://purl.org/dc/elements/1.1/" xmlns:cc="http://creativecommons.org/ns#" xmlns:rdf="http://www.w3.org/1999/02/22-rdf-syntax-ns#">
   <cc:Work>
    <dc:type rdf:resource="http://purl.org/dc/dcmitype/StillImage"/>
    <dc:date>2024-09-21T14:01:41.604389</dc:date>
    <dc:format>image/svg+xml</dc:format>
    <dc:creator>
     <cc:Agent>
      <dc:title>Matplotlib v3.9.2, https://matplotlib.org/</dc:title>
     </cc:Agent>
    </dc:creator>
   </cc:Work>
  </rdf:RDF>
 </metadata>
 <defs>
  <style type="text/css">*{stroke-linejoin: round; stroke-linecap: butt}</style>
 </defs>
 <g id="figure_1">
  <g id="patch_1">
   <path d="M 0 345.6 
L 460.8 345.6 
L 460.8 0 
L 0 0 
z
" style="fill: #ffffff"/>
  </g>
  <g id="axes_1">
   <g id="patch_2">
    <path d="M 57.6 307.584 
L 414.72 307.584 
L 414.72 41.472 
L 57.6 41.472 
z
" style="fill: #ffffff"/>
   </g>
   <g id="matplotlib.axis_1">
    <g id="xtick_1">
     <g id="line2d_1">
      <defs>
       <path id="m2493ffd92a" d="M 0 0 
L 0 3.5 
" style="stroke: #000000; stroke-width: 0.8"/>
      </defs>
      <g>
       <use xlink:href="#m2493ffd92a" x="73.832727" y="307.584" style="stroke: #000000; stroke-width: 0.8"/>
      </g>
     </g>
     <g id="text_1">
      <!-- 0 -->
      <g transform="translate(70.651477 322.182437) scale(0.1 -0.1)">
       <defs>
        <path id="DejaVuSans-30" d="M 2034 4250 
Q 1547 4250 1301 3770 
Q 1056 3291 1056 2328 
Q 1056 1369 1301 889 
Q 1547 409 2034 409 
Q 2525 409 2770 889 
Q 3016 1369 3016 2328 
Q 3016 3291 2770 3770 
Q 2525 4250 2034 4250 
z
M 2034 4750 
Q 2819 4750 3233 4129 
Q 3647 3509 3647 2328 
Q 3647 1150 3233 529 
Q 2819 -91 2034 -91 
Q 1250 -91 836 529 
Q 422 1150 422 2328 
Q 422 3509 836 4129 
Q 1250 4750 2034 4750 
z
" transform="scale(0.015625)"/>
       </defs>
       <use xlink:href="#DejaVuSans-30"/>
      </g>
     </g>
    </g>
    <g id="xtick_2">
     <g id="line2d_2">
      <g>
       <use xlink:href="#m2493ffd92a" x="140.275883" y="307.584" style="stroke: #000000; stroke-width: 0.8"/>
      </g>
     </g>
     <g id="text_2">
      <!-- 5000 -->
      <g transform="translate(127.550883 322.182437) scale(0.1 -0.1)">
       <defs>
        <path id="DejaVuSans-35" d="M 691 4666 
L 3169 4666 
L 3169 4134 
L 1269 4134 
L 1269 2991 
Q 1406 3038 1543 3061 
Q 1681 3084 1819 3084 
Q 2600 3084 3056 2656 
Q 3513 2228 3513 1497 
Q 3513 744 3044 326 
Q 2575 -91 1722 -91 
Q 1428 -91 1123 -41 
Q 819 9 494 109 
L 494 744 
Q 775 591 1075 516 
Q 1375 441 1709 441 
Q 2250 441 2565 725 
Q 2881 1009 2881 1497 
Q 2881 1984 2565 2268 
Q 2250 2553 1709 2553 
Q 1456 2553 1204 2497 
Q 953 2441 691 2322 
L 691 4666 
z
" transform="scale(0.015625)"/>
       </defs>
       <use xlink:href="#DejaVuSans-35"/>
       <use xlink:href="#DejaVuSans-30" x="63.623047"/>
       <use xlink:href="#DejaVuSans-30" x="127.246094"/>
       <use xlink:href="#DejaVuSans-30" x="190.869141"/>
      </g>
     </g>
    </g>
    <g id="xtick_3">
     <g id="line2d_3">
      <g>
       <use xlink:href="#m2493ffd92a" x="206.719038" y="307.584" style="stroke: #000000; stroke-width: 0.8"/>
      </g>
     </g>
     <g id="text_3">
      <!-- 10000 -->
      <g transform="translate(190.812788 322.182437) scale(0.1 -0.1)">
       <defs>
        <path id="DejaVuSans-31" d="M 794 531 
L 1825 531 
L 1825 4091 
L 703 3866 
L 703 4441 
L 1819 4666 
L 2450 4666 
L 2450 531 
L 3481 531 
L 3481 0 
L 794 0 
L 794 531 
z
" transform="scale(0.015625)"/>
       </defs>
       <use xlink:href="#DejaVuSans-31"/>
       <use xlink:href="#DejaVuSans-30" x="63.623047"/>
       <use xlink:href="#DejaVuSans-30" x="127.246094"/>
       <use xlink:href="#DejaVuSans-30" x="190.869141"/>
       <use xlink:href="#DejaVuSans-30" x="254.492188"/>
      </g>
     </g>
    </g>
    <g id="xtick_4">
     <g id="line2d_4">
      <g>
       <use xlink:href="#m2493ffd92a" x="273.162193" y="307.584" style="stroke: #000000; stroke-width: 0.8"/>
      </g>
     </g>
     <g id="text_4">
      <!-- 15000 -->
      <g transform="translate(257.255943 322.182437) scale(0.1 -0.1)">
       <use xlink:href="#DejaVuSans-31"/>
       <use xlink:href="#DejaVuSans-35" x="63.623047"/>
       <use xlink:href="#DejaVuSans-30" x="127.246094"/>
       <use xlink:href="#DejaVuSans-30" x="190.869141"/>
       <use xlink:href="#DejaVuSans-30" x="254.492188"/>
      </g>
     </g>
    </g>
    <g id="xtick_5">
     <g id="line2d_5">
      <g>
       <use xlink:href="#m2493ffd92a" x="339.605348" y="307.584" style="stroke: #000000; stroke-width: 0.8"/>
      </g>
     </g>
     <g id="text_5">
      <!-- 20000 -->
      <g transform="translate(323.699098 322.182437) scale(0.1 -0.1)">
       <defs>
        <path id="DejaVuSans-32" d="M 1228 531 
L 3431 531 
L 3431 0 
L 469 0 
L 469 531 
Q 828 903 1448 1529 
Q 2069 2156 2228 2338 
Q 2531 2678 2651 2914 
Q 2772 3150 2772 3378 
Q 2772 3750 2511 3984 
Q 2250 4219 1831 4219 
Q 1534 4219 1204 4116 
Q 875 4013 500 3803 
L 500 4441 
Q 881 4594 1212 4672 
Q 1544 4750 1819 4750 
Q 2544 4750 2975 4387 
Q 3406 4025 3406 3419 
Q 3406 3131 3298 2873 
Q 3191 2616 2906 2266 
Q 2828 2175 2409 1742 
Q 1991 1309 1228 531 
z
" transform="scale(0.015625)"/>
       </defs>
       <use xlink:href="#DejaVuSans-32"/>
       <use xlink:href="#DejaVuSans-30" x="63.623047"/>
       <use xlink:href="#DejaVuSans-30" x="127.246094"/>
       <use xlink:href="#DejaVuSans-30" x="190.869141"/>
       <use xlink:href="#DejaVuSans-30" x="254.492188"/>
      </g>
     </g>
    </g>
    <g id="xtick_6">
     <g id="line2d_6">
      <g>
       <use xlink:href="#m2493ffd92a" x="406.048504" y="307.584" style="stroke: #000000; stroke-width: 0.8"/>
      </g>
     </g>
     <g id="text_6">
      <!-- 25000 -->
      <g transform="translate(390.142254 322.182437) scale(0.1 -0.1)">
       <use xlink:href="#DejaVuSans-32"/>
       <use xlink:href="#DejaVuSans-35" x="63.623047"/>
       <use xlink:href="#DejaVuSans-30" x="127.246094"/>
       <use xlink:href="#DejaVuSans-30" x="190.869141"/>
       <use xlink:href="#DejaVuSans-30" x="254.492188"/>
      </g>
     </g>
    </g>
   </g>
   <g id="matplotlib.axis_2">
    <g id="ytick_1">
     <g id="line2d_7">
      <defs>
       <path id="m4b208fc0c1" d="M 0 0 
L -3.5 0 
" style="stroke: #000000; stroke-width: 0.8"/>
      </defs>
      <g>
       <use xlink:href="#m4b208fc0c1" x="57.6" y="295.488" style="stroke: #000000; stroke-width: 0.8"/>
      </g>
     </g>
     <g id="text_7">
      <!-- 0.00 -->
      <g transform="translate(28.334375 299.287219) scale(0.1 -0.1)">
       <defs>
        <path id="DejaVuSans-2e" d="M 684 794 
L 1344 794 
L 1344 0 
L 684 0 
L 684 794 
z
" transform="scale(0.015625)"/>
       </defs>
       <use xlink:href="#DejaVuSans-30"/>
       <use xlink:href="#DejaVuSans-2e" x="63.623047"/>
       <use xlink:href="#DejaVuSans-30" x="95.410156"/>
       <use xlink:href="#DejaVuSans-30" x="159.033203"/>
      </g>
     </g>
    </g>
    <g id="ytick_2">
     <g id="line2d_8">
      <g>
       <use xlink:href="#m4b208fc0c1" x="57.6" y="264.818329" style="stroke: #000000; stroke-width: 0.8"/>
      </g>
     </g>
     <g id="text_8">
      <!-- 0.05 -->
      <g transform="translate(28.334375 268.617548) scale(0.1 -0.1)">
       <use xlink:href="#DejaVuSans-30"/>
       <use xlink:href="#DejaVuSans-2e" x="63.623047"/>
       <use xlink:href="#DejaVuSans-30" x="95.410156"/>
       <use xlink:href="#DejaVuSans-35" x="159.033203"/>
      </g>
     </g>
    </g>
    <g id="ytick_3">
     <g id="line2d_9">
      <g>
       <use xlink:href="#m4b208fc0c1" x="57.6" y="234.148658" style="stroke: #000000; stroke-width: 0.8"/>
      </g>
     </g>
     <g id="text_9">
      <!-- 0.10 -->
      <g transform="translate(28.334375 237.947877) scale(0.1 -0.1)">
       <use xlink:href="#DejaVuSans-30"/>
       <use xlink:href="#DejaVuSans-2e" x="63.623047"/>
       <use xlink:href="#DejaVuSans-31" x="95.410156"/>
       <use xlink:href="#DejaVuSans-30" x="159.033203"/>
      </g>
     </g>
    </g>
    <g id="ytick_4">
     <g id="line2d_10">
      <g>
       <use xlink:href="#m4b208fc0c1" x="57.6" y="203.478987" style="stroke: #000000; stroke-width: 0.8"/>
      </g>
     </g>
     <g id="text_10">
      <!-- 0.15 -->
      <g transform="translate(28.334375 207.278206) scale(0.1 -0.1)">
       <use xlink:href="#DejaVuSans-30"/>
       <use xlink:href="#DejaVuSans-2e" x="63.623047"/>
       <use xlink:href="#DejaVuSans-31" x="95.410156"/>
       <use xlink:href="#DejaVuSans-35" x="159.033203"/>
      </g>
     </g>
    </g>
    <g id="ytick_5">
     <g id="line2d_11">
      <g>
       <use xlink:href="#m4b208fc0c1" x="57.6" y="172.809316" style="stroke: #000000; stroke-width: 0.8"/>
      </g>
     </g>
     <g id="text_11">
      <!-- 0.20 -->
      <g transform="translate(28.334375 176.608535) scale(0.1 -0.1)">
       <use xlink:href="#DejaVuSans-30"/>
       <use xlink:href="#DejaVuSans-2e" x="63.623047"/>
       <use xlink:href="#DejaVuSans-32" x="95.410156"/>
       <use xlink:href="#DejaVuSans-30" x="159.033203"/>
      </g>
     </g>
    </g>
    <g id="ytick_6">
     <g id="line2d_12">
      <g>
       <use xlink:href="#m4b208fc0c1" x="57.6" y="142.139645" style="stroke: #000000; stroke-width: 0.8"/>
      </g>
     </g>
     <g id="text_12">
      <!-- 0.25 -->
      <g transform="translate(28.334375 145.938864) scale(0.1 -0.1)">
       <use xlink:href="#DejaVuSans-30"/>
       <use xlink:href="#DejaVuSans-2e" x="63.623047"/>
       <use xlink:href="#DejaVuSans-32" x="95.410156"/>
       <use xlink:href="#DejaVuSans-35" x="159.033203"/>
      </g>
     </g>
    </g>
    <g id="ytick_7">
     <g id="line2d_13">
      <g>
       <use xlink:href="#m4b208fc0c1" x="57.6" y="111.469974" style="stroke: #000000; stroke-width: 0.8"/>
      </g>
     </g>
     <g id="text_13">
      <!-- 0.30 -->
      <g transform="translate(28.334375 115.269193) scale(0.1 -0.1)">
       <defs>
        <path id="DejaVuSans-33" d="M 2597 2516 
Q 3050 2419 3304 2112 
Q 3559 1806 3559 1356 
Q 3559 666 3084 287 
Q 2609 -91 1734 -91 
Q 1441 -91 1130 -33 
Q 819 25 488 141 
L 488 750 
Q 750 597 1062 519 
Q 1375 441 1716 441 
Q 2309 441 2620 675 
Q 2931 909 2931 1356 
Q 2931 1769 2642 2001 
Q 2353 2234 1838 2234 
L 1294 2234 
L 1294 2753 
L 1863 2753 
Q 2328 2753 2575 2939 
Q 2822 3125 2822 3475 
Q 2822 3834 2567 4026 
Q 2313 4219 1838 4219 
Q 1578 4219 1281 4162 
Q 984 4106 628 3988 
L 628 4550 
Q 988 4650 1302 4700 
Q 1616 4750 1894 4750 
Q 2613 4750 3031 4423 
Q 3450 4097 3450 3541 
Q 3450 3153 3228 2886 
Q 3006 2619 2597 2516 
z
" transform="scale(0.015625)"/>
       </defs>
       <use xlink:href="#DejaVuSans-30"/>
       <use xlink:href="#DejaVuSans-2e" x="63.623047"/>
       <use xlink:href="#DejaVuSans-33" x="95.410156"/>
       <use xlink:href="#DejaVuSans-30" x="159.033203"/>
      </g>
     </g>
    </g>
    <g id="ytick_8">
     <g id="line2d_14">
      <g>
       <use xlink:href="#m4b208fc0c1" x="57.6" y="80.800303" style="stroke: #000000; stroke-width: 0.8"/>
      </g>
     </g>
     <g id="text_14">
      <!-- 0.35 -->
      <g transform="translate(28.334375 84.599521) scale(0.1 -0.1)">
       <use xlink:href="#DejaVuSans-30"/>
       <use xlink:href="#DejaVuSans-2e" x="63.623047"/>
       <use xlink:href="#DejaVuSans-33" x="95.410156"/>
       <use xlink:href="#DejaVuSans-35" x="159.033203"/>
      </g>
     </g>
    </g>
    <g id="ytick_9">
     <g id="line2d_15">
      <g>
       <use xlink:href="#m4b208fc0c1" x="57.6" y="50.130632" style="stroke: #000000; stroke-width: 0.8"/>
      </g>
     </g>
     <g id="text_15">
      <!-- 0.40 -->
      <g transform="translate(28.334375 53.92985) scale(0.1 -0.1)">
       <defs>
        <path id="DejaVuSans-34" d="M 2419 4116 
L 825 1625 
L 2419 1625 
L 2419 4116 
z
M 2253 4666 
L 3047 4666 
L 3047 1625 
L 3713 1625 
L 3713 1100 
L 3047 1100 
L 3047 0 
L 2419 0 
L 2419 1100 
L 313 1100 
L 313 1709 
L 2253 4666 
z
" transform="scale(0.015625)"/>
       </defs>
       <use xlink:href="#DejaVuSans-30"/>
       <use xlink:href="#DejaVuSans-2e" x="63.623047"/>
       <use xlink:href="#DejaVuSans-34" x="95.410156"/>
       <use xlink:href="#DejaVuSans-30" x="159.033203"/>
      </g>
     </g>
    </g>
   </g>
   <g id="line2d_16">
    <path d="M 73.832727 279.495418 
L 73.952325 295.488 
L 74.138366 295.488 
L 74.151654 279.495418 
L 74.244675 295.488 
L 74.350984 295.488 
L 74.364273 271.910638 
L 74.457293 295.488 
L 74.669911 295.488 
L 74.789509 279.495418 
L 74.909106 295.488 
L 74.988838 295.488 
L 75.002127 262.308368 
L 75.095147 295.488 
L 75.108436 294.80777 
L 75.201456 295.488 
L 75.321054 272.442066 
L 75.440652 295.488 
L 75.520383 295.488 
L 75.639981 279.495418 
L 75.733002 295.488 
L 75.74629 263.066402 
L 75.839311 295.488 
L 75.958908 257.106648 
L 76.078506 295.488 
L 76.158238 295.488 
L 76.171526 279.495418 
L 76.264547 295.488 
L 76.384144 282.050528 
L 76.490453 279.495418 
L 76.503742 295.488 
L 76.583474 295.488 
L 76.596763 278.817198 
L 76.703072 283.259931 
L 76.822669 295.488 
L 76.902401 295.488 
L 76.91569 278.33557 
L 77.021999 279.495418 
L 77.128308 278.836343 
L 77.141596 295.488 
L 77.221328 295.488 
L 77.234617 269.769544 
L 77.327637 295.488 
L 77.447235 279.495418 
L 77.566833 295.488 
L 77.646564 295.488 
L 77.766162 257.372202 
L 77.88576 295.488 
L 77.965492 295.488 
L 77.97878 255.150938 
L 78.085089 264.730449 
L 78.17811 295.488 
L 78.191398 217.010944 
L 78.284419 295.488 
L 78.404016 279.495418 
L 78.523614 295.488 
L 78.603346 295.488 
L 78.722944 272.802066 
L 78.842541 295.488 
L 78.922273 295.488 
L 78.935562 232.479838 
L 79.028582 295.488 
L 79.14818 230.501198 
L 79.267777 295.488 
L 79.453818 295.488 
L 79.573416 229.241251 
L 79.693014 295.488 
L 79.772745 295.488 
L 79.786034 274.010033 
L 79.892343 279.495418 
L 79.985363 295.488 
L 79.998652 161.298249 
L 80.091673 295.488 
L 80.104961 294.328931 
L 80.21127 294.461886 
L 80.330868 295.488 
L 80.4106 295.488 
L 80.530197 286.331697 
L 80.623218 295.488 
L 80.636506 269.728542 
L 80.729527 295.488 
L 80.742815 279.495418 
L 80.849124 284.485446 
L 80.968722 295.488 
L 81.048454 295.488 
L 81.061743 251.839652 
L 81.154763 295.488 
L 81.274361 279.495418 
L 81.367381 295.488 
L 81.38067 266.306677 
L 81.486979 268.297984 
L 81.606576 295.488 
L 81.686308 295.488 
L 81.699597 279.495418 
L 81.792617 295.488 
L 81.805906 294.977025 
L 81.898926 295.488 
L 81.912215 243.793754 
L 82.005235 295.488 
L 82.124833 279.495418 
L 82.244431 295.488 
L 82.324163 295.488 
L 82.44376 279.495418 
L 82.563358 295.488 
L 82.64309 295.488 
L 82.656378 234.230955 
L 82.749399 295.488 
L 82.855708 295.488 
L 82.868996 271.586527 
L 82.962017 295.488 
L 83.081614 227.327382 
L 83.201212 295.488 
L 83.280944 295.488 
L 83.400542 273.984366 
L 83.520139 295.488 
L 83.599871 295.488 
L 83.61316 266.86021 
L 83.70618 295.488 
L 83.825778 275.186472 
L 83.945376 295.488 
L 84.025107 295.488 
L 84.038396 222.876096 
L 84.131416 295.488 
L 84.251014 260.168041 
L 84.370612 295.488 
L 84.450343 295.488 
L 84.463632 274.283512 
L 84.569941 279.495418 
L 84.67625 274.543379 
L 84.689539 295.488 
L 84.769271 295.488 
L 84.888868 260.550403 
L 85.008466 295.488 
L 85.088198 295.488 
L 85.207795 269.129444 
L 85.314105 268.462241 
L 85.327393 295.488 
L 85.513434 295.488 
L 85.633032 253.240835 
L 85.752629 295.488 
L 85.832361 295.488 
L 85.951959 279.495418 
L 86.071556 295.488 
L 86.151288 295.488 
L 86.270886 279.495418 
L 86.363906 295.488 
L 86.377195 264.294377 
L 86.470215 295.488 
L 86.483504 280.389906 
L 86.589813 285.742377 
L 86.696122 285.741954 
L 86.709411 295.488 
L 86.789143 295.488 
L 86.90874 244.760868 
L 87.028338 295.488 
L 87.10807 295.488 
L 87.121358 279.495418 
L 87.227667 283.434379 
L 87.333976 280.490213 
L 87.347265 295.488 
L 87.426997 295.488 
L 87.546595 232.843161 
L 87.666192 295.488 
L 87.745924 295.488 
L 87.759213 248.427908 
L 87.852233 295.488 
L 87.971831 279.495418 
L 88.064851 295.488 
L 88.07814 234.626817 
L 88.17116 295.488 
L 88.184449 265.81608 
L 88.277469 295.488 
L 88.383778 295.488 
L 88.503376 258.147961 
L 88.622974 295.488 
L 88.702705 295.488 
L 88.715994 255.014691 
L 88.809014 295.488 
L 88.822303 279.495418 
L 88.915324 295.488 
L 89.034921 276.866035 
L 89.154519 295.488 
L 89.234251 295.488 
L 89.353848 248.279931 
L 89.473446 295.488 
L 89.553178 295.488 
L 89.672775 279.495418 
L 89.792373 295.488 
L 89.978414 295.488 
L 89.991703 279.495418 
L 90.084723 295.488 
L 90.098012 290.650617 
L 90.191032 295.488 
L 90.31063 274.002938 
L 90.430227 295.488 
L 90.509959 295.488 
L 90.629557 261.275129 
L 90.749155 295.488 
L 90.828886 295.488 
L 90.948484 265.072045 
L 91.068082 295.488 
L 91.147814 295.488 
L 91.161102 263.448467 
L 91.254123 295.488 
L 91.267411 279.495418 
L 91.37372 283.231611 
L 91.466741 295.488 
L 91.480029 252.62978 
L 91.57305 295.488 
L 91.692647 279.495418 
L 91.812245 295.488 
L 91.891977 295.488 
L 91.905266 261.560863 
L 91.998286 295.488 
L 92.011575 283.111109 
L 92.104595 295.488 
L 92.210904 295.488 
L 92.224193 279.495418 
L 92.317213 295.488 
L 92.330502 295.452794 
L 92.423522 295.488 
L 92.436811 269.549627 
L 92.529831 295.488 
L 92.63614 295.488 
L 92.755738 270.973216 
L 92.862047 266.452386 
L 92.875336 295.488 
L 92.955067 295.488 
L 92.968356 279.495418 
L 93.061376 295.488 
L 93.167685 295.488 
L 93.180974 275.920237 
L 93.273995 295.488 
L 93.393592 268.875548 
L 93.51319 295.488 
L 93.592922 295.488 
L 93.712519 279.495418 
L 93.832117 295.488 
L 93.911849 295.488 
L 93.925137 271.171252 
L 94.031446 279.495418 
L 94.137756 275.442329 
L 94.151044 295.488 
L 94.337085 295.488 
L 94.350374 280.76787 
L 94.443394 295.488 
L 94.549703 295.488 
L 94.669301 279.495418 
L 94.762321 295.488 
L 94.881919 244.053349 
L 95.001517 295.488 
L 95.081248 295.488 
L 95.200846 278.868971 
L 95.293866 295.488 
L 95.307155 209.547189 
L 95.400175 295.488 
L 95.519773 279.495418 
L 95.639371 295.488 
L 95.719103 295.488 
L 95.8387 259.596185 
L 95.958298 295.488 
L 96.03803 295.488 
L 96.051318 271.724582 
L 96.157627 279.028102 
L 96.277225 295.488 
L 96.356957 295.488 
L 96.370246 279.495418 
L 96.463266 295.488 
L 96.582864 271.193078 
L 96.702461 295.488 
L 96.782193 295.488 
L 96.901791 279.495418 
L 97.021388 295.488 
L 97.207429 295.488 
L 97.327027 224.582975 
L 97.446625 295.488 
L 97.526356 295.488 
L 97.645954 275.518562 
L 97.765552 295.488 
L 97.845284 295.488 
L 97.858572 272.143917 
L 97.964881 279.495418 
L 98.084479 295.488 
L 98.164211 295.488 
L 98.283808 237.162911 
L 98.403406 295.488 
L 98.483138 295.488 
L 98.602736 262.548553 
L 98.695756 295.488 
L 98.709045 244.927513 
L 98.802065 295.488 
L 98.815354 279.495418 
L 98.908374 295.488 
L 99.027972 262.548553 
L 99.147569 295.488 
L 99.227301 295.488 
L 99.346899 279.495418 
L 99.439919 295.488 
L 99.453208 267.173612 
L 99.546228 295.488 
L 99.559517 285.346923 
L 99.652537 295.488 
L 99.758846 295.488 
L 99.878444 279.495418 
L 99.998042 295.488 
L 100.077774 295.488 
L 100.197371 271.628136 
L 100.290392 295.488 
L 100.30368 246.855237 
L 100.396701 295.488 
L 100.409989 268.777103 
L 100.516298 271.195074 
L 100.635896 295.488 
L 100.715628 295.488 
L 100.835226 279.495418 
L 100.954823 295.488 
L 101.034555 295.488 
L 101.047844 294.639472 
L 101.140864 295.488 
L 101.154153 261.627511 
L 101.247173 295.488 
L 101.366771 279.495418 
L 101.486369 295.488 
L 101.5661 295.488 
L 101.579389 228.205798 
L 101.672409 295.488 
L 101.778718 295.488 
L 101.792007 279.495418 
L 101.898316 284.557426 
L 102.017914 295.488 
L 102.097646 295.488 
L 102.110934 294.653017 
L 102.203955 295.488 
L 102.217243 279.495418 
L 102.323552 283.687695 
L 102.416573 295.488 
L 102.429861 249.276367 
L 102.522882 295.488 
L 102.53617 273.933789 
L 102.629191 295.488 
L 102.7355 295.488 
L 102.855098 279.495418 
L 102.974695 295.488 
L 103.054427 295.488 
L 103.067716 196.0493 
L 103.160736 295.488 
L 103.174025 271.540747 
L 103.267045 295.488 
L 103.373354 295.488 
L 103.386643 271.909951 
L 103.492952 277.759896 
L 103.585972 295.488 
L 103.599261 250.437794 
L 103.692281 295.488 
L 103.811879 279.495418 
L 103.904899 295.488 
L 104.024497 243.593591 
L 104.144095 295.488 
L 104.223827 295.488 
L 104.343424 276.965839 
L 104.436445 295.488 
L 104.449733 229.754229 
L 104.542754 295.488 
L 104.662351 279.495418 
L 104.755372 295.488 
L 104.874969 224.944005 
L 104.994567 295.488 
L 105.074299 295.488 
L 105.087588 279.495418 
L 105.180608 295.488 
L 105.300206 257.152317 
L 105.419803 295.488 
L 105.499535 295.488 
L 105.619133 279.495418 
L 105.73873 295.488 
L 105.924771 295.488 
L 105.93806 242.872484 
L 106.03108 295.488 
L 106.150678 275.470039 
L 106.270276 295.488 
L 106.350007 295.488 
L 106.363296 283.72608 
L 106.456317 295.488 
L 106.575914 279.495418 
L 106.695512 295.488 
L 106.775244 295.488 
L 106.788532 262.350381 
L 106.894841 270.316865 
L 107.014439 295.488 
L 107.094171 295.488 
L 107.213768 257.099374 
L 107.333366 295.488 
L 107.413098 295.488 
L 107.532696 279.495418 
L 107.652293 295.488 
L 107.732025 295.488 
L 107.851623 270.177217 
L 107.97122 295.488 
L 108.050952 295.488 
L 108.17055 238.4756 
L 108.290148 295.488 
L 108.369879 295.488 
L 108.489477 279.495418 
L 108.609075 295.488 
L 108.688807 295.488 
L 108.702095 229.435626 
L 108.795116 295.488 
L 108.808404 268.994732 
L 108.901425 295.488 
L 109.021022 279.495418 
L 109.14062 295.488 
L 109.326661 295.488 
L 109.339949 279.495418 
L 109.43297 295.488 
L 109.552568 279.495418 
L 109.672165 295.488 
L 109.751897 295.488 
L 109.871495 279.495418 
L 109.977804 276.898161 
L 109.991092 295.488 
L 110.070824 295.488 
L 110.190422 279.495418 
L 110.31002 295.488 
L 110.389751 295.488 
L 110.40304 270.136341 
L 110.49606 295.488 
L 110.615658 279.495418 
L 110.708678 295.488 
L 110.721967 272.833158 
L 110.828276 275.188584 
L 110.947874 295.488 
L 111.133915 295.488 
L 111.253512 279.495418 
L 111.37311 295.488 
L 111.452842 295.488 
L 111.572439 279.495418 
L 111.692037 295.488 
L 111.771769 295.488 
L 111.785058 273.653731 
L 111.878078 295.488 
L 111.984387 295.488 
L 111.997676 268.297984 
L 112.090696 295.488 
L 112.210294 247.707375 
L 112.329891 295.488 
L 112.622241 295.488 
L 112.63553 264.924197 
L 112.72855 295.488 
L 112.834859 295.488 
L 112.848148 275.136748 
L 112.954457 279.495418 
L 113.074055 295.488 
L 113.366405 295.488 
L 113.379693 271.540747 
L 113.472714 295.488 
L 113.592311 279.495418 
L 113.711909 295.488 
L 113.791641 295.488 
L 113.911239 271.228552 
L 114.030836 295.488 
L 114.110568 295.488 
L 114.123857 272.833158 
L 114.216877 295.488 
L 114.336475 279.495418 
L 114.456072 295.488 
L 114.535804 295.488 
L 114.549093 275.382915 
L 114.655402 279.495418 
L 114.775 295.488 
L 114.854731 295.488 
L 114.974329 279.495418 
L 115.093927 295.488 
L 115.279968 295.488 
L 115.399565 279.495418 
L 115.492586 295.488 
L 115.505874 260.680768 
L 115.598895 295.488 
L 115.612183 294.899563 
L 115.705204 295.488 
L 115.824801 279.495418 
L 115.917822 295.488 
L 115.93111 267.694926 
L 116.03742 274.673954 
L 116.157017 295.488 
L 116.449367 295.488 
L 116.568965 279.495418 
L 116.688562 295.488 
L 116.768294 295.488 
L 116.887892 279.495418 
L 117.00749 295.488 
L 117.087221 295.488 
L 117.206819 279.495418 
L 117.326417 295.488 
L 117.406149 295.488 
L 117.525746 232.332591 
L 117.645344 295.488 
L 117.725076 295.488 
L 117.738364 250.348519 
L 117.831385 295.488 
L 117.937694 295.488 
L 118.057291 269.945957 
L 118.176889 295.488 
L 118.256621 295.488 
L 118.26991 274.913906 
L 118.376219 279.495418 
L 118.469239 295.488 
L 118.482528 212.936872 
L 118.575548 295.488 
L 118.588837 282.029933 
L 118.681857 295.488 
L 118.788166 295.488 
L 118.907764 279.495418 
L 119.027362 295.488 
L 119.107093 295.488 
L 119.226691 279.495418 
L 119.346289 295.488 
L 119.42602 295.488 
L 119.545618 279.495418 
L 119.665216 295.488 
L 119.744948 295.488 
L 119.758236 251.091272 
L 119.851257 295.488 
L 119.970854 279.495418 
L 120.090452 295.488 
L 120.170184 295.488 
L 120.183472 279.495418 
L 120.276493 295.488 
L 120.396091 279.495418 
L 120.515688 295.488 
L 120.59542 295.488 
L 120.715018 279.495418 
L 120.808038 295.488 
L 120.821327 254.248486 
L 120.914347 295.488 
L 121.020656 295.488 
L 121.033945 270.611143 
L 121.140254 279.495418 
L 121.259852 295.488 
L 121.339583 295.488 
L 121.352872 279.495418 
L 121.445892 295.488 
L 121.56549 279.495418 
L 121.685088 295.488 
L 121.76482 295.488 
L 121.884417 246.93891 
L 122.004015 295.488 
L 122.083747 295.488 
L 122.097035 225.761098 
L 122.190056 295.488 
L 122.309653 261.730429 
L 122.429251 295.488 
L 122.508983 295.488 
L 122.628581 257.517765 
L 122.748178 295.488 
L 122.82791 295.488 
L 122.947508 279.495418 
L 123.040528 295.488 
L 123.053817 260.416515 
L 123.146837 295.488 
L 123.160126 287.465954 
L 123.253146 295.488 
L 123.359455 295.488 
L 123.372744 279.495418 
L 123.465764 295.488 
L 123.585362 271.889464 
L 123.691671 269.808218 
L 123.70496 295.488 
L 123.784691 295.488 
L 123.904289 279.495418 
L 124.023887 295.488 
L 124.103619 295.488 
L 124.116907 254.034983 
L 124.209928 295.488 
L 124.329525 279.495418 
L 124.449123 295.488 
L 124.528855 295.488 
L 124.648452 279.495418 
L 124.76805 295.488 
L 124.847782 295.488 
L 124.861071 265.461049 
L 124.954091 295.488 
L 125.0604 295.488 
L 125.073689 264.261607 
L 125.166709 295.488 
L 125.286307 279.495418 
L 125.405904 295.488 
L 125.485636 295.488 
L 125.498925 279.495418 
L 125.591945 295.488 
L 125.698254 295.488 
L 125.711543 285.791485 
L 125.817852 286.744074 
L 125.910872 295.488 
L 125.924161 251.935169 
L 126.017181 295.488 
L 126.136779 254.959605 
L 126.256377 295.488 
L 126.336109 295.488 
L 126.455706 279.495418 
L 126.575304 295.488 
L 126.655036 295.488 
L 126.774633 279.495418 
L 126.894231 295.488 
L 126.973963 295.488 
L 127.093561 236.238785 
L 127.213158 295.488 
L 127.29289 295.488 
L 127.306179 278.997087 
L 127.412488 279.495418 
L 127.505508 295.488 
L 127.518797 262.885243 
L 127.625106 270.659592 
L 127.744703 295.488 
L 127.824435 295.488 
L 127.837724 279.495418 
L 127.930744 295.488 
L 128.050342 257.905272 
L 128.16994 295.488 
L 128.249671 295.488 
L 128.26296 272.170496 
L 128.369269 279.495418 
L 128.488867 295.488 
L 128.781217 295.488 
L 128.900814 228.270323 
L 129.020412 295.488 
L 129.206453 295.488 
L 129.219742 231.600025 
L 129.312762 295.488 
L 129.43236 238.306909 
L 129.551957 295.488 
L 129.631689 295.488 
L 129.644978 274.438984 
L 129.737998 295.488 
L 129.844307 295.488 
L 129.963905 279.495418 
L 130.083503 295.488 
L 130.163234 295.488 
L 130.282832 279.495418 
L 130.40243 295.488 
L 130.482161 295.488 
L 130.49545 254.592918 
L 130.588471 295.488 
L 130.708068 279.495418 
L 130.827666 295.488 
L 130.907398 295.488 
L 130.920686 290.842698 
L 131.026995 291.408836 
L 131.146593 295.488 
L 131.332634 295.488 
L 131.345923 238.930618 
L 131.438943 295.488 
L 131.452232 273.266433 
L 131.558541 279.495418 
L 131.678138 295.488 
L 131.75787 295.488 
L 131.877468 279.495418 
L 131.997065 295.488 
L 132.076797 295.488 
L 132.090086 280.926468 
L 132.183106 295.488 
L 132.608342 295.488 
L 132.72794 275.378487 
L 132.847538 295.488 
L 132.92727 295.488 
L 132.940558 264.066671 
L 133.033579 295.488 
L 133.153176 247.0392 
L 133.272774 295.488 
L 133.352506 295.488 
L 133.472103 279.266042 
L 133.591701 295.488 
L 133.671433 295.488 
L 133.684722 269.155396 
L 133.777742 295.488 
L 133.791031 279.495418 
L 133.884051 295.488 
L 134.003649 292.022656 
L 134.123246 295.488 
L 134.309287 295.488 
L 134.322576 279.495418 
L 134.415596 295.488 
L 134.535194 279.495418 
L 134.654792 295.488 
L 134.734523 295.488 
L 134.854121 231.576081 
L 134.973719 295.488 
L 135.053451 295.488 
L 135.066739 227.824352 
L 135.15976 295.488 
L 135.173048 276.534975 
L 135.279357 279.495418 
L 135.398955 295.488 
L 135.584996 295.488 
L 135.704593 269.619378 
L 135.824191 295.488 
L 135.903923 295.488 
L 135.917212 246.759746 
L 136.010232 295.488 
L 136.116541 295.488 
L 136.12983 240.651405 
L 136.22285 295.488 
L 136.342448 279.495418 
L 136.448757 278.615111 
L 136.462045 295.488 
L 136.541777 295.488 
L 136.661375 279.495418 
L 136.780973 295.488 
L 136.860704 295.488 
L 136.873993 271.858177 
L 136.980302 279.495418 
L 137.073322 295.488 
L 137.086611 260.759738 
L 137.19292 264.474472 
L 137.312518 295.488 
L 137.711177 295.488 
L 137.830774 279.495418 
L 137.950372 295.488 
L 138.030104 295.488 
L 138.149702 219.275703 
L 138.269299 295.488 
L 138.349031 295.488 
L 138.468629 253.148833 
L 138.588226 295.488 
L 138.667958 295.488 
L 138.787556 272.189314 
L 138.907154 295.488 
L 138.986885 295.488 
L 139.106483 253.525983 
L 139.226081 295.488 
L 139.305813 295.488 
L 139.42541 259.732082 
L 139.545008 295.488 
L 139.62474 295.488 
L 139.744337 222.441836 
L 139.863935 295.488 
L 139.943667 295.488 
L 140.063264 223.797036 
L 140.182862 295.488 
L 140.262594 295.488 
L 140.382192 277.078467 
L 140.475212 295.488 
L 140.488501 246.205413 
L 140.581521 295.488 
L 140.701119 257.618772 
L 140.820716 295.488 
L 140.900448 295.488 
L 140.913737 279.495418 
L 141.006757 295.488 
L 141.126355 287.279789 
L 141.219375 295.488 
L 141.338973 273.089357 
L 141.431993 295.488 
L 141.445282 240.913929 
L 141.538303 295.488 
L 141.6579 262.415891 
L 141.750921 295.488 
L 141.764209 241.197613 
L 141.85723 295.488 
L 141.976827 234.149144 
L 142.096425 295.488 
L 142.176157 295.488 
L 142.189445 294.335811 
L 142.282466 295.488 
L 142.295754 227.179094 
L 142.388775 295.488 
L 142.402064 256.279525 
L 142.495084 295.488 
L 142.508373 294.641328 
L 142.601393 295.488 
L 142.614682 213.677999 
L 142.707702 295.488 
L 142.8273 265.931732 
L 142.92032 295.488 
L 142.933609 190.955999 
L 143.026629 295.488 
L 143.146227 260.008128 
L 143.239247 295.488 
L 143.252536 174.709942 
L 143.345556 295.488 
L 143.358845 279.495418 
L 143.451865 295.488 
L 143.558174 295.488 
L 143.571463 212.230186 
L 143.677772 235.612563 
L 143.79737 295.488 
L 143.877102 295.488 
L 143.89039 243.703949 
L 143.996699 260.835213 
L 144.116297 295.488 
L 144.196029 295.488 
L 144.209317 188.774309 
L 144.302338 295.488 
L 144.421935 205.155904 
L 144.541533 295.488 
L 144.621265 295.488 
L 144.740863 224.557903 
L 144.86046 295.488 
L 144.940192 295.488 
L 145.05979 170.354175 
L 145.179387 295.488 
L 145.259119 295.488 
L 145.378717 254.738432 
L 145.498315 295.488 
L 145.578046 295.488 
L 145.697644 262.43672 
L 145.817242 295.488 
L 146.003283 295.488 
L 146.016571 226.167066 
L 146.109592 295.488 
L 146.229189 248.488793 
L 146.348787 295.488 
L 146.428519 295.488 
L 146.548116 257.891892 
L 146.667714 295.488 
L 146.747446 295.488 
L 146.760735 251.677393 
L 146.853755 295.488 
L 146.867044 279.495418 
L 146.960064 295.488 
L 147.079662 279.495418 
L 147.199259 295.488 
L 147.278991 295.488 
L 147.398589 279.495418 
L 147.518187 295.488 
L 147.597918 295.488 
L 147.717516 224.459262 
L 147.837114 295.488 
L 148.023154 295.488 
L 148.142752 256.585342 
L 148.26235 295.488 
L 148.342082 295.488 
L 148.35537 267.984922 
L 148.448391 295.488 
L 148.567988 276.750183 
L 148.687586 295.488 
L 148.767318 295.488 
L 148.780606 277.748991 
L 148.873627 295.488 
L 148.979936 295.488 
L 148.993225 279.495418 
L 149.086245 295.488 
L 149.205843 279.495418 
L 149.32544 295.488 
L 149.405172 295.488 
L 149.52477 279.495418 
L 149.61779 295.488 
L 149.737388 198.208625 
L 149.856986 295.488 
L 149.936717 295.488 
L 149.950006 279.495418 
L 150.043026 295.488 
L 150.149335 295.488 
L 150.268933 256.383813 
L 150.388531 295.488 
L 150.468263 295.488 
L 150.481551 225.313407 
L 150.574572 295.488 
L 150.680881 295.488 
L 150.694169 260.443245 
L 150.78719 295.488 
L 150.893499 295.488 
L 150.906787 289.741446 
L 150.999808 295.488 
L 151.106117 295.488 
L 151.225715 220.455766 
L 151.345312 295.488 
L 151.425044 295.488 
L 151.544642 282.468079 
L 151.664239 295.488 
L 151.743971 295.488 
L 151.75726 281.293126 
L 151.85028 295.488 
L 151.969878 279.495418 
L 152.089476 295.488 
L 152.275516 295.488 
L 152.288805 279.495418 
L 152.395114 282.105712 
L 152.514712 295.488 
L 152.594444 295.488 
L 152.607732 251.091272 
L 152.700753 295.488 
L 152.82035 238.359858 
L 152.913371 295.488 
L 152.926659 207.517091 
L 153.01968 295.488 
L 153.139277 279.170698 
L 153.258875 295.488 
L 153.338607 295.488 
L 153.351896 252.092981 
L 153.444916 295.488 
L 153.564514 251.33136 
L 153.684111 295.488 
L 153.763843 295.488 
L 153.883441 275.365684 
L 154.003038 295.488 
L 154.08277 295.488 
L 154.096059 279.495418 
L 154.189079 295.488 
L 154.401697 295.488 
L 154.521295 276.00151 
L 154.627604 275.119045 
L 154.640893 295.488 
L 154.720625 295.488 
L 154.733913 233.672621 
L 154.826934 295.488 
L 154.946531 276.062178 
L 155.066129 295.488 
L 155.145861 295.488 
L 155.159149 287.539478 
L 155.25217 295.488 
L 155.358479 295.488 
L 155.478077 263.16847 
L 155.584386 252.37822 
L 155.597674 295.488 
L 155.677406 295.488 
L 155.797004 251.839652 
L 155.916601 295.488 
L 155.996333 295.488 
L 156.115931 258.777355 
L 156.235528 295.488 
L 156.31526 295.488 
L 156.328549 279.495418 
L 156.421569 295.488 
L 156.527878 295.488 
L 156.647476 249.972941 
L 156.767074 295.488 
L 156.846806 295.488 
L 156.860094 276.843285 
L 156.953115 295.488 
L 157.072712 289.720539 
L 157.19231 295.488 
L 157.272042 295.488 
L 157.28533 292.606976 
L 157.378351 295.488 
L 157.48466 295.488 
L 157.497948 219.302958 
L 157.590969 295.488 
L 157.710567 274.21483 
L 157.830164 295.488 
L 157.909896 295.488 
L 157.923185 265.944739 
L 158.016205 295.488 
L 158.122514 295.488 
L 158.242112 258.052532 
L 158.361709 295.488 
L 158.441441 295.488 
L 158.45473 279.495418 
L 158.54775 295.488 
L 158.654059 295.488 
L 158.667348 279.495418 
L 158.773657 281.783816 
L 158.879966 279.495418 
L 158.893255 295.488 
L 158.972986 295.488 
L 159.092584 279.495418 
L 159.185605 295.488 
L 159.198893 239.04 
L 159.291914 295.488 
L 159.411511 279.495418 
L 159.504532 295.488 
L 159.51782 257.234715 
L 159.610841 295.488 
L 159.730438 257.329128 
L 159.850036 295.488 
L 159.929768 295.488 
L 159.943057 281.635467 
L 160.036077 295.488 
L 160.155675 279.495418 
L 160.248695 295.488 
L 160.261984 264.985139 
L 160.368293 265.821404 
L 160.48789 295.488 
L 160.78024 295.488 
L 160.899838 273.162892 
L 161.019436 295.488 
L 161.099167 295.488 
L 161.112456 203.148864 
L 161.205476 295.488 
L 161.218765 272.833158 
L 161.325074 273.138712 
L 161.431383 272.833158 
L 161.444672 295.488 
L 161.524404 295.488 
L 161.537692 269.463273 
L 161.630713 295.488 
L 161.737022 295.488 
L 161.75031 249.715172 
L 161.856619 263.008733 
L 161.94964 295.488 
L 161.962928 240.975502 
L 162.055949 295.488 
L 162.069238 279.437787 
L 162.175547 281.224892 
L 162.281856 279.495418 
L 162.295144 295.488 
L 162.374876 295.488 
L 162.494474 271.552756 
L 162.614071 295.488 
L 162.693803 295.488 
L 162.707092 279.495418 
L 162.800112 295.488 
L 162.906421 295.488 
L 162.91971 279.495418 
L 163.01273 295.488 
L 163.132328 279.495418 
L 163.225348 295.488 
L 163.238637 267.862323 
L 163.331657 295.488 
L 163.437967 295.488 
L 163.451255 275.554471 
L 163.544276 295.488 
L 163.650585 295.488 
L 163.663873 206.487792 
L 163.756894 295.488 
L 163.863203 295.488 
L 163.9828 275.811253 
L 164.075821 295.488 
L 164.089109 257.905272 
L 164.18213 295.488 
L 164.301728 275.971227 
L 164.421325 295.488 
L 164.501057 295.488 
L 164.620655 225.816111 
L 164.740252 295.488 
L 164.819984 295.488 
L 164.833273 279.495418 
L 164.926293 295.488 
L 165.032602 295.488 
L 165.1522 277.097727 
L 165.271798 295.488 
L 165.351529 295.488 
L 165.364818 251.011345 
L 165.457838 295.488 
L 165.577436 265.757579 
L 165.670457 295.488 
L 165.683745 141.538909 
L 165.776766 295.488 
L 165.896363 222.328147 
L 166.015961 295.488 
L 166.095693 295.488 
L 166.21529 286.744074 
L 166.308311 295.488 
L 166.321599 267.333135 
L 166.41462 295.488 
L 166.534218 279.495418 
L 166.627238 295.488 
L 166.746836 191.142442 
L 166.866433 295.488 
L 167.158783 295.488 
L 167.278381 201.305838 
L 167.397979 295.488 
L 167.47771 295.488 
L 167.490999 159.617231 
L 167.584019 295.488 
L 167.703617 213.871341 
L 167.823215 295.488 
L 167.902947 295.488 
L 167.916235 170.960591 
L 168.009256 295.488 
L 168.115565 295.488 
L 168.235162 264.250758 
L 168.35476 295.488 
L 168.434492 295.488 
L 168.44778 230.157101 
L 168.540801 295.488 
L 168.554089 259.474234 
L 168.64711 295.488 
L 168.660399 279.495418 
L 168.753419 295.488 
L 168.873017 200.862271 
L 168.992614 295.488 
L 169.072346 295.488 
L 169.085635 279.495418 
L 169.178655 295.488 
L 169.284964 295.488 
L 169.404562 266.956324 
L 169.52416 295.488 
L 169.603891 295.488 
L 169.61718 248.320101 
L 169.7102 295.488 
L 169.816509 295.488 
L 169.829798 244.780958 
L 169.922818 295.488 
L 170.029128 295.488 
L 170.042416 241.409306 
L 170.135437 295.488 
L 170.241746 295.488 
L 170.361343 284.602311 
L 170.480941 295.488 
L 170.560673 295.488 
L 170.68027 283.953918 
L 170.799868 295.488 
L 170.8796 295.488 
L 170.999198 157.686073 
L 171.118795 295.488 
L 171.198527 295.488 
L 171.211816 279.495418 
L 171.304836 295.488 
L 171.411145 295.488 
L 171.530743 276.7217 
L 171.650341 295.488 
L 171.730072 295.488 
L 171.743361 266.738265 
L 171.836381 295.488 
L 171.955979 199.99562 
L 172.075577 295.488 
L 172.261618 295.488 
L 172.274906 261.532281 
L 172.367927 295.488 
L 172.487524 248.70691 
L 172.607122 295.488 
L 172.686854 295.488 
L 172.700142 215.080614 
L 172.806451 240.053082 
L 172.926049 295.488 
L 173.005781 295.488 
L 173.125379 177.057131 
L 173.244976 295.488 
L 173.537326 295.488 
L 173.550615 279.495418 
L 173.656924 284.672707 
L 173.749944 295.488 
L 173.763233 279.495418 
L 173.856253 295.488 
L 173.975851 272.833158 
L 174.08216 270.204638 
L 174.095449 295.488 
L 174.17518 295.488 
L 174.294778 229.608596 
L 174.414376 295.488 
L 174.494108 295.488 
L 174.613705 270.700583 
L 174.733303 295.488 
L 174.813035 295.488 
L 174.932632 260.475946 
L 175.05223 295.488 
L 175.131962 295.488 
L 175.25156 175.060828 
L 175.371157 295.488 
L 175.450889 295.488 
L 175.464178 279.495418 
L 175.557198 295.488 
L 175.663507 295.488 
L 175.676796 279.495418 
L 175.769816 295.488 
L 175.889414 279.495418 
L 176.009012 295.488 
L 176.195052 295.488 
L 176.208341 295.204958 
L 176.301361 295.488 
L 176.40767 295.488 
L 176.420959 275.842061 
L 176.513979 295.488 
L 176.620289 295.488 
L 176.633577 260.517327 
L 176.739886 268.204151 
L 176.859484 295.488 
L 176.939216 295.488 
L 176.952504 295.244039 
L 177.045525 295.488 
L 177.058813 278.33557 
L 177.151834 295.488 
L 177.258143 295.488 
L 177.377741 162.48829 
L 177.497338 295.488 
L 177.57707 295.488 
L 177.590359 279.495418 
L 177.683379 295.488 
L 177.789688 295.488 
L 177.909286 263.25833 
L 178.028883 295.488 
L 178.108615 295.488 
L 178.121904 237.919458 
L 178.214924 295.488 
L 178.228213 279.495418 
L 178.321233 295.488 
L 178.440831 279.495418 
L 178.560429 295.488 
L 178.64016 295.488 
L 178.653449 270.314187 
L 178.759758 278.997087 
L 178.866067 274.333131 
L 178.879356 295.488 
L 179.065397 295.488 
L 179.184994 257.074926 
L 179.304592 295.488 
L 179.384324 295.488 
L 179.397612 292.606976 
L 179.490633 295.488 
L 179.503921 144.994341 
L 179.596942 295.488 
L 179.610231 279.495418 
L 179.703251 295.488 
L 179.915869 295.488 
L 180.035467 242.634259 
L 180.155064 295.488 
L 180.234796 295.488 
L 180.248085 254.839373 
L 180.341105 295.488 
L 180.460703 247.47377 
L 180.580301 295.488 
L 180.660032 295.488 
L 180.673321 272.760493 
L 180.766341 295.488 
L 180.87265 295.488 
L 180.992248 272.313229 
L 181.111846 295.488 
L 181.191578 295.488 
L 181.311175 276.26971 
L 181.430773 295.488 
L 181.510505 295.488 
L 181.630102 147.222888 
L 181.7497 295.488 
L 181.829432 295.488 
L 181.842721 279.495418 
L 181.935741 295.488 
L 182.04205 295.488 
L 182.161648 260.299636 
L 182.281245 295.488 
L 182.360977 295.488 
L 182.374266 271.660458 
L 182.467286 295.488 
L 182.573595 295.488 
L 182.586884 277.628387 
L 182.679904 295.488 
L 182.786213 295.488 
L 182.799502 268.25202 
L 182.892522 295.488 
L 182.998831 295.488 
L 183.118429 258.065984 
L 183.238027 295.488 
L 183.317759 295.488 
L 183.437356 276.965839 
L 183.556954 295.488 
L 183.636686 295.488 
L 183.756283 241.26413 
L 183.875881 295.488 
L 183.955613 295.488 
L 183.968902 279.495418 
L 184.061922 295.488 
L 184.168231 295.488 
L 184.287829 279.495418 
L 184.407426 295.488 
L 184.593467 295.488 
L 184.606756 271.277668 
L 184.699776 295.488 
L 184.912394 295.488 
L 184.925683 243.979424 
L 185.018703 295.488 
L 185.125012 295.488 
L 185.138301 61.414755 
L 185.231321 295.488 
L 185.350919 61.414755 
L 185.470517 295.488 
L 185.550249 295.488 
L 185.563537 78.684192 
L 185.656558 295.488 
L 185.776155 68.141101 
L 185.895753 295.488 
L 186.081794 295.488 
L 186.201392 61.414755 
L 186.320989 295.488 
L 186.400721 295.488 
L 186.41401 295.301544 
L 186.50703 295.488 
L 186.520319 93.548597 
L 186.613339 295.488 
L 186.732937 118.368323 
L 186.852534 295.488 
L 186.932266 295.488 
L 186.945555 61.414755 
L 187.038575 295.488 
L 187.051864 226.433579 
L 187.144884 295.488 
L 187.158173 294.005981 
L 187.251193 295.488 
L 187.264482 61.414755 
L 187.357502 295.488 
L 187.370791 245.346202 
L 187.4771 255.637806 
L 187.583409 248.073981 
L 187.596698 295.488 
L 187.67643 295.488 
L 187.796027 61.414755 
L 187.915625 295.488 
L 187.995357 295.488 
L 188.114954 61.414755 
L 188.234552 295.488 
L 188.314284 295.488 
L 188.327572 61.414755 
L 188.420593 295.488 
L 188.540191 61.414755 
L 188.659788 295.488 
L 188.73952 295.488 
L 188.752809 284.841203 
L 188.845829 295.488 
L 188.859118 61.414755 
L 188.952138 295.488 
L 189.058447 295.488 
L 189.178045 61.414755 
L 189.297643 295.488 
L 189.377374 295.488 
L 189.496972 61.414755 
L 189.61657 295.488 
L 189.696301 295.488 
L 189.815899 61.414755 
L 189.935497 295.488 
L 190.015229 295.488 
L 190.134826 61.414755 
L 190.254424 295.488 
L 190.334156 295.488 
L 190.347444 62.674108 
L 190.440465 295.488 
L 190.560063 94.853616 
L 190.67966 295.488 
L 190.759392 295.488 
L 190.87899 72.627073 
L 190.998587 295.488 
L 191.078319 295.488 
L 191.197917 201.070428 
L 191.290937 295.488 
L 191.410535 101.949709 
L 191.530133 295.488 
L 191.609864 295.488 
L 191.623153 115.192087 
L 191.716173 295.488 
L 191.835771 158.794741 
L 191.928792 295.488 
L 191.94208 74.842621 
L 192.035101 295.488 
L 192.048389 178.942248 
L 192.14141 295.488 
L 192.261007 219.557144 
L 192.380605 295.488 
L 192.460337 295.488 
L 192.473625 64.342857 
L 192.579934 117.722902 
L 192.699532 295.488 
L 192.779264 295.488 
L 192.898862 274.872583 
L 192.991882 295.488 
L 193.005171 181.517276 
L 193.098191 295.488 
L 193.2045 295.488 
L 193.217789 141.538909 
L 193.324098 160.496158 
L 193.417118 295.488 
L 193.430407 93.548597 
L 193.523427 295.488 
L 193.536716 212.856949 
L 193.629736 295.488 
L 193.643025 265.270639 
L 193.736045 295.488 
L 193.842354 295.488 
L 193.961952 61.414755 
L 194.08155 295.488 
L 194.161282 295.488 
L 194.17457 61.414755 
L 194.267591 295.488 
L 194.387188 88.042297 
L 194.506786 295.488 
L 194.586518 295.488 
L 194.706115 176.343565 
L 194.825713 295.488 
L 194.905445 295.488 
L 194.918734 245.347521 
L 195.011754 295.488 
L 195.131352 64.342857 
L 195.250949 295.488 
L 195.330681 295.488 
L 195.34397 61.414755 
L 195.43699 295.488 
L 195.450279 233.329315 
L 195.543299 295.488 
L 195.556588 288.345449 
L 195.649608 295.488 
L 195.662897 61.414755 
L 195.769206 83.825128 
L 195.888804 295.488 
L 195.968535 295.488 
L 195.981824 78.701323 
L 196.088133 128.734814 
L 196.181153 295.488 
L 196.194442 64.342857 
L 196.287463 295.488 
L 196.40706 155.639473 
L 196.526658 295.488 
L 196.60639 295.488 
L 196.619678 78.684192 
L 196.725987 93.548597 
L 196.845585 295.488 
L 196.925317 295.488 
L 197.044914 93.548597 
L 197.164512 295.488 
L 197.244244 295.488 
L 197.257533 119.245982 
L 197.363842 122.932838 
L 197.470151 78.684192 
L 197.483439 295.488 
L 197.563171 295.488 
L 197.57646 142.165798 
L 197.66948 295.488 
L 197.682769 205.96341 
L 197.775789 295.488 
L 197.895387 118.368323 
L 198.001696 78.701323 
L 198.014985 295.488 
L 198.094716 295.488 
L 198.214314 141.362772 
L 198.320623 91.541142 
L 198.333912 295.488 
L 198.413643 295.488 
L 198.426932 61.414755 
L 198.519953 295.488 
L 198.533241 176.343565 
L 198.626262 295.488 
L 198.63955 235.05581 
L 198.732571 295.488 
L 198.852168 64.342857 
L 198.971766 295.488 
L 199.051498 295.488 
L 199.171095 160.496158 
L 199.264116 295.488 
L 199.277404 64.342857 
L 199.370425 295.488 
L 199.490023 249.354829 
L 199.583043 295.488 
L 199.702641 68.141101 
L 199.822238 295.488 
L 199.90197 295.488 
L 199.915259 90.738659 
L 200.008279 295.488 
L 200.127877 78.684192 
L 200.247475 295.488 
L 200.327206 295.488 
L 200.446804 141.362772 
L 200.553113 93.548597 
L 200.566402 295.488 
L 200.646133 295.488 
L 200.765731 119.245982 
L 200.885329 295.488 
L 200.965061 295.488 
L 201.084658 70.994905 
L 201.204256 295.488 
L 201.283988 295.488 
L 201.403585 118.368323 
L 201.509895 78.701323 
L 201.523183 295.488 
L 201.602915 295.488 
L 201.616204 197.819879 
L 201.709224 295.488 
L 201.828822 91.541142 
L 201.935131 64.342857 
L 201.948419 295.488 
L 202.028151 295.488 
L 202.04144 176.343565 
L 202.13446 295.488 
L 202.147749 254.391473 
L 202.240769 295.488 
L 202.360367 64.342857 
L 202.479965 295.488 
L 202.559696 295.488 
L 202.679294 160.496158 
L 202.772314 295.488 
L 202.785603 64.342857 
L 202.878624 295.488 
L 202.998221 78.684192 
L 203.117819 295.488 
L 203.197551 295.488 
L 203.210839 73.644238 
L 203.30386 295.488 
L 203.317148 287.896592 
L 203.410169 295.488 
L 203.423457 90.738659 
L 203.516478 295.488 
L 203.636075 78.684192 
L 203.742385 61.414755 
L 203.755673 295.488 
L 203.835405 295.488 
L 203.955003 141.362772 
L 204.061312 93.548597 
L 204.0746 295.488 
L 204.154332 295.488 
L 204.27393 119.245982 
L 204.393527 295.488 
L 204.473259 295.488 
L 204.592857 61.414755 
L 204.712455 295.488 
L 204.792186 295.488 
L 204.911784 119.245982 
L 205.018093 118.148679 
L 205.031382 295.488 
L 205.111114 295.488 
L 205.230711 152.898607 
L 205.33702 152.119416 
L 205.350309 295.488 
L 205.430041 295.488 
L 205.443329 176.343565 
L 205.53635 295.488 
L 205.655947 254.51275 
L 205.775545 295.488 
L 205.855277 295.488 
L 205.868565 64.342857 
L 205.961586 295.488 
L 206.081184 265.134056 
L 206.200781 295.488 
L 206.280513 295.488 
L 206.400111 64.342857 
L 206.519708 295.488 
L 206.59944 295.488 
L 206.719038 88.628273 
L 206.825347 61.414755 
L 206.838636 295.488 
L 206.918367 295.488 
L 206.931656 71.959014 
L 207.037965 118.368323 
L 207.144274 61.414755 
L 207.157563 295.488 
L 207.237294 295.488 
L 207.250583 169.235607 
L 207.343604 295.488 
L 207.356892 221.359269 
L 207.449913 295.488 
L 207.56951 104.474439 
L 207.689108 295.488 
L 207.76884 295.488 
L 207.782128 141.538909 
L 207.875149 295.488 
L 207.888437 280.146311 
L 207.981458 295.488 
L 208.087767 295.488 
L 208.101056 252.308702 
L 208.194076 295.488 
L 208.313674 61.414755 
L 208.433271 295.488 
L 208.513003 295.488 
L 208.632601 78.701323 
L 208.73891 61.414755 
L 208.752198 295.488 
L 208.83193 295.488 
L 208.845219 207.143168 
L 208.951528 226.737249 
L 209.044548 295.488 
L 209.164146 104.474439 
L 209.283744 295.488 
L 209.363475 295.488 
L 209.483073 104.474439 
L 209.602671 295.488 
L 209.682403 295.488 
L 209.695691 178.942248 
L 209.788712 295.488 
L 209.802 226.573028 
L 209.895021 295.488 
L 210.014618 61.414755 
L 210.134216 295.488 
L 210.213948 295.488 
L 210.333546 104.474439 
L 210.439855 62.674108 
L 210.453143 295.488 
L 210.532875 295.488 
L 210.652473 147.518523 
L 210.745493 295.488 
L 210.758782 61.414755 
L 210.851802 295.488 
L 210.9714 134.108309 
L 211.06442 295.488 
L 211.077709 64.342857 
L 211.170729 295.488 
L 211.290327 141.362772 
L 211.396636 118.368323 
L 211.409925 295.488 
L 211.489656 295.488 
L 211.502945 93.711185 
L 211.595965 295.488 
L 211.609254 239.883367 
L 211.702275 295.488 
L 211.821872 180.018895 
L 211.914893 295.488 
L 211.928181 61.414755 
L 212.021202 295.488 
L 212.140799 118.368323 
L 212.260397 295.488 
L 212.340129 295.488 
L 212.353417 97.611759 
L 212.446438 295.488 
L 212.566036 141.362772 
L 212.685633 295.488 
L 212.765365 295.488 
L 212.778654 68.141101 
L 212.871674 295.488 
L 212.991272 153.900213 
L 213.110869 295.488 
L 213.190601 295.488 
L 213.20389 61.414755 
L 213.310199 78.701323 
L 213.429797 295.488 
L 213.509528 295.488 
L 213.522817 61.414755 
L 213.629126 87.616031 
L 213.748724 295.488 
L 213.828456 295.488 
L 213.948053 61.414755 
L 214.067651 295.488 
L 214.147383 295.488 
L 214.160671 114.296801 
L 214.253692 295.488 
L 214.26698 197.590385 
L 214.360001 295.488 
L 214.46631 295.488 
L 214.585907 61.414755 
L 214.705505 295.488 
L 214.785237 295.488 
L 214.904835 118.368323 
L 215.011144 93.711185 
L 215.024432 295.488 
L 215.104164 295.488 
L 215.223762 141.362772 
L 215.343359 295.488 
L 215.423091 295.488 
L 215.43638 61.414755 
L 215.5294 295.488 
L 215.542689 158.61805 
L 215.648998 176.343565 
L 215.768596 295.488 
L 215.848327 295.488 
L 215.861616 93.711185 
L 215.954636 295.488 
L 216.074234 118.368323 
L 216.193832 295.488 
L 216.273564 295.488 
L 216.393161 61.414755 
L 216.512759 295.488 
L 216.592491 295.488 
L 216.712088 61.414755 
L 216.831686 295.488 
L 216.911418 295.488 
L 217.031016 61.414755 
L 217.150613 295.488 
L 217.230345 295.488 
L 217.243634 167.575136 
L 217.349943 180.018895 
L 217.442963 295.488 
L 217.456252 61.414755 
L 217.549272 295.488 
L 217.66887 112.304753 
L 217.788468 295.488 
L 217.974508 295.488 
L 218.094106 61.414755 
L 218.213704 295.488 
L 218.293436 295.488 
L 218.413033 118.368323 
L 218.519342 93.711185 
L 218.532631 295.488 
L 218.612363 295.488 
L 218.73196 141.362772 
L 218.851558 295.488 
L 218.93129 295.488 
L 218.944578 61.414755 
L 219.050888 125.398979 
L 219.170485 295.488 
L 219.250217 295.488 
L 219.369815 141.362772 
L 219.462835 295.488 
L 219.476124 72.627073 
L 219.569144 295.488 
L 219.688742 279.495418 
L 219.781762 295.488 
L 219.90136 118.368323 
L 220.020958 295.488 
L 220.100689 295.488 
L 220.220287 68.141101 
L 220.339885 295.488 
L 220.419617 295.488 
L 220.432905 129.864445 
L 220.525926 295.488 
L 220.645523 160.496158 
L 220.765121 295.488 
L 220.844853 295.488 
L 220.858141 93.548597 
L 220.951162 295.488 
L 220.96445 278.50349 
L 221.070759 279.495418 
L 221.16378 295.488 
L 221.283378 63.779433 
L 221.402975 295.488 
L 221.482707 295.488 
L 221.602305 253.408743 
L 221.721902 295.488 
L 221.801634 295.488 
L 221.921232 146.824142 
L 222.040829 295.488 
L 222.120561 295.488 
L 222.13385 61.414755 
L 222.22687 295.488 
L 222.240159 291.37525 
L 222.333179 295.488 
L 222.346468 104.474439 
L 222.439488 295.488 
L 222.452777 267.667582 
L 222.545797 295.488 
L 222.652107 295.488 
L 222.771704 61.414755 
L 222.891302 295.488 
L 222.971034 295.488 
L 222.984322 61.414755 
L 223.090631 64.342857 
L 223.210229 295.488 
L 223.289961 295.488 
L 223.409558 176.343565 
L 223.515868 160.496158 
L 223.529156 295.488 
L 223.608888 295.488 
L 223.728486 79.745461 
L 223.848083 295.488 
L 223.927815 295.488 
L 223.941104 144.285407 
L 224.034124 295.488 
L 224.047413 294.899563 
L 224.140433 295.488 
L 224.153722 78.684192 
L 224.246742 295.488 
L 224.36634 122.932838 
L 224.472649 61.414755 
L 224.485938 295.488 
L 224.565669 295.488 
L 224.685267 129.821778 
L 224.791576 78.701323 
L 224.804865 295.488 
L 224.884597 295.488 
L 225.004194 61.414755 
L 225.123792 295.488 
L 225.203524 295.488 
L 225.216812 94.460331 
L 225.309833 295.488 
L 225.42943 71.959014 
L 225.535739 61.414755 
L 225.549028 295.488 
L 225.62876 295.488 
L 225.642049 176.343565 
L 225.735069 295.488 
L 225.854667 148.396042 
L 225.974264 295.488 
L 226.053996 295.488 
L 226.067285 104.474439 
L 226.160305 295.488 
L 226.279903 98.839018 
L 226.3995 295.488 
L 226.479232 295.488 
L 226.492521 160.496158 
L 226.585541 295.488 
L 226.705139 78.684192 
L 226.824737 295.488 
L 226.904468 295.488 
L 227.024066 176.343565 
L 227.117087 295.488 
L 227.130375 122.932838 
L 227.223396 295.488 
L 227.236684 188.972358 
L 227.329705 295.488 
L 227.449302 141.538909 
L 227.5689 295.488 
L 227.648632 295.488 
L 227.66192 61.414755 
L 227.754941 295.488 
L 227.768229 203.354766 
L 227.86125 295.488 
L 227.967559 295.488 
L 227.980848 61.414755 
L 228.087157 64.342857 
L 228.206754 295.488 
L 228.286486 295.488 
L 228.406084 176.343565 
L 228.499104 295.488 
L 228.512393 63.779433 
L 228.605413 295.488 
L 228.618702 225.548853 
L 228.725011 238.787028 
L 228.844609 295.488 
L 228.92434 295.488 
L 229.043938 61.414755 
L 229.163536 295.488 
L 229.243268 295.488 
L 229.362865 68.141101 
L 229.482463 295.488 
L 229.562195 295.488 
L 229.575483 93.548597 
L 229.668504 295.488 
L 229.788101 98.839018 
L 229.907699 295.488 
L 229.987431 295.488 
L 230.107029 279.495418 
L 230.200049 295.488 
L 230.213338 78.684192 
L 230.319647 155.639473 
L 230.439244 295.488 
L 230.518976 295.488 
L 230.638574 122.932838 
L 230.744883 84.517327 
L 230.758171 295.488 
L 230.837903 295.488 
L 230.957501 160.496158 
L 231.077099 295.488 
L 231.15683 295.488 
L 231.170119 61.414755 
L 231.263139 295.488 
L 231.382737 160.496158 
L 231.475758 295.488 
L 231.489046 61.414755 
L 231.595355 64.342857 
L 231.714953 295.488 
L 231.794685 295.488 
L 231.914282 176.343565 
L 232.007303 295.488 
L 232.020591 64.745996 
L 232.113612 295.488 
L 232.1269 183.602829 
L 232.219921 295.488 
L 232.23321 238.787028 
L 232.32623 295.488 
L 232.445828 71.959014 
L 232.552137 61.414755 
L 232.565425 295.488 
L 232.645157 295.488 
L 232.658446 141.538909 
L 232.751466 295.488 
L 232.871064 68.141101 
L 232.990661 295.488 
L 233.070393 295.488 
L 233.083682 78.701323 
L 233.176702 295.488 
L 233.2963 98.839018 
L 233.402609 79.466858 
L 233.415898 295.488 
L 233.601939 295.488 
L 233.721536 134.108309 
L 233.827845 103.491812 
L 233.841134 295.488 
L 233.920866 295.488 
L 233.934154 134.108309 
L 234.040463 176.343565 
L 234.160061 295.488 
L 234.239793 295.488 
L 234.253081 152.898607 
L 234.35939 180.018895 
L 234.478988 295.488 
L 234.55872 295.488 
L 234.678318 62.674108 
L 234.797915 295.488 
L 234.877647 295.488 
L 234.890936 205.232125 
L 234.983956 295.488 
L 235.103554 153.74965 
L 235.196574 295.488 
L 235.209863 64.342857 
L 235.302883 295.488 
L 235.316172 176.343565 
L 235.409192 295.488 
L 235.422481 221.461351 
L 235.515501 295.488 
L 235.635099 93.548597 
L 235.741408 83.825128 
L 235.754697 295.488 
L 235.834429 295.488 
L 235.847717 286.264955 
L 235.940738 295.488 
L 236.047047 295.488 
L 236.166644 231.485482 
L 236.259665 295.488 
L 236.272953 118.368323 
L 236.365974 295.488 
L 236.485571 94.460331 
L 236.605169 295.488 
L 236.684901 295.488 
L 236.69819 177.800507 
L 236.79121 295.488 
L 236.897519 295.488 
L 236.910808 197.174356 
L 237.003828 295.488 
L 237.123426 61.414755 
L 237.243023 295.488 
L 237.322755 295.488 
L 237.442353 61.414755 
L 237.561951 295.488 
L 237.641682 295.488 
L 237.654971 141.538909 
L 237.747991 295.488 
L 237.867589 118.368323 
L 237.987187 295.488 
L 238.066919 295.488 
L 238.186516 68.141101 
L 238.306114 295.488 
L 238.385846 295.488 
L 238.399134 254.696361 
L 238.492155 295.488 
L 238.611752 267.098972 
L 238.704773 295.488 
L 238.824371 61.414755 
L 238.943968 295.488 
L 239.0237 295.488 
L 239.143298 80.222013 
L 239.262895 295.488 
L 239.342627 295.488 
L 239.355916 80.399687 
L 239.448936 295.488 
L 239.568534 155.639473 
L 239.661554 295.488 
L 239.674843 90.738659 
L 239.781152 91.541142 
L 239.90075 295.488 
L 239.980481 295.488 
L 239.99377 206.605451 
L 240.08679 295.488 
L 240.206388 279.495418 
L 240.325986 295.488 
L 240.405718 295.488 
L 240.525315 176.343565 
L 240.631624 160.496158 
L 240.644913 295.488 
L 240.724645 295.488 
L 240.737933 64.342857 
L 240.830954 295.488 
L 240.844242 178.879012 
L 240.937263 295.488 
L 241.056861 90.738659 
L 241.16317 87.22042 
L 241.176458 295.488 
L 241.25619 295.488 
L 241.269479 293.909048 
L 241.362499 295.488 
L 241.375788 141.362772 
L 241.468808 295.488 
L 241.588406 78.684192 
L 241.708003 295.488 
L 241.787735 295.488 
L 241.907333 141.362772 
L 242.013642 93.548597 
L 242.026931 295.488 
L 242.106662 295.488 
L 242.22626 94.460331 
L 242.345858 295.488 
L 242.42559 295.488 
L 242.438878 78.684192 
L 242.545187 150.116663 
L 242.664785 295.488 
L 242.744517 295.488 
L 242.864114 118.368323 
L 242.970423 78.701323 
L 242.983712 295.488 
L 243.063444 295.488 
L 243.183042 141.362772 
L 243.289351 91.541142 
L 243.302639 295.488 
L 243.382371 295.488 
L 243.39566 127.218329 
L 243.501969 176.343565 
L 243.621566 295.488 
L 243.701298 295.488 
L 243.820896 64.342857 
L 243.940493 295.488 
L 244.020225 295.488 
L 244.139823 160.496158 
L 244.232843 295.488 
L 244.246132 64.342857 
L 244.339152 295.488 
L 244.45875 233.874738 
L 244.551771 295.488 
L 244.671368 68.141101 
L 244.790966 295.488 
L 244.870698 295.488 
L 244.883986 90.738659 
L 244.977007 295.488 
L 245.096604 78.684192 
L 245.216202 295.488 
L 245.295934 295.488 
L 245.309222 85.620008 
L 245.415532 141.362772 
L 245.521841 93.548597 
L 245.535129 295.488 
L 245.614861 295.488 
L 245.734459 94.460331 
L 245.854056 295.488 
L 245.933788 295.488 
L 246.053386 64.342857 
L 246.172984 295.488 
L 246.252715 295.488 
L 246.372313 118.368323 
L 246.478622 78.701323 
L 246.491911 295.488 
L 246.571642 295.488 
L 246.584931 243.787804 
L 246.677951 295.488 
L 246.797549 91.541142 
L 246.903858 61.414755 
L 246.917147 295.488 
L 246.996879 295.488 
L 247.010167 176.343565 
L 247.103188 295.488 
L 247.116476 260.835213 
L 247.209497 295.488 
L 247.329094 64.342857 
L 247.448692 295.488 
L 247.528424 295.488 
L 247.648022 160.496158 
L 247.741042 295.488 
L 247.754331 64.342857 
L 247.847351 295.488 
L 247.86064 193.455912 
L 247.95366 295.488 
L 247.966949 257.980601 
L 248.059969 295.488 
L 248.073258 272.833158 
L 248.179567 279.495418 
L 248.272587 295.488 
L 248.285876 74.842621 
L 248.378896 295.488 
L 248.498494 141.362772 
L 248.618092 295.488 
L 248.697823 295.488 
L 248.817421 155.639473 
L 248.937019 295.488 
L 249.016751 295.488 
L 249.030039 64.342857 
L 249.136348 97.553455 
L 249.242657 78.196695 
L 249.255946 295.488 
L 249.335678 295.488 
L 249.348966 186.86306 
L 249.441987 295.488 
L 249.561584 91.541142 
L 249.667893 78.684192 
L 249.681182 295.488 
L 249.760914 295.488 
L 249.880512 118.368323 
L 250.000109 295.488 
L 250.079841 295.488 
L 250.09313 120.926139 
L 250.199439 180.018895 
L 250.305748 169.033918 
L 250.319036 295.488 
L 250.398768 295.488 
L 250.518366 264.808769 
L 250.624675 256.903897 
L 250.637964 295.488 
L 250.717695 295.488 
L 250.837293 118.368323 
L 250.943602 73.644238 
L 250.956891 295.488 
L 251.036622 295.488 
L 251.15622 61.414755 
L 251.275818 295.488 
L 251.35555 295.488 
L 251.475147 61.414755 
L 251.594745 295.488 
L 251.674477 295.488 
L 251.794074 61.414755 
L 251.913672 295.488 
L 251.993404 295.488 
L 252.006693 155.639473 
L 252.113002 204.139636 
L 252.232599 295.488 
L 252.312331 295.488 
L 252.32562 205.432612 
L 252.41864 295.488 
L 252.538238 168.183838 
L 252.631258 295.488 
L 252.644547 61.414755 
L 252.737567 295.488 
L 252.750856 183.305047 
L 252.843876 295.488 
L 252.950185 295.488 
L 252.963474 279.495418 
L 253.056494 295.488 
L 253.069783 287.387167 
L 253.162803 295.488 
L 253.282401 61.414755 
L 253.401999 295.488 
L 253.481731 295.488 
L 253.601328 159.536656 
L 253.694349 295.488 
L 253.707637 64.342857 
L 253.813946 72.457809 
L 253.933544 295.488 
L 254.013276 295.488 
L 254.026564 117.722902 
L 254.132874 118.368323 
L 254.239183 68.141101 
L 254.252471 295.488 
L 254.332203 295.488 
L 254.345492 93.548597 
L 254.451801 152.898607 
L 254.571398 295.488 
L 254.65113 295.488 
L 254.770728 68.141101 
L 254.890325 295.488 
L 254.970057 295.488 
L 254.983346 61.414755 
L 255.089655 87.616031 
L 255.209253 295.488 
L 255.288984 295.488 
L 255.408582 61.414755 
L 255.52818 295.488 
L 255.607912 295.488 
L 255.6212 112.304753 
L 255.714221 295.488 
L 255.727509 291.820986 
L 255.82053 295.488 
L 255.926839 295.488 
L 256.046436 64.342857 
L 256.166034 295.488 
L 256.245766 295.488 
L 256.365364 118.368323 
L 256.471673 93.711185 
L 256.484961 295.488 
L 256.564693 295.488 
L 256.577982 236.764413 
L 256.671002 295.488 
L 256.7906 180.018895 
L 256.88362 295.488 
L 256.896909 61.414755 
L 256.989929 295.488 
L 257.109527 176.343565 
L 257.229125 295.488 
L 257.308856 295.488 
L 257.322145 93.711185 
L 257.415165 295.488 
L 257.428454 229.621351 
L 257.521474 295.488 
L 257.534763 272.833158 
L 257.641072 279.495418 
L 257.734093 295.488 
L 257.747381 68.141101 
L 257.85369 99.356087 
L 257.973288 295.488 
L 258.05302 295.488 
L 258.172617 61.414755 
L 258.292215 295.488 
L 258.371947 295.488 
L 258.491544 61.414755 
L 258.611142 295.488 
L 258.690874 295.488 
L 258.704163 78.002881 
L 258.797183 295.488 
L 258.916781 61.414755 
L 259.036378 295.488 
L 259.11611 295.488 
L 259.129399 112.304753 
L 259.222419 295.488 
L 259.235708 254.250651 
L 259.328728 295.488 
L 259.435037 295.488 
L 259.554635 61.414755 
L 259.674233 295.488 
L 259.753964 295.488 
L 259.873562 118.368323 
L 259.979871 93.711185 
L 259.99316 295.488 
L 260.072892 295.488 
L 260.192489 141.362772 
L 260.312087 295.488 
L 260.391819 295.488 
L 260.405107 61.414755 
L 260.511416 68.141101 
L 260.631014 295.488 
L 260.710746 295.488 
L 260.830344 93.711185 
L 260.949941 295.488 
L 261.029673 295.488 
L 261.042962 118.368323 
L 261.135982 295.488 
L 261.25558 68.141101 
L 261.361889 61.414755 
L 261.375177 295.488 
L 261.454909 295.488 
L 261.574507 180.018895 
L 261.667527 295.488 
L 261.680816 61.414755 
L 261.787125 78.701323 
L 261.906723 295.488 
L 261.986454 295.488 
L 261.999743 61.414755 
L 262.106052 87.616031 
L 262.212361 73.644238 
L 262.22565 295.488 
L 262.305382 295.488 
L 262.424979 210.608793 
L 262.518 295.488 
L 262.637597 91.541142 
L 262.743906 78.701323 
L 262.757195 295.488 
L 262.836927 295.488 
L 262.850215 290.363308 
L 262.943236 295.488 
L 263.062834 134.108309 
L 263.182431 295.488 
L 263.262163 295.488 
L 263.275452 290.378059 
L 263.368472 295.488 
L 263.48807 109.884653 
L 263.607667 295.488 
L 263.687399 295.488 
L 263.806997 122.932838 
L 263.926595 295.488 
L 264.006326 295.488 
L 264.019615 91.541142 
L 264.112635 295.488 
L 264.218944 295.488 
L 264.232233 274.002938 
L 264.338542 279.495418 
L 264.431563 295.488 
L 264.444851 68.141101 
L 264.55116 117.722902 
L 264.670758 295.488 
L 264.75049 295.488 
L 264.763778 118.368323 
L 264.856799 295.488 
L 264.870087 195.472045 
L 264.963108 295.488 
L 265.082706 68.141101 
L 265.189015 61.414755 
L 265.202303 295.488 
L 265.282035 295.488 
L 265.295324 91.541142 
L 265.388344 295.488 
L 265.494653 295.488 
L 265.614251 61.414755 
L 265.733848 295.488 
L 265.81358 295.488 
L 265.933178 61.414755 
L 266.052776 295.488 
L 266.132507 295.488 
L 266.252105 66.880045 
L 266.371703 295.488 
L 266.451435 295.488 
L 266.571032 248.143496 
L 266.664053 295.488 
L 266.78365 90.738659 
L 266.903248 295.488 
L 266.98298 295.488 
L 267.102577 83.825128 
L 267.222175 295.488 
L 267.301907 295.488 
L 267.315196 180.018895 
L 267.408216 295.488 
L 267.527814 141.538909 
L 267.634123 118.368323 
L 267.647411 295.488 
L 267.727143 295.488 
L 267.740432 61.414755 
L 267.833452 295.488 
L 267.95305 141.538909 
L 268.04607 295.488 
L 268.165668 62.674108 
L 268.285266 295.488 
L 268.364997 295.488 
L 268.378286 94.853616 
L 268.471306 295.488 
L 268.590904 122.932838 
L 268.697213 78.701323 
L 268.710502 295.488 
L 268.790234 295.488 
L 268.909831 141.538909 
L 269.029429 295.488 
L 269.109161 295.488 
L 269.122449 168.321391 
L 269.21547 295.488 
L 269.228758 242.222079 
L 269.321779 295.488 
L 269.428088 295.488 
L 269.441376 61.414755 
L 269.547686 64.342857 
L 269.667283 295.488 
L 269.853324 295.488 
L 269.972922 63.779433 
L 270.092519 295.488 
L 270.172251 295.488 
L 270.291849 272.833158 
L 270.384869 295.488 
L 270.398158 71.959014 
L 270.491178 295.488 
L 270.610776 195.114427 
L 270.730374 295.488 
L 270.810105 295.488 
L 270.823394 68.141101 
L 270.916415 295.488 
L 271.036012 104.474439 
L 271.15561 295.488 
L 271.235342 295.488 
L 271.24863 98.839018 
L 271.354939 133.950451 
L 271.474537 295.488 
L 271.554269 295.488 
L 271.673867 78.684192 
L 271.793464 295.488 
L 271.873196 295.488 
L 271.992794 176.343565 
L 272.085814 295.488 
L 272.205412 78.545987 
L 272.325009 295.488 
L 272.404741 295.488 
L 272.41803 118.368323 
L 272.51105 295.488 
L 272.630648 61.414755 
L 272.750246 295.488 
L 272.829977 295.488 
L 272.949575 61.414755 
L 273.069173 295.488 
L 273.148905 295.488 
L 273.162193 247.43654 
L 273.255214 295.488 
L 273.374811 176.343565 
L 273.467832 295.488 
L 273.48112 63.779433 
L 273.574141 295.488 
L 273.587429 202.426751 
L 273.68045 295.488 
L 273.693738 238.787028 
L 273.786759 295.488 
L 273.906357 71.959014 
L 274.025954 295.488 
L 274.105686 295.488 
L 274.118975 247.105678 
L 274.211995 295.488 
L 274.331593 68.141101 
L 274.45119 295.488 
L 274.530922 295.488 
L 274.544211 83.825128 
L 274.637231 295.488 
L 274.756829 98.839018 
L 274.863138 64.342857 
L 274.876427 295.488 
L 275.062467 295.488 
L 275.182065 78.684192 
L 275.301663 295.488 
L 275.381395 295.488 
L 275.500992 176.343565 
L 275.594013 295.488 
L 275.71361 61.414755 
L 275.833208 295.488 
L 275.91294 295.488 
L 275.926228 118.368323 
L 276.019249 295.488 
L 276.138847 61.414755 
L 276.258444 295.488 
L 276.338176 295.488 
L 276.457774 61.414755 
L 276.577371 295.488 
L 276.657103 295.488 
L 276.670392 141.538909 
L 276.763412 295.488 
L 276.88301 231.57866 
L 276.97603 295.488 
L 277.095628 61.414755 
L 277.215226 295.488 
L 277.294957 295.488 
L 277.414555 118.368323 
L 277.534153 295.488 
L 277.613885 295.488 
L 277.733482 90.738659 
L 277.85308 295.488 
L 277.932812 295.488 
L 277.9461 118.368323 
L 278.052409 135.045723 
L 278.172007 295.488 
L 278.251739 295.488 
L 278.371337 83.825128 
L 278.490934 295.488 
L 278.570666 295.488 
L 278.690264 219.557144 
L 278.809861 295.488 
L 278.889593 295.488 
L 278.902882 64.342857 
L 279.009191 97.681784 
L 279.128789 295.488 
L 279.20852 295.488 
L 279.328118 269.366942 
L 279.447716 295.488 
L 279.527447 295.488 
L 279.647045 141.538909 
L 279.766643 295.488 
L 279.846375 295.488 
L 279.859663 104.474439 
L 279.952684 295.488 
L 279.965972 246.468592 
L 280.058993 295.488 
L 280.072281 278.640813 
L 280.165302 295.488 
L 280.271611 295.488 
L 280.391208 61.414755 
L 280.510806 295.488 
L 280.590538 295.488 
L 280.603827 61.414755 
L 280.696847 295.488 
L 280.816445 83.825128 
L 280.936042 295.488 
L 281.015774 295.488 
L 281.135372 176.343565 
L 281.25497 295.488 
L 281.334701 295.488 
L 281.34799 235.399284 
L 281.44101 295.488 
L 281.560608 55.978095 
L 281.680206 295.488 
L 281.759937 295.488 
L 281.773226 61.414755 
L 281.866247 295.488 
L 281.879535 264.152452 
L 281.972556 295.488 
L 281.985844 288.345449 
L 282.078865 295.488 
L 282.092153 61.414755 
L 282.198462 83.825128 
L 282.31806 295.488 
L 282.397792 295.488 
L 282.517389 62.674108 
L 282.636987 295.488 
L 282.716719 295.488 
L 282.730008 82.684716 
L 282.836317 155.639473 
L 282.955914 295.488 
L 283.035646 295.488 
L 283.048935 78.684192 
L 283.155244 117.722902 
L 283.274841 295.488 
L 283.354573 295.488 
L 283.474171 104.474439 
L 283.593769 295.488 
L 283.6735 295.488 
L 283.793098 122.932838 
L 283.899407 78.684192 
L 283.912696 295.488 
L 283.992428 295.488 
L 284.005716 98.778364 
L 284.098737 295.488 
L 284.112025 176.343565 
L 284.205046 295.488 
L 284.324643 118.368323 
L 284.430952 78.701323 
L 284.444241 295.488 
L 284.523973 295.488 
L 284.64357 141.362772 
L 284.749879 91.541142 
L 284.763168 295.488 
L 284.8429 295.488 
L 284.856189 183.767086 
L 284.962498 217.579305 
L 285.082095 295.488 
L 285.161827 295.488 
L 285.281425 64.342857 
L 285.401022 295.488 
L 285.480754 295.488 
L 285.600352 160.496158 
L 285.693372 295.488 
L 285.706661 64.342857 
L 285.799681 295.488 
L 285.81297 230.532907 
L 285.919279 250.586971 
L 286.012299 295.488 
L 286.131897 68.141101 
L 286.251495 295.488 
L 286.331227 295.488 
L 286.344515 180.018895 
L 286.437536 295.488 
L 286.557133 78.684192 
L 286.676731 295.488 
L 286.756463 295.488 
L 286.87606 141.362772 
L 286.982369 93.548597 
L 286.995658 295.488 
L 287.07539 295.488 
L 287.194988 119.245982 
L 287.314585 295.488 
L 287.394317 295.488 
L 287.407606 78.684192 
L 287.513915 113.64253 
L 287.633512 295.488 
L 287.713244 295.488 
L 287.832842 118.368323 
L 287.939151 78.701323 
L 287.95244 295.488 
L 288.032171 295.488 
L 288.04546 197.291321 
L 288.13848 295.488 
L 288.258078 91.541142 
L 288.364387 64.342857 
L 288.377676 295.488 
L 288.457408 295.488 
L 288.470696 176.343565 
L 288.563717 295.488 
L 288.577005 267.560264 
L 288.670026 295.488 
L 288.789623 64.342857 
L 288.909221 295.488 
L 288.988953 295.488 
L 289.10855 160.496158 
L 289.201571 295.488 
L 289.21486 64.342857 
L 289.30788 295.488 
L 289.427478 78.684192 
L 289.547075 295.488 
L 289.626807 295.488 
L 289.640096 68.141101 
L 289.733116 295.488 
L 289.852714 90.738659 
L 289.972311 295.488 
L 290.052043 295.488 
L 290.171641 61.414755 
L 290.291239 295.488 
L 290.37097 295.488 
L 290.490568 93.548597 
L 290.610166 295.488 
L 290.689898 295.488 
L 290.703186 94.460331 
L 290.796207 295.488 
L 290.915804 78.684192 
L 291.022113 64.342857 
L 291.035402 295.488 
L 291.115134 295.488 
L 291.234731 251.935169 
L 291.327752 295.488 
L 291.44735 118.148679 
L 291.566947 295.488 
L 291.646679 295.488 
L 291.766277 152.119416 
L 291.885874 295.488 
L 291.965606 295.488 
L 292.085204 227.086129 
L 292.204802 295.488 
L 292.284533 295.488 
L 292.297822 64.342857 
L 292.404131 68.141101 
L 292.523729 295.488 
L 292.60346 295.488 
L 292.723058 261.136749 
L 292.816079 295.488 
L 292.829367 91.541142 
L 292.922388 295.488 
L 293.041985 91.541142 
L 293.161583 295.488 
L 293.241315 295.488 
L 293.254603 61.414755 
L 293.360912 71.959014 
L 293.48051 295.488 
L 293.560242 295.488 
L 293.57353 61.414755 
L 293.666551 295.488 
L 293.67984 181.717654 
L 293.77286 295.488 
L 293.786149 251.888698 
L 293.879169 295.488 
L 293.998767 104.474439 
L 294.118364 295.488 
L 294.198096 295.488 
L 294.211385 279.495418 
L 294.317694 281.414955 
L 294.437292 295.488 
L 294.517023 295.488 
L 294.530312 255.081266 
L 294.623332 295.488 
L 294.74293 61.414755 
L 294.862528 295.488 
L 294.942259 295.488 
L 295.061857 78.701323 
L 295.168166 61.414755 
L 295.181455 295.488 
L 295.261187 295.488 
L 295.380784 192.557146 
L 295.473805 295.488 
L 295.593402 104.474439 
L 295.713 295.488 
L 295.792732 295.488 
L 295.91233 78.684192 
L 296.031927 295.488 
L 296.111659 295.488 
L 296.124948 178.942248 
L 296.217968 295.488 
L 296.337566 262.132732 
L 296.430586 295.488 
L 296.550184 61.414755 
L 296.669782 295.488 
L 296.749513 295.488 
L 296.869111 62.674108 
L 296.988709 295.488 
L 297.06844 295.488 
L 297.188038 61.414755 
L 297.307636 295.488 
L 297.387368 295.488 
L 297.506965 64.342857 
L 297.626563 295.488 
L 297.706295 295.488 
L 297.825892 118.368323 
L 297.94549 295.488 
L 298.025222 295.488 
L 298.038511 256.868987 
L 298.131531 295.488 
L 298.251129 180.018895 
L 298.344149 295.488 
L 298.357438 61.414755 
L 298.450458 295.488 
L 298.570056 118.368323 
L 298.689653 295.488 
L 298.769385 295.488 
L 298.782674 93.711185 
L 298.875694 295.488 
L 298.888983 245.082108 
L 298.982003 295.488 
L 298.995292 272.833158 
L 299.101601 279.495418 
L 299.194621 295.488 
L 299.20791 68.141101 
L 299.30093 295.488 
L 299.420528 199.986671 
L 299.526837 180.018895 
L 299.540126 295.488 
L 299.619858 295.488 
L 299.633146 61.414755 
L 299.739455 83.825128 
L 299.859053 295.488 
L 299.938785 295.488 
L 299.952073 61.414755 
L 300.058382 87.616031 
L 300.17798 295.488 
L 300.257712 295.488 
L 300.37731 61.414755 
L 300.496907 295.488 
L 300.576639 295.488 
L 300.589928 112.304753 
L 300.682948 295.488 
L 300.696237 215.181796 
L 300.789257 295.488 
L 300.895566 295.488 
L 301.015164 61.414755 
L 301.134762 295.488 
L 301.214493 295.488 
L 301.334091 118.368323 
L 301.4404 93.711185 
L 301.453689 295.488 
L 301.533421 295.488 
L 301.653018 141.362772 
L 301.772616 295.488 
L 301.852348 295.488 
L 301.865636 61.414755 
L 301.958657 295.488 
L 302.078254 176.343565 
L 302.197852 295.488 
L 302.277584 295.488 
L 302.290872 93.711185 
L 302.383893 295.488 
L 302.503491 118.368323 
L 302.623088 295.488 
L 302.70282 295.488 
L 302.716109 68.141101 
L 302.822418 99.356087 
L 302.942015 295.488 
L 303.021747 295.488 
L 303.141345 61.414755 
L 303.260943 295.488 
L 303.340674 295.488 
L 303.460272 61.414755 
L 303.57987 295.488 
L 303.659601 295.488 
L 303.67289 61.414755 
L 303.765911 295.488 
L 303.885508 61.414755 
L 304.005106 295.488 
L 304.084838 295.488 
L 304.098126 112.304753 
L 304.191147 295.488 
L 304.204435 188.855889 
L 304.297456 295.488 
L 304.403765 295.488 
L 304.523362 61.414755 
L 304.64296 295.488 
L 304.722692 295.488 
L 304.84229 118.368323 
L 304.948599 93.711185 
L 304.961887 295.488 
L 305.041619 295.488 
L 305.161217 141.362772 
L 305.280814 295.488 
L 305.360546 295.488 
L 305.373835 61.414755 
L 305.480144 73.644238 
L 305.599742 295.488 
L 305.679473 295.488 
L 305.799071 141.362772 
L 305.892091 295.488 
L 305.90538 72.627073 
L 305.998401 295.488 
L 306.117998 141.362772 
L 306.237596 295.488 
L 306.317328 295.488 
L 306.330616 118.368323 
L 306.423637 295.488 
L 306.543234 61.414755 
L 306.662832 295.488 
L 306.742564 295.488 
L 306.862162 100.195181 
L 306.981759 295.488 
L 307.061491 295.488 
L 307.07478 160.496158 
L 307.1678 295.488 
L 307.287398 141.538909 
L 307.406995 295.488 
L 307.486727 295.488 
L 307.606325 141.362772 
L 307.699345 295.488 
L 307.712634 63.779433 
L 307.805654 295.488 
L 307.818943 231.190993 
L 307.911963 295.488 
L 307.925252 272.833158 
L 308.018272 295.488 
L 308.031561 287.805646 
L 308.124582 295.488 
L 308.13787 293.016682 
L 308.230891 295.488 
L 308.244179 98.609139 
L 308.350488 146.824142 
L 308.470086 295.488 
L 308.549818 295.488 
L 308.563106 61.414755 
L 308.656127 295.488 
L 308.775724 93.548597 
L 308.895322 295.488 
L 309.081363 295.488 
L 309.200961 61.414755 
L 309.320558 295.488 
L 309.40029 295.488 
L 309.413579 61.414755 
L 309.519888 64.342857 
L 309.639485 295.488 
L 309.719217 295.488 
L 309.838815 176.343565 
L 309.945124 160.496158 
L 309.958413 295.488 
L 310.038144 295.488 
L 310.051433 118.368323 
L 310.157742 126.56537 
L 310.27734 295.488 
L 310.357072 295.488 
L 310.37036 195.979586 
L 310.463381 295.488 
L 310.582978 78.684192 
L 310.702576 295.488 
L 310.782308 295.488 
L 310.901905 61.414755 
L 311.021503 295.488 
L 311.101235 295.488 
L 311.220833 109.884653 
L 311.34043 295.488 
L 311.420162 295.488 
L 311.433451 61.414755 
L 311.526471 295.488 
L 311.646069 94.460331 
L 311.765666 295.488 
L 311.845398 295.488 
L 311.964996 53.568 
L 312.084594 295.488 
L 312.164325 295.488 
L 312.283923 210.521732 
L 312.403521 295.488 
L 312.483252 295.488 
L 312.496541 104.474439 
L 312.589562 295.488 
L 312.709159 98.839018 
L 312.828757 295.488 
L 312.908489 295.488 
L 312.921777 193.455912 
L 313.014798 295.488 
L 313.134395 78.684192 
L 313.253993 295.488 
L 313.333725 295.488 
L 313.453323 176.343565 
L 313.546343 295.488 
L 313.559632 122.932838 
L 313.665941 132.897509 
L 313.785538 295.488 
L 313.86527 295.488 
L 313.878559 141.538909 
L 313.971579 295.488 
L 314.091177 61.414755 
L 314.210775 295.488 
L 314.396815 295.488 
L 314.410104 61.414755 
L 314.516413 64.342857 
L 314.636011 295.488 
L 314.822052 295.488 
L 314.941649 63.779433 
L 315.061247 295.488 
L 315.140979 295.488 
L 315.154267 238.787028 
L 315.247288 295.488 
L 315.366885 71.959014 
L 315.486483 295.488 
L 315.566215 295.488 
L 315.685813 272.833158 
L 315.778833 295.488 
L 315.792122 68.141101 
L 315.885142 295.488 
L 316.00474 78.701323 
L 316.124337 295.488 
L 316.204069 295.488 
L 316.217358 98.839018 
L 316.323667 100.822848 
L 316.443265 295.488 
L 316.522996 295.488 
L 316.642594 78.684192 
L 316.762192 295.488 
L 316.841923 295.488 
L 316.961521 176.343565 
L 317.054542 295.488 
L 317.174139 70.64632 
L 317.293737 295.488 
L 317.373469 295.488 
L 317.386757 118.368323 
L 317.479778 295.488 
L 317.599375 61.414755 
L 317.718973 295.488 
L 317.798705 295.488 
L 317.918303 61.414755 
L 318.0379 295.488 
L 318.117632 295.488 
L 318.130921 141.538909 
L 318.223941 295.488 
L 318.343539 176.343565 
L 318.436559 295.488 
L 318.449848 63.779433 
L 318.542868 295.488 
L 318.662466 238.787028 
L 318.782064 295.488 
L 318.861795 295.488 
L 318.981393 61.414755 
L 319.100991 295.488 
L 319.180723 295.488 
L 319.30032 68.141101 
L 319.419918 295.488 
L 319.49965 295.488 
L 319.512938 78.701323 
L 319.605959 295.488 
L 319.725556 98.839018 
L 319.831865 61.414755 
L 319.845154 295.488 
L 320.031195 295.488 
L 320.150793 134.108309 
L 320.257102 103.491812 
L 320.27039 295.488 
L 320.350122 295.488 
L 320.363411 134.108309 
L 320.456431 295.488 
L 320.576029 160.496158 
L 320.682338 152.898607 
L 320.695626 295.488 
L 320.775358 295.488 
L 320.894956 177.796587 
L 321.014554 295.488 
L 321.094285 295.488 
L 321.107574 62.674108 
L 321.200594 295.488 
L 321.320192 206.845505 
L 321.43979 295.488 
L 321.519522 295.488 
L 321.639119 64.342857 
L 321.758717 295.488 
L 321.838449 295.488 
L 321.958046 279.495418 
L 322.051067 295.488 
L 322.170665 83.825128 
L 322.290262 295.488 
L 322.476303 295.488 
L 322.595901 238.354935 
L 322.688921 295.488 
L 322.70221 118.368323 
L 322.79523 295.488 
L 322.914828 94.460331 
L 323.034426 295.488 
L 323.114157 295.488 
L 323.127446 171.816628 
L 323.220466 295.488 
L 323.326775 295.488 
L 323.340064 268.316416 
L 323.433084 295.488 
L 323.552682 61.414755 
L 323.67228 295.488 
L 323.752012 295.488 
L 323.871609 61.414755 
L 323.991207 295.488 
L 324.070939 295.488 
L 324.084227 141.538909 
L 324.177248 295.488 
L 324.296846 118.368323 
L 324.416443 295.488 
L 324.496175 295.488 
L 324.615773 68.141101 
L 324.73537 295.488 
L 324.815102 295.488 
L 324.9347 272.833158 
L 325.054297 295.488 
L 325.134029 295.488 
L 325.253627 61.414755 
L 325.373225 295.488 
L 325.452956 295.488 
L 325.572554 82.684716 
L 325.692152 295.488 
L 325.771884 295.488 
L 325.785172 64.342857 
L 325.891481 79.630381 
L 326.011079 295.488 
L 326.090811 295.488 
L 326.104099 90.738659 
L 326.210408 91.541142 
L 326.330006 295.488 
L 326.409738 295.488 
L 326.423026 206.605451 
L 326.516047 295.488 
L 326.635645 279.495418 
L 326.728665 295.488 
L 326.848263 183.979145 
L 326.954572 176.343565 
L 326.96786 295.488 
L 327.047592 295.488 
L 327.16719 64.342857 
L 327.286788 295.488 
L 327.366519 295.488 
L 327.379808 61.414755 
L 327.486117 90.738659 
L 327.592426 68.141101 
L 327.605715 295.488 
L 327.685446 295.488 
L 327.805044 180.018895 
L 327.924642 295.488 
L 328.004374 295.488 
L 328.017662 78.684192 
L 328.110683 295.488 
L 328.123971 167.751416 
L 328.216992 295.488 
L 328.336589 141.362772 
L 328.442898 93.548597 
L 328.456187 295.488 
L 328.535919 295.488 
L 328.655517 94.460331 
L 328.775114 295.488 
L 328.854846 295.488 
L 328.974444 61.414755 
L 329.094041 295.488 
L 329.173773 295.488 
L 329.293371 118.368323 
L 329.39968 78.701323 
L 329.412968 295.488 
L 329.4927 295.488 
L 329.612298 141.362772 
L 329.718607 91.541142 
L 329.731896 295.488 
L 329.811627 295.488 
L 329.824916 106.473043 
L 329.917936 295.488 
L 329.931225 193.455912 
L 330.024246 295.488 
L 330.143843 279.495418 
L 330.236864 295.488 
L 330.250152 64.342857 
L 330.343173 295.488 
L 330.356461 201.327559 
L 330.449482 295.488 
L 330.569079 160.496158 
L 330.6621 295.488 
L 330.675388 64.342857 
L 330.768409 295.488 
L 330.781697 246.36965 
L 330.888007 260.501403 
L 330.981027 295.488 
L 331.100625 68.141101 
L 331.220222 295.488 
L 331.299954 295.488 
L 331.313243 122.932838 
L 331.406263 295.488 
L 331.525861 78.684192 
L 331.645458 295.488 
L 331.831499 295.488 
L 331.951097 93.548597 
L 332.070695 295.488 
L 332.150426 295.488 
L 332.163715 94.460331 
L 332.256736 295.488 
L 332.376333 78.684192 
L 332.482642 64.342857 
L 332.495931 295.488 
L 332.575663 295.488 
L 332.69526 272.833158 
L 332.788281 295.488 
L 332.907878 78.701323 
L 333.027476 295.488 
L 333.107208 295.488 
L 333.226806 91.541142 
L 333.333115 61.414755 
L 333.346403 295.488 
L 333.426135 295.488 
L 333.545733 170.455086 
L 333.66533 295.488 
L 333.745062 295.488 
L 333.758351 64.342857 
L 333.851371 295.488 
L 333.86466 167.184205 
L 333.95768 295.488 
L 334.077278 160.496158 
L 334.170298 295.488 
L 334.183587 64.342857 
L 334.276607 295.488 
L 334.289896 178.942248 
L 334.382916 295.488 
L 334.396205 238.53357 
L 334.489226 295.488 
L 334.608823 279.495418 
L 334.701844 295.488 
L 334.715132 74.842621 
L 334.808153 295.488 
L 334.821441 279.495418 
L 334.914462 295.488 
L 335.034059 279.495418 
L 335.12708 295.488 
L 335.246678 155.639473 
L 335.366275 295.488 
L 335.446007 295.488 
L 335.459296 64.342857 
L 335.552316 295.488 
L 335.671914 102.107986 
L 335.791511 295.488 
L 335.871243 295.488 
L 335.990841 91.541142 
L 336.09715 78.684192 
L 336.110439 295.488 
L 336.19017 295.488 
L 336.309768 118.368323 
L 336.416077 90.738659 
L 336.429366 295.488 
L 336.509097 295.488 
L 336.522386 120.926139 
L 336.628695 122.932838 
L 336.735004 117.722902 
L 336.748293 295.488 
L 336.828025 295.488 
L 336.841313 274.904957 
L 336.934334 295.488 
L 336.947622 286.665868 
L 337.053931 289.821084 
L 337.146952 295.488 
L 337.266549 118.368323 
L 337.372858 73.644238 
L 337.386147 295.488 
L 337.465879 295.488 
L 337.585477 61.414755 
L 337.705074 295.488 
L 337.784806 295.488 
L 337.904404 61.414755 
L 338.024001 295.488 
L 338.103733 295.488 
L 338.223331 61.414755 
L 338.342929 295.488 
L 338.42266 295.488 
L 338.435949 155.639473 
L 338.542258 178.781129 
L 338.661856 295.488 
L 338.741587 295.488 
L 338.754876 205.432612 
L 338.847897 295.488 
L 338.861185 294.80777 
L 338.954206 295.488 
L 339.073803 61.414755 
L 339.193401 295.488 
L 339.273133 295.488 
L 339.286421 274.002938 
L 339.39273 279.495418 
L 339.512328 295.488 
L 339.59206 295.488 
L 339.711658 61.414755 
L 339.831255 295.488 
L 339.910987 295.488 
L 340.030585 83.825128 
L 340.136894 64.342857 
L 340.150182 295.488 
L 340.229914 295.488 
L 340.243203 85.099809 
L 340.349512 140.845469 
L 340.455821 117.722902 
L 340.46911 295.488 
L 340.548841 295.488 
L 340.668439 68.141101 
L 340.774748 61.414755 
L 340.788037 295.488 
L 340.867768 295.488 
L 340.881057 152.898607 
L 340.987366 180.018895 
L 341.080387 295.488 
L 341.199984 83.825128 
L 341.319582 295.488 
L 341.399314 295.488 
L 341.412602 61.414755 
L 341.518911 87.616031 
L 341.638509 295.488 
L 341.718241 295.488 
L 341.837839 61.414755 
L 341.957436 295.488 
L 342.037168 295.488 
L 342.050457 112.304753 
L 342.143477 295.488 
L 342.156766 238.882467 
L 342.249786 295.488 
L 342.356095 295.488 
L 342.475693 61.414755 
L 342.59529 295.488 
L 342.675022 295.488 
L 342.79462 118.368323 
L 342.900929 97.611759 
L 342.914218 295.488 
L 342.993949 295.488 
L 343.007238 232.211742 
L 343.100258 295.488 
L 343.219856 180.018895 
L 343.312877 295.488 
L 343.326165 61.414755 
L 343.419186 295.488 
L 343.538783 118.368323 
L 343.658381 295.488 
L 343.738113 295.488 
L 343.751401 93.711185 
L 343.844422 295.488 
L 343.964019 118.368323 
L 344.083617 295.488 
L 344.163349 295.488 
L 344.176638 68.141101 
L 344.282947 137.258737 
L 344.402544 295.488 
L 344.482276 295.488 
L 344.601874 61.414755 
L 344.721471 295.488 
L 344.801203 295.488 
L 344.920801 61.414755 
L 345.040399 295.488 
L 345.12013 295.488 
L 345.133419 197.915914 
L 345.226439 295.488 
L 345.346037 61.414755 
L 345.465635 295.488 
L 345.545367 295.488 
L 345.558655 112.304753 
L 345.651676 295.488 
L 345.664964 235.844998 
L 345.757985 295.488 
L 345.864294 295.488 
L 345.983891 61.414755 
L 346.103489 295.488 
L 346.183221 295.488 
L 346.302819 118.368323 
L 346.409128 93.711185 
L 346.422416 295.488 
L 346.502148 295.488 
L 346.515437 134.085488 
L 346.621746 141.362772 
L 346.741343 295.488 
L 346.821075 295.488 
L 346.834364 69.08222 
L 346.927384 295.488 
L 347.046982 176.343565 
L 347.16658 295.488 
L 347.246311 295.488 
L 347.2596 93.711185 
L 347.35262 295.488 
L 347.365909 286.489626 
L 347.458929 295.488 
L 347.472218 118.368323 
L 347.565239 295.488 
L 347.684836 68.141101 
L 347.791145 61.414755 
L 347.804434 295.488 
L 347.884166 295.488 
L 347.897454 163.89234 
L 348.003763 180.018895 
L 348.096784 295.488 
L 348.110072 61.414755 
L 348.216381 78.701323 
L 348.335979 295.488 
L 348.415711 295.488 
L 348.429 61.414755 
L 348.535309 87.616031 
L 348.654906 295.488 
L 348.734638 295.488 
L 348.854236 269.919745 
L 348.947256 295.488 
L 349.066854 91.541142 
L 349.173163 78.701323 
L 349.186451 295.488 
L 349.266183 295.488 
L 349.385781 152.898607 
L 349.49209 134.108309 
L 349.505379 295.488 
L 349.58511 295.488 
L 349.704708 262.952661 
L 349.797729 295.488 
L 349.917326 109.884653 
L 350.036924 295.488 
L 350.116656 295.488 
L 350.236253 122.932838 
L 350.355851 295.488 
L 350.435583 295.488 
L 350.448871 91.541142 
L 350.541892 295.488 
L 350.66149 274.002938 
L 350.781087 295.488 
L 350.860819 295.488 
L 350.874108 68.141101 
L 350.980417 117.722902 
L 351.100014 295.488 
L 351.179746 295.488 
L 351.193035 118.368323 
L 351.286055 295.488 
L 351.299344 234.072162 
L 351.392364 295.488 
L 351.405653 291.227129 
L 351.498673 295.488 
L 351.618271 61.414755 
L 351.737869 295.488 
L 351.923909 295.488 
L 352.043507 61.414755 
L 352.163105 295.488 
L 352.242837 295.488 
L 352.362434 61.414755 
L 352.482032 295.488 
L 352.561764 295.488 
L 352.681361 66.880045 
L 352.800959 295.488 
L 352.880691 295.488 
L 353.000289 258.756221 
L 353.093309 295.488 
L 353.212907 90.738659 
L 353.332504 295.488 
L 353.412236 295.488 
L 353.531834 83.825128 
L 353.651432 295.488 
L 353.731163 295.488 
L 353.744452 195.84347 
L 353.837472 295.488 
L 353.95707 141.538909 
L 354.063379 118.368323 
L 354.076668 295.488 
L 354.1564 295.488 
L 354.169688 61.414755 
L 354.262709 295.488 
L 354.382306 160.496158 
L 354.475327 295.488 
L 354.594924 66.01906 
L 354.714522 295.488 
L 354.794254 295.488 
L 354.807542 94.853616 
L 354.900563 295.488 
L 355.020161 122.932838 
L 355.12647 78.701323 
L 355.139758 295.488 
L 355.21949 295.488 
L 355.339088 141.538909 
L 355.458685 295.488 
L 355.538417 295.488 
L 355.551706 197.427238 
L 355.644726 295.488 
L 355.658015 285.304391 
L 355.751035 295.488 
L 355.857344 295.488 
L 355.870633 61.414755 
L 355.976942 64.342857 
L 356.09654 295.488 
L 356.28258 295.488 
L 356.402178 63.779433 
L 356.521776 295.488 
L 356.601508 295.488 
L 356.721105 272.833158 
L 356.814126 295.488 
L 356.827414 71.959014 
L 356.920435 295.488 
L 356.933723 222.922893 
L 357.026744 295.488 
L 357.146341 279.495418 
L 357.239362 295.488 
L 357.252651 68.141101 
L 357.345671 295.488 
L 357.465269 93.548597 
L 357.584866 295.488 
L 357.664598 295.488 
L 357.677887 98.839018 
L 357.784196 148.007178 
L 357.903793 295.488 
L 357.983525 295.488 
L 358.103123 78.684192 
L 358.222721 295.488 
L 358.302452 295.488 
L 358.42205 176.343565 
L 358.51507 295.488 
L 358.634668 98.701429 
L 358.754266 295.488 
L 358.833998 295.488 
L 358.847286 61.414755 
L 358.940307 295.488 
L 359.059904 61.414755 
L 359.179502 295.488 
L 359.259234 295.488 
L 359.378832 61.414755 
L 359.498429 295.488 
L 359.578161 295.488 
L 359.59145 265.868803 
L 359.68447 295.488 
L 359.804068 176.343565 
L 359.897088 295.488 
L 359.910377 63.779433 
L 360.003397 295.488 
L 360.122995 238.787028 
L 360.242593 295.488 
L 360.322324 295.488 
L 360.335613 71.959014 
L 360.428633 295.488 
L 360.548231 77.147331 
L 360.667829 295.488 
L 360.747561 295.488 
L 360.760849 68.141101 
L 360.85387 295.488 
L 360.973467 83.825128 
L 361.093065 295.488 
L 361.172797 295.488 
L 361.292394 93.149051 
L 361.411992 295.488 
L 361.491724 295.488 
L 361.611322 78.684192 
L 361.730919 295.488 
L 361.810651 295.488 
L 361.930249 176.343565 
L 362.023269 295.488 
L 362.142867 81.015539 
L 362.262464 295.488 
L 362.342196 295.488 
L 362.355485 118.368323 
L 362.448505 295.488 
L 362.568103 61.414755 
L 362.687701 295.488 
L 362.767432 295.488 
L 362.88703 61.414755 
L 363.006628 295.488 
L 363.08636 295.488 
L 363.205957 236.050235 
L 363.298978 295.488 
L 363.418575 118.368323 
L 363.524884 61.414755 
L 363.538173 295.488 
L 363.830523 295.488 
L 363.843812 118.368323 
L 363.936832 295.488 
L 363.950121 193.455912 
L 364.043141 295.488 
L 364.162739 93.548597 
L 364.282336 295.488 
L 364.362068 295.488 
L 364.375357 118.368323 
L 364.468377 295.488 
L 364.481666 270.04757 
L 364.574686 295.488 
L 364.680995 295.488 
L 364.800593 83.825128 
L 364.920191 295.488 
L 364.999922 295.488 
L 365.11952 219.557144 
L 365.239118 295.488 
L 365.31885 295.488 
L 365.332138 64.342857 
L 365.438447 117.722902 
L 365.558045 295.488 
L 365.637777 295.488 
L 365.651065 288.334866 
L 365.744086 295.488 
L 365.757374 295.008967 
L 365.850395 295.488 
L 365.863683 256.664937 
L 365.956704 295.488 
L 366.076302 141.538909 
L 366.195899 295.488 
L 366.275631 295.488 
L 366.28892 104.474439 
L 366.38194 295.488 
L 366.501538 272.344277 
L 366.621135 295.488 
L 366.700867 295.488 
L 366.820465 61.414755 
L 366.940063 295.488 
L 367.019794 295.488 
L 367.033083 61.414755 
L 367.126103 295.488 
L 367.245701 83.825128 
L 367.365299 295.488 
L 367.445031 295.488 
L 367.564628 176.343565 
L 367.684226 295.488 
L 367.763958 295.488 
L 367.883555 118.368323 
L 367.989864 64.342857 
L 368.003153 295.488 
L 368.082885 295.488 
L 368.202483 61.414755 
L 368.32208 295.488 
L 368.508121 295.488 
L 368.52141 61.414755 
L 368.627719 83.825128 
L 368.747316 295.488 
L 368.827048 295.488 
L 368.946646 67.54703 
L 369.066244 295.488 
L 369.145975 295.488 
L 369.159264 103.303029 
L 369.265573 155.639473 
L 369.385171 295.488 
L 369.464902 295.488 
L 369.478191 78.684192 
L 369.5845 101.317503 
L 369.704098 295.488 
L 369.78383 295.488 
L 369.903427 104.474439 
L 370.023025 295.488 
L 370.102757 295.488 
L 370.222354 122.932838 
L 370.328664 78.684192 
L 370.341952 295.488 
L 370.421684 295.488 
L 370.541282 189.678648 
L 370.660879 295.488 
L 370.740611 295.488 
L 370.860209 78.701323 
L 370.979806 295.488 
L 371.059538 295.488 
L 371.179136 91.541142 
L 371.298734 295.488 
L 371.378465 295.488 
L 371.391754 217.579305 
L 371.484774 295.488 
L 371.498063 277.662214 
L 371.604372 279.495418 
L 371.697393 295.488 
L 371.710681 64.342857 
L 371.803702 295.488 
L 371.923299 176.343565 
L 372.029608 160.496158 
L 372.042897 295.488 
L 372.122629 295.488 
L 372.135917 64.342857 
L 372.228938 295.488 
L 372.242226 219.80762 
L 372.348535 238.748147 
L 372.441556 295.488 
L 372.561154 68.141101 
L 372.680751 295.488 
L 372.760483 295.488 
L 372.773772 180.018895 
L 372.866792 295.488 
L 372.98639 78.684192 
L 373.105987 295.488 
L 373.185719 295.488 
L 373.305317 141.362772 
L 373.411626 93.548597 
L 373.424915 295.488 
L 373.504646 295.488 
L 373.624244 119.245982 
L 373.743842 295.488 
L 373.823573 295.488 
L 373.836862 78.684192 
L 373.943171 125.497209 
L 374.062769 295.488 
L 374.142501 295.488 
L 374.262098 118.368323 
L 374.368407 78.701323 
L 374.381696 295.488 
L 374.461428 295.488 
L 374.474716 168.533658 
L 374.567737 295.488 
L 374.687334 91.541142 
L 374.806932 295.488 
L 374.886664 295.488 
L 375.006262 93.0859 
L 375.125859 295.488 
L 375.205591 295.488 
L 375.21888 64.342857 
L 375.325189 112.919132 
L 375.444786 295.488 
L 375.524518 295.488 
L 375.644116 64.342857 
L 375.763714 295.488 
L 375.843445 295.488 
L 375.963043 90.738659 
L 376.069352 68.141101 
L 376.082641 295.488 
L 376.162373 295.488 
L 376.28197 122.932838 
L 376.401568 295.488 
L 376.4813 295.488 
L 376.600897 61.414755 
L 376.720495 295.488 
L 376.800227 295.488 
L 376.919825 93.548597 
L 377.039422 295.488 
L 377.119154 295.488 
L 377.132443 119.245982 
L 377.238752 180.018895 
L 377.331772 295.488 
L 377.345061 78.684192 
L 377.45137 83.414724 
L 377.570967 295.488 
L 377.650699 295.488 
L 377.770297 119.245982 
L 377.876606 118.148679 
L 377.889895 295.488 
L 377.969626 295.488 
L 378.089224 119.245982 
L 378.208822 295.488 
L 378.288554 295.488 
L 378.301842 176.343565 
L 378.394863 295.488 
L 378.51446 148.141699 
L 378.634058 295.488 
L 378.71379 295.488 
L 378.727078 64.342857 
L 378.820099 295.488 
L 378.833387 294.72502 
L 378.926408 295.488 
L 379.046005 141.538909 
L 379.152315 121.874502 
L 379.165603 295.488 
L 379.245335 295.488 
L 379.258624 68.141101 
L 379.351644 295.488 
L 379.471242 91.541142 
L 379.590839 295.488 
L 379.670571 295.488 
L 379.68386 61.414755 
L 379.790169 71.959014 
L 379.909767 295.488 
L 379.989498 295.488 
L 380.002787 61.414755 
L 380.095807 295.488 
L 380.109096 208.504087 
L 380.215405 214.657959 
L 380.335003 295.488 
L 380.414734 295.488 
L 380.428023 104.474439 
L 380.521044 295.488 
L 380.640641 141.538909 
L 380.760239 295.488 
L 380.94628 295.488 
L 381.065877 279.495418 
L 381.158898 295.488 
L 381.278496 61.414755 
L 381.398093 295.488 
L 381.477825 295.488 
L 381.597423 61.414755 
L 381.71702 295.488 
L 381.796752 295.488 
L 381.91635 141.538909 
L 382.022659 104.474439 
L 382.035947 295.488 
L 382.115679 295.488 
L 382.235277 205.96341 
L 382.328297 295.488 
L 382.341586 78.684192 
L 382.434606 295.488 
L 382.554204 178.942248 
L 382.673802 295.488 
L 382.753534 295.488 
L 382.766822 284.417636 
L 382.859843 295.488 
L 382.97944 61.414755 
L 383.099038 295.488 
L 383.17877 295.488 
L 383.298367 62.674108 
L 383.417965 295.488 
L 383.497697 295.488 
L 383.617295 61.414755 
L 383.736892 295.488 
L 383.816624 295.488 
L 383.936222 64.342857 
L 384.055819 295.488 
L 384.135551 295.488 
L 384.255149 118.368323 
L 384.374747 295.488 
L 384.454478 295.488 
L 384.467767 294.997757 
L 384.560787 295.488 
L 384.680385 180.018895 
L 384.773405 295.488 
L 384.786694 61.414755 
L 384.879715 295.488 
L 384.999312 118.368323 
L 385.11891 295.488 
L 385.198642 295.488 
L 385.21193 109.463649 
L 385.318239 165.916984 
L 385.437837 295.488 
L 385.517569 295.488 
L 385.637166 68.141101 
L 385.756764 295.488 
L 385.836496 295.488 
L 385.956094 180.018895 
L 386.049114 295.488 
L 386.062403 61.414755 
L 386.168712 83.825128 
L 386.288309 295.488 
L 386.368041 295.488 
L 386.38133 61.414755 
L 386.487639 87.616031 
L 386.607237 295.488 
L 386.686968 295.488 
L 386.806566 61.414755 
L 386.926164 295.488 
L 387.005895 295.488 
L 387.019184 112.304753 
L 387.125493 156.947789 
L 387.245091 295.488 
L 387.324823 295.488 
L 387.44442 61.414755 
L 387.564018 295.488 
L 387.64375 295.488 
L 387.763347 118.368323 
L 387.869657 93.711185 
L 387.882945 295.488 
L 387.962677 295.488 
L 388.082275 141.362772 
L 388.201872 295.488 
L 388.281604 295.488 
L 388.294893 61.414755 
L 388.387913 295.488 
L 388.507511 176.343565 
L 388.627108 295.488 
L 388.70684 295.488 
L 388.720129 93.711185 
L 388.813149 295.488 
L 388.932747 118.368323 
L 389.052345 295.488 
L 389.132076 295.488 
L 389.145365 68.141101 
L 389.238386 295.488 
L 389.357983 118.742853 
L 389.477581 295.488 
L 389.557313 295.488 
L 389.570601 61.414755 
L 389.67691 78.701323 
L 389.796508 295.488 
L 389.87624 295.488 
L 389.889528 61.414755 
L 389.995837 87.616031 
L 390.102147 73.644238 
L 390.115435 295.488 
L 390.195167 295.488 
L 390.314765 61.414755 
L 390.434362 295.488 
L 390.514094 295.488 
L 390.527383 114.296801 
L 390.620403 295.488 
L 390.633692 197.364264 
L 390.726712 295.488 
L 390.833021 295.488 
L 390.952619 61.414755 
L 391.072217 295.488 
L 391.151948 295.488 
L 391.271546 118.368323 
L 391.377855 93.711185 
L 391.391144 295.488 
L 391.470876 295.488 
L 391.590473 141.362772 
L 391.710071 295.488 
L 391.789803 295.488 
L 391.803091 61.414755 
L 391.9094 112.178356 
L 392.028998 295.488 
L 392.10873 295.488 
L 392.228327 141.362772 
L 392.321348 295.488 
L 392.334637 72.627073 
L 392.427657 295.488 
L 392.547255 279.495418 
L 392.640275 295.488 
L 392.759873 118.368323 
L 392.87947 295.488 
L 392.959202 295.488 
L 393.0788 68.141101 
L 393.198398 295.488 
L 393.278129 295.488 
L 393.291418 114.291596 
L 393.384438 295.488 
L 393.504036 160.496158 
L 393.623634 295.488 
L 393.703366 295.488 
L 393.716654 93.548597 
L 393.809675 295.488 
L 393.822963 242.503518 
L 393.915984 295.488 
L 394.035581 141.362772 
L 394.128602 295.488 
L 394.14189 63.779433 
L 394.234911 295.488 
L 394.248199 261.537691 
L 394.354508 272.833158 
L 394.447529 295.488 
L 394.460818 218.422456 
L 394.553838 295.488 
L 394.673436 143.007001 
L 394.793033 295.488 
L 394.872765 295.488 
L 394.992363 61.414755 
L 395.11196 295.488 
L 395.191692 295.488 
L 395.204981 104.474439 
L 395.298001 295.488 
L 395.31129 282.8915 
L 395.40431 295.488 
L 395.510619 295.488 
L 395.630217 61.414755 
L 395.749815 295.488 
L 395.829547 295.488 
L 395.842835 61.414755 
L 395.949144 64.342857 
L 396.068742 295.488 
L 396.148474 295.488 
L 396.268071 176.343565 
L 396.37438 160.496158 
L 396.387669 295.488 
L 396.467401 295.488 
L 396.586998 101.115904 
L 396.706596 295.488 
L 396.786328 295.488 
L 396.799617 140.960722 
L 396.892637 295.488 
L 397.012235 78.684192 
L 397.131832 295.488 
L 397.211564 295.488 
L 397.331162 61.414755 
L 397.45076 295.488 
L 397.530491 295.488 
L 397.650089 109.884653 
L 397.769687 295.488 
L 397.849418 295.488 
L 397.862707 61.414755 
L 397.955727 295.488 
L 398.075325 94.460331 
L 398.194923 295.488 
L 398.274655 295.488 
L 398.287943 71.959014 
L 398.394252 106.595244 
L 398.487273 295.488 
L 398.487273 295.488 
" clip-path="url(#p6e6b5b8a59)" style="fill: none; stroke: #1f77b4; stroke-width: 0.5; stroke-linecap: square"/>
   </g>
   <g id="patch_3">
    <path d="M 57.6 307.584 
L 57.6 41.472 
" style="fill: none; stroke: #000000; stroke-width: 0.8; stroke-linejoin: miter; stroke-linecap: square"/>
   </g>
   <g id="patch_4">
    <path d="M 414.72 307.584 
L 414.72 41.472 
" style="fill: none; stroke: #000000; stroke-width: 0.8; stroke-linejoin: miter; stroke-linecap: square"/>
   </g>
   <g id="patch_5">
    <path d="M 57.6 307.584 
L 414.72 307.584 
" style="fill: none; stroke: #000000; stroke-width: 0.8; stroke-linejoin: miter; stroke-linecap: square"/>
   </g>
   <g id="patch_6">
    <path d="M 57.6 41.472 
L 414.72 41.472 
" style="fill: none; stroke: #000000; stroke-width: 0.8; stroke-linejoin: miter; stroke-linecap: square"/>
   </g>
  </g>
 </g>
 <defs>
  <clipPath id="p6e6b5b8a59">
   <rect x="57.6" y="41.472" width="357.12" height="266.112"/>
  </clipPath>
 </defs>
</svg>
