<?xml version="1.0" encoding="utf-8" standalone="no"?>
<!DOCTYPE svg PUBLIC "-//W3C//DTD SVG 1.1//EN"
  "http://www.w3.org/Graphics/SVG/1.1/DTD/svg11.dtd">
<svg xmlns:xlink="http://www.w3.org/1999/xlink" width="460.8pt" height="345.6pt" viewBox="0 0 460.8 345.6" xmlns="http://www.w3.org/2000/svg" version="1.1">
 <metadata>
  <rdf:RDF xmlns:dc="http://purl.org/dc/elements/1.1/" xmlns:cc="http://creativecommons.org/ns#" xmlns:rdf="http://www.w3.org/1999/02/22-rdf-syntax-ns#">
   <cc:Work>
    <dc:type rdf:resource="http://purl.org/dc/dcmitype/StillImage"/>
    <dc:date>2024-09-21T13:56:54.228891</dc:date>
    <dc:format>image/svg+xml</dc:format>
    <dc:creator>
     <cc:Agent>
      <dc:title>Matplotlib v3.9.2, https://matplotlib.org/</dc:title>
     </cc:Agent>
    </dc:creator>
   </cc:Work>
  </rdf:RDF>
 </metadata>
 <defs>
  <style type="text/css">*{stroke-linejoin: round; stroke-linecap: butt}</style>
 </defs>
 <g id="figure_1">
  <g id="patch_1">
   <path d="M 0 345.6 
L 460.8 345.6 
L 460.8 0 
L 0 0 
z
" style="fill: #ffffff"/>
  </g>
  <g id="axes_1">
   <g id="patch_2">
    <path d="M 57.6 307.584 
L 414.72 307.584 
L 414.72 41.472 
L 57.6 41.472 
z
" style="fill: #ffffff"/>
   </g>
   <g id="matplotlib.axis_1">
    <g id="xtick_1">
     <g id="line2d_1">
      <defs>
       <path id="me22e45128b" d="M 0 0 
L 0 3.5 
" style="stroke: #000000; stroke-width: 0.8"/>
      </defs>
      <g>
       <use xlink:href="#me22e45128b" x="73.832727" y="307.584" style="stroke: #000000; stroke-width: 0.8"/>
      </g>
     </g>
     <g id="text_1">
      <!-- 0 -->
      <g transform="translate(70.651477 322.182437) scale(0.1 -0.1)">
       <defs>
        <path id="DejaVuSans-30" d="M 2034 4250 
Q 1547 4250 1301 3770 
Q 1056 3291 1056 2328 
Q 1056 1369 1301 889 
Q 1547 409 2034 409 
Q 2525 409 2770 889 
Q 3016 1369 3016 2328 
Q 3016 3291 2770 3770 
Q 2525 4250 2034 4250 
z
M 2034 4750 
Q 2819 4750 3233 4129 
Q 3647 3509 3647 2328 
Q 3647 1150 3233 529 
Q 2819 -91 2034 -91 
Q 1250 -91 836 529 
Q 422 1150 422 2328 
Q 422 3509 836 4129 
Q 1250 4750 2034 4750 
z
" transform="scale(0.015625)"/>
       </defs>
       <use xlink:href="#DejaVuSans-30"/>
      </g>
     </g>
    </g>
    <g id="xtick_2">
     <g id="line2d_2">
      <g>
       <use xlink:href="#me22e45128b" x="127.002486" y="307.584" style="stroke: #000000; stroke-width: 0.8"/>
      </g>
     </g>
     <g id="text_2">
      <!-- 500 -->
      <g transform="translate(117.458736 322.182437) scale(0.1 -0.1)">
       <defs>
        <path id="DejaVuSans-35" d="M 691 4666 
L 3169 4666 
L 3169 4134 
L 1269 4134 
L 1269 2991 
Q 1406 3038 1543 3061 
Q 1681 3084 1819 3084 
Q 2600 3084 3056 2656 
Q 3513 2228 3513 1497 
Q 3513 744 3044 326 
Q 2575 -91 1722 -91 
Q 1428 -91 1123 -41 
Q 819 9 494 109 
L 494 744 
Q 775 591 1075 516 
Q 1375 441 1709 441 
Q 2250 441 2565 725 
Q 2881 1009 2881 1497 
Q 2881 1984 2565 2268 
Q 2250 2553 1709 2553 
Q 1456 2553 1204 2497 
Q 953 2441 691 2322 
L 691 4666 
z
" transform="scale(0.015625)"/>
       </defs>
       <use xlink:href="#DejaVuSans-35"/>
       <use xlink:href="#DejaVuSans-30" x="63.623047"/>
       <use xlink:href="#DejaVuSans-30" x="127.246094"/>
      </g>
     </g>
    </g>
    <g id="xtick_3">
     <g id="line2d_3">
      <g>
       <use xlink:href="#me22e45128b" x="180.172244" y="307.584" style="stroke: #000000; stroke-width: 0.8"/>
      </g>
     </g>
     <g id="text_3">
      <!-- 1000 -->
      <g transform="translate(167.447244 322.182437) scale(0.1 -0.1)">
       <defs>
        <path id="DejaVuSans-31" d="M 794 531 
L 1825 531 
L 1825 4091 
L 703 3866 
L 703 4441 
L 1819 4666 
L 2450 4666 
L 2450 531 
L 3481 531 
L 3481 0 
L 794 0 
L 794 531 
z
" transform="scale(0.015625)"/>
       </defs>
       <use xlink:href="#DejaVuSans-31"/>
       <use xlink:href="#DejaVuSans-30" x="63.623047"/>
       <use xlink:href="#DejaVuSans-30" x="127.246094"/>
       <use xlink:href="#DejaVuSans-30" x="190.869141"/>
      </g>
     </g>
    </g>
    <g id="xtick_4">
     <g id="line2d_4">
      <g>
       <use xlink:href="#me22e45128b" x="233.342003" y="307.584" style="stroke: #000000; stroke-width: 0.8"/>
      </g>
     </g>
     <g id="text_4">
      <!-- 1500 -->
      <g transform="translate(220.617003 322.182437) scale(0.1 -0.1)">
       <use xlink:href="#DejaVuSans-31"/>
       <use xlink:href="#DejaVuSans-35" x="63.623047"/>
       <use xlink:href="#DejaVuSans-30" x="127.246094"/>
       <use xlink:href="#DejaVuSans-30" x="190.869141"/>
      </g>
     </g>
    </g>
    <g id="xtick_5">
     <g id="line2d_5">
      <g>
       <use xlink:href="#me22e45128b" x="286.511761" y="307.584" style="stroke: #000000; stroke-width: 0.8"/>
      </g>
     </g>
     <g id="text_5">
      <!-- 2000 -->
      <g transform="translate(273.786761 322.182437) scale(0.1 -0.1)">
       <defs>
        <path id="DejaVuSans-32" d="M 1228 531 
L 3431 531 
L 3431 0 
L 469 0 
L 469 531 
Q 828 903 1448 1529 
Q 2069 2156 2228 2338 
Q 2531 2678 2651 2914 
Q 2772 3150 2772 3378 
Q 2772 3750 2511 3984 
Q 2250 4219 1831 4219 
Q 1534 4219 1204 4116 
Q 875 4013 500 3803 
L 500 4441 
Q 881 4594 1212 4672 
Q 1544 4750 1819 4750 
Q 2544 4750 2975 4387 
Q 3406 4025 3406 3419 
Q 3406 3131 3298 2873 
Q 3191 2616 2906 2266 
Q 2828 2175 2409 1742 
Q 1991 1309 1228 531 
z
" transform="scale(0.015625)"/>
       </defs>
       <use xlink:href="#DejaVuSans-32"/>
       <use xlink:href="#DejaVuSans-30" x="63.623047"/>
       <use xlink:href="#DejaVuSans-30" x="127.246094"/>
       <use xlink:href="#DejaVuSans-30" x="190.869141"/>
      </g>
     </g>
    </g>
    <g id="xtick_6">
     <g id="line2d_6">
      <g>
       <use xlink:href="#me22e45128b" x="339.68152" y="307.584" style="stroke: #000000; stroke-width: 0.8"/>
      </g>
     </g>
     <g id="text_6">
      <!-- 2500 -->
      <g transform="translate(326.95652 322.182437) scale(0.1 -0.1)">
       <use xlink:href="#DejaVuSans-32"/>
       <use xlink:href="#DejaVuSans-35" x="63.623047"/>
       <use xlink:href="#DejaVuSans-30" x="127.246094"/>
       <use xlink:href="#DejaVuSans-30" x="190.869141"/>
      </g>
     </g>
    </g>
    <g id="xtick_7">
     <g id="line2d_7">
      <g>
       <use xlink:href="#me22e45128b" x="392.851278" y="307.584" style="stroke: #000000; stroke-width: 0.8"/>
      </g>
     </g>
     <g id="text_7">
      <!-- 3000 -->
      <g transform="translate(380.126278 322.182437) scale(0.1 -0.1)">
       <defs>
        <path id="DejaVuSans-33" d="M 2597 2516 
Q 3050 2419 3304 2112 
Q 3559 1806 3559 1356 
Q 3559 666 3084 287 
Q 2609 -91 1734 -91 
Q 1441 -91 1130 -33 
Q 819 25 488 141 
L 488 750 
Q 750 597 1062 519 
Q 1375 441 1716 441 
Q 2309 441 2620 675 
Q 2931 909 2931 1356 
Q 2931 1769 2642 2001 
Q 2353 2234 1838 2234 
L 1294 2234 
L 1294 2753 
L 1863 2753 
Q 2328 2753 2575 2939 
Q 2822 3125 2822 3475 
Q 2822 3834 2567 4026 
Q 2313 4219 1838 4219 
Q 1578 4219 1281 4162 
Q 984 4106 628 3988 
L 628 4550 
Q 988 4650 1302 4700 
Q 1616 4750 1894 4750 
Q 2613 4750 3031 4423 
Q 3450 4097 3450 3541 
Q 3450 3153 3228 2886 
Q 3006 2619 2597 2516 
z
" transform="scale(0.015625)"/>
       </defs>
       <use xlink:href="#DejaVuSans-33"/>
       <use xlink:href="#DejaVuSans-30" x="63.623047"/>
       <use xlink:href="#DejaVuSans-30" x="127.246094"/>
       <use xlink:href="#DejaVuSans-30" x="190.869141"/>
      </g>
     </g>
    </g>
   </g>
   <g id="matplotlib.axis_2">
    <g id="ytick_1">
     <g id="line2d_8">
      <defs>
       <path id="me755977eea" d="M 0 0 
L -3.5 0 
" style="stroke: #000000; stroke-width: 0.8"/>
      </defs>
      <g>
       <use xlink:href="#me755977eea" x="57.6" y="295.488" style="stroke: #000000; stroke-width: 0.8"/>
      </g>
     </g>
     <g id="text_8">
      <!-- 0.00 -->
      <g transform="translate(28.334375 299.287219) scale(0.1 -0.1)">
       <defs>
        <path id="DejaVuSans-2e" d="M 684 794 
L 1344 794 
L 1344 0 
L 684 0 
L 684 794 
z
" transform="scale(0.015625)"/>
       </defs>
       <use xlink:href="#DejaVuSans-30"/>
       <use xlink:href="#DejaVuSans-2e" x="63.623047"/>
       <use xlink:href="#DejaVuSans-30" x="95.410156"/>
       <use xlink:href="#DejaVuSans-30" x="159.033203"/>
      </g>
     </g>
    </g>
    <g id="ytick_2">
     <g id="line2d_9">
      <g>
       <use xlink:href="#me755977eea" x="57.6" y="264.818329" style="stroke: #000000; stroke-width: 0.8"/>
      </g>
     </g>
     <g id="text_9">
      <!-- 0.05 -->
      <g transform="translate(28.334375 268.617548) scale(0.1 -0.1)">
       <use xlink:href="#DejaVuSans-30"/>
       <use xlink:href="#DejaVuSans-2e" x="63.623047"/>
       <use xlink:href="#DejaVuSans-30" x="95.410156"/>
       <use xlink:href="#DejaVuSans-35" x="159.033203"/>
      </g>
     </g>
    </g>
    <g id="ytick_3">
     <g id="line2d_10">
      <g>
       <use xlink:href="#me755977eea" x="57.6" y="234.148658" style="stroke: #000000; stroke-width: 0.8"/>
      </g>
     </g>
     <g id="text_10">
      <!-- 0.10 -->
      <g transform="translate(28.334375 237.947877) scale(0.1 -0.1)">
       <use xlink:href="#DejaVuSans-30"/>
       <use xlink:href="#DejaVuSans-2e" x="63.623047"/>
       <use xlink:href="#DejaVuSans-31" x="95.410156"/>
       <use xlink:href="#DejaVuSans-30" x="159.033203"/>
      </g>
     </g>
    </g>
    <g id="ytick_4">
     <g id="line2d_11">
      <g>
       <use xlink:href="#me755977eea" x="57.6" y="203.478987" style="stroke: #000000; stroke-width: 0.8"/>
      </g>
     </g>
     <g id="text_11">
      <!-- 0.15 -->
      <g transform="translate(28.334375 207.278206) scale(0.1 -0.1)">
       <use xlink:href="#DejaVuSans-30"/>
       <use xlink:href="#DejaVuSans-2e" x="63.623047"/>
       <use xlink:href="#DejaVuSans-31" x="95.410156"/>
       <use xlink:href="#DejaVuSans-35" x="159.033203"/>
      </g>
     </g>
    </g>
    <g id="ytick_5">
     <g id="line2d_12">
      <g>
       <use xlink:href="#me755977eea" x="57.6" y="172.809316" style="stroke: #000000; stroke-width: 0.8"/>
      </g>
     </g>
     <g id="text_12">
      <!-- 0.20 -->
      <g transform="translate(28.334375 176.608535) scale(0.1 -0.1)">
       <use xlink:href="#DejaVuSans-30"/>
       <use xlink:href="#DejaVuSans-2e" x="63.623047"/>
       <use xlink:href="#DejaVuSans-32" x="95.410156"/>
       <use xlink:href="#DejaVuSans-30" x="159.033203"/>
      </g>
     </g>
    </g>
    <g id="ytick_6">
     <g id="line2d_13">
      <g>
       <use xlink:href="#me755977eea" x="57.6" y="142.139645" style="stroke: #000000; stroke-width: 0.8"/>
      </g>
     </g>
     <g id="text_13">
      <!-- 0.25 -->
      <g transform="translate(28.334375 145.938864) scale(0.1 -0.1)">
       <use xlink:href="#DejaVuSans-30"/>
       <use xlink:href="#DejaVuSans-2e" x="63.623047"/>
       <use xlink:href="#DejaVuSans-32" x="95.410156"/>
       <use xlink:href="#DejaVuSans-35" x="159.033203"/>
      </g>
     </g>
    </g>
    <g id="ytick_7">
     <g id="line2d_14">
      <g>
       <use xlink:href="#me755977eea" x="57.6" y="111.469974" style="stroke: #000000; stroke-width: 0.8"/>
      </g>
     </g>
     <g id="text_14">
      <!-- 0.30 -->
      <g transform="translate(28.334375 115.269193) scale(0.1 -0.1)">
       <use xlink:href="#DejaVuSans-30"/>
       <use xlink:href="#DejaVuSans-2e" x="63.623047"/>
       <use xlink:href="#DejaVuSans-33" x="95.410156"/>
       <use xlink:href="#DejaVuSans-30" x="159.033203"/>
      </g>
     </g>
    </g>
    <g id="ytick_8">
     <g id="line2d_15">
      <g>
       <use xlink:href="#me755977eea" x="57.6" y="80.800303" style="stroke: #000000; stroke-width: 0.8"/>
      </g>
     </g>
     <g id="text_15">
      <!-- 0.35 -->
      <g transform="translate(28.334375 84.599521) scale(0.1 -0.1)">
       <use xlink:href="#DejaVuSans-30"/>
       <use xlink:href="#DejaVuSans-2e" x="63.623047"/>
       <use xlink:href="#DejaVuSans-33" x="95.410156"/>
       <use xlink:href="#DejaVuSans-35" x="159.033203"/>
      </g>
     </g>
    </g>
    <g id="ytick_9">
     <g id="line2d_16">
      <g>
       <use xlink:href="#me755977eea" x="57.6" y="50.130632" style="stroke: #000000; stroke-width: 0.8"/>
      </g>
     </g>
     <g id="text_16">
      <!-- 0.40 -->
      <g transform="translate(28.334375 53.92985) scale(0.1 -0.1)">
       <defs>
        <path id="DejaVuSans-34" d="M 2419 4116 
L 825 1625 
L 2419 1625 
L 2419 4116 
z
M 2253 4666 
L 3047 4666 
L 3047 1625 
L 3713 1625 
L 3713 1100 
L 3047 1100 
L 3047 0 
L 2419 0 
L 2419 1100 
L 313 1100 
L 313 1709 
L 2253 4666 
z
" transform="scale(0.015625)"/>
       </defs>
       <use xlink:href="#DejaVuSans-30"/>
       <use xlink:href="#DejaVuSans-2e" x="63.623047"/>
       <use xlink:href="#DejaVuSans-34" x="95.410156"/>
       <use xlink:href="#DejaVuSans-30" x="159.033203"/>
      </g>
     </g>
    </g>
   </g>
   <g id="line2d_17">
    <path d="M 73.832727 279.495418 
L 73.939067 279.495418 
L 74.045406 295.488 
L 74.151746 279.495418 
L 74.258085 295.488 
L 74.364425 271.910638 
L 74.577104 295.488 
L 74.789783 279.495418 
L 74.896122 279.495418 
L 75.002462 262.308368 
L 75.108801 294.80777 
L 75.321481 272.442066 
L 75.53416 282.980767 
L 75.640499 279.495418 
L 75.746839 263.066402 
L 75.853178 279.141264 
L 75.959518 257.106648 
L 76.172197 279.495418 
L 76.278536 293.60859 
L 76.491215 279.495418 
L 76.597555 278.817198 
L 76.810234 287.010512 
L 76.916573 278.33557 
L 77.022913 279.495418 
L 77.129252 278.836343 
L 77.235592 269.769544 
L 77.341931 290.022713 
L 77.448271 279.495418 
L 77.55461 281.979242 
L 77.767289 257.372202 
L 77.873629 279.495418 
L 77.979968 255.150938 
L 78.086308 264.730449 
L 78.192647 217.010944 
L 78.405327 279.495418 
L 78.618006 279.495418 
L 78.724345 272.802066 
L 78.830685 287.668821 
L 78.937024 232.479838 
L 79.043364 262.350381 
L 79.149703 230.501198 
L 79.362382 295.488 
L 79.468722 279.495418 
L 79.575061 229.241251 
L 79.681401 285.778801 
L 79.78774 274.010033 
L 79.89408 279.495418 
L 80.000419 161.298249 
L 80.213098 294.461886 
L 80.319438 295.488 
L 80.532117 286.331697 
L 80.638456 269.728542 
L 80.957475 292.275112 
L 81.063814 251.839652 
L 81.276493 279.495418 
L 81.382833 266.306677 
L 81.489172 268.297984 
L 81.595512 295.488 
L 81.701852 279.495418 
L 81.808191 294.977025 
L 81.914531 243.793754 
L 82.02087 288.918787 
L 82.233549 279.495418 
L 82.446228 279.495418 
L 82.552568 279.623053 
L 82.658907 234.230955 
L 82.765247 295.488 
L 82.871586 271.586527 
L 82.977926 281.635467 
L 83.084265 227.327382 
L 83.296944 279.495418 
L 83.403284 273.984366 
L 83.509623 276.971386 
L 83.615963 266.86021 
L 83.722302 279.495418 
L 83.828642 275.186472 
L 83.934981 292.131013 
L 84.041321 222.876096 
L 84.14766 279.495418 
L 84.254 260.168041 
L 84.466679 274.283512 
L 84.573018 279.495418 
L 84.892037 260.550403 
L 85.104716 279.495418 
L 85.317395 268.462241 
L 85.423735 295.488 
L 85.636414 253.240835 
L 85.742753 292.666163 
L 86.061772 279.495418 
L 86.274451 279.495418 
L 86.38079 264.294377 
L 86.593469 285.742377 
L 86.699809 285.741954 
L 86.806148 286.32804 
L 86.912488 244.760868 
L 87.018827 295.488 
L 87.125167 279.495418 
L 87.231506 283.434379 
L 87.444185 279.495418 
L 87.550525 232.843161 
L 87.656864 260.212055 
L 87.763204 248.427908 
L 87.975883 279.495418 
L 88.082223 234.626817 
L 88.294902 295.488 
L 88.507581 258.147961 
L 88.61392 259.485872 
L 88.72026 255.014691 
L 88.932939 294.005981 
L 89.039278 276.866035 
L 89.145618 279.98775 
L 89.251957 279.495418 
L 89.358297 248.279931 
L 89.570976 282.933496 
L 89.783655 279.495418 
L 89.889994 295.488 
L 89.996334 279.495418 
L 90.209013 292.666983 
L 90.315352 274.002938 
L 90.421692 294.323754 
L 90.528031 287.388336 
L 90.634371 261.275129 
L 90.74071 295.488 
L 90.95339 265.072045 
L 91.059729 283.687695 
L 91.166069 263.448467 
L 91.378748 283.231611 
L 91.485087 252.62978 
L 91.591427 284.603098 
L 91.804106 279.495418 
L 91.910445 261.560863 
L 92.123124 295.488 
L 92.229464 279.495418 
L 92.335803 295.452794 
L 92.442143 269.549627 
L 92.548482 295.488 
L 92.761161 270.973216 
L 92.867501 266.452386 
L 93.08018 295.488 
L 93.186519 275.920237 
L 93.292859 292.447216 
L 93.399198 268.875548 
L 93.611877 279.495418 
L 93.824556 279.495418 
L 93.930896 271.171252 
L 94.037236 279.495418 
L 94.143575 275.442329 
L 94.249915 295.488 
L 94.356254 280.76787 
L 94.462594 295.488 
L 94.675273 279.495418 
L 94.887952 244.053349 
L 94.994291 295.488 
L 95.20697 278.868971 
L 95.31331 209.547189 
L 95.419649 283.993238 
L 95.525989 279.495418 
L 95.632328 283.034163 
L 95.738668 279.957515 
L 95.845007 259.596185 
L 95.951347 295.488 
L 96.057686 271.724582 
L 96.270365 289.716406 
L 96.376705 279.495418 
L 96.483044 293.60859 
L 96.589384 271.193078 
L 96.695723 295.197904 
L 96.908402 279.495418 
L 97.014742 279.495418 
L 97.121081 295.488 
L 97.333761 224.582975 
L 97.54644 283.687695 
L 97.652779 275.518562 
L 97.759119 275.704902 
L 97.865458 272.143917 
L 98.078137 289.004516 
L 98.184477 276.545665 
L 98.290816 237.162911 
L 98.503495 279.495418 
L 98.716174 244.927513 
L 98.928853 288.78648 
L 99.035193 262.548553 
L 99.141532 285.936346 
L 99.460551 267.173612 
L 99.67323 295.488 
L 99.885909 279.495418 
L 99.992248 279.495418 
L 100.204927 271.628136 
L 100.311267 246.855237 
L 100.523946 271.195074 
L 100.630286 289.097318 
L 100.949304 279.495418 
L 101.055644 294.639472 
L 101.161983 261.627511 
L 101.374662 279.495418 
L 101.481002 280.494799 
L 101.587341 228.205798 
L 101.693681 295.488 
L 101.80002 279.495418 
L 101.90636 284.557426 
L 102.012699 295.329744 
L 102.119039 294.653017 
L 102.225378 279.495418 
L 102.331718 283.687695 
L 102.438057 249.276367 
L 102.650736 295.488 
L 102.863415 279.495418 
L 102.969755 295.488 
L 103.076094 196.0493 
L 103.288773 295.488 
L 103.395113 271.909951 
L 103.501453 277.759896 
L 103.607792 250.437794 
L 103.820471 279.495418 
L 104.03315 243.593591 
L 104.245829 279.495418 
L 104.352169 276.965839 
L 104.458508 229.754229 
L 104.564848 281.209615 
L 104.671187 279.495418 
L 104.883866 224.944005 
L 105.202885 289.60111 
L 105.309224 257.152317 
L 105.415564 293.817232 
L 105.628243 279.495418 
L 105.734582 279.495418 
L 105.840922 295.488 
L 105.947261 242.872484 
L 106.053601 279.495418 
L 106.15994 275.470039 
L 106.26628 295.488 
L 106.372619 283.72608 
L 106.478959 288.577157 
L 106.797978 262.350381 
L 106.904317 270.316865 
L 107.010657 295.488 
L 107.223336 257.099374 
L 107.329675 295.488 
L 107.542354 279.495418 
L 107.648694 281.412487 
L 107.755033 279.495418 
L 107.861373 270.177217 
L 107.967712 279.495418 
L 108.074052 272.542239 
L 108.180391 238.4756 
L 108.286731 285.345304 
L 108.49941 279.495418 
L 108.605749 279.495418 
L 108.712089 229.435626 
L 108.924768 279.495418 
L 109.137447 279.495418 
L 109.243786 295.488 
L 109.350126 279.495418 
L 109.456465 291.757385 
L 109.562805 279.495418 
L 109.669145 281.653144 
L 109.775484 286.264955 
L 109.988163 276.898161 
L 110.200842 279.495418 
L 110.307182 279.495418 
L 110.413521 270.136341 
L 110.519861 281.783816 
L 110.6262 279.495418 
L 110.73254 272.833158 
L 110.838879 275.188584 
L 111.051558 295.488 
L 111.264237 279.495418 
L 111.370577 295.488 
L 111.583256 279.495418 
L 111.689595 279.495418 
L 111.795935 273.653731 
L 111.902274 295.488 
L 112.008614 268.297984 
L 112.114953 279.495418 
L 112.221293 247.707375 
L 112.433972 295.488 
L 112.540311 295.488 
L 112.646651 264.924197 
L 112.752991 295.488 
L 112.85933 275.136748 
L 113.072009 281.209615 
L 113.284688 295.488 
L 113.391028 271.540747 
L 113.497367 287.325927 
L 113.710046 279.495418 
L 113.816386 280.7301 
L 113.922725 271.228552 
L 114.029065 284.794198 
L 114.135404 272.833158 
L 114.241744 285.310314 
L 114.348083 279.495418 
L 114.454423 295.488 
L 114.560762 275.382915 
L 114.667102 279.495418 
L 114.773441 295.488 
L 114.98612 279.495418 
L 115.198799 295.488 
L 115.517818 260.680768 
L 115.624157 294.899563 
L 115.836836 279.495418 
L 115.943176 267.694926 
L 116.049516 274.673954 
L 116.262195 295.488 
L 116.368534 295.488 
L 116.581213 279.495418 
L 116.687553 294.857506 
L 116.900232 279.495418 
L 117.21925 279.495418 
L 117.32559 286.164151 
L 117.538269 232.332591 
L 117.644608 279.495418 
L 117.750948 250.348519 
L 117.857287 295.488 
L 118.069966 269.945957 
L 118.176306 292.452715 
L 118.282645 274.913906 
L 118.388985 279.495418 
L 118.495324 212.936872 
L 118.708003 295.488 
L 118.920682 279.495418 
L 119.027022 295.488 
L 119.239701 279.495418 
L 119.346041 295.488 
L 119.55872 279.495418 
L 119.665059 280.7301 
L 119.771399 251.091272 
L 119.984078 279.495418 
L 120.090417 280.684802 
L 120.196757 279.495418 
L 120.303096 287.27416 
L 120.409436 279.495418 
L 120.515775 286.901154 
L 120.728454 279.495418 
L 120.834794 254.248486 
L 120.941133 295.488 
L 121.047473 270.611143 
L 121.260152 279.495418 
L 121.366491 279.495418 
L 121.472831 289.885593 
L 121.57917 279.495418 
L 121.791849 287.591514 
L 121.898189 246.93891 
L 122.004528 295.488 
L 122.110868 225.761098 
L 122.217208 266.93821 
L 122.323547 261.730429 
L 122.536226 279.495418 
L 122.642566 257.517765 
L 122.961584 279.495418 
L 123.067924 260.416515 
L 123.280603 295.488 
L 123.386942 279.495418 
L 123.493282 292.11091 
L 123.705961 269.808218 
L 123.91864 279.495418 
L 124.024979 279.495418 
L 124.131319 254.034983 
L 124.237658 294.502593 
L 124.343998 279.495418 
L 124.450337 295.488 
L 124.663016 279.495418 
L 124.769356 295.488 
L 124.875695 265.461049 
L 124.982035 295.488 
L 125.088374 264.261607 
L 125.301054 279.495418 
L 125.407393 293.450413 
L 125.513733 279.495418 
L 125.620072 295.488 
L 125.726412 285.791485 
L 125.832751 286.744074 
L 125.939091 251.935169 
L 126.04543 279.495418 
L 126.15177 254.959605 
L 126.364449 285.742377 
L 126.470788 279.495418 
L 126.577128 295.488 
L 126.789807 279.495418 
L 126.896146 295.488 
L 127.002486 279.495418 
L 127.108825 236.238785 
L 127.215165 279.495418 
L 127.321504 278.997087 
L 127.427844 279.495418 
L 127.534183 262.885243 
L 127.640523 270.659592 
L 127.746862 295.488 
L 127.853202 279.495418 
L 127.959541 293.013131 
L 128.065881 257.905272 
L 128.17222 295.488 
L 128.27856 272.170496 
L 128.703918 295.488 
L 128.810258 276.627539 
L 128.916597 228.270323 
L 129.129276 295.488 
L 129.235616 231.600025 
L 129.341955 285.545495 
L 129.448295 238.306909 
L 129.554634 295.488 
L 129.660974 274.438984 
L 129.767313 295.488 
L 129.979992 279.495418 
L 130.086332 295.488 
L 130.299011 279.495418 
L 130.40535 295.488 
L 130.51169 254.592918 
L 130.724369 279.495418 
L 130.830708 279.495418 
L 131.043387 291.408836 
L 131.256066 295.488 
L 131.362406 238.930618 
L 131.575085 279.495418 
L 132.000443 279.495418 
L 132.106783 280.926468 
L 132.319462 295.488 
L 132.532141 295.488 
L 132.74482 275.378487 
L 132.851159 281.982565 
L 132.957499 264.066671 
L 133.063838 285.742377 
L 133.170178 247.0392 
L 133.382857 279.495418 
L 133.489196 279.266042 
L 133.595536 279.495418 
L 133.701875 269.155396 
L 133.914554 293.428103 
L 134.020894 292.022656 
L 134.233573 295.488 
L 134.339912 279.495418 
L 134.446252 289.60111 
L 134.658931 279.495418 
L 134.765271 279.495418 
L 134.87161 231.576081 
L 134.97795 279.495418 
L 135.084289 227.824352 
L 135.296968 279.495418 
L 135.509647 295.488 
L 135.722326 269.619378 
L 135.828666 295.488 
L 135.935005 246.759746 
L 136.041345 295.488 
L 136.147684 240.651405 
L 136.360363 279.495418 
L 136.466703 278.615111 
L 136.679382 279.495418 
L 136.785721 279.495418 
L 136.892061 271.858177 
L 136.9984 279.495418 
L 137.10474 260.759738 
L 137.211079 264.474472 
L 137.530098 295.488 
L 137.636437 295.488 
L 137.849117 279.495418 
L 138.061796 279.495418 
L 138.168135 219.275703 
L 138.274475 295.488 
L 138.380814 284.150602 
L 138.487154 253.148833 
L 138.699833 279.495418 
L 138.806172 272.189314 
L 138.912512 273.277255 
L 139.018851 279.495418 
L 139.125191 253.525983 
L 139.33787 279.495418 
L 139.444209 259.732082 
L 139.550549 294.207866 
L 139.656888 279.495418 
L 139.763228 222.441836 
L 139.975907 279.495418 
L 140.082246 223.797036 
L 140.294925 279.495418 
L 140.401265 277.078467 
L 140.507604 246.205413 
L 140.613944 279.495418 
L 140.720283 257.618772 
L 141.039302 290.028485 
L 141.145642 287.279789 
L 141.358321 273.089357 
L 141.46466 240.913929 
L 141.571 279.495418 
L 141.783679 241.197613 
L 141.890018 267.694926 
L 141.996358 234.149144 
L 142.209037 294.335811 
L 142.315376 227.179094 
L 142.528055 294.641328 
L 142.634395 213.677999 
L 142.740734 291.998363 
L 142.847074 265.931732 
L 142.953413 190.955999 
L 143.059753 275.541526 
L 143.166092 260.008128 
L 143.272432 174.709942 
L 143.485111 295.488 
L 143.59145 212.230186 
L 143.69779 235.612563 
L 143.804129 295.488 
L 143.910469 243.703949 
L 144.123148 279.495418 
L 144.229488 188.774309 
L 144.335827 279.495418 
L 144.442167 205.155904 
L 144.548506 281.961037 
L 144.761185 224.557903 
L 144.867525 289.782693 
L 145.080204 170.354175 
L 145.186543 279.495418 
L 145.399222 254.738432 
L 145.505562 295.488 
L 145.611901 288.78648 
L 145.718241 262.43672 
L 145.93092 295.488 
L 146.037259 226.167066 
L 146.143599 279.495418 
L 146.249938 248.488793 
L 146.462617 287.25535 
L 146.568957 257.891892 
L 146.675296 295.488 
L 146.781636 251.677393 
L 146.994315 293.898815 
L 147.206994 279.495418 
L 147.632352 279.495418 
L 147.738692 224.459262 
L 147.951371 295.488 
L 148.16405 256.585342 
L 148.270389 279.495418 
L 148.376729 267.984922 
L 148.483068 279.495418 
L 148.589408 276.750183 
L 148.695747 279.495418 
L 148.802087 277.748991 
L 148.908426 295.488 
L 149.014766 279.495418 
L 149.121105 285.742377 
L 149.227445 279.495418 
L 149.333784 288.345449 
L 149.546463 279.495418 
L 149.759142 198.208625 
L 149.865482 295.488 
L 149.971821 279.495418 
L 150.078161 295.488 
L 150.1845 288.345449 
L 150.29084 256.383813 
L 150.39718 279.495418 
L 150.503519 225.313407 
L 150.609859 295.488 
L 150.716198 260.443245 
L 150.822538 295.488 
L 150.928877 289.741446 
L 151.035217 295.488 
L 151.247896 220.455766 
L 151.354235 226.796709 
L 151.460575 287.790545 
L 151.566914 282.468079 
L 151.673254 295.488 
L 151.779593 281.293126 
L 151.885933 289.76438 
L 152.098612 279.495418 
L 152.204951 295.488 
L 152.311291 279.495418 
L 152.41763 282.105712 
L 152.52397 295.488 
L 152.630309 251.091272 
L 152.736649 279.495418 
L 152.949328 207.517091 
L 153.055667 279.495418 
L 153.162007 279.170698 
L 153.268346 281.635467 
L 153.374686 252.092981 
L 153.481026 286.60642 
L 153.587365 251.33136 
L 153.800044 279.495418 
L 153.906384 275.365684 
L 154.119063 279.495418 
L 154.331742 295.488 
L 154.544421 276.00151 
L 154.65076 275.119045 
L 154.7571 233.672621 
L 154.863439 279.495418 
L 154.969779 276.062178 
L 155.076118 278.997087 
L 155.288797 295.488 
L 155.395137 285.530924 
L 155.607816 252.37822 
L 155.714155 278.162447 
L 155.820495 251.839652 
L 155.926834 279.495418 
L 156.139513 258.777355 
L 156.245853 295.488 
L 156.352192 279.495418 
L 156.458532 295.488 
L 156.671211 249.972941 
L 156.777551 279.495418 
L 156.88389 276.843285 
L 156.99023 294.653017 
L 157.096569 289.720539 
L 157.202909 295.488 
L 157.309248 292.606976 
L 157.415588 295.488 
L 157.521927 219.302958 
L 157.628267 279.75487 
L 157.734606 274.21483 
L 157.840946 289.309402 
L 157.947285 265.944739 
L 158.053625 295.488 
L 158.266304 258.052532 
L 158.478983 279.495418 
L 158.585322 295.488 
L 158.691662 279.495418 
L 158.798001 281.783816 
L 158.904341 279.495418 
L 159.01068 286.901765 
L 159.11702 279.495418 
L 159.223359 239.04 
L 159.329699 286.264955 
L 159.436038 279.495418 
L 159.542378 257.234715 
L 159.648718 288.430179 
L 159.755057 257.329128 
L 160.074076 288.925452 
L 160.286755 264.985139 
L 160.393094 265.821404 
L 160.712113 295.488 
L 160.924792 273.162892 
L 161.031131 279.495418 
L 161.137471 203.148864 
L 161.35015 273.138712 
L 161.456489 272.833158 
L 161.562829 269.463273 
L 161.669168 295.488 
L 161.775508 249.715172 
L 161.881847 263.008733 
L 161.988187 240.975502 
L 162.200866 281.224892 
L 162.307205 279.495418 
L 162.413545 289.736785 
L 162.519884 271.552756 
L 162.626224 295.488 
L 162.732563 279.495418 
L 162.838903 295.488 
L 162.945243 279.495418 
L 163.051582 288.746116 
L 163.264261 267.862323 
L 163.370601 295.488 
L 163.47694 275.554471 
L 163.58328 295.488 
L 163.689619 206.487792 
L 163.795959 295.488 
L 163.902298 290.710995 
L 164.114977 257.905272 
L 164.221317 277.900667 
L 164.327656 275.971227 
L 164.433996 295.488 
L 164.646675 225.816111 
L 164.859354 279.495418 
L 164.965693 295.488 
L 165.178372 277.097727 
L 165.284712 279.495418 
L 165.391051 251.011345 
L 165.497391 279.495418 
L 165.60373 265.757579 
L 165.71007 141.538909 
L 165.816409 279.495418 
L 165.922749 222.328147 
L 166.135428 294.609545 
L 166.241768 286.744074 
L 166.348107 267.333135 
L 166.454447 292.985755 
L 166.667126 256.806062 
L 166.773465 191.142442 
L 166.986144 295.488 
L 167.092484 295.488 
L 167.198823 279.495418 
L 167.305163 201.305838 
L 167.411502 279.495418 
L 167.517842 159.617231 
L 167.624181 279.495418 
L 167.730521 213.871341 
L 167.83686 279.495418 
L 167.9432 170.960591 
L 168.049539 295.488 
L 168.262218 264.250758 
L 168.368558 279.495418 
L 168.474897 230.157101 
L 168.687576 279.495418 
L 168.793916 286.868441 
L 168.900255 200.862271 
L 169.006595 295.488 
L 169.112935 279.495418 
L 169.219274 295.488 
L 169.431953 266.956324 
L 169.538293 279.495418 
L 169.644632 248.320101 
L 169.750972 295.488 
L 169.857311 244.780958 
L 169.963651 295.488 
L 170.06999 241.409306 
L 170.17633 295.488 
L 170.389009 284.602311 
L 170.601688 287.740359 
L 170.708027 283.953918 
L 170.814367 295.488 
L 170.920706 274.310773 
L 171.027046 157.686073 
L 171.239725 279.495418 
L 171.346064 295.488 
L 171.558743 276.7217 
L 171.665083 279.495418 
L 171.771422 266.738265 
L 171.877762 279.495418 
L 171.984101 199.99562 
L 172.196781 295.488 
L 172.30312 261.532281 
L 172.40946 279.495418 
L 172.515799 248.70691 
L 172.622139 279.495418 
L 172.728478 215.080614 
L 173.047497 282.557532 
L 173.153836 177.057131 
L 173.366515 295.488 
L 173.472855 295.488 
L 173.579194 279.495418 
L 173.685534 284.672707 
L 173.791873 279.495418 
L 173.898213 288.607759 
L 174.110892 270.204638 
L 174.217231 272.833158 
L 174.323571 229.608596 
L 174.42991 295.488 
L 174.642589 270.700583 
L 174.748929 279.495418 
L 174.855268 275.701431 
L 174.961608 260.475946 
L 175.067947 279.495418 
L 175.174287 276.200778 
L 175.280627 175.060828 
L 175.386966 295.488 
L 175.493306 279.495418 
L 175.599645 295.488 
L 175.705985 279.495418 
L 175.812324 289.205556 
L 175.918664 279.495418 
L 176.131343 295.488 
L 176.237682 295.204958 
L 176.344022 295.488 
L 176.450361 275.842061 
L 176.556701 295.488 
L 176.66304 260.517327 
L 176.76938 268.204151 
L 176.982059 295.244039 
L 177.088398 278.33557 
L 177.194738 295.488 
L 177.301077 261.816585 
L 177.407417 162.48829 
L 177.620096 279.495418 
L 177.726435 295.488 
L 177.939114 263.25833 
L 178.045454 279.495418 
L 178.151793 237.919458 
L 178.364473 290.325103 
L 178.577152 279.495418 
L 178.683491 270.314187 
L 178.789831 278.997087 
L 178.89617 274.333131 
L 179.00251 295.488 
L 179.108849 290.73927 
L 179.215189 257.074926 
L 179.427868 292.606976 
L 179.534207 144.994341 
L 179.746886 295.488 
L 179.853226 295.488 
L 179.959565 279.495418 
L 180.065905 242.634259 
L 180.172244 279.495418 
L 180.278584 254.839373 
L 180.384923 279.495418 
L 180.491263 247.47377 
L 180.597602 279.495418 
L 180.703942 272.760493 
L 180.810281 295.488 
L 181.02296 272.313229 
L 181.1293 274.002938 
L 181.235639 279.552385 
L 181.341979 276.26971 
L 181.448318 279.495418 
L 181.660998 147.222888 
L 181.767337 295.488 
L 181.873677 279.495418 
L 181.980016 295.488 
L 182.192695 260.299636 
L 182.299035 279.495418 
L 182.405374 271.660458 
L 182.511714 295.488 
L 182.618053 277.628387 
L 182.724393 295.488 
L 182.830732 268.25202 
L 182.937072 295.488 
L 183.149751 258.065984 
L 183.25609 264.749011 
L 183.36243 289.956142 
L 183.468769 276.965839 
L 183.575109 295.488 
L 183.681448 279.495418 
L 183.787788 241.26413 
L 184.000467 279.495418 
L 184.106806 295.488 
L 184.319485 279.495418 
L 184.425825 279.495418 
L 184.532164 295.488 
L 184.638504 271.277668 
L 184.851183 295.488 
L 184.957523 243.979424 
L 185.063862 295.488 
L 185.170202 61.414755 
L 185.276541 208.52095 
L 185.382881 61.414755 
L 185.48922 295.488 
L 185.59556 78.684192 
L 185.701899 254.085951 
L 185.914578 68.141101 
L 186.020918 295.488 
L 186.127257 250.463806 
L 186.233597 61.414755 
L 186.446276 295.301544 
L 186.552615 93.548597 
L 186.658955 219.16826 
L 186.765294 118.368323 
L 186.871634 273.512675 
L 186.977973 61.414755 
L 187.190652 294.005981 
L 187.296992 61.414755 
L 187.509671 255.637806 
L 187.61601 248.073981 
L 187.82869 61.414755 
L 188.147708 61.414755 
L 188.254048 295.488 
L 188.360387 61.414755 
L 188.466727 203.710784 
L 188.679406 61.414755 
L 188.785745 284.841203 
L 188.892085 61.414755 
L 188.998424 295.488 
L 189.104764 222.215351 
L 189.211103 61.414755 
L 189.317443 92.635531 
L 189.423782 209.084287 
L 189.530122 61.414755 
L 189.636461 92.471149 
L 189.742801 245.208437 
L 189.84914 61.414755 
L 190.061819 175.9165 
L 190.274498 61.414755 
L 190.380838 62.674108 
L 190.487177 242.567349 
L 190.593517 94.853616 
L 190.699856 123.219511 
L 190.806196 204.109905 
L 190.912536 72.627073 
L 191.018875 244.215627 
L 191.231554 201.070428 
L 191.444233 101.949709 
L 191.550573 279.495418 
L 191.656912 115.192087 
L 191.763252 276.664353 
L 191.975931 74.842621 
L 192.18861 256.763617 
L 192.294949 219.557144 
L 192.401289 274.002938 
L 192.507628 64.342857 
L 192.613968 117.722902 
L 192.720307 295.488 
L 192.932986 274.872583 
L 193.039326 181.517276 
L 193.145665 295.488 
L 193.252005 141.538909 
L 193.358344 160.496158 
L 193.464684 93.548597 
L 193.677363 265.270639 
L 193.783702 295.488 
L 193.996382 61.414755 
L 194.102721 275.238479 
L 194.209061 61.414755 
L 194.3154 155.639473 
L 194.42174 88.042297 
L 194.528079 129.189364 
L 194.634419 262.452093 
L 194.740758 176.343565 
L 194.847098 279.495418 
L 194.953437 245.347521 
L 195.059777 279.495418 
L 195.166116 64.342857 
L 195.272456 292.994443 
L 195.378795 61.414755 
L 195.591474 288.345449 
L 195.697814 61.414755 
L 195.804153 83.825128 
L 195.910493 160.409916 
L 196.016832 78.701323 
L 196.123172 128.734814 
L 196.229511 64.342857 
L 196.54853 272.833158 
L 196.654869 78.684192 
L 196.761209 93.548597 
L 196.867548 279.495418 
L 197.080227 93.548597 
L 197.186567 254.71377 
L 197.292907 119.245982 
L 197.399246 122.932838 
L 197.505586 78.684192 
L 197.824604 272.833158 
L 198.037283 78.701323 
L 198.143623 256.085719 
L 198.356302 91.541142 
L 198.462641 61.414755 
L 198.67532 235.05581 
L 198.78166 279.495418 
L 198.887999 64.342857 
L 198.994339 244.056388 
L 199.313357 64.342857 
L 199.419697 253.72209 
L 199.526036 249.354829 
L 199.738715 68.141101 
L 199.845055 265.149229 
L 199.951394 90.738659 
L 200.057734 272.833158 
L 200.164073 78.684192 
L 200.270413 81.994159 
L 200.376753 219.609612 
L 200.589432 93.548597 
L 200.695771 218.029932 
L 200.802111 119.245982 
L 200.90845 180.018895 
L 201.121129 70.994905 
L 201.227469 280.935167 
L 201.333808 272.833158 
L 201.546487 78.701323 
L 201.759166 272.833158 
L 201.971845 64.342857 
L 202.184524 254.391473 
L 202.290864 279.495418 
L 202.397203 64.342857 
L 202.609882 279.495418 
L 202.822561 64.342857 
L 202.928901 186.629554 
L 203.03524 78.684192 
L 203.14158 90.738659 
L 203.247919 73.644238 
L 203.354259 287.896592 
L 203.460599 90.738659 
L 203.566938 272.833158 
L 203.779617 61.414755 
L 203.885957 170.455086 
L 204.098636 93.548597 
L 204.204975 222.1603 
L 204.311315 119.245982 
L 204.417654 180.018895 
L 204.630333 61.414755 
L 204.736673 275.238479 
L 204.843012 243.975046 
L 205.055691 118.148679 
L 205.162031 274.002938 
L 205.37471 152.119416 
L 205.481049 176.343565 
L 205.587389 279.495418 
L 205.693728 254.51275 
L 205.800068 272.833158 
L 205.906407 64.342857 
L 206.012747 292.93261 
L 206.119086 265.134056 
L 206.225426 279.495418 
L 206.438105 64.342857 
L 206.544445 192.835538 
L 206.757124 88.628273 
L 206.863463 61.414755 
L 206.969803 71.959014 
L 207.076142 118.368323 
L 207.182482 61.414755 
L 207.5015 274.002938 
L 207.60784 104.474439 
L 207.714179 193.455912 
L 207.820519 141.538909 
L 208.033198 295.488 
L 208.139537 252.308702 
L 208.245877 279.495418 
L 208.458556 61.414755 
L 208.564895 279.495418 
L 208.777574 61.414755 
L 208.990253 226.737249 
L 209.202932 104.474439 
L 209.415611 230.490872 
L 209.521951 104.474439 
L 209.628291 231.600025 
L 209.73463 178.942248 
L 209.947309 270.772086 
L 210.159988 61.414755 
L 210.266328 270.767214 
L 210.479007 62.674108 
L 210.585346 194.416086 
L 210.798025 61.414755 
L 210.904365 160.496158 
L 211.010704 134.108309 
L 211.117044 64.342857 
L 211.223383 211.336883 
L 211.436062 118.368323 
L 211.542402 93.711185 
L 211.755081 272.833158 
L 211.96776 61.414755 
L 212.074099 240.086175 
L 212.180439 118.368323 
L 212.286778 279.495418 
L 212.393118 97.611759 
L 212.499457 212.620696 
L 212.605797 141.362772 
L 212.712136 279.495418 
L 212.818476 68.141101 
L 212.924816 197.882373 
L 213.031155 153.900213 
L 213.137495 180.018895 
L 213.243834 61.414755 
L 213.350174 78.701323 
L 213.456513 275.495496 
L 213.562853 61.414755 
L 213.775532 138.01018 
L 213.881871 266.942895 
L 213.988211 61.414755 
L 214.09455 205.232125 
L 214.20089 114.296801 
L 214.413569 295.488 
L 214.626248 61.414755 
L 214.732587 272.387261 
L 214.945266 118.368323 
L 215.051606 93.711185 
L 215.157945 208.210461 
L 215.264285 141.362772 
L 215.370624 180.018895 
L 215.476964 61.414755 
L 215.795982 279.495418 
L 215.902322 93.711185 
L 216.008662 224.442418 
L 216.115001 118.368323 
L 216.221341 279.495418 
L 216.43402 61.414755 
L 216.646699 180.018895 
L 216.753038 61.414755 
L 216.859378 83.825128 
L 216.965717 273.276001 
L 217.072057 61.414755 
L 217.178396 87.616031 
L 217.391075 180.018895 
L 217.497415 61.414755 
L 217.603754 205.232125 
L 217.710094 112.304753 
L 217.922773 295.488 
L 218.135452 61.414755 
L 218.241791 254.176796 
L 218.45447 118.368323 
L 218.56081 93.711185 
L 218.667149 215.403206 
L 218.773489 141.362772 
L 218.879828 180.018895 
L 218.986168 61.414755 
L 219.198847 195.975965 
L 219.411526 141.362772 
L 219.517866 72.627073 
L 219.730545 279.495418 
L 219.943224 118.368323 
L 220.049563 273.112079 
L 220.262242 68.141101 
L 220.368582 262.334753 
L 220.474921 129.864445 
L 220.581261 215.275521 
L 220.6876 160.496158 
L 220.79394 280.467302 
L 220.900279 93.548597 
L 221.112958 279.495418 
L 221.325637 63.779433 
L 221.538316 272.833158 
L 221.644656 253.408743 
L 221.750995 283.346483 
L 221.963674 146.824142 
L 222.070014 272.833158 
L 222.176354 61.414755 
L 222.282693 291.37525 
L 222.389033 104.474439 
L 222.601712 295.488 
L 222.814391 61.414755 
L 222.92073 206.605451 
L 223.02707 61.414755 
L 223.133409 64.342857 
L 223.239749 78.701323 
L 223.346088 248.313482 
L 223.558767 160.496158 
L 223.771446 79.745461 
L 223.877786 279.495418 
L 223.984125 144.285407 
L 224.090465 294.899563 
L 224.196804 78.684192 
L 224.303144 275.497999 
L 224.515823 61.414755 
L 224.622162 141.538909 
L 224.728502 129.821778 
L 224.834841 78.701323 
L 224.941181 216.078581 
L 225.04752 61.414755 
L 225.15386 282.359723 
L 225.2602 94.460331 
L 225.366539 267.694926 
L 225.579218 61.414755 
L 225.791897 279.495418 
L 225.898237 148.396042 
L 226.004576 241.968268 
L 226.110916 104.474439 
L 226.217255 272.833158 
L 226.323595 98.839018 
L 226.429934 214.548316 
L 226.536274 160.496158 
L 226.642613 279.495418 
L 226.748953 78.684192 
L 226.961632 276.082052 
L 227.174311 122.932838 
L 227.38699 274.913906 
L 227.493329 141.538909 
L 227.599669 279.495418 
L 227.706008 61.414755 
L 227.918687 295.488 
L 228.025027 61.414755 
L 228.131366 64.342857 
L 228.237706 293.378013 
L 228.344045 279.495418 
L 228.556725 63.779433 
L 228.769404 238.787028 
L 228.875743 272.833158 
L 229.088422 61.414755 
L 229.301101 279.495418 
L 229.407441 68.141101 
L 229.51378 231.359942 
L 229.62012 93.548597 
L 229.726459 272.833158 
L 229.832799 98.839018 
L 229.939138 149.065063 
L 230.045478 294.159437 
L 230.151817 279.495418 
L 230.258157 78.684192 
L 230.470836 248.344838 
L 230.789854 84.517327 
L 230.896194 275.197268 
L 231.002533 160.496158 
L 231.108873 279.495418 
L 231.215212 61.414755 
L 231.321552 239.202488 
L 231.534231 61.414755 
L 231.640571 64.342857 
L 231.85325 272.833158 
L 232.065929 64.745996 
L 232.278608 238.787028 
L 232.384947 272.833158 
L 232.597626 61.414755 
L 232.810305 272.833158 
L 232.916645 68.141101 
L 233.022984 243.263373 
L 233.129324 78.701323 
L 233.235663 272.833158 
L 233.448342 79.466858 
L 233.554682 295.488 
L 233.661021 276.524019 
L 233.8737 103.491812 
L 234.086379 176.343565 
L 234.192719 295.488 
L 234.299058 152.898607 
L 234.405398 180.018895 
L 234.618077 279.495418 
L 234.724417 62.674108 
L 234.830756 264.342344 
L 234.937096 205.232125 
L 235.043435 279.495418 
L 235.256114 64.342857 
L 235.468793 221.461351 
L 235.575133 279.495418 
L 235.787812 83.825128 
L 236.000491 295.488 
L 236.21317 231.485482 
L 236.319509 118.368323 
L 236.425849 279.495418 
L 236.532188 94.460331 
L 236.638528 275.238479 
L 236.744867 177.800507 
L 236.851207 295.488 
L 236.957546 197.174356 
L 237.063886 279.495418 
L 237.276565 61.414755 
L 237.382904 176.343565 
L 237.489244 61.414755 
L 237.595583 72.457809 
L 237.808263 282.344785 
L 237.914602 118.368323 
L 238.020942 295.488 
L 238.233621 68.141101 
L 238.33996 72.627073 
L 238.552639 272.833158 
L 238.658979 267.098972 
L 238.871658 61.414755 
L 238.977997 61.414755 
L 239.084337 207.677688 
L 239.190676 80.222013 
L 239.297016 178.942248 
L 239.403355 80.399687 
L 239.509695 166.093473 
L 239.616034 155.639473 
L 239.722374 90.738659 
L 239.828713 91.541142 
L 239.935053 93.711185 
L 240.147732 279.495418 
L 240.254071 279.495418 
L 240.46675 286.332273 
L 240.785769 64.342857 
L 240.998448 279.470987 
L 241.211127 87.22042 
L 241.317467 293.909048 
L 241.423806 141.362772 
L 241.530146 272.833158 
L 241.636485 78.684192 
L 241.849164 277.965519 
L 242.061843 93.548597 
L 242.168183 260.627465 
L 242.274522 94.460331 
L 242.380862 122.932838 
L 242.487201 78.684192 
L 242.69988 281.139271 
L 242.80622 272.833158 
L 243.018899 78.701323 
L 243.125238 178.904069 
L 243.337917 91.541142 
L 243.550596 176.343565 
L 243.656936 293.189896 
L 243.763275 279.495418 
L 243.869615 64.342857 
L 244.082294 274.002938 
L 244.294973 64.342857 
L 244.401313 242.754187 
L 244.507652 233.874738 
L 244.720331 68.141101 
L 244.826671 256.399329 
L 244.93301 90.738659 
L 245.03935 272.833158 
L 245.145689 78.684192 
L 245.252029 222.145136 
L 245.358368 85.620008 
L 245.464708 141.362772 
L 245.571047 93.548597 
L 245.677387 186.693884 
L 245.783726 94.460331 
L 245.890066 180.018895 
L 246.102745 64.342857 
L 246.209084 274.010033 
L 246.315424 272.833158 
L 246.528103 78.701323 
L 246.740782 272.833158 
L 246.953461 61.414755 
L 247.16614 260.835213 
L 247.27248 279.495418 
L 247.378819 64.342857 
L 247.591498 274.002938 
L 247.804177 64.342857 
L 248.016856 257.980601 
L 248.229535 279.495418 
L 248.335875 74.842621 
L 248.442214 279.495418 
L 248.548554 141.362772 
L 248.654893 279.495418 
L 248.867572 155.639473 
L 248.973912 262.59049 
L 249.080251 64.342857 
L 249.186591 97.553455 
L 249.29293 78.196695 
L 249.505609 275.922644 
L 249.718288 78.684192 
L 249.824628 255.495062 
L 249.930967 118.368323 
L 250.037307 141.362772 
L 250.143646 120.926139 
L 250.249986 180.018895 
L 250.356326 169.033918 
L 250.462665 281.439401 
L 250.781684 217.579305 
L 250.994363 73.644238 
L 251.100702 273.586983 
L 251.207042 61.414755 
L 251.313381 264.32108 
L 251.52606 61.414755 
L 251.6324 61.414755 
L 251.738739 205.232125 
L 251.845079 61.414755 
L 251.951418 62.674108 
L 252.270437 295.154813 
L 252.376776 205.432612 
L 252.483116 274.002938 
L 252.695795 61.414755 
L 252.908474 295.488 
L 253.014813 279.495418 
L 253.121153 287.387167 
L 253.333832 61.414755 
L 253.440172 219.557144 
L 253.652851 159.536656 
L 253.75919 64.342857 
L 253.86553 72.457809 
L 253.971869 165.180641 
L 254.290888 68.141101 
L 254.397227 93.548597 
L 254.716246 273.540987 
L 254.822585 68.141101 
L 254.928925 215.116915 
L 255.035264 61.414755 
L 255.141604 87.616031 
L 255.247943 196.656399 
L 255.460622 61.414755 
L 255.566962 205.232125 
L 255.673301 112.304753 
L 255.88598 295.488 
L 256.098659 64.342857 
L 256.204999 267.726796 
L 256.417678 118.368323 
L 256.524018 93.711185 
L 256.736697 272.833158 
L 256.949376 61.414755 
L 257.055715 237.301757 
L 257.162055 176.343565 
L 257.268394 279.495418 
L 257.374734 93.711185 
L 257.587413 272.833158 
L 257.693752 279.495418 
L 257.800092 68.141101 
L 257.906431 99.356087 
L 258.012771 243.025864 
L 258.22545 61.414755 
L 258.331789 78.701323 
L 258.438129 258.122228 
L 258.544468 61.414755 
L 258.650808 87.616031 
L 258.757147 78.002881 
L 258.863487 241.06515 
L 258.969826 61.414755 
L 259.076166 205.232125 
L 259.182505 112.304753 
L 259.395184 295.488 
L 259.607864 61.414755 
L 259.714203 283.768515 
L 259.926882 118.368323 
L 260.033222 93.711185 
L 260.139561 261.68434 
L 260.245901 141.362772 
L 260.35224 180.018895 
L 260.45858 61.414755 
L 260.564919 68.141101 
L 260.777598 279.495418 
L 260.883938 93.711185 
L 260.990277 230.921943 
L 261.096617 118.368323 
L 261.202956 279.495418 
L 261.415635 61.414755 
L 261.521975 205.432612 
L 261.628314 180.018895 
L 261.734654 61.414755 
L 261.840993 78.701323 
L 261.947333 269.399311 
L 262.053672 61.414755 
L 262.160012 87.616031 
L 262.266351 73.644238 
L 262.372691 279.495418 
L 262.691709 91.541142 
L 262.798049 78.701323 
L 262.904389 290.363308 
L 263.117068 134.108309 
L 263.329747 290.378059 
L 263.542426 109.884653 
L 263.755105 204.528849 
L 263.861444 122.932838 
L 263.967784 270.075478 
L 264.074123 91.541142 
L 264.180463 295.463294 
L 264.286802 274.002938 
L 264.393142 279.495418 
L 264.499481 68.141101 
L 264.71216 157.962311 
L 264.8185 118.368323 
L 265.031179 244.95256 
L 265.243858 61.414755 
L 265.350197 91.541142 
L 265.456537 295.488 
L 265.562876 232.771044 
L 265.669216 61.414755 
L 265.775555 230.687124 
L 265.988235 61.414755 
L 266.094574 61.414755 
L 266.200914 118.368323 
L 266.413593 66.880045 
L 266.519932 275.238479 
L 266.626272 248.143496 
L 266.838951 90.738659 
L 267.05163 141.538909 
L 267.157969 83.825128 
L 267.264309 275.535786 
L 267.370648 180.018895 
L 267.476988 274.648527 
L 267.689667 118.368323 
L 267.796006 61.414755 
L 267.902346 206.20602 
L 268.221364 62.674108 
L 268.327704 231.1644 
L 268.434043 94.853616 
L 268.540383 279.495418 
L 268.753062 78.701323 
L 269.072081 279.495418 
L 269.17842 168.321391 
L 269.391099 295.488 
L 269.497439 61.414755 
L 269.603778 64.342857 
L 269.816457 295.488 
L 270.029136 63.779433 
L 270.241815 274.002938 
L 270.348155 272.833158 
L 270.454494 71.959014 
L 270.560834 215.967629 
L 270.667173 195.114427 
L 270.773513 279.495418 
L 270.879852 68.141101 
L 270.986192 274.278119 
L 271.092531 104.474439 
L 271.198871 272.833158 
L 271.30521 98.839018 
L 271.41155 133.950451 
L 271.624229 279.495418 
L 271.730568 78.684192 
L 271.943247 272.665691 
L 272.262266 78.545987 
L 272.368606 249.970494 
L 272.474945 118.368323 
L 272.581285 279.495418 
L 272.687624 61.414755 
L 272.793964 250.910465 
L 273.006643 61.414755 
L 273.112982 64.342857 
L 273.325661 279.495418 
L 273.53834 63.779433 
L 273.751019 238.787028 
L 273.857359 272.833158 
L 273.963698 71.959014 
L 274.282717 272.833158 
L 274.389056 68.141101 
L 274.495396 275.563093 
L 274.601735 83.825128 
L 274.708075 272.833158 
L 274.920754 64.342857 
L 275.027093 295.488 
L 275.133433 272.833158 
L 275.239773 78.684192 
L 275.452452 240.941512 
L 275.77147 61.414755 
L 275.87781 201.609467 
L 275.984149 118.368323 
L 276.090489 279.495418 
L 276.196828 61.414755 
L 276.303168 274.457738 
L 276.515847 61.414755 
L 276.622186 64.342857 
L 276.834865 290.099952 
L 276.941205 231.57866 
L 277.153884 61.414755 
L 277.260223 295.488 
L 277.472902 118.368323 
L 277.685581 276.222466 
L 277.791921 90.738659 
L 277.89826 205.232125 
L 278.0046 118.368323 
L 278.110939 135.045723 
L 278.217279 249.171821 
L 278.323618 248.628532 
L 278.429958 83.825128 
L 278.642637 276.965839 
L 278.961656 64.342857 
L 279.067995 97.681784 
L 279.280674 269.79671 
L 279.387014 269.366942 
L 279.493353 271.04629 
L 279.599693 279.495418 
L 279.706032 141.538909 
L 279.812372 160.496158 
L 279.918711 104.474439 
L 280.13139 278.640813 
L 280.23773 295.488 
L 280.450409 61.414755 
L 280.556748 275.238479 
L 280.663088 61.414755 
L 280.769427 155.639473 
L 280.875767 83.825128 
L 281.088446 246.122282 
L 281.194785 176.343565 
L 281.301125 279.495418 
L 281.407464 235.399284 
L 281.513804 279.495418 
L 281.620144 55.978095 
L 281.726483 282.699912 
L 281.832823 61.414755 
L 282.045502 288.345449 
L 282.151841 61.414755 
L 282.36452 126.235178 
L 282.577199 62.674108 
L 282.683539 64.342857 
L 282.789878 82.684716 
L 283.002557 272.833158 
L 283.108897 78.684192 
L 283.215236 117.722902 
L 283.321576 279.495418 
L 283.534255 104.474439 
L 283.640594 222.443975 
L 283.853273 122.932838 
L 283.959613 78.684192 
L 284.065952 98.778364 
L 284.278631 272.833158 
L 284.49131 78.701323 
L 284.59765 221.103108 
L 284.810329 91.541142 
L 285.023008 217.579305 
L 285.235687 279.495418 
L 285.342027 64.342857 
L 285.448366 180.935774 
L 285.554706 176.343565 
L 285.661045 160.496158 
L 285.767385 64.342857 
L 285.980064 250.586971 
L 286.192743 68.141101 
L 286.299082 232.693056 
L 286.405422 180.018895 
L 286.511761 272.833158 
L 286.618101 78.684192 
L 286.72444 99.356087 
L 286.83078 285.306716 
L 287.043459 93.548597 
L 287.149798 232.960374 
L 287.256138 119.245982 
L 287.362477 180.018895 
L 287.468817 78.684192 
L 287.575156 113.64253 
L 287.681496 293.150199 
L 287.787836 272.833158 
L 288.000515 78.701323 
L 288.213194 272.833158 
L 288.425873 64.342857 
L 288.638552 267.560264 
L 288.744891 279.495418 
L 288.851231 64.342857 
L 289.06391 279.495418 
L 289.276589 64.342857 
L 289.382928 178.942248 
L 289.489268 78.684192 
L 289.595607 90.738659 
L 289.701947 68.141101 
L 289.808286 254.844116 
L 289.914626 90.738659 
L 290.020965 272.833158 
L 290.233644 61.414755 
L 290.339984 160.496158 
L 290.446323 141.362772 
L 290.552663 93.548597 
L 290.659002 214.048446 
L 290.765342 94.460331 
L 290.871682 180.018895 
L 291.084361 64.342857 
L 291.1907 275.238479 
L 291.29704 251.935169 
L 291.509719 118.148679 
L 291.616058 274.002938 
L 291.828737 152.119416 
L 291.935077 176.343565 
L 292.041416 279.495418 
L 292.147756 227.086129 
L 292.254095 272.833158 
L 292.360435 64.342857 
L 292.466774 68.141101 
L 292.679453 278.626909 
L 292.785793 261.136749 
L 292.892132 91.541142 
L 292.998472 189.656077 
L 293.104811 91.541142 
L 293.211151 279.495418 
L 293.31749 61.414755 
L 293.42383 71.959014 
L 293.530169 118.368323 
L 293.636509 61.414755 
L 293.849188 251.888698 
L 293.955527 274.002938 
L 294.061867 104.474439 
L 294.380886 281.414955 
L 294.487225 295.488 
L 294.593565 255.081266 
L 294.699904 279.495418 
L 294.912583 61.414755 
L 295.018923 279.495418 
L 295.231602 61.414755 
L 295.337941 206.605451 
L 295.444281 192.557146 
L 295.65696 104.474439 
L 295.869639 224.866915 
L 295.975978 78.684192 
L 296.082318 251.2128 
L 296.188657 178.942248 
L 296.294997 281.907193 
L 296.401336 262.132732 
L 296.614015 61.414755 
L 296.720355 204.050835 
L 296.933034 62.674108 
L 297.145713 139.975934 
L 297.252053 61.414755 
L 297.358392 160.496158 
L 297.464732 134.108309 
L 297.571071 64.342857 
L 297.677411 162.131509 
L 297.89009 118.368323 
L 297.996429 262.1127 
L 298.102769 256.868987 
L 298.209108 272.833158 
L 298.421787 61.414755 
L 298.528127 218.84402 
L 298.634466 118.368323 
L 298.740806 279.495418 
L 298.847145 93.711185 
L 299.059824 272.833158 
L 299.166164 279.495418 
L 299.272503 68.141101 
L 299.378843 221.535788 
L 299.591522 180.018895 
L 299.697861 61.414755 
L 299.804201 83.825128 
L 299.91054 264.347541 
L 300.01688 61.414755 
L 300.123219 87.616031 
L 300.229559 142.341213 
L 300.335899 259.734101 
L 300.442238 61.414755 
L 300.548578 205.232125 
L 300.654917 112.304753 
L 300.867596 295.488 
L 301.080275 61.414755 
L 301.186615 281.013668 
L 301.399294 118.368323 
L 301.505633 93.711185 
L 301.611973 229.621351 
L 301.718312 141.362772 
L 301.824652 180.018895 
L 301.930991 61.414755 
L 302.037331 216.235672 
L 302.14367 176.343565 
L 302.25001 279.495418 
L 302.356349 93.711185 
L 302.462689 258.086383 
L 302.569028 118.368323 
L 302.675368 279.495418 
L 302.781707 68.141101 
L 302.888047 99.356087 
L 302.994386 268.641655 
L 303.207065 61.414755 
L 303.313405 78.701323 
L 303.419745 228.477444 
L 303.526084 61.414755 
L 303.632424 87.616031 
L 303.738763 61.414755 
L 303.845103 180.018895 
L 303.951442 61.414755 
L 304.057782 205.232125 
L 304.164121 112.304753 
L 304.3768 295.488 
L 304.589479 61.414755 
L 304.695819 274.002938 
L 304.908498 118.368323 
L 305.014837 93.711185 
L 305.121177 213.083503 
L 305.227516 141.362772 
L 305.333856 180.018895 
L 305.440195 61.414755 
L 305.546535 73.644238 
L 305.652874 245.149364 
L 305.759214 239.313444 
L 305.971893 72.627073 
L 306.078232 279.495418 
L 306.184572 141.362772 
L 306.290911 176.343565 
L 306.397251 118.368323 
L 306.503591 251.636054 
L 306.60993 61.414755 
L 306.71627 68.141101 
L 306.822609 203.203093 
L 306.928949 100.195181 
L 307.035288 194.222378 
L 307.141628 160.496158 
L 307.247967 263.046307 
L 307.354307 141.538909 
L 307.566986 272.833158 
L 307.779665 63.779433 
L 307.992344 272.833158 
L 308.205023 293.016682 
L 308.311362 98.609139 
L 308.417702 146.824142 
L 308.524041 272.833158 
L 308.630381 61.414755 
L 308.73672 236.821376 
L 308.84306 93.548597 
L 309.055739 295.488 
L 309.268418 61.414755 
L 309.374757 206.605451 
L 309.481097 61.414755 
L 309.587437 64.342857 
L 309.693776 83.825128 
L 309.800116 254.286426 
L 310.012795 160.496158 
L 310.119134 118.368323 
L 310.225474 126.56537 
L 310.331813 279.495418 
L 310.438153 195.979586 
L 310.544492 270.659592 
L 310.650832 78.684192 
L 310.757171 284.323251 
L 310.96985 61.414755 
L 311.182529 158.837614 
L 311.501548 61.414755 
L 311.607887 207.143168 
L 311.714227 94.460331 
L 311.820566 272.833158 
L 312.033245 53.568 
L 312.245924 279.495418 
L 312.352264 210.521732 
L 312.458603 233.16746 
L 312.564943 104.474439 
L 312.671282 272.833158 
L 312.777622 98.839018 
L 312.883962 113.389468 
L 313.096641 279.495418 
L 313.20298 78.684192 
L 313.415659 232.076429 
L 313.628338 122.932838 
L 313.734678 132.897509 
L 313.841017 266.86021 
L 313.947357 141.538909 
L 314.053696 279.495418 
L 314.160036 61.414755 
L 314.372715 295.488 
L 314.479054 61.414755 
L 314.585394 64.342857 
L 314.798073 295.488 
L 315.010752 63.779433 
L 315.117091 249.732302 
L 315.223431 238.787028 
L 315.32977 272.833158 
L 315.43611 71.959014 
L 315.648789 279.08386 
L 315.755128 272.833158 
L 315.861468 68.141101 
L 315.967808 209.665148 
L 316.074147 78.701323 
L 316.180487 272.833158 
L 316.286826 98.839018 
L 316.393166 100.822848 
L 316.499505 277.24913 
L 316.605845 272.833158 
L 316.712184 78.684192 
L 316.924863 230.089703 
L 317.243882 70.64632 
L 317.350221 277.320098 
L 317.456561 118.368323 
L 317.5629 279.495418 
L 317.66924 61.414755 
L 317.775579 227.463085 
L 317.988258 61.414755 
L 318.094598 64.342857 
L 318.307277 272.833158 
L 318.519956 63.779433 
L 318.626295 242.695268 
L 318.732635 238.787028 
L 318.838974 272.833158 
L 319.051654 61.414755 
L 319.264333 272.833158 
L 319.370672 68.141101 
L 319.477012 244.62401 
L 319.583351 78.701323 
L 319.689691 272.833158 
L 319.90237 61.414755 
L 320.008709 295.488 
L 320.115049 270.806555 
L 320.327728 103.491812 
L 320.434067 134.108309 
L 320.540407 279.495418 
L 320.753086 152.898607 
L 320.859425 180.018895 
L 320.965765 177.796587 
L 321.072104 279.495418 
L 321.178444 62.674108 
L 321.284783 283.390239 
L 321.391123 206.845505 
L 321.497462 279.495418 
L 321.710141 64.342857 
L 321.92282 292.074793 
L 322.02916 279.495418 
L 322.241839 83.825128 
L 322.454518 295.488 
L 322.667197 238.354935 
L 322.773537 118.368323 
L 322.879876 279.495418 
L 322.986216 94.460331 
L 323.092555 275.238479 
L 323.198895 171.816628 
L 323.305234 295.488 
L 323.411574 268.316416 
L 323.517913 279.495418 
L 323.730592 61.414755 
L 323.836932 176.343565 
L 323.943271 61.414755 
L 324.049611 72.457809 
L 324.26229 254.469141 
L 324.368629 118.368323 
L 324.474969 295.488 
L 324.581308 266.530909 
L 324.687648 68.141101 
L 324.793987 80.222013 
L 324.900327 291.223544 
L 325.006666 272.833158 
L 325.113006 280.016638 
L 325.325685 61.414755 
L 325.432025 61.414755 
L 325.538364 187.488342 
L 325.644704 82.684716 
L 325.751043 178.942248 
L 325.857383 64.342857 
L 325.963722 79.630381 
L 326.070062 155.639473 
L 326.176401 90.738659 
L 326.282741 91.541142 
L 326.38908 93.711185 
L 326.601759 279.495418 
L 326.708099 279.495418 
L 326.920778 183.979145 
L 327.027117 176.343565 
L 327.133457 160.496158 
L 327.239796 64.342857 
L 327.346136 203.378659 
L 327.452475 61.414755 
L 327.558815 90.738659 
L 327.665154 68.141101 
L 327.771494 244.307551 
L 327.877833 180.018895 
L 327.984173 272.833158 
L 328.090512 78.684192 
L 328.303191 274.002938 
L 328.515871 93.548597 
L 328.62221 219.504023 
L 328.72855 94.460331 
L 328.834889 122.932838 
L 329.047568 61.414755 
L 329.260247 272.833158 
L 329.472926 78.701323 
L 329.579266 161.19329 
L 329.685605 141.362772 
L 329.791945 91.541142 
L 329.898284 106.473043 
L 330.110963 291.671208 
L 330.217303 279.495418 
L 330.323642 64.342857 
L 330.536321 279.495418 
L 330.749 64.342857 
L 330.961679 260.501403 
L 331.174358 68.141101 
L 331.280698 237.118726 
L 331.387037 122.932838 
L 331.493377 272.833158 
L 331.599717 78.684192 
L 331.706056 87.866732 
L 331.812396 295.463637 
L 332.025075 93.548597 
L 332.131414 212.786288 
L 332.237754 94.460331 
L 332.344093 180.018895 
L 332.556772 64.342857 
L 332.663112 279.495418 
L 332.769451 272.833158 
L 332.98213 78.701323 
L 333.194809 272.833158 
L 333.407488 61.414755 
L 333.513828 176.343565 
L 333.620167 170.455086 
L 333.726507 279.495418 
L 333.832846 64.342857 
L 334.045525 274.002938 
L 334.258204 64.342857 
L 334.470883 238.53357 
L 334.683563 279.495418 
L 334.789902 74.842621 
L 335.002581 286.264955 
L 335.108921 279.495418 
L 335.3216 155.639473 
L 335.427939 257.891158 
L 335.534279 64.342857 
L 335.640618 158.556156 
L 335.746958 102.107986 
L 335.853297 272.833158 
L 335.959637 263.341158 
L 336.172316 78.684192 
L 336.278655 199.630044 
L 336.491334 90.738659 
L 336.704013 122.932838 
L 336.810353 117.722902 
L 337.023032 286.665868 
L 337.129371 289.821084 
L 337.44839 73.644238 
L 337.554729 245.74199 
L 337.661069 61.414755 
L 337.767409 218.179685 
L 337.980088 61.414755 
L 338.086427 61.414755 
L 338.192767 205.232125 
L 338.299106 61.414755 
L 338.405446 62.674108 
L 338.724464 273.933789 
L 338.830804 205.432612 
L 338.937143 294.80777 
L 339.149822 61.414755 
L 339.362501 274.002938 
L 339.57518 287.26353 
L 339.787859 61.414755 
L 339.894199 219.557144 
L 340.213217 64.342857 
L 340.319557 85.099809 
L 340.425896 140.845469 
L 340.851255 61.414755 
L 341.063934 180.018895 
L 341.276613 83.825128 
L 341.382952 212.795345 
L 341.489292 61.414755 
L 341.595631 87.616031 
L 341.701971 203.421893 
L 341.91465 61.414755 
L 342.020989 205.232125 
L 342.127329 112.304753 
L 342.340008 295.488 
L 342.552687 61.414755 
L 342.659026 260.177067 
L 342.871705 118.368323 
L 342.978045 97.611759 
L 343.190724 272.833158 
L 343.403403 61.414755 
L 343.509742 236.524835 
L 343.616082 118.368323 
L 343.722421 279.495418 
L 343.828761 93.711185 
L 343.9351 223.138556 
L 344.04144 118.368323 
L 344.14778 279.495418 
L 344.254119 68.141101 
L 344.466798 208.566606 
L 344.573138 180.018895 
L 344.679477 61.414755 
L 344.785817 78.701323 
L 344.892156 233.662976 
L 344.998496 61.414755 
L 345.104835 87.616031 
L 345.317514 243.28163 
L 345.423854 61.414755 
L 345.530193 205.232125 
L 345.636533 112.304753 
L 345.849212 295.488 
L 346.061891 61.414755 
L 346.16823 174.908101 
L 346.380909 118.368323 
L 346.487249 93.711185 
L 346.806267 180.018895 
L 346.912607 69.08222 
L 347.018946 189.983058 
L 347.125286 176.343565 
L 347.231626 279.495418 
L 347.337965 93.711185 
L 347.444305 286.489626 
L 347.550644 118.368323 
L 347.656984 279.495418 
L 347.869663 61.414755 
L 348.082342 180.018895 
L 348.188681 61.414755 
L 348.295021 78.701323 
L 348.40136 246.401598 
L 348.5077 61.414755 
L 348.720379 114.291596 
L 348.826718 279.495418 
L 348.933058 269.919745 
L 349.252076 78.701323 
L 349.358416 274.002938 
L 349.571095 134.108309 
L 349.677434 274.002938 
L 349.783774 262.952661 
L 349.996453 109.884653 
L 350.209132 274.002938 
L 350.315472 122.932838 
L 350.421811 180.018895 
L 350.528151 91.541142 
L 350.63449 292.528471 
L 350.74083 274.002938 
L 350.847169 279.495418 
L 350.953509 68.141101 
L 351.166188 124.834317 
L 351.272527 118.368323 
L 351.485206 291.227129 
L 351.697885 61.414755 
L 351.804225 91.541142 
L 351.910564 295.488 
L 352.123243 61.414755 
L 352.229583 286.350838 
L 352.442262 61.414755 
L 352.548601 61.414755 
L 352.654941 118.368323 
L 352.86762 66.880045 
L 352.973959 275.238479 
L 353.080299 258.756221 
L 353.292978 90.738659 
L 353.399318 158.794741 
L 353.505657 141.538909 
L 353.611997 83.825128 
L 353.718336 279.171035 
L 353.824676 195.84347 
L 353.931015 280.142048 
L 354.143694 118.368323 
L 354.250034 61.414755 
L 354.356373 229.803417 
L 354.675392 66.01906 
L 354.781731 263.301343 
L 354.888071 94.853616 
L 354.99441 279.495418 
L 355.207089 78.701323 
L 355.526108 279.495418 
L 355.632447 197.427238 
L 355.845126 295.488 
L 355.951466 61.414755 
L 356.057805 64.342857 
L 356.164145 137.168771 
L 356.270484 295.488 
L 356.483164 63.779433 
L 356.695843 274.002938 
L 356.802182 272.833158 
L 356.908522 71.959014 
L 357.121201 289.485844 
L 357.22754 279.495418 
L 357.33388 68.141101 
L 357.440219 262.474612 
L 357.546559 93.548597 
L 357.652898 272.833158 
L 357.759238 98.839018 
L 357.865577 148.007178 
L 358.078256 279.495418 
L 358.184596 78.684192 
L 358.397275 221.164491 
L 358.716293 98.701429 
L 358.822633 259.615708 
L 358.928972 61.414755 
L 359.035312 279.495418 
L 359.141651 61.414755 
L 359.247991 246.315594 
L 359.46067 61.414755 
L 359.567009 64.342857 
L 359.779689 279.495418 
L 359.992368 63.779433 
L 360.098707 244.150519 
L 360.205047 238.787028 
L 360.311386 272.833158 
L 360.417726 71.959014 
L 360.524065 248.392325 
L 360.630405 77.147331 
L 360.736744 272.833158 
L 360.843084 68.141101 
L 360.949423 165.953352 
L 361.055763 83.825128 
L 361.162102 272.833158 
L 361.374781 93.149051 
L 361.58746 272.833158 
L 361.6938 78.684192 
L 361.906479 278.097896 
L 362.119158 122.932838 
L 362.225497 81.015539 
L 362.331837 262.248427 
L 362.438176 118.368323 
L 362.544516 279.495418 
L 362.650855 61.414755 
L 362.757195 256.663966 
L 362.969874 61.414755 
L 363.076214 64.342857 
L 363.182553 239.202738 
L 363.288893 236.050235 
L 363.607911 61.414755 
L 363.82059 295.488 
L 363.92693 118.368323 
L 364.139609 248.754885 
L 364.245948 93.548597 
L 364.352288 205.232125 
L 364.458627 118.368323 
L 364.671306 295.488 
L 364.883985 83.825128 
L 365.096664 281.224892 
L 365.415683 64.342857 
L 365.628362 160.496158 
L 365.841041 295.008967 
L 365.947381 256.664937 
L 366.05372 279.495418 
L 366.16006 141.538909 
L 366.266399 160.496158 
L 366.372739 104.474439 
L 366.479078 285.8112 
L 366.585418 272.344277 
L 366.691757 295.488 
L 366.904436 61.414755 
L 367.010776 275.238479 
L 367.117115 61.414755 
L 367.223455 155.639473 
L 367.329794 83.825128 
L 367.436134 202.077429 
L 367.648813 176.343565 
L 367.755152 265.011124 
L 367.967831 118.368323 
L 368.074171 64.342857 
L 368.18051 273.355872 
L 368.28685 61.414755 
L 368.499529 295.488 
L 368.605868 61.414755 
L 368.712208 83.825128 
L 368.818547 137.05893 
L 369.031227 67.54703 
L 369.137566 78.684192 
L 369.243906 103.303029 
L 369.350245 155.639473 
L 369.456585 272.833158 
L 369.562924 78.684192 
L 369.669264 101.317503 
L 369.775603 279.495418 
L 369.988282 104.474439 
L 370.094622 186.701772 
L 370.307301 122.932838 
L 370.41364 78.684192 
L 370.51998 220.229878 
L 370.626319 189.678648 
L 370.732659 272.833158 
L 370.945338 78.701323 
L 371.051677 199.59465 
L 371.264356 91.541142 
L 371.583375 277.662214 
L 371.689714 279.495418 
L 371.796054 64.342857 
L 371.902393 180.598402 
L 372.008733 176.343565 
L 372.115073 160.496158 
L 372.221412 64.342857 
L 372.434091 238.748147 
L 372.64677 68.141101 
L 372.75311 228.225214 
L 372.859449 180.018895 
L 372.965789 272.833158 
L 373.072128 78.684192 
L 373.284807 273.585821 
L 373.497486 93.548597 
L 373.603826 214.555843 
L 373.710165 119.245982 
L 373.816505 180.018895 
L 373.922844 78.684192 
L 374.029184 125.497209 
L 374.135523 287.559625 
L 374.241863 272.833158 
L 374.454542 78.701323 
L 374.667221 272.833158 
L 374.77356 91.541142 
L 374.8799 206.584785 
L 374.986239 193.455912 
L 375.092579 93.0859 
L 375.198919 279.495418 
L 375.305258 64.342857 
L 375.411598 112.919132 
L 375.517937 279.495418 
L 375.730616 64.342857 
L 375.943295 222.551484 
L 376.155974 68.141101 
L 376.262314 283.608093 
L 376.368653 122.932838 
L 376.474993 272.833158 
L 376.687672 61.414755 
L 376.794011 294.01333 
L 377.00669 93.548597 
L 377.11303 243.042707 
L 377.219369 119.245982 
L 377.325709 180.018895 
L 377.432048 78.684192 
L 377.538388 83.414724 
L 377.644727 275.238479 
L 377.963746 118.148679 
L 378.070085 274.002938 
L 378.176425 119.245982 
L 378.389104 176.343565 
L 378.495444 279.495418 
L 378.601783 148.141699 
L 378.708123 272.833158 
L 378.814462 64.342857 
L 378.920802 294.72502 
L 379.027141 278.537096 
L 379.23982 121.874502 
L 379.34616 68.141101 
L 379.452499 189.826813 
L 379.558839 91.541142 
L 379.665178 118.368323 
L 379.771518 61.414755 
L 379.877857 71.959014 
L 379.984197 126.481472 
L 380.090536 61.414755 
L 380.303215 214.657959 
L 380.409555 274.002938 
L 380.515894 104.474439 
L 380.622234 193.455912 
L 380.728573 141.538909 
L 380.941252 295.488 
L 381.153931 279.495418 
L 381.36661 61.414755 
L 381.47295 279.495418 
L 381.685629 61.414755 
L 381.791969 207.150209 
L 382.110987 104.474439 
L 382.217327 232.000465 
L 382.323666 205.96341 
L 382.430006 78.684192 
L 382.536345 256.908238 
L 382.642685 178.942248 
L 382.855364 284.417636 
L 383.068043 61.414755 
L 383.174382 249.482703 
L 383.387061 62.674108 
L 383.493401 104.619034 
L 383.59974 256.699616 
L 383.70608 61.414755 
L 383.812419 160.496158 
L 383.918759 134.108309 
L 384.025098 64.342857 
L 384.131438 162.131509 
L 384.344117 118.368323 
L 384.556796 294.997757 
L 384.663136 272.833158 
L 384.875815 61.414755 
L 384.982154 205.112771 
L 385.088494 118.368323 
L 385.194833 279.495418 
L 385.301173 109.463649 
L 385.620191 279.495418 
L 385.726531 68.141101 
L 385.93921 249.754272 
L 386.151889 61.414755 
L 386.258228 83.825128 
L 386.364568 257.072 
L 386.470907 61.414755 
L 386.577247 87.616031 
L 386.789926 249.01257 
L 386.896265 61.414755 
L 387.002605 205.232125 
L 387.108944 112.304753 
L 387.215284 156.947789 
L 387.321623 295.488 
L 387.534302 61.414755 
L 387.640642 239.033932 
L 387.853321 118.368323 
L 387.959661 93.711185 
L 388.066 198.809135 
L 388.17234 141.362772 
L 388.278679 180.018895 
L 388.385019 61.414755 
L 388.491358 217.705553 
L 388.597698 176.343565 
L 388.704037 279.495418 
L 388.810377 93.711185 
L 388.916716 172.9287 
L 389.023056 118.368323 
L 389.129395 279.495418 
L 389.235735 68.141101 
L 389.342074 223.95845 
L 389.448414 118.742853 
L 389.554753 180.018895 
L 389.661093 61.414755 
L 389.767432 78.701323 
L 389.873772 178.686237 
L 389.980111 61.414755 
L 390.086451 87.616031 
L 390.19279 73.644238 
L 390.29913 191.222096 
L 390.405469 61.414755 
L 390.511809 205.232125 
L 390.618148 114.296801 
L 390.830828 295.488 
L 391.043507 61.414755 
L 391.149846 236.854424 
L 391.362525 118.368323 
L 391.468865 93.711185 
L 391.575204 229.31555 
L 391.681544 141.362772 
L 391.787883 180.018895 
L 391.894223 61.414755 
L 392.213241 220.56367 
L 392.42592 72.627073 
L 392.638599 279.495418 
L 392.851278 118.368323 
L 392.957618 210.710118 
L 393.170297 68.141101 
L 393.276636 169.104155 
L 393.382976 114.291596 
L 393.489315 279.495418 
L 393.595655 160.496158 
L 393.701994 166.791927 
L 393.808334 93.548597 
L 394.021013 279.495418 
L 394.233692 63.779433 
L 394.446371 272.833158 
L 394.552711 218.422456 
L 394.65905 277.609874 
L 394.76539 143.007001 
L 394.871729 146.824142 
L 394.978069 272.833158 
L 395.084408 61.414755 
L 395.190748 292.275757 
L 395.297087 104.474439 
L 395.509766 295.488 
L 395.722445 61.414755 
L 395.828785 206.605451 
L 395.935124 61.414755 
L 396.041464 64.342857 
L 396.147803 78.701323 
L 396.254143 284.435823 
L 396.466822 160.496158 
L 396.679501 101.115904 
L 396.78584 279.495418 
L 396.89218 140.960722 
L 396.998519 280.667053 
L 397.104859 78.684192 
L 397.211199 277.057137 
L 397.423878 61.414755 
L 397.530217 141.538909 
L 397.636557 136.407629 
L 397.742896 109.884653 
L 397.849236 112.76907 
L 397.955575 61.414755 
L 398.061915 264.294403 
L 398.168254 94.460331 
L 398.274594 272.833158 
L 398.380933 71.959014 
L 398.487273 106.595244 
L 398.487273 106.595244 
" clip-path="url(#p0dfbc54e25)" style="fill: none; stroke: #1f77b4; stroke-width: 0.5; stroke-linecap: square"/>
   </g>
   <g id="patch_3">
    <path d="M 57.6 307.584 
L 57.6 41.472 
" style="fill: none; stroke: #000000; stroke-width: 0.8; stroke-linejoin: miter; stroke-linecap: square"/>
   </g>
   <g id="patch_4">
    <path d="M 414.72 307.584 
L 414.72 41.472 
" style="fill: none; stroke: #000000; stroke-width: 0.8; stroke-linejoin: miter; stroke-linecap: square"/>
   </g>
   <g id="patch_5">
    <path d="M 57.6 307.584 
L 414.72 307.584 
" style="fill: none; stroke: #000000; stroke-width: 0.8; stroke-linejoin: miter; stroke-linecap: square"/>
   </g>
   <g id="patch_6">
    <path d="M 57.6 41.472 
L 414.72 41.472 
" style="fill: none; stroke: #000000; stroke-width: 0.8; stroke-linejoin: miter; stroke-linecap: square"/>
   </g>
  </g>
 </g>
 <defs>
  <clipPath id="p0dfbc54e25">
   <rect x="57.6" y="41.472" width="357.12" height="266.112"/>
  </clipPath>
 </defs>
</svg>
